<svg width="1280" height="720" xmlns="http://www.w3.org/2000/svg" xmlns:xlink="http://www.w3.org/1999/xlink" overflow="hidden"><defs><filter id="fx0" x="-10%" y="-10%" width="120%" height="120%" filterUnits="userSpaceOnUse" primitiveUnits="userSpaceOnUse"><feComponentTransfer color-interpolation-filters="sRGB"><feFuncR type="discrete" tableValues="0 0"/><feFuncG type="discrete" tableValues="0 0"/><feFuncB type="discrete" tableValues="0 0"/><feFuncA type="linear" slope="0.4" intercept="0"/></feComponentTransfer><feGaussianBlur stdDeviation="1.77778 1.77778"/></filter><filter id="fx1" x="-10%" y="-10%" width="120%" height="120%" filterUnits="userSpaceOnUse" primitiveUnits="userSpaceOnUse"><feComponentTransfer color-interpolation-filters="sRGB"><feFuncR type="discrete" tableValues="0 0"/><feFuncG type="discrete" tableValues="0 0"/><feFuncB type="discrete" tableValues="0 0"/><feFuncA type="linear" slope="0.4" intercept="0"/></feComponentTransfer><feGaussianBlur stdDeviation="1.77778 1.77778"/></filter><clipPath id="clip2"><rect x="0" y="0" width="1280" height="720"/></clipPath><clipPath id="clip3"><path d="M251.5 155.5 251.5 376.5 591.5 376.5 591.5 155.5ZM1.90735e-05 1.07288e-05 1280 1.07288e-05 1280 720 1.90735e-05 720Z" fill-rule="evenodd" clip-rule="evenodd"/></clipPath><clipPath id="clip4"><rect x="-2" y="-2" width="358" height="238"/></clipPath><clipPath id="clip5"><rect x="0" y="0" width="355" height="236"/></clipPath><clipPath id="clip6"><rect x="15" y="13" width="37" height="31"/></clipPath><clipPath id="clip7"><rect x="0" y="0" width="66" height="63"/></clipPath></defs><g clip-path="url(#clip2)"><rect x="0" y="0" width="1280" height="720" fill="#FFFFFF"/><path d="M735.5 344.5 715.5 364.5 715.5 354.5 635.5 354.5 635.5 364.5 615.5 344.5 635.5 324.5 635.5 334.5 715.5 334.5 715.5 324.5Z" stroke="#000000" stroke-width="1.33333" stroke-miterlimit="8" fill="#FFFFFF" fill-rule="evenodd"/><path d="M397.5 515.5C397.5 495.618 413.394 479.5 433 479.5 452.606 479.5 468.5 495.618 468.5 515.5 468.5 535.382 452.606 551.5 433 551.5 413.394 551.5 397.5 535.382 397.5 515.5Z" stroke="#A5A5A5" stroke-width="1.33333" stroke-miterlimit="8" fill="#FFFFFF" fill-rule="evenodd"/><path d="M406.5 522.5C406.5 519.186 409.186 516.5 412.5 516.5 415.814 516.5 418.5 519.186 418.5 522.5 418.5 525.814 415.814 528.5 412.5 528.5 409.186 528.5 406.5 525.814 406.5 522.5Z" stroke="#787878" stroke-width="1.33333" stroke-miterlimit="8" fill="#A5A5A5" fill-rule="evenodd"/><path d="M423.5 521C423.5 517.963 425.962 515.5 429 515.5 432.038 515.5 434.5 517.963 434.5 521 434.5 524.038 432.038 526.5 429 526.5 425.962 526.5 423.5 524.038 423.5 521Z" stroke="#787878" stroke-width="1.33333" stroke-miterlimit="8" fill="#A5A5A5" fill-rule="evenodd"/><path d="M445.5 526.5C445.5 523.186 447.962 520.5 451 520.5 454.038 520.5 456.5 523.186 456.5 526.5 456.5 529.814 454.038 532.5 451 532.5 447.962 532.5 445.5 529.814 445.5 526.5Z" stroke="#787878" stroke-width="1.33333" stroke-miterlimit="8" fill="#A5A5A5" fill-rule="evenodd"/><path d="M416.5 539C416.5 535.963 418.962 533.5 422 533.5 425.038 533.5 427.5 535.963 427.5 539 427.5 542.038 425.038 544.5 422 544.5 418.962 544.5 416.5 542.038 416.5 539Z" stroke="#787878" stroke-width="1.33333" stroke-miterlimit="8" fill="#A5A5A5" fill-rule="evenodd"/><path d="M433.5 539.5C433.5 536.186 435.962 533.5 439 533.5 442.038 533.5 444.5 536.186 444.5 539.5 444.5 542.814 442.038 545.5 439 545.5 435.962 545.5 433.5 542.814 433.5 539.5Z" stroke="#787878" stroke-width="1.33333" stroke-miterlimit="8" fill="#A5A5A5" fill-rule="evenodd"/><path d="M442.5 492.5C442.5 489.186 444.962 486.5 448 486.5 451.038 486.5 453.5 489.186 453.5 492.5 453.5 495.814 451.038 498.5 448 498.5 444.962 498.5 442.5 495.814 442.5 492.5Z" stroke="#787878" stroke-width="1.33333" stroke-miterlimit="8" fill="#A5A5A5" fill-rule="evenodd"/><path d="M419.5 509.5C419.5 506.186 421.962 503.5 425 503.5 428.038 503.5 430.5 506.186 430.5 509.5 430.5 512.814 428.038 515.5 425 515.5 421.962 515.5 419.5 512.814 419.5 509.5Z" stroke="#787878" stroke-width="1.33333" stroke-miterlimit="8" fill="#A5A5A5" fill-rule="evenodd"/><path d="M434.5 515C434.5 511.962 436.962 509.5 440 509.5 443.038 509.5 445.5 511.962 445.5 515 445.5 518.038 443.038 520.5 440 520.5 436.962 520.5 434.5 518.038 434.5 515Z" stroke="#787878" stroke-width="1.33333" stroke-miterlimit="8" fill="#A5A5A5" fill-rule="evenodd"/><path d="M418.5 489C418.5 485.962 420.962 483.5 424 483.5 427.038 483.5 429.5 485.962 429.5 489 429.5 492.038 427.038 494.5 424 494.5 420.962 494.5 418.5 492.038 418.5 489Z" stroke="#787878" stroke-width="1.33333" stroke-miterlimit="8" fill="#A5A5A5" fill-rule="evenodd"/><path d="M406.5 503.5C406.5 500.186 409.186 497.5 412.5 497.5 415.814 497.5 418.5 500.186 418.5 503.5 418.5 506.814 415.814 509.5 412.5 509.5 409.186 509.5 406.5 506.814 406.5 503.5Z" stroke="#787878" stroke-width="1.33333" stroke-miterlimit="8" fill="#A5A5A5" fill-rule="evenodd"/><path d="M430.5 500C430.5 496.962 432.962 494.5 436 494.5 439.038 494.5 441.5 496.962 441.5 500 441.5 503.038 439.038 505.5 436 505.5 432.962 505.5 430.5 503.038 430.5 500Z" stroke="#787878" stroke-width="1.33333" stroke-miterlimit="8" fill="#A5A5A5" fill-rule="evenodd"/><path d="M446.5 509C446.5 505.962 448.962 503.5 452 503.5 455.038 503.5 457.5 505.962 457.5 509 457.5 512.038 455.038 514.5 452 514.5 448.962 514.5 446.5 512.038 446.5 509Z" stroke="#787878" stroke-width="1.33333" stroke-miterlimit="8" fill="#A5A5A5" fill-rule="evenodd"/><rect x="785.5" y="181" width="360.5" height="187.5" fill="#FFFFFF"/><path d="M1146 181 1208.5 118.5 1208.5 306 1146 368.5Z" fill="#CDCDCD" fill-rule="evenodd"/><path d="M785.5 181 848 118.5 1208.5 118.5 1146 181Z" fill="#FFFFFF" fill-rule="evenodd"/><path d="M785.5 181 848 118.5 1208.5 118.5 1208.5 306 1146 368.5 785.5 368.5ZM785.5 181 1146 181 1208.5 118.5M1146 181 1146 368.5" stroke="#000000" stroke-width="1.33333" stroke-miterlimit="8" fill="none" fill-rule="evenodd"/><text font-family="Calibri,Calibri_MSFontService,sans-serif" font-weight="700" font-size="24" transform="translate(958.388 282)">R</text><g clip-path="url(#clip3)"><g clip-path="url(#clip4)" filter="url(#fx0)" transform="translate(247 151)"><g clip-path="url(#clip5)"><rect x="7.32848" y="7.32848" width="340" height="221" stroke="#000000" stroke-miterlimit="8" fill="#FFFFFF"/></g></g><g clip-path="url(#clip6)" filter="url(#fx1)" transform="translate(391 240)"><g clip-path="url(#clip7)"><path d="M12.0352-10.5586C12.0352-9.70703 11.9023-8.95312 11.6367-8.29688 11.3711-7.64062 10.9844-7.08789 10.4766-6.63867 9.96875-6.18945 9.3457-5.84766 8.60742-5.61328 7.86914-5.37891 7-5.26172 6-5.26172L4.73438-5.26172 4.73438-0.421875C4.73438-0.34375 4.70898-0.273438 4.6582-0.210938 4.60742-0.148438 4.52344-0.0976562 4.40625-0.0585938 4.28906-0.0195312 4.13281 0.0117188 3.9375 0.0351562 3.74219 0.0585937 3.49219 0.0703125 3.1875 0.0703125 2.89062 0.0703125 2.64258 0.0585937 2.44336 0.0351562 2.24414 0.0117188 2.08594-0.0195312 1.96875-0.0585938 1.85156-0.0976562 1.76953-0.148438 1.72266-0.210938 1.67578-0.273438 1.65234-0.34375 1.65234-0.421875L1.65234-14.0625C1.65234-14.4297 1.74805-14.7051 1.93945-14.8887 2.13086-15.0723 2.38281-15.1641 2.69531-15.1641L6.26953-15.1641C6.62891-15.1641 6.9707-15.1504 7.29492-15.123 7.61914-15.0957 8.00781-15.0371 8.46094-14.9473 8.91406-14.8574 9.37305-14.6914 9.83789-14.4492 10.3027-14.207 10.6992-13.9004 11.0273-13.5293 11.3555-13.1582 11.6055-12.7246 11.7773-12.2285 11.9492-11.7324 12.0352-11.1758 12.0352-10.5586ZM8.8125-10.3359C8.8125-10.8672 8.71875-11.3047 8.53125-11.6484 8.34375-11.9922 8.11328-12.2461 7.83984-12.4102 7.56641-12.5742 7.2793-12.6777 6.97852-12.7207 6.67773-12.7637 6.36719-12.7852 6.04688-12.7852L4.73438-12.7852 4.73438-7.64062 6.11719-7.64062C6.60937-7.64062 7.02148-7.70703 7.35352-7.83984 7.68555-7.97266 7.95703-8.1582 8.16797-8.39648 8.37891-8.63477 8.53906-8.91992 8.64844-9.25195 8.75781-9.58398 8.8125-9.94531 8.8125-10.3359ZM22.8177-1.28906C22.8177-1.05469 22.8079-0.857422 22.7884-0.697266 22.7689-0.537109 22.7396-0.404297 22.7005-0.298828 22.6615-0.193359 22.6126-0.117187 22.554-0.0703125 22.4954-0.0234375 22.4271 0 22.349 0L15.3997 0C15.1419 0 14.9251-0.0761719 14.7493-0.228516 14.5736-0.380859 14.4857-0.628906 14.4857-0.972656L14.4857-14.7422C14.4857-14.8203 14.5111-14.8906 14.5618-14.9531 14.6126-15.0156 14.6966-15.0664 14.8138-15.1055 14.931-15.1445 15.0892-15.1758 15.2884-15.1992 15.4876-15.2227 15.7357-15.2344 16.0326-15.2344 16.3372-15.2344 16.5872-15.2227 16.7826-15.1992 16.9779-15.1758 17.1341-15.1445 17.2513-15.1055 17.3685-15.0664 17.4525-15.0156 17.5033-14.9531 17.554-14.8906 17.5794-14.8203 17.5794-14.7422L17.5794-2.54297 22.349-2.54297C22.4271-2.54297 22.4954-2.52148 22.554-2.47852 22.6126-2.43555 22.6615-2.36523 22.7005-2.26758 22.7396-2.16992 22.7689-2.04102 22.7884-1.88086 22.8079-1.7207 22.8177-1.52344 22.8177-1.28906Z" transform="translate(21.3193 36)"/></g></g></g><rect x="251.5" y="155.5" width="340" height="221" stroke="#000000" stroke-width="1.33333" stroke-miterlimit="8" fill="#FFFFFF"/><text font-family="Calibri,Calibri_MSFontService,sans-serif" font-weight="700" font-size="24" transform="translate(409.491 273)">PL</text><path d="M343.5 508 381 470.5 509.5 470.5 509.5 583 472 620.5 343.5 620.5ZM343.5 508 472 508 509.5 470.5M472 508 472 620.5" stroke="#000000" stroke-width="1.33333" stroke-miterlimit="8" fill="none" fill-rule="evenodd"/><text font-family="Calibri,Calibri_MSFontService,sans-serif" font-weight="700" font-size="24" transform="translate(374.662 571)">STMM</text><path d="M420 384.5 441.5 406 430.75 406 430.75 439 441.5 439 420 460.5 398.5 439 409.25 439 409.25 406 398.5 406Z" stroke="#000000" stroke-width="1.33333" stroke-miterlimit="8" fill="#FFFFFF" fill-rule="evenodd"/><path d="M615.5 196.25 716 196.25 716 186.5 735.5 206 716 225.5 716 215.75 615.5 215.75Z" stroke="#000000" stroke-width="1.33333" stroke-miterlimit="8" fill="#FFFFFF" fill-rule="evenodd"/><text font-family="Calibri,Calibri_MSFontService,sans-serif" font-weight="400" font-size="19" transform="translate(449.384 424)">projection</text><rect x="60.5001" y="26.5001" width="1160" height="611" stroke="#000000" stroke-width="3" stroke-miterlimit="8" stroke-dasharray="24 9" fill="none"/><text font-family="Calibri,Calibri_MSFontService,sans-serif" font-weight="700" font-size="32" transform="translate(125.875 75)">seSNN</text><rect x="679.5" y="108.5" width="94" height="63" fill="#FFFFFF"/><path d="M671.667 108.5 671.667 171.5Z" stroke="#000000" stroke-width="1.33333" stroke-miterlimit="8" fill="none" fill-rule="evenodd"/><path d="M671.667 120.313 651.011 200.059" stroke="#000000" stroke-width="1.33333" stroke-miterlimit="8" fill="none" fill-rule="evenodd"/><text font-family="Calibri,Calibri_MSFontService,sans-serif" font-style="italic" font-weight="400" font-size="16" transform="translate(688.646 126)">inference <tspan font-size="16" x="0" y="19">state </tspan><tspan font-style="normal" font-size="16" x="0" y="38">projection</tspan></text><rect x="679.5" y="243.5" width="94" height="62" fill="#FFFFFF"/><path d="M671.667 243.5 671.667 305.5Z" stroke="#000000" stroke-width="1.33333" stroke-miterlimit="8" fill="none" fill-rule="evenodd"/><path d="M671.667 255.125 651.011 341.878" stroke="#000000" stroke-width="1.33333" stroke-miterlimit="8" fill="none" fill-rule="evenodd"/><text font-family="Calibri,Calibri_MSFontService,sans-serif" font-style="italic" font-weight="400" font-size="16" transform="translate(688.646 260)">dream <tspan font-size="16" x="0" y="19">state </tspan><tspan font-style="normal" font-size="16" x="0" y="38">projection</tspan></text><path d="M1073.5 334.5C1073.5 331.186 1076.19 328.5 1079.5 328.5 1082.81 328.5 1085.5 331.186 1085.5 334.5 1085.5 337.814 1082.81 340.5 1079.5 340.5 1076.19 340.5 1073.5 337.814 1073.5 334.5Z" stroke="#000000" stroke-width="1.33333" stroke-miterlimit="8" fill-rule="evenodd"/><path d="M1196.5 186.5C1196.5 183.186 1199.19 180.5 1202.5 180.5 1205.81 180.5 1208.5 183.186 1208.5 186.5 1208.5 189.814 1205.81 192.5 1202.5 192.5 1199.19 192.5 1196.5 189.814 1196.5 186.5Z" stroke="#000000" stroke-width="1.33333" stroke-miterlimit="8" fill-rule="evenodd"/><path d="M1003.5 345C1003.5 341.962 1006.19 339.5 1009.5 339.5 1012.81 339.5 1015.5 341.962 1015.5 345 1015.5 348.038 1012.81 350.5 1009.5 350.5 1006.19 350.5 1003.5 348.038 1003.5 345Z" stroke="#000000" stroke-width="1.33333" stroke-miterlimit="8" fill-rule="evenodd"/><path d="M987.5 212C987.5 208.962 990.186 206.5 993.5 206.5 996.814 206.5 999.5 208.962 999.5 212 999.5 215.038 996.814 217.5 993.5 217.5 990.186 217.5 987.5 215.038 987.5 212Z" stroke="#000000" stroke-width="1.33333" stroke-miterlimit="8" fill-rule="evenodd"/><path d="M803.5 275C803.5 271.962 805.963 269.5 809 269.5 812.038 269.5 814.5 271.962 814.5 275 814.5 278.038 812.038 280.5 809 280.5 805.963 280.5 803.5 278.038 803.5 275Z" stroke="#000000" stroke-width="1.33333" stroke-miterlimit="8" fill-rule="evenodd"/><path d="M810.5 326.5C810.5 306.618 826.618 290.5 846.5 290.5 866.382 290.5 882.5 306.618 882.5 326.5 882.5 346.382 866.382 362.5 846.5 362.5 826.618 362.5 810.5 346.382 810.5 326.5Z" stroke="#000000" stroke-width="1.33333" stroke-miterlimit="8" fill="#FFFFFF" fill-rule="evenodd"/><path d="M820.5 333.5C820.5 330.186 822.963 327.5 826 327.5 829.038 327.5 831.5 330.186 831.5 333.5 831.5 336.814 829.038 339.5 826 339.5 822.963 339.5 820.5 336.814 820.5 333.5Z" stroke="#000000" stroke-width="1.33333" stroke-miterlimit="8" fill-rule="evenodd"/><path d="M836.5 332C836.5 328.962 838.963 326.5 842 326.5 845.038 326.5 847.5 328.962 847.5 332 847.5 335.038 845.038 337.5 842 337.5 838.963 337.5 836.5 335.038 836.5 332Z" stroke="#000000" stroke-width="1.33333" stroke-miterlimit="8" fill-rule="evenodd"/><path d="M859.5 338C859.5 334.962 861.963 332.5 865 332.5 868.038 332.5 870.5 334.962 870.5 338 870.5 341.038 868.038 343.5 865 343.5 861.963 343.5 859.5 341.038 859.5 338Z" stroke="#000000" stroke-width="1.33333" stroke-miterlimit="8" fill-rule="evenodd"/><path d="M829.5 350.5C829.5 347.186 832.186 344.5 835.5 344.5 838.814 344.5 841.5 347.186 841.5 350.5 841.5 353.814 838.814 356.5 835.5 356.5 832.186 356.5 829.5 353.814 829.5 350.5Z" stroke="#000000" stroke-width="1.33333" stroke-miterlimit="8" fill-rule="evenodd"/><path d="M846.5 350.5C846.5 347.186 849.186 344.5 852.5 344.5 855.814 344.5 858.5 347.186 858.5 350.5 858.5 353.814 855.814 356.5 852.5 356.5 849.186 356.5 846.5 353.814 846.5 350.5Z" stroke="#000000" stroke-width="1.33333" stroke-miterlimit="8" fill-rule="evenodd"/><path d="M855.5 304C855.5 300.962 857.963 298.5 861 298.5 864.038 298.5 866.5 300.962 866.5 304 866.5 307.038 864.038 309.5 861 309.5 857.963 309.5 855.5 307.038 855.5 304Z" stroke="#000000" stroke-width="1.33333" stroke-miterlimit="8" fill-rule="evenodd"/><path d="M832.5 321C832.5 317.962 835.186 315.5 838.5 315.5 841.814 315.5 844.5 317.962 844.5 321 844.5 324.038 841.814 326.5 838.5 326.5 835.186 326.5 832.5 324.038 832.5 321Z" stroke="#000000" stroke-width="1.33333" stroke-miterlimit="8" fill-rule="evenodd"/><path d="M847.5 326C847.5 322.962 850.186 320.5 853.5 320.5 856.814 320.5 859.5 322.962 859.5 326 859.5 329.038 856.814 331.5 853.5 331.5 850.186 331.5 847.5 329.038 847.5 326Z" stroke="#000000" stroke-width="1.33333" stroke-miterlimit="8" fill-rule="evenodd"/><path d="M831.5 300C831.5 296.962 833.963 294.5 837 294.5 840.038 294.5 842.5 296.962 842.5 300 842.5 303.038 840.038 305.5 837 305.5 833.963 305.5 831.5 303.038 831.5 300Z" stroke="#000000" stroke-width="1.33333" stroke-miterlimit="8" fill-rule="evenodd"/><path d="M820.5 315C820.5 311.962 822.963 309.5 826 309.5 829.038 309.5 831.5 311.962 831.5 315 831.5 318.038 829.038 320.5 826 320.5 822.963 320.5 820.5 318.038 820.5 315Z" stroke="#000000" stroke-width="1.33333" stroke-miterlimit="8" fill-rule="evenodd"/><path d="M843.5 311.5C843.5 308.186 846.186 305.5 849.5 305.5 852.814 305.5 855.5 308.186 855.5 311.5 855.5 314.814 852.814 317.5 849.5 317.5 846.186 317.5 843.5 314.814 843.5 311.5Z" stroke="#000000" stroke-width="1.33333" stroke-miterlimit="8" fill-rule="evenodd"/><path d="M859.5 320.5C859.5 317.186 861.963 314.5 865 314.5 868.038 314.5 870.5 317.186 870.5 320.5 870.5 323.814 868.038 326.5 865 326.5 861.963 326.5 859.5 323.814 859.5 320.5Z" stroke="#000000" stroke-width="1.33333" stroke-miterlimit="8" fill-rule="evenodd"/><path d="M820.5 234C820.5 214.394 836.618 198.5 856.5 198.5 876.382 198.5 892.5 214.394 892.5 234 892.5 253.606 876.382 269.5 856.5 269.5 836.618 269.5 820.5 253.606 820.5 234Z" stroke="#000000" stroke-width="1.33333" stroke-miterlimit="8" fill="#FFFFFF" fill-rule="evenodd"/><path d="M829.5 241C829.5 237.962 832.186 235.5 835.5 235.5 838.814 235.5 841.5 237.962 841.5 241 841.5 244.038 838.814 246.5 835.5 246.5 832.186 246.5 829.5 244.038 829.5 241Z" stroke="#000000" stroke-width="1.33333" stroke-miterlimit="8" fill-rule="evenodd"/><path d="M846.5 239.5C846.5 236.186 848.963 233.5 852 233.5 855.038 233.5 857.5 236.186 857.5 239.5 857.5 242.814 855.038 245.5 852 245.5 848.963 245.5 846.5 242.814 846.5 239.5Z" stroke="#000000" stroke-width="1.33333" stroke-miterlimit="8" fill-rule="evenodd"/><path d="M868.5 245C868.5 241.962 871.186 239.5 874.5 239.5 877.814 239.5 880.5 241.962 880.5 245 880.5 248.038 877.814 250.5 874.5 250.5 871.186 250.5 868.5 248.038 868.5 245Z" stroke="#000000" stroke-width="1.33333" stroke-miterlimit="8" fill-rule="evenodd"/><path d="M839.5 258C839.5 254.962 841.963 252.5 845 252.5 848.038 252.5 850.5 254.962 850.5 258 850.5 261.038 848.038 263.5 845 263.5 841.963 263.5 839.5 261.038 839.5 258Z" stroke="#000000" stroke-width="1.33333" stroke-miterlimit="8" fill-rule="evenodd"/><path d="M856.5 258C856.5 254.962 858.963 252.5 862 252.5 865.038 252.5 867.5 254.962 867.5 258 867.5 261.038 865.038 263.5 862 263.5 858.963 263.5 856.5 261.038 856.5 258Z" stroke="#000000" stroke-width="1.33333" stroke-miterlimit="8" fill-rule="evenodd"/><path d="M865.5 211C865.5 207.962 867.963 205.5 871 205.5 874.038 205.5 876.5 207.962 876.5 211 876.5 214.038 874.038 216.5 871 216.5 867.963 216.5 865.5 214.038 865.5 211Z" stroke="#000000" stroke-width="1.33333" stroke-miterlimit="8" fill-rule="evenodd"/><path d="M842.5 228C842.5 224.962 844.963 222.5 848 222.5 851.038 222.5 853.5 224.962 853.5 228 853.5 231.038 851.038 233.5 848 233.5 844.963 233.5 842.5 231.038 842.5 228Z" stroke="#000000" stroke-width="1.33333" stroke-miterlimit="8" fill-rule="evenodd"/><path d="M857.5 233.5C857.5 230.186 859.963 227.5 863 227.5 866.038 227.5 868.5 230.186 868.5 233.5 868.5 236.814 866.038 239.5 863 239.5 859.963 239.5 857.5 236.814 857.5 233.5Z" stroke="#000000" stroke-width="1.33333" stroke-miterlimit="8" fill-rule="evenodd"/><path d="M841.5 208C841.5 204.962 843.963 202.5 847 202.5 850.038 202.5 852.5 204.962 852.5 208 852.5 211.038 850.038 213.5 847 213.5 843.963 213.5 841.5 211.038 841.5 208Z" stroke="#000000" stroke-width="1.33333" stroke-miterlimit="8" fill-rule="evenodd"/><path d="M829.5 222C829.5 218.962 832.186 216.5 835.5 216.5 838.814 216.5 841.5 218.962 841.5 222 841.5 225.038 838.814 227.5 835.5 227.5 832.186 227.5 829.5 225.038 829.5 222Z" stroke="#000000" stroke-width="1.33333" stroke-miterlimit="8" fill-rule="evenodd"/><path d="M853.5 219C853.5 215.962 855.963 213.5 859 213.5 862.038 213.5 864.5 215.962 864.5 219 864.5 222.038 862.038 224.5 859 224.5 855.963 224.5 853.5 222.038 853.5 219Z" stroke="#000000" stroke-width="1.33333" stroke-miterlimit="8" fill-rule="evenodd"/><path d="M869.5 228C869.5 224.962 871.963 222.5 875 222.5 878.038 222.5 880.5 224.962 880.5 228 880.5 231.038 878.038 233.5 875 233.5 871.963 233.5 869.5 231.038 869.5 228Z" stroke="#000000" stroke-width="1.33333" stroke-miterlimit="8" fill-rule="evenodd"/><path d="M1043.5 250.5C1043.5 230.618 1059.62 214.5 1079.5 214.5 1099.38 214.5 1115.5 230.618 1115.5 250.5 1115.5 270.382 1099.38 286.5 1079.5 286.5 1059.62 286.5 1043.5 270.382 1043.5 250.5Z" stroke="#000000" stroke-width="1.33333" stroke-miterlimit="8" fill="#FFFFFF" fill-rule="evenodd"/><path d="M1053.5 258C1053.5 254.962 1055.96 252.5 1059 252.5 1062.04 252.5 1064.5 254.962 1064.5 258 1064.5 261.038 1062.04 263.5 1059 263.5 1055.96 263.5 1053.5 261.038 1053.5 258Z" stroke="#000000" stroke-width="1.33333" stroke-miterlimit="8" fill-rule="evenodd"/><path d="M1069.5 256.5C1069.5 253.186 1071.96 250.5 1075 250.5 1078.04 250.5 1080.5 253.186 1080.5 256.5 1080.5 259.814 1078.04 262.5 1075 262.5 1071.96 262.5 1069.5 259.814 1069.5 256.5Z" stroke="#000000" stroke-width="1.33333" stroke-miterlimit="8" fill-rule="evenodd"/><path d="M1092.5 262C1092.5 258.962 1094.96 256.5 1098 256.5 1101.04 256.5 1103.5 258.962 1103.5 262 1103.5 265.038 1101.04 267.5 1098 267.5 1094.96 267.5 1092.5 265.038 1092.5 262Z" stroke="#000000" stroke-width="1.33333" stroke-miterlimit="8" fill-rule="evenodd"/><path d="M1062.5 275C1062.5 271.962 1065.19 269.5 1068.5 269.5 1071.81 269.5 1074.5 271.962 1074.5 275 1074.5 278.038 1071.81 280.5 1068.5 280.5 1065.19 280.5 1062.5 278.038 1062.5 275Z" stroke="#000000" stroke-width="1.33333" stroke-miterlimit="8" fill-rule="evenodd"/><path d="M1079.5 275C1079.5 271.962 1082.19 269.5 1085.5 269.5 1088.81 269.5 1091.5 271.962 1091.5 275 1091.5 278.038 1088.81 280.5 1085.5 280.5 1082.19 280.5 1079.5 278.038 1079.5 275Z" stroke="#000000" stroke-width="1.33333" stroke-miterlimit="8" fill-rule="evenodd"/><path d="M1088.5 228C1088.5 224.962 1090.96 222.5 1094 222.5 1097.04 222.5 1099.5 224.962 1099.5 228 1099.5 231.038 1097.04 233.5 1094 233.5 1090.96 233.5 1088.5 231.038 1088.5 228Z" stroke="#000000" stroke-width="1.33333" stroke-miterlimit="8" fill-rule="evenodd"/><path d="M1065.5 245C1065.5 241.962 1068.19 239.5 1071.5 239.5 1074.81 239.5 1077.5 241.962 1077.5 245 1077.5 248.038 1074.81 250.5 1071.5 250.5 1068.19 250.5 1065.5 248.038 1065.5 245Z" stroke="#000000" stroke-width="1.33333" stroke-miterlimit="8" fill-rule="evenodd"/><path d="M1080.5 250.5C1080.5 247.186 1083.19 244.5 1086.5 244.5 1089.81 244.5 1092.5 247.186 1092.5 250.5 1092.5 253.814 1089.81 256.5 1086.5 256.5 1083.19 256.5 1080.5 253.814 1080.5 250.5Z" stroke="#000000" stroke-width="1.33333" stroke-miterlimit="8" fill-rule="evenodd"/><path d="M1064.5 224.5C1064.5 221.186 1066.96 218.5 1070 218.5 1073.04 218.5 1075.5 221.186 1075.5 224.5 1075.5 227.814 1073.04 230.5 1070 230.5 1066.96 230.5 1064.5 227.814 1064.5 224.5Z" stroke="#000000" stroke-width="1.33333" stroke-miterlimit="8" fill-rule="evenodd"/><path d="M1053.5 239C1053.5 235.962 1055.96 233.5 1059 233.5 1062.04 233.5 1064.5 235.962 1064.5 239 1064.5 242.038 1062.04 244.5 1059 244.5 1055.96 244.5 1053.5 242.038 1053.5 239Z" stroke="#000000" stroke-width="1.33333" stroke-miterlimit="8" fill-rule="evenodd"/><path d="M1076.5 236C1076.5 232.962 1079.19 230.5 1082.5 230.5 1085.81 230.5 1088.5 232.962 1088.5 236 1088.5 239.038 1085.81 241.5 1082.5 241.5 1079.19 241.5 1076.5 239.038 1076.5 236Z" stroke="#000000" stroke-width="1.33333" stroke-miterlimit="8" fill-rule="evenodd"/><path d="M1092.5 245C1092.5 241.962 1094.96 239.5 1098 239.5 1101.04 239.5 1103.5 241.962 1103.5 245 1103.5 248.038 1101.04 250.5 1098 250.5 1094.96 250.5 1092.5 248.038 1092.5 245Z" stroke="#000000" stroke-width="1.33333" stroke-miterlimit="8" fill-rule="evenodd"/><path d="M793.5 346C793.5 342.962 796.186 340.5 799.5 340.5 802.814 340.5 805.5 342.962 805.5 346 805.5 349.038 802.814 351.5 799.5 351.5 796.186 351.5 793.5 349.038 793.5 346Z" stroke="#000000" stroke-width="1.33333" stroke-miterlimit="8" fill-rule="evenodd"/><path d="M1162.5 269C1162.5 265.962 1165.19 263.5 1168.5 263.5 1171.81 263.5 1174.5 265.962 1174.5 269 1174.5 272.038 1171.81 274.5 1168.5 274.5 1165.19 274.5 1162.5 272.038 1162.5 269Z" stroke="#000000" stroke-width="1.33333" stroke-miterlimit="8" fill-rule="evenodd"/><path d="M1104.5 150C1104.5 146.962 1106.96 144.5 1110 144.5 1113.04 144.5 1115.5 146.962 1115.5 150 1115.5 153.038 1113.04 155.5 1110 155.5 1106.96 155.5 1104.5 153.038 1104.5 150Z" stroke="#000000" stroke-width="1.33333" stroke-miterlimit="8" fill-rule="evenodd"/><path d="M928.5 161C928.5 157.962 930.963 155.5 934 155.5 937.038 155.5 939.5 157.962 939.5 161 939.5 164.038 937.038 166.5 934 166.5 930.963 166.5 928.5 164.038 928.5 161Z" stroke="#000000" stroke-width="1.33333" stroke-miterlimit="8" fill-rule="evenodd"/><path d="M1009.5 155.5C1009.5 152.186 1011.96 149.5 1015 149.5 1018.04 149.5 1020.5 152.186 1020.5 155.5 1020.5 158.814 1018.04 161.5 1015 161.5 1011.96 161.5 1009.5 158.814 1009.5 155.5Z" stroke="#000000" stroke-width="1.33333" stroke-miterlimit="8" fill-rule="evenodd"/><rect x="967.5" y="508.5" width="81.9999" height="41" fill="#FFFFFF"/><path d="M960.667 508.5 960.667 549.5Z" stroke="#000000" stroke-width="1.33333" stroke-miterlimit="8" fill="none" fill-rule="evenodd"/><path d="M960.667 516.188 859.409 360.728" stroke="#000000" stroke-width="1.33333" stroke-miterlimit="8" fill="none" fill-rule="evenodd"/><text font-family="Calibri,Calibri_MSFontService,sans-serif" font-style="italic" font-weight="400" font-size="16" transform="translate(981.202 525)">memory <tspan font-size="16" x="7.87335" y="19">group</tspan></text><rect x="1049.5" y="430.5" width="80" height="41" fill="#FFFFFF"/><path d="M1042.83 430.5 1042.83 471.5Z" stroke="#000000" stroke-width="1.33333" stroke-miterlimit="8" fill="none" fill-rule="evenodd"/><path d="M1042.83 438.188 947.466 353.01" stroke="#000000" stroke-width="1.33333" stroke-miterlimit="8" fill="none" fill-rule="evenodd"/><text font-family="Calibri,Calibri_MSFontService,sans-serif" font-weight="400" font-size="16" transform="translate(1062.33 456)">neurons</text><path d="M938.5 351C938.5 347.962 940.963 345.5 944 345.5 947.038 345.5 949.5 347.962 949.5 351 949.5 354.038 947.038 356.5 944 356.5 940.963 356.5 938.5 354.038 938.5 351Z" stroke="#000000" stroke-width="1.33333" stroke-miterlimit="8" fill-rule="evenodd"/><path d="M909.5 206C909.5 202.962 912.186 200.5 915.5 200.5 918.814 200.5 921.5 202.962 921.5 206 921.5 209.038 918.814 211.5 915.5 211.5 912.186 211.5 909.5 209.038 909.5 206Z" stroke="#000000" stroke-width="1.33333" stroke-miterlimit="8" fill-rule="evenodd"/><path d="M267.5 173C267.5 169.962 269.962 167.5 273 167.5 276.038 167.5 278.5 169.962 278.5 173 278.5 176.038 276.038 178.5 273 178.5 269.962 178.5 267.5 176.038 267.5 173Z" stroke="#000000" stroke-width="1.33333" stroke-miterlimit="8" fill-rule="evenodd"/><path d="M282.5 189C282.5 185.962 284.962 183.5 288 183.5 291.038 183.5 293.5 185.962 293.5 189 293.5 192.038 291.038 194.5 288 194.5 284.962 194.5 282.5 192.038 282.5 189Z" stroke="#000000" stroke-width="1.33333" stroke-miterlimit="8" fill-rule="evenodd"/><path d="M266.5 189C266.5 185.962 269.186 183.5 272.5 183.5 275.814 183.5 278.5 185.962 278.5 189 278.5 192.038 275.814 194.5 272.5 194.5 269.186 194.5 266.5 192.038 266.5 189Z" stroke="#000000" stroke-width="1.33333" stroke-miterlimit="8" fill-rule="evenodd"/><path d="M282.5 173C282.5 169.962 284.962 167.5 288 167.5 291.038 167.5 293.5 169.962 293.5 173 293.5 176.038 291.038 178.5 288 178.5 284.962 178.5 282.5 176.038 282.5 173Z" stroke="#000000" stroke-width="1.33333" stroke-miterlimit="8" fill-rule="evenodd"/><path d="M300.5 173C300.5 169.962 302.962 167.5 306 167.5 309.038 167.5 311.5 169.962 311.5 173 311.5 176.038 309.038 178.5 306 178.5 302.962 178.5 300.5 176.038 300.5 173Z" stroke="#000000" stroke-width="1.33333" stroke-miterlimit="8" fill-rule="evenodd"/><path d="M315.5 189C315.5 185.962 318.186 183.5 321.5 183.5 324.814 183.5 327.5 185.962 327.5 189 327.5 192.038 324.814 194.5 321.5 194.5 318.186 194.5 315.5 192.038 315.5 189Z" stroke="#000000" stroke-width="1.33333" stroke-miterlimit="8" fill-rule="evenodd"/><path d="M300.5 189C300.5 185.962 302.962 183.5 306 183.5 309.038 183.5 311.5 185.962 311.5 189 311.5 192.038 309.038 194.5 306 194.5 302.962 194.5 300.5 192.038 300.5 189Z" stroke="#000000" stroke-width="1.33333" stroke-miterlimit="8" fill-rule="evenodd"/><path d="M315.5 173C315.5 169.962 318.186 167.5 321.5 167.5 324.814 167.5 327.5 169.962 327.5 173 327.5 176.038 324.814 178.5 321.5 178.5 318.186 178.5 315.5 176.038 315.5 173Z" stroke="#000000" stroke-width="1.33333" stroke-miterlimit="8" fill-rule="evenodd"/><path d="M333.5 173C333.5 169.962 335.962 167.5 339 167.5 342.038 167.5 344.5 169.962 344.5 173 344.5 176.038 342.038 178.5 339 178.5 335.962 178.5 333.5 176.038 333.5 173Z" stroke="#000000" stroke-width="1.33333" stroke-miterlimit="8" fill-rule="evenodd"/><path d="M348.5 189C348.5 185.962 351.186 183.5 354.5 183.5 357.814 183.5 360.5 185.962 360.5 189 360.5 192.038 357.814 194.5 354.5 194.5 351.186 194.5 348.5 192.038 348.5 189Z" stroke="#000000" stroke-width="1.33333" stroke-miterlimit="8" fill-rule="evenodd"/><path d="M332.5 189C332.5 185.962 335.186 183.5 338.5 183.5 341.814 183.5 344.5 185.962 344.5 189 344.5 192.038 341.814 194.5 338.5 194.5 335.186 194.5 332.5 192.038 332.5 189Z" stroke="#000000" stroke-width="1.33333" stroke-miterlimit="8" fill-rule="evenodd"/><path d="M348.5 173C348.5 169.962 351.186 167.5 354.5 167.5 357.814 167.5 360.5 169.962 360.5 173 360.5 176.038 357.814 178.5 354.5 178.5 351.186 178.5 348.5 176.038 348.5 173Z" stroke="#000000" stroke-width="1.33333" stroke-miterlimit="8" fill-rule="evenodd"/><path d="M366.5 173C366.5 169.962 368.962 167.5 372 167.5 375.038 167.5 377.5 169.962 377.5 173 377.5 176.038 375.038 178.5 372 178.5 368.962 178.5 366.5 176.038 366.5 173Z" stroke="#000000" stroke-width="1.33333" stroke-miterlimit="8" fill-rule="evenodd"/><path d="M381.5 189C381.5 185.962 384.186 183.5 387.5 183.5 390.814 183.5 393.5 185.962 393.5 189 393.5 192.038 390.814 194.5 387.5 194.5 384.186 194.5 381.5 192.038 381.5 189Z" stroke="#000000" stroke-width="1.33333" stroke-miterlimit="8" fill-rule="evenodd"/><path d="M366.5 189C366.5 185.962 368.962 183.5 372 183.5 375.038 183.5 377.5 185.962 377.5 189 377.5 192.038 375.038 194.5 372 194.5 368.962 194.5 366.5 192.038 366.5 189Z" stroke="#000000" stroke-width="1.33333" stroke-miterlimit="8" fill-rule="evenodd"/><path d="M381.5 173C381.5 169.962 384.186 167.5 387.5 167.5 390.814 167.5 393.5 169.962 393.5 173 393.5 176.038 390.814 178.5 387.5 178.5 384.186 178.5 381.5 176.038 381.5 173Z" stroke="#000000" stroke-width="1.33333" stroke-miterlimit="8" fill-rule="evenodd"/><path d="M400.5 173.5C400.5 170.186 402.962 167.5 406 167.5 409.038 167.5 411.5 170.186 411.5 173.5 411.5 176.814 409.038 179.5 406 179.5 402.962 179.5 400.5 176.814 400.5 173.5Z" stroke="#000000" stroke-width="1.33333" stroke-miterlimit="8" fill-rule="evenodd"/><path d="M416.5 190C416.5 186.962 418.962 184.5 422 184.5 425.038 184.5 427.5 186.962 427.5 190 427.5 193.038 425.038 195.5 422 195.5 418.962 195.5 416.5 193.038 416.5 190Z" stroke="#000000" stroke-width="1.33333" stroke-miterlimit="8" fill-rule="evenodd"/><path d="M400.5 190C400.5 186.962 402.962 184.5 406 184.5 409.038 184.5 411.5 186.962 411.5 190 411.5 193.038 409.038 195.5 406 195.5 402.962 195.5 400.5 193.038 400.5 190Z" stroke="#000000" stroke-width="1.33333" stroke-miterlimit="8" fill-rule="evenodd"/><path d="M416.5 173.5C416.5 170.186 418.962 167.5 422 167.5 425.038 167.5 427.5 170.186 427.5 173.5 427.5 176.814 425.038 179.5 422 179.5 418.962 179.5 416.5 176.814 416.5 173.5Z" stroke="#000000" stroke-width="1.33333" stroke-miterlimit="8" fill-rule="evenodd"/><path d="M433.5 173.5C433.5 170.186 436.186 167.5 439.5 167.5 442.814 167.5 445.5 170.186 445.5 173.5 445.5 176.814 442.814 179.5 439.5 179.5 436.186 179.5 433.5 176.814 433.5 173.5Z" stroke="#000000" stroke-width="1.33333" stroke-miterlimit="8" fill-rule="evenodd"/><path d="M449.5 190C449.5 186.962 451.962 184.5 455 184.5 458.038 184.5 460.5 186.962 460.5 190 460.5 193.038 458.038 195.5 455 195.5 451.962 195.5 449.5 193.038 449.5 190Z" stroke="#000000" stroke-width="1.33333" stroke-miterlimit="8" fill-rule="evenodd"/><path d="M433.5 190C433.5 186.962 435.962 184.5 439 184.5 442.038 184.5 444.5 186.962 444.5 190 444.5 193.038 442.038 195.5 439 195.5 435.962 195.5 433.5 193.038 433.5 190Z" stroke="#000000" stroke-width="1.33333" stroke-miterlimit="8" fill-rule="evenodd"/><path d="M449.5 173.5C449.5 170.186 451.962 167.5 455 167.5 458.038 167.5 460.5 170.186 460.5 173.5 460.5 176.814 458.038 179.5 455 179.5 451.962 179.5 449.5 176.814 449.5 173.5Z" stroke="#000000" stroke-width="1.33333" stroke-miterlimit="8" fill-rule="evenodd"/><path d="M466.5 173C466.5 169.962 468.962 167.5 472 167.5 475.038 167.5 477.5 169.962 477.5 173 477.5 176.038 475.038 178.5 472 178.5 468.962 178.5 466.5 176.038 466.5 173Z" stroke="#000000" stroke-width="1.33333" stroke-miterlimit="8" fill-rule="evenodd"/><path d="M482.5 189.5C482.5 186.186 484.962 183.5 488 183.5 491.038 183.5 493.5 186.186 493.5 189.5 493.5 192.814 491.038 195.5 488 195.5 484.962 195.5 482.5 192.814 482.5 189.5Z" stroke="#000000" stroke-width="1.33333" stroke-miterlimit="8" fill-rule="evenodd"/><path d="M466.5 189.5C466.5 186.186 468.962 183.5 472 183.5 475.038 183.5 477.5 186.186 477.5 189.5 477.5 192.814 475.038 195.5 472 195.5 468.962 195.5 466.5 192.814 466.5 189.5Z" stroke="#000000" stroke-width="1.33333" stroke-miterlimit="8" fill-rule="evenodd"/><path d="M482.5 173C482.5 169.962 484.962 167.5 488 167.5 491.038 167.5 493.5 169.962 493.5 173 493.5 176.038 491.038 178.5 488 178.5 484.962 178.5 482.5 176.038 482.5 173Z" stroke="#000000" stroke-width="1.33333" stroke-miterlimit="8" fill-rule="evenodd"/><path d="M499.5 173C499.5 169.962 502.186 167.5 505.5 167.5 508.814 167.5 511.5 169.962 511.5 173 511.5 176.038 508.814 178.5 505.5 178.5 502.186 178.5 499.5 176.038 499.5 173Z" stroke="#000000" stroke-width="1.33333" stroke-miterlimit="8" fill-rule="evenodd"/><path d="M515.5 189.5C515.5 186.186 517.963 183.5 521 183.5 524.038 183.5 526.5 186.186 526.5 189.5 526.5 192.814 524.038 195.5 521 195.5 517.963 195.5 515.5 192.814 515.5 189.5Z" stroke="#000000" stroke-width="1.33333" stroke-miterlimit="8" fill-rule="evenodd"/><path d="M499.5 189.5C499.5 186.186 502.186 183.5 505.5 183.5 508.814 183.5 511.5 186.186 511.5 189.5 511.5 192.814 508.814 195.5 505.5 195.5 502.186 195.5 499.5 192.814 499.5 189.5Z" stroke="#000000" stroke-width="1.33333" stroke-miterlimit="8" fill-rule="evenodd"/><path d="M515.5 173C515.5 169.962 517.963 167.5 521 167.5 524.038 167.5 526.5 169.962 526.5 173 526.5 176.038 524.038 178.5 521 178.5 517.963 178.5 515.5 176.038 515.5 173Z" stroke="#000000" stroke-width="1.33333" stroke-miterlimit="8" fill-rule="evenodd"/><path d="M532.5 173C532.5 169.962 535.186 167.5 538.5 167.5 541.814 167.5 544.5 169.962 544.5 173 544.5 176.038 541.814 178.5 538.5 178.5 535.186 178.5 532.5 176.038 532.5 173Z" stroke="#000000" stroke-width="1.33333" stroke-miterlimit="8" fill-rule="evenodd"/><path d="M548.5 189C548.5 185.962 550.963 183.5 554 183.5 557.038 183.5 559.5 185.962 559.5 189 559.5 192.038 557.038 194.5 554 194.5 550.963 194.5 548.5 192.038 548.5 189Z" stroke="#000000" stroke-width="1.33333" stroke-miterlimit="8" fill-rule="evenodd"/><path d="M532.5 189C532.5 185.962 534.963 183.5 538 183.5 541.038 183.5 543.5 185.962 543.5 189 543.5 192.038 541.038 194.5 538 194.5 534.963 194.5 532.5 192.038 532.5 189Z" stroke="#000000" stroke-width="1.33333" stroke-miterlimit="8" fill-rule="evenodd"/><path d="M548.5 173C548.5 169.962 550.963 167.5 554 167.5 557.038 167.5 559.5 169.962 559.5 173 559.5 176.038 557.038 178.5 554 178.5 550.963 178.5 548.5 176.038 548.5 173Z" stroke="#000000" stroke-width="1.33333" stroke-miterlimit="8" fill-rule="evenodd"/><path d="M566.5 173C566.5 169.962 568.963 167.5 572 167.5 575.038 167.5 577.5 169.962 577.5 173 577.5 176.038 575.038 178.5 572 178.5 568.963 178.5 566.5 176.038 566.5 173Z" stroke="#000000" stroke-width="1.33333" stroke-miterlimit="8" fill-rule="evenodd"/><path d="M565.5 189C565.5 185.962 568.186 183.5 571.5 183.5 574.814 183.5 577.5 185.962 577.5 189 577.5 192.038 574.814 194.5 571.5 194.5 568.186 194.5 565.5 192.038 565.5 189Z" stroke="#000000" stroke-width="1.33333" stroke-miterlimit="8" fill-rule="evenodd"/><path d="M267.5 206C267.5 202.962 269.962 200.5 273 200.5 276.038 200.5 278.5 202.962 278.5 206 278.5 209.038 276.038 211.5 273 211.5 269.962 211.5 267.5 209.038 267.5 206Z" stroke="#000000" stroke-width="1.33333" stroke-miterlimit="8" fill-rule="evenodd"/><path d="M282.5 222C282.5 218.962 284.962 216.5 288 216.5 291.038 216.5 293.5 218.962 293.5 222 293.5 225.038 291.038 227.5 288 227.5 284.962 227.5 282.5 225.038 282.5 222Z" stroke="#000000" stroke-width="1.33333" stroke-miterlimit="8" fill-rule="evenodd"/><path d="M266.5 222C266.5 218.962 269.186 216.5 272.5 216.5 275.814 216.5 278.5 218.962 278.5 222 278.5 225.038 275.814 227.5 272.5 227.5 269.186 227.5 266.5 225.038 266.5 222Z" stroke="#000000" stroke-width="1.33333" stroke-miterlimit="8" fill-rule="evenodd"/><path d="M282.5 206C282.5 202.962 284.962 200.5 288 200.5 291.038 200.5 293.5 202.962 293.5 206 293.5 209.038 291.038 211.5 288 211.5 284.962 211.5 282.5 209.038 282.5 206Z" stroke="#000000" stroke-width="1.33333" stroke-miterlimit="8" fill-rule="evenodd"/><path d="M300.5 206C300.5 202.962 302.962 200.5 306 200.5 309.038 200.5 311.5 202.962 311.5 206 311.5 209.038 309.038 211.5 306 211.5 302.962 211.5 300.5 209.038 300.5 206Z" stroke="#000000" stroke-width="1.33333" stroke-miterlimit="8" fill-rule="evenodd"/><path d="M315.5 222C315.5 218.962 318.186 216.5 321.5 216.5 324.814 216.5 327.5 218.962 327.5 222 327.5 225.038 324.814 227.5 321.5 227.5 318.186 227.5 315.5 225.038 315.5 222Z" stroke="#000000" stroke-width="1.33333" stroke-miterlimit="8" fill-rule="evenodd"/><path d="M300.5 222C300.5 218.962 302.962 216.5 306 216.5 309.038 216.5 311.5 218.962 311.5 222 311.5 225.038 309.038 227.5 306 227.5 302.962 227.5 300.5 225.038 300.5 222Z" stroke="#000000" stroke-width="1.33333" stroke-miterlimit="8" fill-rule="evenodd"/><path d="M315.5 206C315.5 202.962 318.186 200.5 321.5 200.5 324.814 200.5 327.5 202.962 327.5 206 327.5 209.038 324.814 211.5 321.5 211.5 318.186 211.5 315.5 209.038 315.5 206Z" stroke="#000000" stroke-width="1.33333" stroke-miterlimit="8" fill-rule="evenodd"/><path d="M333.5 205.5C333.5 202.186 335.962 199.5 339 199.5 342.038 199.5 344.5 202.186 344.5 205.5 344.5 208.814 342.038 211.5 339 211.5 335.962 211.5 333.5 208.814 333.5 205.5Z" stroke="#000000" stroke-width="1.33333" stroke-miterlimit="8" fill-rule="evenodd"/><path d="M348.5 222C348.5 218.962 351.186 216.5 354.5 216.5 357.814 216.5 360.5 218.962 360.5 222 360.5 225.038 357.814 227.5 354.5 227.5 351.186 227.5 348.5 225.038 348.5 222Z" stroke="#000000" stroke-width="1.33333" stroke-miterlimit="8" fill-rule="evenodd"/><path d="M332.5 222C332.5 218.962 335.186 216.5 338.5 216.5 341.814 216.5 344.5 218.962 344.5 222 344.5 225.038 341.814 227.5 338.5 227.5 335.186 227.5 332.5 225.038 332.5 222Z" stroke="#000000" stroke-width="1.33333" stroke-miterlimit="8" fill-rule="evenodd"/><path d="M348.5 205.5C348.5 202.186 351.186 199.5 354.5 199.5 357.814 199.5 360.5 202.186 360.5 205.5 360.5 208.814 357.814 211.5 354.5 211.5 351.186 211.5 348.5 208.814 348.5 205.5Z" stroke="#000000" stroke-width="1.33333" stroke-miterlimit="8" fill-rule="evenodd"/><path d="M366.5 205.5C366.5 202.186 368.962 199.5 372 199.5 375.038 199.5 377.5 202.186 377.5 205.5 377.5 208.814 375.038 211.5 372 211.5 368.962 211.5 366.5 208.814 366.5 205.5Z" stroke="#000000" stroke-width="1.33333" stroke-miterlimit="8" fill-rule="evenodd"/><path d="M381.5 222C381.5 218.962 384.186 216.5 387.5 216.5 390.814 216.5 393.5 218.962 393.5 222 393.5 225.038 390.814 227.5 387.5 227.5 384.186 227.5 381.5 225.038 381.5 222Z" stroke="#000000" stroke-width="1.33333" stroke-miterlimit="8" fill-rule="evenodd"/><path d="M366.5 222C366.5 218.962 368.962 216.5 372 216.5 375.038 216.5 377.5 218.962 377.5 222 377.5 225.038 375.038 227.5 372 227.5 368.962 227.5 366.5 225.038 366.5 222Z" stroke="#000000" stroke-width="1.33333" stroke-miterlimit="8" fill-rule="evenodd"/><path d="M381.5 205.5C381.5 202.186 384.186 199.5 387.5 199.5 390.814 199.5 393.5 202.186 393.5 205.5 393.5 208.814 390.814 211.5 387.5 211.5 384.186 211.5 381.5 208.814 381.5 205.5Z" stroke="#000000" stroke-width="1.33333" stroke-miterlimit="8" fill-rule="evenodd"/><path d="M400.5 206C400.5 202.962 402.962 200.5 406 200.5 409.038 200.5 411.5 202.962 411.5 206 411.5 209.038 409.038 211.5 406 211.5 402.962 211.5 400.5 209.038 400.5 206Z" stroke="#000000" stroke-width="1.33333" stroke-miterlimit="8" fill-rule="evenodd"/><path d="M416.5 222.5C416.5 219.186 418.962 216.5 422 216.5 425.038 216.5 427.5 219.186 427.5 222.5 427.5 225.814 425.038 228.5 422 228.5 418.962 228.5 416.5 225.814 416.5 222.5Z" stroke="#000000" stroke-width="1.33333" stroke-miterlimit="8" fill-rule="evenodd"/><path d="M400.5 222.5C400.5 219.186 402.962 216.5 406 216.5 409.038 216.5 411.5 219.186 411.5 222.5 411.5 225.814 409.038 228.5 406 228.5 402.962 228.5 400.5 225.814 400.5 222.5Z" stroke="#000000" stroke-width="1.33333" stroke-miterlimit="8" fill-rule="evenodd"/><path d="M416.5 206C416.5 202.962 418.962 200.5 422 200.5 425.038 200.5 427.5 202.962 427.5 206 427.5 209.038 425.038 211.5 422 211.5 418.962 211.5 416.5 209.038 416.5 206Z" stroke="#000000" stroke-width="1.33333" stroke-miterlimit="8" fill-rule="evenodd"/><path d="M433.5 206C433.5 202.962 436.186 200.5 439.5 200.5 442.814 200.5 445.5 202.962 445.5 206 445.5 209.038 442.814 211.5 439.5 211.5 436.186 211.5 433.5 209.038 433.5 206Z" stroke="#000000" stroke-width="1.33333" stroke-miterlimit="8" fill-rule="evenodd"/><path d="M449.5 222.5C449.5 219.186 451.962 216.5 455 216.5 458.038 216.5 460.5 219.186 460.5 222.5 460.5 225.814 458.038 228.5 455 228.5 451.962 228.5 449.5 225.814 449.5 222.5Z" stroke="#000000" stroke-width="1.33333" stroke-miterlimit="8" fill-rule="evenodd"/><path d="M433.5 222.5C433.5 219.186 435.962 216.5 439 216.5 442.038 216.5 444.5 219.186 444.5 222.5 444.5 225.814 442.038 228.5 439 228.5 435.962 228.5 433.5 225.814 433.5 222.5Z" stroke="#000000" stroke-width="1.33333" stroke-miterlimit="8" fill-rule="evenodd"/><path d="M449.5 206C449.5 202.962 451.962 200.5 455 200.5 458.038 200.5 460.5 202.962 460.5 206 460.5 209.038 458.038 211.5 455 211.5 451.962 211.5 449.5 209.038 449.5 206Z" stroke="#000000" stroke-width="1.33333" stroke-miterlimit="8" fill-rule="evenodd"/><path d="M466.5 206C466.5 202.962 468.962 200.5 472 200.5 475.038 200.5 477.5 202.962 477.5 206 477.5 209.038 475.038 211.5 472 211.5 468.962 211.5 466.5 209.038 466.5 206Z" stroke="#000000" stroke-width="1.33333" stroke-miterlimit="8" fill-rule="evenodd"/><path d="M482.5 222.5C482.5 219.186 484.962 216.5 488 216.5 491.038 216.5 493.5 219.186 493.5 222.5 493.5 225.814 491.038 228.5 488 228.5 484.962 228.5 482.5 225.814 482.5 222.5Z" stroke="#000000" stroke-width="1.33333" stroke-miterlimit="8" fill-rule="evenodd"/><path d="M466.5 222.5C466.5 219.186 468.962 216.5 472 216.5 475.038 216.5 477.5 219.186 477.5 222.5 477.5 225.814 475.038 228.5 472 228.5 468.962 228.5 466.5 225.814 466.5 222.5Z" stroke="#000000" stroke-width="1.33333" stroke-miterlimit="8" fill-rule="evenodd"/><path d="M482.5 206C482.5 202.962 484.962 200.5 488 200.5 491.038 200.5 493.5 202.962 493.5 206 493.5 209.038 491.038 211.5 488 211.5 484.962 211.5 482.5 209.038 482.5 206Z" stroke="#000000" stroke-width="1.33333" stroke-miterlimit="8" fill-rule="evenodd"/><path d="M499.5 206C499.5 202.962 502.186 200.5 505.5 200.5 508.814 200.5 511.5 202.962 511.5 206 511.5 209.038 508.814 211.5 505.5 211.5 502.186 211.5 499.5 209.038 499.5 206Z" stroke="#000000" stroke-width="1.33333" stroke-miterlimit="8" fill-rule="evenodd"/><path d="M515.5 222.5C515.5 219.186 517.963 216.5 521 216.5 524.038 216.5 526.5 219.186 526.5 222.5 526.5 225.814 524.038 228.5 521 228.5 517.963 228.5 515.5 225.814 515.5 222.5Z" stroke="#000000" stroke-width="1.33333" stroke-miterlimit="8" fill-rule="evenodd"/><path d="M499.5 222.5C499.5 219.186 502.186 216.5 505.5 216.5 508.814 216.5 511.5 219.186 511.5 222.5 511.5 225.814 508.814 228.5 505.5 228.5 502.186 228.5 499.5 225.814 499.5 222.5Z" stroke="#000000" stroke-width="1.33333" stroke-miterlimit="8" fill-rule="evenodd"/><path d="M515.5 206C515.5 202.962 517.963 200.5 521 200.5 524.038 200.5 526.5 202.962 526.5 206 526.5 209.038 524.038 211.5 521 211.5 517.963 211.5 515.5 209.038 515.5 206Z" stroke="#000000" stroke-width="1.33333" stroke-miterlimit="8" fill-rule="evenodd"/><path d="M532.5 205.5C532.5 202.186 535.186 199.5 538.5 199.5 541.814 199.5 544.5 202.186 544.5 205.5 544.5 208.814 541.814 211.5 538.5 211.5 535.186 211.5 532.5 208.814 532.5 205.5Z" stroke="#000000" stroke-width="1.33333" stroke-miterlimit="8" fill-rule="evenodd"/><path d="M548.5 222C548.5 218.962 550.963 216.5 554 216.5 557.038 216.5 559.5 218.962 559.5 222 559.5 225.038 557.038 227.5 554 227.5 550.963 227.5 548.5 225.038 548.5 222Z" stroke="#000000" stroke-width="1.33333" stroke-miterlimit="8" fill-rule="evenodd"/><path d="M532.5 222C532.5 218.962 534.963 216.5 538 216.5 541.038 216.5 543.5 218.962 543.5 222 543.5 225.038 541.038 227.5 538 227.5 534.963 227.5 532.5 225.038 532.5 222Z" stroke="#000000" stroke-width="1.33333" stroke-miterlimit="8" fill-rule="evenodd"/><path d="M548.5 205.5C548.5 202.186 550.963 199.5 554 199.5 557.038 199.5 559.5 202.186 559.5 205.5 559.5 208.814 557.038 211.5 554 211.5 550.963 211.5 548.5 208.814 548.5 205.5Z" stroke="#000000" stroke-width="1.33333" stroke-miterlimit="8" fill-rule="evenodd"/><path d="M566.5 205.5C566.5 202.186 568.963 199.5 572 199.5 575.038 199.5 577.5 202.186 577.5 205.5 577.5 208.814 575.038 211.5 572 211.5 568.963 211.5 566.5 208.814 566.5 205.5Z" stroke="#000000" stroke-width="1.33333" stroke-miterlimit="8" fill-rule="evenodd"/><path d="M565.5 222C565.5 218.962 568.186 216.5 571.5 216.5 574.814 216.5 577.5 218.962 577.5 222 577.5 225.038 574.814 227.5 571.5 227.5 568.186 227.5 565.5 225.038 565.5 222Z" stroke="#000000" stroke-width="1.33333" stroke-miterlimit="8" fill-rule="evenodd"/><path d="M266.5 239.5C266.5 236.186 268.962 233.5 272 233.5 275.038 233.5 277.5 236.186 277.5 239.5 277.5 242.814 275.038 245.5 272 245.5 268.962 245.5 266.5 242.814 266.5 239.5Z" stroke="#000000" stroke-width="1.33333" stroke-miterlimit="8" fill-rule="evenodd"/><path d="M282.5 256C282.5 252.962 284.962 250.5 288 250.5 291.038 250.5 293.5 252.962 293.5 256 293.5 259.038 291.038 261.5 288 261.5 284.962 261.5 282.5 259.038 282.5 256Z" stroke="#000000" stroke-width="1.33333" stroke-miterlimit="8" fill-rule="evenodd"/><path d="M266.5 256C266.5 252.962 268.962 250.5 272 250.5 275.038 250.5 277.5 252.962 277.5 256 277.5 259.038 275.038 261.5 272 261.5 268.962 261.5 266.5 259.038 266.5 256Z" stroke="#000000" stroke-width="1.33333" stroke-miterlimit="8" fill-rule="evenodd"/><path d="M282.5 239.5C282.5 236.186 284.962 233.5 288 233.5 291.038 233.5 293.5 236.186 293.5 239.5 293.5 242.814 291.038 245.5 288 245.5 284.962 245.5 282.5 242.814 282.5 239.5Z" stroke="#000000" stroke-width="1.33333" stroke-miterlimit="8" fill-rule="evenodd"/><path d="M299.5 239.5C299.5 236.186 302.186 233.5 305.5 233.5 308.814 233.5 311.5 236.186 311.5 239.5 311.5 242.814 308.814 245.5 305.5 245.5 302.186 245.5 299.5 242.814 299.5 239.5Z" stroke="#000000" stroke-width="1.33333" stroke-miterlimit="8" fill-rule="evenodd"/><path d="M315.5 256C315.5 252.962 317.962 250.5 321 250.5 324.038 250.5 326.5 252.962 326.5 256 326.5 259.038 324.038 261.5 321 261.5 317.962 261.5 315.5 259.038 315.5 256Z" stroke="#000000" stroke-width="1.33333" stroke-miterlimit="8" fill-rule="evenodd"/><path d="M299.5 256C299.5 252.962 302.186 250.5 305.5 250.5 308.814 250.5 311.5 252.962 311.5 256 311.5 259.038 308.814 261.5 305.5 261.5 302.186 261.5 299.5 259.038 299.5 256Z" stroke="#000000" stroke-width="1.33333" stroke-miterlimit="8" fill-rule="evenodd"/><path d="M315.5 239.5C315.5 236.186 317.962 233.5 321 233.5 324.038 233.5 326.5 236.186 326.5 239.5 326.5 242.814 324.038 245.5 321 245.5 317.962 245.5 315.5 242.814 315.5 239.5Z" stroke="#000000" stroke-width="1.33333" stroke-miterlimit="8" fill-rule="evenodd"/><path d="M332.5 239.5C332.5 236.186 335.186 233.5 338.5 233.5 341.814 233.5 344.5 236.186 344.5 239.5 344.5 242.814 341.814 245.5 338.5 245.5 335.186 245.5 332.5 242.814 332.5 239.5Z" stroke="#000000" stroke-width="1.33333" stroke-miterlimit="8" fill-rule="evenodd"/><path d="M348.5 256C348.5 252.962 350.962 250.5 354 250.5 357.038 250.5 359.5 252.962 359.5 256 359.5 259.038 357.038 261.5 354 261.5 350.962 261.5 348.5 259.038 348.5 256Z" stroke="#000000" stroke-width="1.33333" stroke-miterlimit="8" fill-rule="evenodd"/><path d="M332.5 256C332.5 252.962 334.962 250.5 338 250.5 341.038 250.5 343.5 252.962 343.5 256 343.5 259.038 341.038 261.5 338 261.5 334.962 261.5 332.5 259.038 332.5 256Z" stroke="#000000" stroke-width="1.33333" stroke-miterlimit="8" fill-rule="evenodd"/><path d="M348.5 239.5C348.5 236.186 350.962 233.5 354 233.5 357.038 233.5 359.5 236.186 359.5 239.5 359.5 242.814 357.038 245.5 354 245.5 350.962 245.5 348.5 242.814 348.5 239.5Z" stroke="#000000" stroke-width="1.33333" stroke-miterlimit="8" fill-rule="evenodd"/><path d="M366.5 239.5C366.5 236.186 368.962 233.5 372 233.5 375.038 233.5 377.5 236.186 377.5 239.5 377.5 242.814 375.038 245.5 372 245.5 368.962 245.5 366.5 242.814 366.5 239.5Z" stroke="#000000" stroke-width="1.33333" stroke-miterlimit="8" fill-rule="evenodd"/><path d="M381.5 256C381.5 252.962 383.962 250.5 387 250.5 390.038 250.5 392.5 252.962 392.5 256 392.5 259.038 390.038 261.5 387 261.5 383.962 261.5 381.5 259.038 381.5 256Z" stroke="#000000" stroke-width="1.33333" stroke-miterlimit="8" fill-rule="evenodd"/><path d="M365.5 256C365.5 252.962 368.186 250.5 371.5 250.5 374.814 250.5 377.5 252.962 377.5 256 377.5 259.038 374.814 261.5 371.5 261.5 368.186 261.5 365.5 259.038 365.5 256Z" stroke="#000000" stroke-width="1.33333" stroke-miterlimit="8" fill-rule="evenodd"/><path d="M381.5 239.5C381.5 236.186 383.962 233.5 387 233.5 390.038 233.5 392.5 236.186 392.5 239.5 392.5 242.814 390.038 245.5 387 245.5 383.962 245.5 381.5 242.814 381.5 239.5Z" stroke="#000000" stroke-width="1.33333" stroke-miterlimit="8" fill-rule="evenodd"/><path d="M448.5 256.5C448.5 253.186 451.186 250.5 454.5 250.5 457.814 250.5 460.5 253.186 460.5 256.5 460.5 259.814 457.814 262.5 454.5 262.5 451.186 262.5 448.5 259.814 448.5 256.5Z" stroke="#000000" stroke-width="1.33333" stroke-miterlimit="8" fill-rule="evenodd"/><path d="M448.5 240C448.5 236.962 451.186 234.5 454.5 234.5 457.814 234.5 460.5 236.962 460.5 240 460.5 243.038 457.814 245.5 454.5 245.5 451.186 245.5 448.5 243.038 448.5 240Z" stroke="#000000" stroke-width="1.33333" stroke-miterlimit="8" fill-rule="evenodd"/><path d="M466.5 240C466.5 236.962 468.962 234.5 472 234.5 475.038 234.5 477.5 236.962 477.5 240 477.5 243.038 475.038 245.5 472 245.5 468.962 245.5 466.5 243.038 466.5 240Z" stroke="#000000" stroke-width="1.33333" stroke-miterlimit="8" fill-rule="evenodd"/><path d="M481.5 256C481.5 252.962 484.186 250.5 487.5 250.5 490.814 250.5 493.5 252.962 493.5 256 493.5 259.038 490.814 261.5 487.5 261.5 484.186 261.5 481.5 259.038 481.5 256Z" stroke="#000000" stroke-width="1.33333" stroke-miterlimit="8" fill-rule="evenodd"/><path d="M465.5 256C465.5 252.962 468.186 250.5 471.5 250.5 474.814 250.5 477.5 252.962 477.5 256 477.5 259.038 474.814 261.5 471.5 261.5 468.186 261.5 465.5 259.038 465.5 256Z" stroke="#000000" stroke-width="1.33333" stroke-miterlimit="8" fill-rule="evenodd"/><path d="M481.5 240C481.5 236.962 484.186 234.5 487.5 234.5 490.814 234.5 493.5 236.962 493.5 240 493.5 243.038 490.814 245.5 487.5 245.5 484.186 245.5 481.5 243.038 481.5 240Z" stroke="#000000" stroke-width="1.33333" stroke-miterlimit="8" fill-rule="evenodd"/><path d="M499.5 240C499.5 236.962 501.962 234.5 505 234.5 508.038 234.5 510.5 236.962 510.5 240 510.5 243.038 508.038 245.5 505 245.5 501.962 245.5 499.5 243.038 499.5 240Z" stroke="#000000" stroke-width="1.33333" stroke-miterlimit="8" fill-rule="evenodd"/><path d="M514.5 256C514.5 252.962 517.186 250.5 520.5 250.5 523.814 250.5 526.5 252.962 526.5 256 526.5 259.038 523.814 261.5 520.5 261.5 517.186 261.5 514.5 259.038 514.5 256Z" stroke="#000000" stroke-width="1.33333" stroke-miterlimit="8" fill-rule="evenodd"/><path d="M499.5 256C499.5 252.962 501.962 250.5 505 250.5 508.038 250.5 510.5 252.962 510.5 256 510.5 259.038 508.038 261.5 505 261.5 501.962 261.5 499.5 259.038 499.5 256Z" stroke="#000000" stroke-width="1.33333" stroke-miterlimit="8" fill-rule="evenodd"/><path d="M514.5 240C514.5 236.962 517.186 234.5 520.5 234.5 523.814 234.5 526.5 236.962 526.5 240 526.5 243.038 523.814 245.5 520.5 245.5 517.186 245.5 514.5 243.038 514.5 240Z" stroke="#000000" stroke-width="1.33333" stroke-miterlimit="8" fill-rule="evenodd"/><path d="M532.5 239.5C532.5 236.186 534.963 233.5 538 233.5 541.038 233.5 543.5 236.186 543.5 239.5 543.5 242.814 541.038 245.5 538 245.5 534.963 245.5 532.5 242.814 532.5 239.5Z" stroke="#000000" stroke-width="1.33333" stroke-miterlimit="8" fill-rule="evenodd"/><path d="M547.5 256C547.5 252.962 550.186 250.5 553.5 250.5 556.814 250.5 559.5 252.962 559.5 256 559.5 259.038 556.814 261.5 553.5 261.5 550.186 261.5 547.5 259.038 547.5 256Z" stroke="#000000" stroke-width="1.33333" stroke-miterlimit="8" fill-rule="evenodd"/><path d="M532.5 256C532.5 252.962 534.963 250.5 538 250.5 541.038 250.5 543.5 252.962 543.5 256 543.5 259.038 541.038 261.5 538 261.5 534.963 261.5 532.5 259.038 532.5 256Z" stroke="#000000" stroke-width="1.33333" stroke-miterlimit="8" fill-rule="evenodd"/><path d="M547.5 239.5C547.5 236.186 550.186 233.5 553.5 233.5 556.814 233.5 559.5 236.186 559.5 239.5 559.5 242.814 556.814 245.5 553.5 245.5 550.186 245.5 547.5 242.814 547.5 239.5Z" stroke="#000000" stroke-width="1.33333" stroke-miterlimit="8" fill-rule="evenodd"/><path d="M565.5 239.5C565.5 236.186 567.963 233.5 571 233.5 574.038 233.5 576.5 236.186 576.5 239.5 576.5 242.814 574.038 245.5 571 245.5 567.963 245.5 565.5 242.814 565.5 239.5Z" stroke="#000000" stroke-width="1.33333" stroke-miterlimit="8" fill-rule="evenodd"/><path d="M565.5 256C565.5 252.962 567.963 250.5 571 250.5 574.038 250.5 576.5 252.962 576.5 256 576.5 259.038 574.038 261.5 571 261.5 567.963 261.5 565.5 259.038 565.5 256Z" stroke="#000000" stroke-width="1.33333" stroke-miterlimit="8" fill-rule="evenodd"/><path d="M266.5 272C266.5 268.962 268.962 266.5 272 266.5 275.038 266.5 277.5 268.962 277.5 272 277.5 275.038 275.038 277.5 272 277.5 268.962 277.5 266.5 275.038 266.5 272Z" stroke="#000000" stroke-width="1.33333" stroke-miterlimit="8" fill-rule="evenodd"/><path d="M282.5 288.5C282.5 285.186 284.962 282.5 288 282.5 291.038 282.5 293.5 285.186 293.5 288.5 293.5 291.814 291.038 294.5 288 294.5 284.962 294.5 282.5 291.814 282.5 288.5Z" stroke="#000000" stroke-width="1.33333" stroke-miterlimit="8" fill-rule="evenodd"/><path d="M266.5 288.5C266.5 285.186 268.962 282.5 272 282.5 275.038 282.5 277.5 285.186 277.5 288.5 277.5 291.814 275.038 294.5 272 294.5 268.962 294.5 266.5 291.814 266.5 288.5Z" stroke="#000000" stroke-width="1.33333" stroke-miterlimit="8" fill-rule="evenodd"/><path d="M282.5 272C282.5 268.962 284.962 266.5 288 266.5 291.038 266.5 293.5 268.962 293.5 272 293.5 275.038 291.038 277.5 288 277.5 284.962 277.5 282.5 275.038 282.5 272Z" stroke="#000000" stroke-width="1.33333" stroke-miterlimit="8" fill-rule="evenodd"/><path d="M299.5 272C299.5 268.962 302.186 266.5 305.5 266.5 308.814 266.5 311.5 268.962 311.5 272 311.5 275.038 308.814 277.5 305.5 277.5 302.186 277.5 299.5 275.038 299.5 272Z" stroke="#000000" stroke-width="1.33333" stroke-miterlimit="8" fill-rule="evenodd"/><path d="M315.5 288.5C315.5 285.186 317.962 282.5 321 282.5 324.038 282.5 326.5 285.186 326.5 288.5 326.5 291.814 324.038 294.5 321 294.5 317.962 294.5 315.5 291.814 315.5 288.5Z" stroke="#000000" stroke-width="1.33333" stroke-miterlimit="8" fill-rule="evenodd"/><path d="M299.5 288.5C299.5 285.186 302.186 282.5 305.5 282.5 308.814 282.5 311.5 285.186 311.5 288.5 311.5 291.814 308.814 294.5 305.5 294.5 302.186 294.5 299.5 291.814 299.5 288.5Z" stroke="#000000" stroke-width="1.33333" stroke-miterlimit="8" fill-rule="evenodd"/><path d="M315.5 272C315.5 268.962 317.962 266.5 321 266.5 324.038 266.5 326.5 268.962 326.5 272 326.5 275.038 324.038 277.5 321 277.5 317.962 277.5 315.5 275.038 315.5 272Z" stroke="#000000" stroke-width="1.33333" stroke-miterlimit="8" fill-rule="evenodd"/><path d="M332.5 272C332.5 268.962 335.186 266.5 338.5 266.5 341.814 266.5 344.5 268.962 344.5 272 344.5 275.038 341.814 277.5 338.5 277.5 335.186 277.5 332.5 275.038 332.5 272Z" stroke="#000000" stroke-width="1.33333" stroke-miterlimit="8" fill-rule="evenodd"/><path d="M348.5 288.5C348.5 285.186 350.962 282.5 354 282.5 357.038 282.5 359.5 285.186 359.5 288.5 359.5 291.814 357.038 294.5 354 294.5 350.962 294.5 348.5 291.814 348.5 288.5Z" stroke="#000000" stroke-width="1.33333" stroke-miterlimit="8" fill-rule="evenodd"/><path d="M332.5 288.5C332.5 285.186 334.962 282.5 338 282.5 341.038 282.5 343.5 285.186 343.5 288.5 343.5 291.814 341.038 294.5 338 294.5 334.962 294.5 332.5 291.814 332.5 288.5Z" stroke="#000000" stroke-width="1.33333" stroke-miterlimit="8" fill-rule="evenodd"/><path d="M348.5 272C348.5 268.962 350.962 266.5 354 266.5 357.038 266.5 359.5 268.962 359.5 272 359.5 275.038 357.038 277.5 354 277.5 350.962 277.5 348.5 275.038 348.5 272Z" stroke="#000000" stroke-width="1.33333" stroke-miterlimit="8" fill-rule="evenodd"/><path d="M366.5 272C366.5 268.962 368.962 266.5 372 266.5 375.038 266.5 377.5 268.962 377.5 272 377.5 275.038 375.038 277.5 372 277.5 368.962 277.5 366.5 275.038 366.5 272Z" stroke="#000000" stroke-width="1.33333" stroke-miterlimit="8" fill-rule="evenodd"/><path d="M381.5 288.5C381.5 285.186 383.962 282.5 387 282.5 390.038 282.5 392.5 285.186 392.5 288.5 392.5 291.814 390.038 294.5 387 294.5 383.962 294.5 381.5 291.814 381.5 288.5Z" stroke="#000000" stroke-width="1.33333" stroke-miterlimit="8" fill-rule="evenodd"/><path d="M365.5 288.5C365.5 285.186 368.186 282.5 371.5 282.5 374.814 282.5 377.5 285.186 377.5 288.5 377.5 291.814 374.814 294.5 371.5 294.5 368.186 294.5 365.5 291.814 365.5 288.5Z" stroke="#000000" stroke-width="1.33333" stroke-miterlimit="8" fill-rule="evenodd"/><path d="M381.5 272C381.5 268.962 383.962 266.5 387 266.5 390.038 266.5 392.5 268.962 392.5 272 392.5 275.038 390.038 277.5 387 277.5 383.962 277.5 381.5 275.038 381.5 272Z" stroke="#000000" stroke-width="1.33333" stroke-miterlimit="8" fill-rule="evenodd"/><path d="M448.5 289C448.5 285.962 451.186 283.5 454.5 283.5 457.814 283.5 460.5 285.962 460.5 289 460.5 292.038 457.814 294.5 454.5 294.5 451.186 294.5 448.5 292.038 448.5 289Z" stroke="#000000" stroke-width="1.33333" stroke-miterlimit="8" fill-rule="evenodd"/><path d="M448.5 273C448.5 269.962 451.186 267.5 454.5 267.5 457.814 267.5 460.5 269.962 460.5 273 460.5 276.038 457.814 278.5 454.5 278.5 451.186 278.5 448.5 276.038 448.5 273Z" stroke="#000000" stroke-width="1.33333" stroke-miterlimit="8" fill-rule="evenodd"/><path d="M466.5 273C466.5 269.962 468.962 267.5 472 267.5 475.038 267.5 477.5 269.962 477.5 273 477.5 276.038 475.038 278.5 472 278.5 468.962 278.5 466.5 276.038 466.5 273Z" stroke="#000000" stroke-width="1.33333" stroke-miterlimit="8" fill-rule="evenodd"/><path d="M481.5 289C481.5 285.962 484.186 283.5 487.5 283.5 490.814 283.5 493.5 285.962 493.5 289 493.5 292.038 490.814 294.5 487.5 294.5 484.186 294.5 481.5 292.038 481.5 289Z" stroke="#000000" stroke-width="1.33333" stroke-miterlimit="8" fill-rule="evenodd"/><path d="M465.5 289C465.5 285.962 468.186 283.5 471.5 283.5 474.814 283.5 477.5 285.962 477.5 289 477.5 292.038 474.814 294.5 471.5 294.5 468.186 294.5 465.5 292.038 465.5 289Z" stroke="#000000" stroke-width="1.33333" stroke-miterlimit="8" fill-rule="evenodd"/><path d="M481.5 273C481.5 269.962 484.186 267.5 487.5 267.5 490.814 267.5 493.5 269.962 493.5 273 493.5 276.038 490.814 278.5 487.5 278.5 484.186 278.5 481.5 276.038 481.5 273Z" stroke="#000000" stroke-width="1.33333" stroke-miterlimit="8" fill-rule="evenodd"/><path d="M499.5 273C499.5 269.962 501.962 267.5 505 267.5 508.038 267.5 510.5 269.962 510.5 273 510.5 276.038 508.038 278.5 505 278.5 501.962 278.5 499.5 276.038 499.5 273Z" stroke="#000000" stroke-width="1.33333" stroke-miterlimit="8" fill-rule="evenodd"/><path d="M514.5 289C514.5 285.962 517.186 283.5 520.5 283.5 523.814 283.5 526.5 285.962 526.5 289 526.5 292.038 523.814 294.5 520.5 294.5 517.186 294.5 514.5 292.038 514.5 289Z" stroke="#000000" stroke-width="1.33333" stroke-miterlimit="8" fill-rule="evenodd"/><path d="M499.5 289C499.5 285.962 501.962 283.5 505 283.5 508.038 283.5 510.5 285.962 510.5 289 510.5 292.038 508.038 294.5 505 294.5 501.962 294.5 499.5 292.038 499.5 289Z" stroke="#000000" stroke-width="1.33333" stroke-miterlimit="8" fill-rule="evenodd"/><path d="M514.5 273C514.5 269.962 517.186 267.5 520.5 267.5 523.814 267.5 526.5 269.962 526.5 273 526.5 276.038 523.814 278.5 520.5 278.5 517.186 278.5 514.5 276.038 514.5 273Z" stroke="#000000" stroke-width="1.33333" stroke-miterlimit="8" fill-rule="evenodd"/><path d="M532.5 272C532.5 268.962 534.963 266.5 538 266.5 541.038 266.5 543.5 268.962 543.5 272 543.5 275.038 541.038 277.5 538 277.5 534.963 277.5 532.5 275.038 532.5 272Z" stroke="#000000" stroke-width="1.33333" stroke-miterlimit="8" fill-rule="evenodd"/><path d="M547.5 288.5C547.5 285.186 550.186 282.5 553.5 282.5 556.814 282.5 559.5 285.186 559.5 288.5 559.5 291.814 556.814 294.5 553.5 294.5 550.186 294.5 547.5 291.814 547.5 288.5Z" stroke="#000000" stroke-width="1.33333" stroke-miterlimit="8" fill-rule="evenodd"/><path d="M532.5 288.5C532.5 285.186 534.963 282.5 538 282.5 541.038 282.5 543.5 285.186 543.5 288.5 543.5 291.814 541.038 294.5 538 294.5 534.963 294.5 532.5 291.814 532.5 288.5Z" stroke="#000000" stroke-width="1.33333" stroke-miterlimit="8" fill-rule="evenodd"/><path d="M547.5 272C547.5 268.962 550.186 266.5 553.5 266.5 556.814 266.5 559.5 268.962 559.5 272 559.5 275.038 556.814 277.5 553.5 277.5 550.186 277.5 547.5 275.038 547.5 272Z" stroke="#000000" stroke-width="1.33333" stroke-miterlimit="8" fill-rule="evenodd"/><path d="M565.5 272C565.5 268.962 567.963 266.5 571 266.5 574.038 266.5 576.5 268.962 576.5 272 576.5 275.038 574.038 277.5 571 277.5 567.963 277.5 565.5 275.038 565.5 272Z" stroke="#000000" stroke-width="1.33333" stroke-miterlimit="8" fill-rule="evenodd"/><path d="M565.5 288.5C565.5 285.186 567.963 282.5 571 282.5 574.038 282.5 576.5 285.186 576.5 288.5 576.5 291.814 574.038 294.5 571 294.5 567.963 294.5 565.5 291.814 565.5 288.5Z" stroke="#000000" stroke-width="1.33333" stroke-miterlimit="8" fill-rule="evenodd"/><path d="M266.5 304.5C266.5 301.186 268.962 298.5 272 298.5 275.038 298.5 277.5 301.186 277.5 304.5 277.5 307.814 275.038 310.5 272 310.5 268.962 310.5 266.5 307.814 266.5 304.5Z" stroke="#000000" stroke-width="1.33333" stroke-miterlimit="8" fill-rule="evenodd"/><path d="M281.5 321C281.5 317.962 283.962 315.5 287 315.5 290.038 315.5 292.5 317.962 292.5 321 292.5 324.038 290.038 326.5 287 326.5 283.962 326.5 281.5 324.038 281.5 321Z" stroke="#000000" stroke-width="1.33333" stroke-miterlimit="8" fill-rule="evenodd"/><path d="M265.5 321C265.5 317.962 268.186 315.5 271.5 315.5 274.814 315.5 277.5 317.962 277.5 321 277.5 324.038 274.814 326.5 271.5 326.5 268.186 326.5 265.5 324.038 265.5 321Z" stroke="#000000" stroke-width="1.33333" stroke-miterlimit="8" fill-rule="evenodd"/><path d="M281.5 304.5C281.5 301.186 283.962 298.5 287 298.5 290.038 298.5 292.5 301.186 292.5 304.5 292.5 307.814 290.038 310.5 287 310.5 283.962 310.5 281.5 307.814 281.5 304.5Z" stroke="#000000" stroke-width="1.33333" stroke-miterlimit="8" fill-rule="evenodd"/><path d="M299.5 304.5C299.5 301.186 301.962 298.5 305 298.5 308.038 298.5 310.5 301.186 310.5 304.5 310.5 307.814 308.038 310.5 305 310.5 301.962 310.5 299.5 307.814 299.5 304.5Z" stroke="#000000" stroke-width="1.33333" stroke-miterlimit="8" fill-rule="evenodd"/><path d="M314.5 321C314.5 317.962 317.186 315.5 320.5 315.5 323.814 315.5 326.5 317.962 326.5 321 326.5 324.038 323.814 326.5 320.5 326.5 317.186 326.5 314.5 324.038 314.5 321Z" stroke="#000000" stroke-width="1.33333" stroke-miterlimit="8" fill-rule="evenodd"/><path d="M299.5 321C299.5 317.962 301.962 315.5 305 315.5 308.038 315.5 310.5 317.962 310.5 321 310.5 324.038 308.038 326.5 305 326.5 301.962 326.5 299.5 324.038 299.5 321Z" stroke="#000000" stroke-width="1.33333" stroke-miterlimit="8" fill-rule="evenodd"/><path d="M314.5 304.5C314.5 301.186 317.186 298.5 320.5 298.5 323.814 298.5 326.5 301.186 326.5 304.5 326.5 307.814 323.814 310.5 320.5 310.5 317.186 310.5 314.5 307.814 314.5 304.5Z" stroke="#000000" stroke-width="1.33333" stroke-miterlimit="8" fill-rule="evenodd"/><path d="M332.5 304.5C332.5 301.186 334.962 298.5 338 298.5 341.038 298.5 343.5 301.186 343.5 304.5 343.5 307.814 341.038 310.5 338 310.5 334.962 310.5 332.5 307.814 332.5 304.5Z" stroke="#000000" stroke-width="1.33333" stroke-miterlimit="8" fill-rule="evenodd"/><path d="M347.5 321C347.5 317.962 349.962 315.5 353 315.5 356.038 315.5 358.5 317.962 358.5 321 358.5 324.038 356.038 326.5 353 326.5 349.962 326.5 347.5 324.038 347.5 321Z" stroke="#000000" stroke-width="1.33333" stroke-miterlimit="8" fill-rule="evenodd"/><path d="M331.5 321C331.5 317.962 334.186 315.5 337.5 315.5 340.814 315.5 343.5 317.962 343.5 321 343.5 324.038 340.814 326.5 337.5 326.5 334.186 326.5 331.5 324.038 331.5 321Z" stroke="#000000" stroke-width="1.33333" stroke-miterlimit="8" fill-rule="evenodd"/><path d="M347.5 304.5C347.5 301.186 349.962 298.5 353 298.5 356.038 298.5 358.5 301.186 358.5 304.5 358.5 307.814 356.038 310.5 353 310.5 349.962 310.5 347.5 307.814 347.5 304.5Z" stroke="#000000" stroke-width="1.33333" stroke-miterlimit="8" fill-rule="evenodd"/><path d="M365.5 304.5C365.5 301.186 367.962 298.5 371 298.5 374.038 298.5 376.5 301.186 376.5 304.5 376.5 307.814 374.038 310.5 371 310.5 367.962 310.5 365.5 307.814 365.5 304.5Z" stroke="#000000" stroke-width="1.33333" stroke-miterlimit="8" fill-rule="evenodd"/><path d="M380.5 321C380.5 317.962 383.186 315.5 386.5 315.5 389.814 315.5 392.5 317.962 392.5 321 392.5 324.038 389.814 326.5 386.5 326.5 383.186 326.5 380.5 324.038 380.5 321Z" stroke="#000000" stroke-width="1.33333" stroke-miterlimit="8" fill-rule="evenodd"/><path d="M365.5 321C365.5 317.962 367.962 315.5 371 315.5 374.038 315.5 376.5 317.962 376.5 321 376.5 324.038 374.038 326.5 371 326.5 367.962 326.5 365.5 324.038 365.5 321Z" stroke="#000000" stroke-width="1.33333" stroke-miterlimit="8" fill-rule="evenodd"/><path d="M380.5 304.5C380.5 301.186 383.186 298.5 386.5 298.5 389.814 298.5 392.5 301.186 392.5 304.5 392.5 307.814 389.814 310.5 386.5 310.5 383.186 310.5 380.5 307.814 380.5 304.5Z" stroke="#000000" stroke-width="1.33333" stroke-miterlimit="8" fill-rule="evenodd"/><path d="M399.5 305C399.5 301.962 401.962 299.5 405 299.5 408.038 299.5 410.5 301.962 410.5 305 410.5 308.038 408.038 310.5 405 310.5 401.962 310.5 399.5 308.038 399.5 305Z" stroke="#000000" stroke-width="1.33333" stroke-miterlimit="8" fill-rule="evenodd"/><path d="M414.5 321.5C414.5 318.186 417.186 315.5 420.5 315.5 423.814 315.5 426.5 318.186 426.5 321.5 426.5 324.814 423.814 327.5 420.5 327.5 417.186 327.5 414.5 324.814 414.5 321.5Z" stroke="#000000" stroke-width="1.33333" stroke-miterlimit="8" fill-rule="evenodd"/><path d="M399.5 321.5C399.5 318.186 401.962 315.5 405 315.5 408.038 315.5 410.5 318.186 410.5 321.5 410.5 324.814 408.038 327.5 405 327.5 401.962 327.5 399.5 324.814 399.5 321.5Z" stroke="#000000" stroke-width="1.33333" stroke-miterlimit="8" fill-rule="evenodd"/><path d="M414.5 305C414.5 301.962 417.186 299.5 420.5 299.5 423.814 299.5 426.5 301.962 426.5 305 426.5 308.038 423.814 310.5 420.5 310.5 417.186 310.5 414.5 308.038 414.5 305Z" stroke="#000000" stroke-width="1.33333" stroke-miterlimit="8" fill-rule="evenodd"/><path d="M432.5 305C432.5 301.962 435.186 299.5 438.5 299.5 441.814 299.5 444.5 301.962 444.5 305 444.5 308.038 441.814 310.5 438.5 310.5 435.186 310.5 432.5 308.038 432.5 305Z" stroke="#000000" stroke-width="1.33333" stroke-miterlimit="8" fill-rule="evenodd"/><path d="M448.5 321.5C448.5 318.186 450.962 315.5 454 315.5 457.038 315.5 459.5 318.186 459.5 321.5 459.5 324.814 457.038 327.5 454 327.5 450.962 327.5 448.5 324.814 448.5 321.5Z" stroke="#000000" stroke-width="1.33333" stroke-miterlimit="8" fill-rule="evenodd"/><path d="M432.5 321.5C432.5 318.186 434.962 315.5 438 315.5 441.038 315.5 443.5 318.186 443.5 321.5 443.5 324.814 441.038 327.5 438 327.5 434.962 327.5 432.5 324.814 432.5 321.5Z" stroke="#000000" stroke-width="1.33333" stroke-miterlimit="8" fill-rule="evenodd"/><path d="M448.5 305C448.5 301.962 450.962 299.5 454 299.5 457.038 299.5 459.5 301.962 459.5 305 459.5 308.038 457.038 310.5 454 310.5 450.962 310.5 448.5 308.038 448.5 305Z" stroke="#000000" stroke-width="1.33333" stroke-miterlimit="8" fill-rule="evenodd"/><path d="M465.5 305C465.5 301.962 467.962 299.5 471 299.5 474.038 299.5 476.5 301.962 476.5 305 476.5 308.038 474.038 310.5 471 310.5 467.962 310.5 465.5 308.038 465.5 305Z" stroke="#000000" stroke-width="1.33333" stroke-miterlimit="8" fill-rule="evenodd"/><path d="M481.5 321C481.5 317.962 483.962 315.5 487 315.5 490.038 315.5 492.5 317.962 492.5 321 492.5 324.038 490.038 326.5 487 326.5 483.962 326.5 481.5 324.038 481.5 321Z" stroke="#000000" stroke-width="1.33333" stroke-miterlimit="8" fill-rule="evenodd"/><path d="M465.5 321C465.5 317.962 467.962 315.5 471 315.5 474.038 315.5 476.5 317.962 476.5 321 476.5 324.038 474.038 326.5 471 326.5 467.962 326.5 465.5 324.038 465.5 321Z" stroke="#000000" stroke-width="1.33333" stroke-miterlimit="8" fill-rule="evenodd"/><path d="M481.5 305C481.5 301.962 483.962 299.5 487 299.5 490.038 299.5 492.5 301.962 492.5 305 492.5 308.038 490.038 310.5 487 310.5 483.962 310.5 481.5 308.038 481.5 305Z" stroke="#000000" stroke-width="1.33333" stroke-miterlimit="8" fill-rule="evenodd"/><path d="M498.5 305C498.5 301.962 501.186 299.5 504.5 299.5 507.814 299.5 510.5 301.962 510.5 305 510.5 308.038 507.814 310.5 504.5 310.5 501.186 310.5 498.5 308.038 498.5 305Z" stroke="#000000" stroke-width="1.33333" stroke-miterlimit="8" fill-rule="evenodd"/><path d="M514.5 321C514.5 317.962 516.963 315.5 520 315.5 523.038 315.5 525.5 317.962 525.5 321 525.5 324.038 523.038 326.5 520 326.5 516.963 326.5 514.5 324.038 514.5 321Z" stroke="#000000" stroke-width="1.33333" stroke-miterlimit="8" fill-rule="evenodd"/><path d="M498.5 321C498.5 317.962 500.962 315.5 504 315.5 507.038 315.5 509.5 317.962 509.5 321 509.5 324.038 507.038 326.5 504 326.5 500.962 326.5 498.5 324.038 498.5 321Z" stroke="#000000" stroke-width="1.33333" stroke-miterlimit="8" fill-rule="evenodd"/><path d="M514.5 305C514.5 301.962 516.963 299.5 520 299.5 523.038 299.5 525.5 301.962 525.5 305 525.5 308.038 523.038 310.5 520 310.5 516.963 310.5 514.5 308.038 514.5 305Z" stroke="#000000" stroke-width="1.33333" stroke-miterlimit="8" fill-rule="evenodd"/><path d="M531.5 304.5C531.5 301.186 534.186 298.5 537.5 298.5 540.814 298.5 543.5 301.186 543.5 304.5 543.5 307.814 540.814 310.5 537.5 310.5 534.186 310.5 531.5 307.814 531.5 304.5Z" stroke="#000000" stroke-width="1.33333" stroke-miterlimit="8" fill-rule="evenodd"/><path d="M547.5 321C547.5 317.962 549.963 315.5 553 315.5 556.038 315.5 558.5 317.962 558.5 321 558.5 324.038 556.038 326.5 553 326.5 549.963 326.5 547.5 324.038 547.5 321Z" stroke="#000000" stroke-width="1.33333" stroke-miterlimit="8" fill-rule="evenodd"/><path d="M531.5 321C531.5 317.962 533.963 315.5 537 315.5 540.038 315.5 542.5 317.962 542.5 321 542.5 324.038 540.038 326.5 537 326.5 533.963 326.5 531.5 324.038 531.5 321Z" stroke="#000000" stroke-width="1.33333" stroke-miterlimit="8" fill-rule="evenodd"/><path d="M547.5 304.5C547.5 301.186 549.963 298.5 553 298.5 556.038 298.5 558.5 301.186 558.5 304.5 558.5 307.814 556.038 310.5 553 310.5 549.963 310.5 547.5 307.814 547.5 304.5Z" stroke="#000000" stroke-width="1.33333" stroke-miterlimit="8" fill-rule="evenodd"/><path d="M564.5 304.5C564.5 301.186 567.186 298.5 570.5 298.5 573.814 298.5 576.5 301.186 576.5 304.5 576.5 307.814 573.814 310.5 570.5 310.5 567.186 310.5 564.5 307.814 564.5 304.5Z" stroke="#000000" stroke-width="1.33333" stroke-miterlimit="8" fill-rule="evenodd"/><path d="M564.5 321C564.5 317.962 567.186 315.5 570.5 315.5 573.814 315.5 576.5 317.962 576.5 321 576.5 324.038 573.814 326.5 570.5 326.5 567.186 326.5 564.5 324.038 564.5 321Z" stroke="#000000" stroke-width="1.33333" stroke-miterlimit="8" fill-rule="evenodd"/><path d="M266.5 337.5C266.5 334.186 268.962 331.5 272 331.5 275.038 331.5 277.5 334.186 277.5 337.5 277.5 340.814 275.038 343.5 272 343.5 268.962 343.5 266.5 340.814 266.5 337.5Z" stroke="#000000" stroke-width="1.33333" stroke-miterlimit="8" fill-rule="evenodd"/><path d="M281.5 354C281.5 350.962 283.962 348.5 287 348.5 290.038 348.5 292.5 350.962 292.5 354 292.5 357.038 290.038 359.5 287 359.5 283.962 359.5 281.5 357.038 281.5 354Z" stroke="#000000" stroke-width="1.33333" stroke-miterlimit="8" fill-rule="evenodd"/><path d="M265.5 354C265.5 350.962 268.186 348.5 271.5 348.5 274.814 348.5 277.5 350.962 277.5 354 277.5 357.038 274.814 359.5 271.5 359.5 268.186 359.5 265.5 357.038 265.5 354Z" stroke="#000000" stroke-width="1.33333" stroke-miterlimit="8" fill-rule="evenodd"/><path d="M281.5 337.5C281.5 334.186 283.962 331.5 287 331.5 290.038 331.5 292.5 334.186 292.5 337.5 292.5 340.814 290.038 343.5 287 343.5 283.962 343.5 281.5 340.814 281.5 337.5Z" stroke="#000000" stroke-width="1.33333" stroke-miterlimit="8" fill-rule="evenodd"/><path d="M299.5 337.5C299.5 334.186 301.962 331.5 305 331.5 308.038 331.5 310.5 334.186 310.5 337.5 310.5 340.814 308.038 343.5 305 343.5 301.962 343.5 299.5 340.814 299.5 337.5Z" stroke="#000000" stroke-width="1.33333" stroke-miterlimit="8" fill-rule="evenodd"/><path d="M314.5 354C314.5 350.962 317.186 348.5 320.5 348.5 323.814 348.5 326.5 350.962 326.5 354 326.5 357.038 323.814 359.5 320.5 359.5 317.186 359.5 314.5 357.038 314.5 354Z" stroke="#000000" stroke-width="1.33333" stroke-miterlimit="8" fill-rule="evenodd"/><path d="M299.5 354C299.5 350.962 301.962 348.5 305 348.5 308.038 348.5 310.5 350.962 310.5 354 310.5 357.038 308.038 359.5 305 359.5 301.962 359.5 299.5 357.038 299.5 354Z" stroke="#000000" stroke-width="1.33333" stroke-miterlimit="8" fill-rule="evenodd"/><path d="M314.5 337.5C314.5 334.186 317.186 331.5 320.5 331.5 323.814 331.5 326.5 334.186 326.5 337.5 326.5 340.814 323.814 343.5 320.5 343.5 317.186 343.5 314.5 340.814 314.5 337.5Z" stroke="#000000" stroke-width="1.33333" stroke-miterlimit="8" fill-rule="evenodd"/><path d="M332.5 337C332.5 333.962 334.962 331.5 338 331.5 341.038 331.5 343.5 333.962 343.5 337 343.5 340.038 341.038 342.5 338 342.5 334.962 342.5 332.5 340.038 332.5 337Z" stroke="#000000" stroke-width="1.33333" stroke-miterlimit="8" fill-rule="evenodd"/><path d="M347.5 353.5C347.5 350.186 349.962 347.5 353 347.5 356.038 347.5 358.5 350.186 358.5 353.5 358.5 356.814 356.038 359.5 353 359.5 349.962 359.5 347.5 356.814 347.5 353.5Z" stroke="#000000" stroke-width="1.33333" stroke-miterlimit="8" fill-rule="evenodd"/><path d="M331.5 353.5C331.5 350.186 334.186 347.5 337.5 347.5 340.814 347.5 343.5 350.186 343.5 353.5 343.5 356.814 340.814 359.5 337.5 359.5 334.186 359.5 331.5 356.814 331.5 353.5Z" stroke="#000000" stroke-width="1.33333" stroke-miterlimit="8" fill-rule="evenodd"/><path d="M347.5 337C347.5 333.962 349.962 331.5 353 331.5 356.038 331.5 358.5 333.962 358.5 337 358.5 340.038 356.038 342.5 353 342.5 349.962 342.5 347.5 340.038 347.5 337Z" stroke="#000000" stroke-width="1.33333" stroke-miterlimit="8" fill-rule="evenodd"/><path d="M365.5 337C365.5 333.962 367.962 331.5 371 331.5 374.038 331.5 376.5 333.962 376.5 337 376.5 340.038 374.038 342.5 371 342.5 367.962 342.5 365.5 340.038 365.5 337Z" stroke="#000000" stroke-width="1.33333" stroke-miterlimit="8" fill-rule="evenodd"/><path d="M380.5 353.5C380.5 350.186 383.186 347.5 386.5 347.5 389.814 347.5 392.5 350.186 392.5 353.5 392.5 356.814 389.814 359.5 386.5 359.5 383.186 359.5 380.5 356.814 380.5 353.5Z" stroke="#000000" stroke-width="1.33333" stroke-miterlimit="8" fill-rule="evenodd"/><path d="M365.5 353.5C365.5 350.186 367.962 347.5 371 347.5 374.038 347.5 376.5 350.186 376.5 353.5 376.5 356.814 374.038 359.5 371 359.5 367.962 359.5 365.5 356.814 365.5 353.5Z" stroke="#000000" stroke-width="1.33333" stroke-miterlimit="8" fill-rule="evenodd"/><path d="M380.5 337C380.5 333.962 383.186 331.5 386.5 331.5 389.814 331.5 392.5 333.962 392.5 337 392.5 340.038 389.814 342.5 386.5 342.5 383.186 342.5 380.5 340.038 380.5 337Z" stroke="#000000" stroke-width="1.33333" stroke-miterlimit="8" fill-rule="evenodd"/><path d="M399.5 338C399.5 334.962 401.962 332.5 405 332.5 408.038 332.5 410.5 334.962 410.5 338 410.5 341.038 408.038 343.5 405 343.5 401.962 343.5 399.5 341.038 399.5 338Z" stroke="#000000" stroke-width="1.33333" stroke-miterlimit="8" fill-rule="evenodd"/><path d="M414.5 354C414.5 350.962 417.186 348.5 420.5 348.5 423.814 348.5 426.5 350.962 426.5 354 426.5 357.038 423.814 359.5 420.5 359.5 417.186 359.5 414.5 357.038 414.5 354Z" stroke="#000000" stroke-width="1.33333" stroke-miterlimit="8" fill-rule="evenodd"/><path d="M399.5 354C399.5 350.962 401.962 348.5 405 348.5 408.038 348.5 410.5 350.962 410.5 354 410.5 357.038 408.038 359.5 405 359.5 401.962 359.5 399.5 357.038 399.5 354Z" stroke="#000000" stroke-width="1.33333" stroke-miterlimit="8" fill-rule="evenodd"/><path d="M414.5 338C414.5 334.962 417.186 332.5 420.5 332.5 423.814 332.5 426.5 334.962 426.5 338 426.5 341.038 423.814 343.5 420.5 343.5 417.186 343.5 414.5 341.038 414.5 338Z" stroke="#000000" stroke-width="1.33333" stroke-miterlimit="8" fill-rule="evenodd"/><path d="M432.5 338C432.5 334.962 435.186 332.5 438.5 332.5 441.814 332.5 444.5 334.962 444.5 338 444.5 341.038 441.814 343.5 438.5 343.5 435.186 343.5 432.5 341.038 432.5 338Z" stroke="#000000" stroke-width="1.33333" stroke-miterlimit="8" fill-rule="evenodd"/><path d="M448.5 354C448.5 350.962 450.962 348.5 454 348.5 457.038 348.5 459.5 350.962 459.5 354 459.5 357.038 457.038 359.5 454 359.5 450.962 359.5 448.5 357.038 448.5 354Z" stroke="#000000" stroke-width="1.33333" stroke-miterlimit="8" fill-rule="evenodd"/><path d="M432.5 354C432.5 350.962 434.962 348.5 438 348.5 441.038 348.5 443.5 350.962 443.5 354 443.5 357.038 441.038 359.5 438 359.5 434.962 359.5 432.5 357.038 432.5 354Z" stroke="#000000" stroke-width="1.33333" stroke-miterlimit="8" fill-rule="evenodd"/><path d="M448.5 338C448.5 334.962 450.962 332.5 454 332.5 457.038 332.5 459.5 334.962 459.5 338 459.5 341.038 457.038 343.5 454 343.5 450.962 343.5 448.5 341.038 448.5 338Z" stroke="#000000" stroke-width="1.33333" stroke-miterlimit="8" fill-rule="evenodd"/><path d="M465.5 338C465.5 334.962 467.962 332.5 471 332.5 474.038 332.5 476.5 334.962 476.5 338 476.5 341.038 474.038 343.5 471 343.5 467.962 343.5 465.5 341.038 465.5 338Z" stroke="#000000" stroke-width="1.33333" stroke-miterlimit="8" fill-rule="evenodd"/><path d="M481.5 354C481.5 350.962 483.962 348.5 487 348.5 490.038 348.5 492.5 350.962 492.5 354 492.5 357.038 490.038 359.5 487 359.5 483.962 359.5 481.5 357.038 481.5 354Z" stroke="#000000" stroke-width="1.33333" stroke-miterlimit="8" fill-rule="evenodd"/><path d="M465.5 354C465.5 350.962 467.962 348.5 471 348.5 474.038 348.5 476.5 350.962 476.5 354 476.5 357.038 474.038 359.5 471 359.5 467.962 359.5 465.5 357.038 465.5 354Z" stroke="#000000" stroke-width="1.33333" stroke-miterlimit="8" fill-rule="evenodd"/><path d="M481.5 338C481.5 334.962 483.962 332.5 487 332.5 490.038 332.5 492.5 334.962 492.5 338 492.5 341.038 490.038 343.5 487 343.5 483.962 343.5 481.5 341.038 481.5 338Z" stroke="#000000" stroke-width="1.33333" stroke-miterlimit="8" fill-rule="evenodd"/><path d="M498.5 338C498.5 334.962 501.186 332.5 504.5 332.5 507.814 332.5 510.5 334.962 510.5 338 510.5 341.038 507.814 343.5 504.5 343.5 501.186 343.5 498.5 341.038 498.5 338Z" stroke="#000000" stroke-width="1.33333" stroke-miterlimit="8" fill-rule="evenodd"/><path d="M514.5 354C514.5 350.962 516.963 348.5 520 348.5 523.038 348.5 525.5 350.962 525.5 354 525.5 357.038 523.038 359.5 520 359.5 516.963 359.5 514.5 357.038 514.5 354Z" stroke="#000000" stroke-width="1.33333" stroke-miterlimit="8" fill-rule="evenodd"/><path d="M498.5 354C498.5 350.962 500.962 348.5 504 348.5 507.038 348.5 509.5 350.962 509.5 354 509.5 357.038 507.038 359.5 504 359.5 500.962 359.5 498.5 357.038 498.5 354Z" stroke="#000000" stroke-width="1.33333" stroke-miterlimit="8" fill-rule="evenodd"/><path d="M514.5 338C514.5 334.962 516.963 332.5 520 332.5 523.038 332.5 525.5 334.962 525.5 338 525.5 341.038 523.038 343.5 520 343.5 516.963 343.5 514.5 341.038 514.5 338Z" stroke="#000000" stroke-width="1.33333" stroke-miterlimit="8" fill-rule="evenodd"/><path d="M531.5 337C531.5 333.962 534.186 331.5 537.5 331.5 540.814 331.5 543.5 333.962 543.5 337 543.5 340.038 540.814 342.5 537.5 342.5 534.186 342.5 531.5 340.038 531.5 337Z" stroke="#000000" stroke-width="1.33333" stroke-miterlimit="8" fill-rule="evenodd"/><path d="M547.5 353.5C547.5 350.186 549.963 347.5 553 347.5 556.038 347.5 558.5 350.186 558.5 353.5 558.5 356.814 556.038 359.5 553 359.5 549.963 359.5 547.5 356.814 547.5 353.5Z" stroke="#000000" stroke-width="1.33333" stroke-miterlimit="8" fill-rule="evenodd"/><path d="M531.5 353.5C531.5 350.186 533.963 347.5 537 347.5 540.038 347.5 542.5 350.186 542.5 353.5 542.5 356.814 540.038 359.5 537 359.5 533.963 359.5 531.5 356.814 531.5 353.5Z" stroke="#000000" stroke-width="1.33333" stroke-miterlimit="8" fill-rule="evenodd"/><path d="M547.5 337C547.5 333.962 549.963 331.5 553 331.5 556.038 331.5 558.5 333.962 558.5 337 558.5 340.038 556.038 342.5 553 342.5 549.963 342.5 547.5 340.038 547.5 337Z" stroke="#000000" stroke-width="1.33333" stroke-miterlimit="8" fill-rule="evenodd"/><path d="M564.5 337C564.5 333.962 567.186 331.5 570.5 331.5 573.814 331.5 576.5 333.962 576.5 337 576.5 340.038 573.814 342.5 570.5 342.5 567.186 342.5 564.5 340.038 564.5 337Z" stroke="#000000" stroke-width="1.33333" stroke-miterlimit="8" fill-rule="evenodd"/><path d="M564.5 353.5C564.5 350.186 567.186 347.5 570.5 347.5 573.814 347.5 576.5 350.186 576.5 353.5 576.5 356.814 573.814 359.5 570.5 359.5 567.186 359.5 564.5 356.814 564.5 353.5Z" stroke="#000000" stroke-width="1.33333" stroke-miterlimit="8" fill-rule="evenodd"/><path d="M859.5 151C859.5 147.962 861.963 145.5 865 145.5 868.038 145.5 870.5 147.962 870.5 151 870.5 154.038 868.038 156.5 865 156.5 861.963 156.5 859.5 154.038 859.5 151Z" stroke="#000000" stroke-width="1.33333" stroke-miterlimit="8" fill-rule="evenodd"/><rect x="8" y="9" width="1265" height="640" stroke="#000000" stroke-width="2" stroke-miterlimit="8" fill="none"/><text font-family="Calibri,Calibri_MSFontService,sans-serif" font-weight="400" font-size="43" transform="translate(364.325 699)">Network Modules (<tspan font-weight="700" font-size="43" x="333.547" y="0">R</tspan>, <tspan font-weight="700" font-size="43" x="377.88" y="0">PL</tspan><tspan font-size="43" x="418.547" y="0">, </tspan><tspan font-weight="700" font-size="43" x="438.88" y="0">STMM</tspan>)</text><path d="M1042.89 450.374 868 341" stroke="#000000" stroke-width="2" stroke-miterlimit="8" fill="none" fill-rule="evenodd"/></g></svg>