<svg width="1280" height="720" xmlns="http://www.w3.org/2000/svg" xmlns:xlink="http://www.w3.org/1999/xlink" overflow="hidden"><defs><clipPath id="clip0"><rect x="0" y="0" width="1280" height="720"/></clipPath></defs><g clip-path="url(#clip0)"><rect x="0" y="0" width="1280" height="720" fill="#FFFFFF"/><path d="M388.219 520.256 397.945 524.796 385.644 525.524 391.708 530.663 384.327 528.691 384.889 537.201 378.329 530.251 374.52 532.719 372.065 529.85 365.398 534.576 367.468 527.43 361.105 528.527 363.726 523.748 357.469 523.408 360.326 520.284 355.175 518.848 358.363 516.622 350.587 513.075 357.701 512.219 358.041 506.413 363.565 509.245 368.344 503.331 371.676 509.471 378.301 504.313 379.908 511.051 388.671 508.795 383.442 515.93 393.162 516.934Z" stroke="#FFFFFF" stroke-width="2" stroke-miterlimit="8" fill="#FFC000" fill-rule="evenodd"/><path d="M313.889 443.968 323.616 448.508 311.315 449.236 317.378 454.375 309.997 452.404 310.56 460.914 303.999 453.963 300.19 456.431 297.735 453.563 291.069 458.289 293.138 451.143 286.775 452.24 289.396 447.461 283.14 447.12 285.996 443.996 280.846 442.56 284.034 440.335 276.258 436.788 283.371 435.932 283.711 430.125 289.235 432.958 294.015 427.044 297.346 433.184 303.972 428.025 305.579 434.763 314.341 432.508 309.112 439.643 318.832 440.647Z" stroke="#FFFFFF" stroke-width="2" stroke-miterlimit="8" fill="#FFC000" fill-rule="evenodd"/><path d="M1141.86 119.962 1168.83 88 1166.68 130.525 1194.89 111.349 1181.71 136.083 1224 136.915 1186.61 157.209 1197.02 171.107 1181.71 178.615 1201.94 203.069 1167.61 193.632 1170.06 215.862 1147.68 205.299 1143.08 226.698 1128.98 215.862 1119.49 233.102 1109.98 221.42 1088.84 247 1087.93 222.267 1059.41 219.212 1075.98 201.14 1049 182.789 1080.88 173.33 1058.5 148.876 1092.52 145.542 1085.47 114.684 1118.27 134.979 1127.77 101.89Z" stroke="#FFFFFF" stroke-width="2" stroke-miterlimit="8" fill="#FFC000" fill-rule="evenodd"/><path d="M793.394 113.962 820.511 82 818.352 124.525 846.724 105.349 833.467 130.083 876 130.915 838.396 151.209 848.867 165.107 833.467 172.615 853.813 197.069 819.289 187.632 821.75 209.862 799.244 199.299 794.616 220.698 780.439 209.862 770.889 227.102 761.331 215.42 740.064 241 739.152 216.267 710.47 213.212 727.133 195.14 700 176.789 732.063 167.33 709.55 142.876 743.772 139.542 736.683 108.684 769.667 128.979 779.216 95.8904Z" stroke="#FFFFFF" stroke-width="2" stroke-miterlimit="8" fill="#FFC000" fill-rule="evenodd"/><rect x="52.5001" y="19.5001" width="565" height="285" stroke="#000000" stroke-width="3" stroke-miterlimit="8" stroke-dasharray="24 9" fill="none"/><text font-family="Calibri,Calibri_MSFontService,sans-serif" font-weight="700" font-size="32" transform="translate(76.3989 64)">R</text><path d="M124.5 171.5C124.5 151.618 140.618 135.5 160.5 135.5 180.382 135.5 196.5 151.618 196.5 171.5 196.5 191.382 180.382 207.5 160.5 207.5 140.618 207.5 124.5 191.382 124.5 171.5Z" stroke="#000000" stroke-width="1.33333" stroke-miterlimit="8" fill="#FFFFFF" fill-rule="evenodd"/><path d="M133.5 178.5C133.5 175.186 136.186 172.5 139.5 172.5 142.814 172.5 145.5 175.186 145.5 178.5 145.5 181.814 142.814 184.5 139.5 184.5 136.186 184.5 133.5 181.814 133.5 178.5Z" stroke="#000000" stroke-width="1.33333" stroke-miterlimit="8" fill-rule="evenodd"/><path d="M150.5 177C150.5 173.962 152.962 171.5 156 171.5 159.038 171.5 161.5 173.962 161.5 177 161.5 180.038 159.038 182.5 156 182.5 152.962 182.5 150.5 180.038 150.5 177Z" stroke="#000000" stroke-width="1.33333" stroke-miterlimit="8" fill-rule="evenodd"/><path d="M172.5 183C172.5 179.962 174.962 177.5 178 177.5 181.038 177.5 183.5 179.962 183.5 183 183.5 186.038 181.038 188.5 178 188.5 174.962 188.5 172.5 186.038 172.5 183Z" stroke="#000000" stroke-width="1.33333" stroke-miterlimit="8" fill-rule="evenodd"/><path d="M143.5 195.5C143.5 192.186 145.962 189.5 149 189.5 152.038 189.5 154.5 192.186 154.5 195.5 154.5 198.814 152.038 201.5 149 201.5 145.962 201.5 143.5 198.814 143.5 195.5Z" stroke="#000000" stroke-width="1.33333" stroke-miterlimit="8" fill-rule="evenodd"/><path d="M160.5 196C160.5 192.962 162.962 190.5 166 190.5 169.038 190.5 171.5 192.962 171.5 196 171.5 199.038 169.038 201.5 166 201.5 162.962 201.5 160.5 199.038 160.5 196Z" stroke="#000000" stroke-width="1.33333" stroke-miterlimit="8" fill-rule="evenodd"/><path d="M169.5 149C169.5 145.962 171.962 143.5 175 143.5 178.038 143.5 180.5 145.962 180.5 149 180.5 152.038 178.038 154.5 175 154.5 171.962 154.5 169.5 152.038 169.5 149Z" stroke="#000000" stroke-width="1.33333" stroke-miterlimit="8" fill-rule="evenodd"/><path d="M146.5 166C146.5 162.962 148.962 160.5 152 160.5 155.038 160.5 157.5 162.962 157.5 166 157.5 169.038 155.038 171.5 152 171.5 148.962 171.5 146.5 169.038 146.5 166Z" stroke="#000000" stroke-width="1.33333" stroke-miterlimit="8" fill-rule="evenodd"/><path d="M161.5 171C161.5 167.962 163.962 165.5 167 165.5 170.038 165.5 172.5 167.962 172.5 171 172.5 174.038 170.038 176.5 167 176.5 163.962 176.5 161.5 174.038 161.5 171Z" stroke="#000000" stroke-width="1.33333" stroke-miterlimit="8" fill-rule="evenodd"/><path d="M145.5 145.5C145.5 142.186 147.962 139.5 151 139.5 154.038 139.5 156.5 142.186 156.5 145.5 156.5 148.814 154.038 151.5 151 151.5 147.962 151.5 145.5 148.814 145.5 145.5Z" stroke="#000000" stroke-width="1.33333" stroke-miterlimit="8" fill-rule="evenodd"/><path d="M133.5 160C133.5 156.962 136.186 154.5 139.5 154.5 142.814 154.5 145.5 156.962 145.5 160 145.5 163.038 142.814 165.5 139.5 165.5 136.186 165.5 133.5 163.038 133.5 160Z" stroke="#000000" stroke-width="1.33333" stroke-miterlimit="8" fill-rule="evenodd"/><path d="M157.5 156.5C157.5 153.186 159.962 150.5 163 150.5 166.038 150.5 168.5 153.186 168.5 156.5 168.5 159.814 166.038 162.5 163 162.5 159.962 162.5 157.5 159.814 157.5 156.5Z" stroke="#000000" stroke-width="1.33333" stroke-miterlimit="8" fill-rule="evenodd"/><path d="M173.5 165.5C173.5 162.186 175.962 159.5 179 159.5 182.038 159.5 184.5 162.186 184.5 165.5 184.5 168.814 182.038 171.5 179 171.5 175.962 171.5 173.5 168.814 173.5 165.5Z" stroke="#000000" stroke-width="1.33333" stroke-miterlimit="8" fill-rule="evenodd"/><path d="M474.5 172C474.5 152.394 490.394 136.5 510 136.5 529.606 136.5 545.5 152.394 545.5 172 545.5 191.606 529.606 207.5 510 207.5 490.394 207.5 474.5 191.606 474.5 172Z" stroke="#000000" stroke-width="1.33333" stroke-miterlimit="8" fill="#FFFFFF" fill-rule="evenodd"/><path d="M483.5 179C483.5 175.962 486.186 173.5 489.5 173.5 492.814 173.5 495.5 175.962 495.5 179 495.5 182.038 492.814 184.5 489.5 184.5 486.186 184.5 483.5 182.038 483.5 179Z" stroke="#000000" stroke-width="1.33333" stroke-miterlimit="8" fill-rule="evenodd"/><path d="M500.5 177.5C500.5 174.186 502.962 171.5 506 171.5 509.038 171.5 511.5 174.186 511.5 177.5 511.5 180.814 509.038 183.5 506 183.5 502.962 183.5 500.5 180.814 500.5 177.5Z" stroke="#000000" stroke-width="1.33333" stroke-miterlimit="8" fill-rule="evenodd"/><path d="M522.5 183C522.5 179.962 524.963 177.5 528 177.5 531.038 177.5 533.5 179.962 533.5 183 533.5 186.038 531.038 188.5 528 188.5 524.963 188.5 522.5 186.038 522.5 183Z" stroke="#000000" stroke-width="1.33333" stroke-miterlimit="8" fill-rule="evenodd"/><path d="M493.5 196C493.5 192.962 495.962 190.5 499 190.5 502.038 190.5 504.5 192.962 504.5 196 504.5 199.038 502.038 201.5 499 201.5 495.962 201.5 493.5 199.038 493.5 196Z" stroke="#000000" stroke-width="1.33333" stroke-miterlimit="8" fill-rule="evenodd"/><path d="M510.5 196C510.5 192.962 512.963 190.5 516 190.5 519.038 190.5 521.5 192.962 521.5 196 521.5 199.038 519.038 201.5 516 201.5 512.963 201.5 510.5 199.038 510.5 196Z" stroke="#000000" stroke-width="1.33333" stroke-miterlimit="8" fill-rule="evenodd"/><path d="M519.5 149.5C519.5 146.186 521.963 143.5 525 143.5 528.038 143.5 530.5 146.186 530.5 149.5 530.5 152.814 528.038 155.5 525 155.5 521.963 155.5 519.5 152.814 519.5 149.5Z" stroke="#000000" stroke-width="1.33333" stroke-miterlimit="8" fill-rule="evenodd"/><path d="M496.5 166C496.5 162.962 498.962 160.5 502 160.5 505.038 160.5 507.5 162.962 507.5 166 507.5 169.038 505.038 171.5 502 171.5 498.962 171.5 496.5 169.038 496.5 166Z" stroke="#000000" stroke-width="1.33333" stroke-miterlimit="8" fill-rule="evenodd"/><path d="M511.5 171.5C511.5 168.186 513.963 165.5 517 165.5 520.038 165.5 522.5 168.186 522.5 171.5 522.5 174.814 520.038 177.5 517 177.5 513.963 177.5 511.5 174.814 511.5 171.5Z" stroke="#000000" stroke-width="1.33333" stroke-miterlimit="8" fill-rule="evenodd"/><path d="M495.5 146C495.5 142.962 497.962 140.5 501 140.5 504.038 140.5 506.5 142.962 506.5 146 506.5 149.038 504.038 151.5 501 151.5 497.962 151.5 495.5 149.038 495.5 146Z" stroke="#000000" stroke-width="1.33333" stroke-miterlimit="8" fill-rule="evenodd"/><path d="M483.5 160C483.5 156.962 486.186 154.5 489.5 154.5 492.814 154.5 495.5 156.962 495.5 160 495.5 163.038 492.814 165.5 489.5 165.5 486.186 165.5 483.5 163.038 483.5 160Z" stroke="#000000" stroke-width="1.33333" stroke-miterlimit="8" fill-rule="evenodd"/><path d="M507.5 157C507.5 153.962 509.962 151.5 513 151.5 516.038 151.5 518.5 153.962 518.5 157 518.5 160.038 516.038 162.5 513 162.5 509.962 162.5 507.5 160.038 507.5 157Z" stroke="#000000" stroke-width="1.33333" stroke-miterlimit="8" fill-rule="evenodd"/><path d="M523.5 166C523.5 162.962 525.963 160.5 529 160.5 532.038 160.5 534.5 162.962 534.5 166 534.5 169.038 532.038 171.5 529 171.5 525.963 171.5 523.5 169.038 523.5 166Z" stroke="#000000" stroke-width="1.33333" stroke-miterlimit="8" fill-rule="evenodd"/><path d="M338.5 139.5C338.5 137.291 340.291 135.5 342.5 135.5 344.709 135.5 346.5 137.291 346.5 139.5 346.5 141.709 344.709 143.5 342.5 143.5 340.291 143.5 338.5 141.709 338.5 139.5Z" stroke="#000000" stroke-width="1.33333" stroke-miterlimit="8" fill-rule="evenodd"/><path d="M354.5 155.5C354.5 153.291 356.291 151.5 358.5 151.5 360.709 151.5 362.5 153.291 362.5 155.5 362.5 157.709 360.709 159.5 358.5 159.5 356.291 159.5 354.5 157.709 354.5 155.5Z" stroke="#000000" stroke-width="1.33333" stroke-miterlimit="8" fill-rule="evenodd"/><path d="M371.5 137.5C371.5 135.291 373.515 133.5 376 133.5 378.485 133.5 380.5 135.291 380.5 137.5 380.5 139.709 378.485 141.5 376 141.5 373.515 141.5 371.5 139.709 371.5 137.5Z" stroke="#000000" stroke-width="1.33333" stroke-miterlimit="8" fill-rule="evenodd"/><path d="M393.5 147C393.5 145.067 395.291 143.5 397.5 143.5 399.709 143.5 401.5 145.067 401.5 147 401.5 148.933 399.709 150.5 397.5 150.5 395.291 150.5 393.5 148.933 393.5 147Z" stroke="#000000" stroke-width="1.33333" stroke-miterlimit="8" fill-rule="evenodd"/><path d="M340 164.5C341.933 164.5 343.5 166.291 343.5 168.5 343.5 170.709 341.933 172.5 340 172.5 338.067 172.5 336.5 170.709 336.5 168.5 336.5 166.291 338.067 164.5 340 164.5Z" stroke="#000000" stroke-width="1.33333" stroke-miterlimit="8" fill-rule="evenodd"/><path d="M356 180.5C357.933 180.5 359.5 182.291 359.5 184.5 359.5 186.709 357.933 188.5 356 188.5 354.067 188.5 352.5 186.709 352.5 184.5 352.5 182.291 354.067 180.5 356 180.5Z" stroke="#000000" stroke-width="1.33333" stroke-miterlimit="8" fill-rule="evenodd"/><path d="M373.5 162.5C375.709 162.5 377.5 164.515 377.5 167 377.5 169.485 375.709 171.5 373.5 171.5 371.291 171.5 369.5 169.485 369.5 167 369.5 164.515 371.291 162.5 373.5 162.5Z" stroke="#000000" stroke-width="1.33333" stroke-miterlimit="8" fill-rule="evenodd"/><path d="M394.5 172.5C396.709 172.5 398.5 174.291 398.5 176.5 398.5 178.709 396.709 180.5 394.5 180.5 392.291 180.5 390.5 178.709 390.5 176.5 390.5 174.291 392.291 172.5 394.5 172.5Z" stroke="#000000" stroke-width="1.33333" stroke-miterlimit="8" fill-rule="evenodd"/><path d="M354.5 155.5C354.5 153.291 356.291 151.5 358.5 151.5 360.709 151.5 362.5 153.291 362.5 155.5 362.5 157.709 360.709 159.5 358.5 159.5 356.291 159.5 354.5 157.709 354.5 155.5Z" stroke="#000000" stroke-width="1.33333" stroke-miterlimit="8" fill-rule="evenodd"/><path d="M352.5 138.5C352.5 136.291 354.515 134.5 357 134.5 359.485 134.5 361.5 136.291 361.5 138.5 361.5 140.709 359.485 142.5 357 142.5 354.515 142.5 352.5 140.709 352.5 138.5Z" stroke="#000000" stroke-width="1.33333" stroke-miterlimit="8" fill-rule="evenodd"/><path d="M387.5 153.5C387.5 151.291 389.515 149.5 392 149.5 394.485 149.5 396.5 151.291 396.5 153.5 396.5 155.709 394.485 157.5 392 157.5 389.515 157.5 387.5 155.709 387.5 153.5Z" stroke="#000000" stroke-width="1.33333" stroke-miterlimit="8" fill-rule="evenodd"/><path d="M409.5 163C409.5 161.067 411.291 159.5 413.5 159.5 415.709 159.5 417.5 161.067 417.5 163 417.5 164.933 415.709 166.5 413.5 166.5 411.291 166.5 409.5 164.933 409.5 163Z" stroke="#000000" stroke-width="1.33333" stroke-miterlimit="8" fill-rule="evenodd"/><path d="M356 180.5C357.933 180.5 359.5 182.291 359.5 184.5 359.5 186.709 357.933 188.5 356 188.5 354.067 188.5 352.5 186.709 352.5 184.5 352.5 182.291 354.067 180.5 356 180.5Z" stroke="#000000" stroke-width="1.33333" stroke-miterlimit="8" fill-rule="evenodd"/><path d="M372 196.5C373.933 196.5 375.5 198.291 375.5 200.5 375.5 202.709 373.933 204.5 372 204.5 370.067 204.5 368.5 202.709 368.5 200.5 368.5 198.291 370.067 196.5 372 196.5Z" stroke="#000000" stroke-width="1.33333" stroke-miterlimit="8" fill-rule="evenodd"/><path d="M382.5 183.5C384.709 183.5 386.5 185.291 386.5 187.5 386.5 189.709 384.709 191.5 382.5 191.5 380.291 191.5 378.5 189.709 378.5 187.5 378.5 185.291 380.291 183.5 382.5 183.5Z" stroke="#000000" stroke-width="1.33333" stroke-miterlimit="8" fill-rule="evenodd"/><path d="M410.5 188.5C412.709 188.5 414.5 190.291 414.5 192.5 414.5 194.709 412.709 196.5 410.5 196.5 408.291 196.5 406.5 194.709 406.5 192.5 406.5 190.291 408.291 188.5 410.5 188.5Z" stroke="#000000" stroke-width="1.33333" stroke-miterlimit="8" fill-rule="evenodd"/><path d="M262.5 131.5C262.5 129.291 264.291 127.5 266.5 127.5 268.709 127.5 270.5 129.291 270.5 131.5 270.5 133.709 268.709 135.5 266.5 135.5 264.291 135.5 262.5 133.709 262.5 131.5Z" stroke="#000000" stroke-width="1.33333" stroke-miterlimit="8" fill-rule="evenodd"/><path d="M278.5 147.5C278.5 145.291 280.291 143.5 282.5 143.5 284.709 143.5 286.5 145.291 286.5 147.5 286.5 149.709 284.709 151.5 282.5 151.5 280.291 151.5 278.5 149.709 278.5 147.5Z" stroke="#000000" stroke-width="1.33333" stroke-miterlimit="8" fill-rule="evenodd"/><path d="M295.5 130C295.5 128.067 297.515 126.5 300 126.5 302.485 126.5 304.5 128.067 304.5 130 304.5 131.933 302.485 133.5 300 133.5 297.515 133.5 295.5 131.933 295.5 130Z" stroke="#000000" stroke-width="1.33333" stroke-miterlimit="8" fill-rule="evenodd"/><path d="M317.5 139.5C317.5 137.291 319.291 135.5 321.5 135.5 323.709 135.5 325.5 137.291 325.5 139.5 325.5 141.709 323.709 143.5 321.5 143.5 319.291 143.5 317.5 141.709 317.5 139.5Z" stroke="#000000" stroke-width="1.33333" stroke-miterlimit="8" fill-rule="evenodd"/><path d="M264 156.5C265.933 156.5 267.5 158.515 267.5 161 267.5 163.485 265.933 165.5 264 165.5 262.067 165.5 260.5 163.485 260.5 161 260.5 158.515 262.067 156.5 264 156.5Z" stroke="#000000" stroke-width="1.33333" stroke-miterlimit="8" fill-rule="evenodd"/><path d="M280 172.5C281.933 172.5 283.5 174.515 283.5 177 283.5 179.485 281.933 181.5 280 181.5 278.067 181.5 276.5 179.485 276.5 177 276.5 174.515 278.067 172.5 280 172.5Z" stroke="#000000" stroke-width="1.33333" stroke-miterlimit="8" fill-rule="evenodd"/><path d="M297.5 155.5C299.709 155.5 301.5 157.291 301.5 159.5 301.5 161.709 299.709 163.5 297.5 163.5 295.291 163.5 293.5 161.709 293.5 159.5 293.5 157.291 295.291 155.5 297.5 155.5Z" stroke="#000000" stroke-width="1.33333" stroke-miterlimit="8" fill-rule="evenodd"/><path d="M318.5 164.5C320.709 164.5 322.5 166.291 322.5 168.5 322.5 170.709 320.709 172.5 318.5 172.5 316.291 172.5 314.5 170.709 314.5 168.5 314.5 166.291 316.291 164.5 318.5 164.5Z" stroke="#000000" stroke-width="1.33333" stroke-miterlimit="8" fill-rule="evenodd"/><path d="M278.5 147.5C278.5 145.291 280.291 143.5 282.5 143.5 284.709 143.5 286.5 145.291 286.5 147.5 286.5 149.709 284.709 151.5 282.5 151.5 280.291 151.5 278.5 149.709 278.5 147.5Z" stroke="#000000" stroke-width="1.33333" stroke-miterlimit="8" fill-rule="evenodd"/><path d="M276.5 130.5C276.5 128.291 278.515 126.5 281 126.5 283.485 126.5 285.5 128.291 285.5 130.5 285.5 132.709 283.485 134.5 281 134.5 278.515 134.5 276.5 132.709 276.5 130.5Z" stroke="#000000" stroke-width="1.33333" stroke-miterlimit="8" fill-rule="evenodd"/><path d="M311.5 146C311.5 144.067 313.515 142.5 316 142.5 318.485 142.5 320.5 144.067 320.5 146 320.5 147.933 318.485 149.5 316 149.5 313.515 149.5 311.5 147.933 311.5 146Z" stroke="#000000" stroke-width="1.33333" stroke-miterlimit="8" fill-rule="evenodd"/><path d="M333.5 155.5C333.5 153.291 335.291 151.5 337.5 151.5 339.709 151.5 341.5 153.291 341.5 155.5 341.5 157.709 339.709 159.5 337.5 159.5 335.291 159.5 333.5 157.709 333.5 155.5Z" stroke="#000000" stroke-width="1.33333" stroke-miterlimit="8" fill-rule="evenodd"/><path d="M280 172.5C281.933 172.5 283.5 174.515 283.5 177 283.5 179.485 281.933 181.5 280 181.5 278.067 181.5 276.5 179.485 276.5 177 276.5 174.515 278.067 172.5 280 172.5Z" stroke="#000000" stroke-width="1.33333" stroke-miterlimit="8" fill-rule="evenodd"/><path d="M296 188.5C297.933 188.5 299.5 190.515 299.5 193 299.5 195.485 297.933 197.5 296 197.5 294.067 197.5 292.5 195.485 292.5 193 292.5 190.515 294.067 188.5 296 188.5Z" stroke="#000000" stroke-width="1.33333" stroke-miterlimit="8" fill-rule="evenodd"/><path d="M306.5 175.5C308.709 175.5 310.5 177.291 310.5 179.5 310.5 181.709 308.709 183.5 306.5 183.5 304.291 183.5 302.5 181.709 302.5 179.5 302.5 177.291 304.291 175.5 306.5 175.5Z" stroke="#000000" stroke-width="1.33333" stroke-miterlimit="8" fill-rule="evenodd"/><path d="M334.5 180.5C336.709 180.5 338.5 182.291 338.5 184.5 338.5 186.709 336.709 188.5 334.5 188.5 332.291 188.5 330.5 186.709 330.5 184.5 330.5 182.291 332.291 180.5 334.5 180.5Z" stroke="#000000" stroke-width="1.33333" stroke-miterlimit="8" fill-rule="evenodd"/><rect x="667.5" y="19.5001" width="565" height="284" stroke="#000000" stroke-width="3" stroke-miterlimit="8" stroke-dasharray="24 9" fill="none"/><text font-family="Calibri,Calibri_MSFontService,sans-serif" font-weight="700" font-size="32" transform="translate(691.532 65)">R</text><path d="M738.5 170.5C738.5 150.618 754.618 134.5 774.5 134.5 794.382 134.5 810.5 150.618 810.5 170.5 810.5 190.382 794.382 206.5 774.5 206.5 754.618 206.5 738.5 190.382 738.5 170.5Z" stroke="#000000" stroke-width="1.33333" stroke-miterlimit="8" fill="#FFFFFF" fill-rule="evenodd"/><path d="M748.5 178C748.5 174.962 750.963 172.5 754 172.5 757.038 172.5 759.5 174.962 759.5 178 759.5 181.038 757.038 183.5 754 183.5 750.963 183.5 748.5 181.038 748.5 178Z" stroke="#000000" stroke-width="1.33333" stroke-miterlimit="8" fill-rule="evenodd"/><path d="M764.5 176.5C764.5 173.186 767.186 170.5 770.5 170.5 773.814 170.5 776.5 173.186 776.5 176.5 776.5 179.814 773.814 182.5 770.5 182.5 767.186 182.5 764.5 179.814 764.5 176.5Z" stroke="#000000" stroke-width="1.33333" stroke-miterlimit="8" fill-rule="evenodd"/><path d="M787.5 182C787.5 178.962 789.963 176.5 793 176.5 796.038 176.5 798.5 178.962 798.5 182 798.5 185.038 796.038 187.5 793 187.5 789.963 187.5 787.5 185.038 787.5 182Z" stroke="#000000" stroke-width="1.33333" stroke-miterlimit="8" fill-rule="evenodd"/><path d="M757.5 195C757.5 191.962 760.186 189.5 763.5 189.5 766.814 189.5 769.5 191.962 769.5 195 769.5 198.038 766.814 200.5 763.5 200.5 760.186 200.5 757.5 198.038 757.5 195Z" stroke="#000000" stroke-width="1.33333" stroke-miterlimit="8" fill-rule="evenodd"/><path d="M775.5 195C775.5 191.962 777.963 189.5 781 189.5 784.038 189.5 786.5 191.962 786.5 195 786.5 198.038 784.038 200.5 781 200.5 777.963 200.5 775.5 198.038 775.5 195Z" stroke="#000000" stroke-width="1.33333" stroke-miterlimit="8" fill-rule="evenodd"/><path d="M783.5 148C783.5 144.962 786.186 142.5 789.5 142.5 792.814 142.5 795.5 144.962 795.5 148 795.5 151.038 792.814 153.5 789.5 153.5 786.186 153.5 783.5 151.038 783.5 148Z" stroke="#000000" stroke-width="1.33333" stroke-miterlimit="8" fill-rule="evenodd"/><path d="M761.5 165C761.5 161.962 763.963 159.5 767 159.5 770.038 159.5 772.5 161.962 772.5 165 772.5 168.038 770.038 170.5 767 170.5 763.963 170.5 761.5 168.038 761.5 165Z" stroke="#000000" stroke-width="1.33333" stroke-miterlimit="8" fill-rule="evenodd"/><path d="M776.5 170.5C776.5 167.186 778.963 164.5 782 164.5 785.038 164.5 787.5 167.186 787.5 170.5 787.5 173.814 785.038 176.5 782 176.5 778.963 176.5 776.5 173.814 776.5 170.5Z" stroke="#000000" stroke-width="1.33333" stroke-miterlimit="8" fill-rule="evenodd"/><path d="M759.5 145C759.5 141.962 762.186 139.5 765.5 139.5 768.814 139.5 771.5 141.962 771.5 145 771.5 148.038 768.814 150.5 765.5 150.5 762.186 150.5 759.5 148.038 759.5 145Z" stroke="#000000" stroke-width="1.33333" stroke-miterlimit="8" fill-rule="evenodd"/><path d="M748.5 159C748.5 155.962 750.963 153.5 754 153.5 757.038 153.5 759.5 155.962 759.5 159 759.5 162.038 757.038 164.5 754 164.5 750.963 164.5 748.5 162.038 748.5 159Z" stroke="#000000" stroke-width="1.33333" stroke-miterlimit="8" fill-rule="evenodd"/><path d="M772.5 156C772.5 152.962 774.963 150.5 778 150.5 781.038 150.5 783.5 152.962 783.5 156 783.5 159.038 781.038 161.5 778 161.5 774.963 161.5 772.5 159.038 772.5 156Z" stroke="#000000" stroke-width="1.33333" stroke-miterlimit="8" fill-rule="evenodd"/><path d="M787.5 165C787.5 161.962 790.186 159.5 793.5 159.5 796.814 159.5 799.5 161.962 799.5 165 799.5 168.038 796.814 170.5 793.5 170.5 790.186 170.5 787.5 168.038 787.5 165Z" stroke="#000000" stroke-width="1.33333" stroke-miterlimit="8" fill-rule="evenodd"/><path d="M1088.5 171.5C1088.5 151.618 1104.62 135.5 1124.5 135.5 1144.38 135.5 1160.5 151.618 1160.5 171.5 1160.5 191.382 1144.38 207.5 1124.5 207.5 1104.62 207.5 1088.5 191.382 1088.5 171.5Z" stroke="#000000" stroke-width="1.33333" stroke-miterlimit="8" fill="#FFFFFF" fill-rule="evenodd"/><path d="M1098.5 178.5C1098.5 175.186 1100.96 172.5 1104 172.5 1107.04 172.5 1109.5 175.186 1109.5 178.5 1109.5 181.814 1107.04 184.5 1104 184.5 1100.96 184.5 1098.5 181.814 1098.5 178.5Z" stroke="#000000" stroke-width="1.33333" stroke-miterlimit="8" fill-rule="evenodd"/><path d="M1114.5 177C1114.5 173.962 1117.19 171.5 1120.5 171.5 1123.81 171.5 1126.5 173.962 1126.5 177 1126.5 180.038 1123.81 182.5 1120.5 182.5 1117.19 182.5 1114.5 180.038 1114.5 177Z" stroke="#000000" stroke-width="1.33333" stroke-miterlimit="8" fill-rule="evenodd"/><path d="M1137.5 182.5C1137.5 179.186 1139.96 176.5 1143 176.5 1146.04 176.5 1148.5 179.186 1148.5 182.5 1148.5 185.814 1146.04 188.5 1143 188.5 1139.96 188.5 1137.5 185.814 1137.5 182.5Z" stroke="#000000" stroke-width="1.33333" stroke-miterlimit="8" fill-rule="evenodd"/><path d="M1107.5 195C1107.5 191.962 1110.19 189.5 1113.5 189.5 1116.81 189.5 1119.5 191.962 1119.5 195 1119.5 198.038 1116.81 200.5 1113.5 200.5 1110.19 200.5 1107.5 198.038 1107.5 195Z" stroke="#000000" stroke-width="1.33333" stroke-miterlimit="8" fill-rule="evenodd"/><path d="M1125.5 195.5C1125.5 192.186 1127.96 189.5 1131 189.5 1134.04 189.5 1136.5 192.186 1136.5 195.5 1136.5 198.814 1134.04 201.5 1131 201.5 1127.96 201.5 1125.5 198.814 1125.5 195.5Z" stroke="#000000" stroke-width="1.33333" stroke-miterlimit="8" fill-rule="evenodd"/><path d="M1133.5 148.5C1133.5 145.186 1136.19 142.5 1139.5 142.5 1142.81 142.5 1145.5 145.186 1145.5 148.5 1145.5 151.814 1142.81 154.5 1139.5 154.5 1136.19 154.5 1133.5 151.814 1133.5 148.5Z" stroke="#000000" stroke-width="1.33333" stroke-miterlimit="8" fill-rule="evenodd"/><path d="M1111.5 165.5C1111.5 162.186 1113.96 159.5 1117 159.5 1120.04 159.5 1122.5 162.186 1122.5 165.5 1122.5 168.814 1120.04 171.5 1117 171.5 1113.96 171.5 1111.5 168.814 1111.5 165.5Z" stroke="#000000" stroke-width="1.33333" stroke-miterlimit="8" fill-rule="evenodd"/><path d="M1125.5 171C1125.5 167.962 1128.19 165.5 1131.5 165.5 1134.81 165.5 1137.5 167.962 1137.5 171 1137.5 174.038 1134.81 176.5 1131.5 176.5 1128.19 176.5 1125.5 174.038 1125.5 171Z" stroke="#000000" stroke-width="1.33333" stroke-miterlimit="8" fill-rule="evenodd"/><path d="M1109.5 145C1109.5 141.962 1112.19 139.5 1115.5 139.5 1118.81 139.5 1121.5 141.962 1121.5 145 1121.5 148.038 1118.81 150.5 1115.5 150.5 1112.19 150.5 1109.5 148.038 1109.5 145Z" stroke="#000000" stroke-width="1.33333" stroke-miterlimit="8" fill-rule="evenodd"/><path d="M1098.5 159.5C1098.5 156.186 1100.96 153.5 1104 153.5 1107.04 153.5 1109.5 156.186 1109.5 159.5 1109.5 162.814 1107.04 165.5 1104 165.5 1100.96 165.5 1098.5 162.814 1098.5 159.5Z" stroke="#000000" stroke-width="1.33333" stroke-miterlimit="8" fill-rule="evenodd"/><path d="M1122.5 156C1122.5 152.962 1124.96 150.5 1128 150.5 1131.04 150.5 1133.5 152.962 1133.5 156 1133.5 159.038 1131.04 161.5 1128 161.5 1124.96 161.5 1122.5 159.038 1122.5 156Z" stroke="#000000" stroke-width="1.33333" stroke-miterlimit="8" fill-rule="evenodd"/><path d="M1137.5 165C1137.5 161.962 1140.19 159.5 1143.5 159.5 1146.81 159.5 1149.5 161.962 1149.5 165 1149.5 168.038 1146.81 170.5 1143.5 170.5 1140.19 170.5 1137.5 168.038 1137.5 165Z" stroke="#000000" stroke-width="1.33333" stroke-miterlimit="8" fill-rule="evenodd"/><path d="M952.5 138.5C952.5 136.291 954.515 134.5 957 134.5 959.485 134.5 961.5 136.291 961.5 138.5 961.5 140.709 959.485 142.5 957 142.5 954.515 142.5 952.5 140.709 952.5 138.5Z" stroke="#000000" stroke-width="1.33333" stroke-miterlimit="8" fill-rule="evenodd"/><path d="M968.5 154.5C968.5 152.291 970.515 150.5 973 150.5 975.485 150.5 977.5 152.291 977.5 154.5 977.5 156.709 975.485 158.5 973 158.5 970.515 158.5 968.5 156.709 968.5 154.5Z" stroke="#000000" stroke-width="1.33333" stroke-miterlimit="8" fill-rule="evenodd"/><path d="M986.5 136.5C986.5 134.291 988.291 132.5 990.5 132.5 992.709 132.5 994.5 134.291 994.5 136.5 994.5 138.709 992.709 140.5 990.5 140.5 988.291 140.5 986.5 138.709 986.5 136.5Z" stroke="#000000" stroke-width="1.33333" stroke-miterlimit="8" fill-rule="evenodd"/><path d="M1007.5 146C1007.5 144.067 1009.51 142.5 1012 142.5 1014.49 142.5 1016.5 144.067 1016.5 146 1016.5 147.933 1014.49 149.5 1012 149.5 1009.51 149.5 1007.5 147.933 1007.5 146Z" stroke="#000000" stroke-width="1.33333" stroke-miterlimit="8" fill-rule="evenodd"/><path d="M954.5 163.5C956.709 163.5 958.5 165.515 958.5 168 958.5 170.485 956.709 172.5 954.5 172.5 952.291 172.5 950.5 170.485 950.5 168 950.5 165.515 952.291 163.5 954.5 163.5Z" stroke="#000000" stroke-width="1.33333" stroke-miterlimit="8" fill-rule="evenodd"/><path d="M970.5 179.5C972.709 179.5 974.5 181.515 974.5 184 974.5 186.485 972.709 188.5 970.5 188.5 968.291 188.5 966.5 186.485 966.5 184 966.5 181.515 968.291 179.5 970.5 179.5Z" stroke="#000000" stroke-width="1.33333" stroke-miterlimit="8" fill-rule="evenodd"/><path d="M987.5 162.5C989.709 162.5 991.5 164.291 991.5 166.5 991.5 168.709 989.709 170.5 987.5 170.5 985.291 170.5 983.5 168.709 983.5 166.5 983.5 164.291 985.291 162.5 987.5 162.5Z" stroke="#000000" stroke-width="1.33333" stroke-miterlimit="8" fill-rule="evenodd"/><path d="M1009.5 171.5C1011.71 171.5 1013.5 173.291 1013.5 175.5 1013.5 177.709 1011.71 179.5 1009.5 179.5 1007.29 179.5 1005.5 177.709 1005.5 175.5 1005.5 173.291 1007.29 171.5 1009.5 171.5Z" stroke="#000000" stroke-width="1.33333" stroke-miterlimit="8" fill-rule="evenodd"/><path d="M968.5 154.5C968.5 152.291 970.515 150.5 973 150.5 975.485 150.5 977.5 152.291 977.5 154.5 977.5 156.709 975.485 158.5 973 158.5 970.515 158.5 968.5 156.709 968.5 154.5Z" stroke="#000000" stroke-width="1.33333" stroke-miterlimit="8" fill-rule="evenodd"/><path d="M967.5 137.5C967.5 135.291 969.291 133.5 971.5 133.5 973.709 133.5 975.5 135.291 975.5 137.5 975.5 139.709 973.709 141.5 971.5 141.5 969.291 141.5 967.5 139.709 967.5 137.5Z" stroke="#000000" stroke-width="1.33333" stroke-miterlimit="8" fill-rule="evenodd"/><path d="M1002.5 152.5C1002.5 150.291 1004.29 148.5 1006.5 148.5 1008.71 148.5 1010.5 150.291 1010.5 152.5 1010.5 154.709 1008.71 156.5 1006.5 156.5 1004.29 156.5 1002.5 154.709 1002.5 152.5Z" stroke="#000000" stroke-width="1.33333" stroke-miterlimit="8" fill-rule="evenodd"/><path d="M1023.5 162C1023.5 160.067 1025.51 158.5 1028 158.5 1030.49 158.5 1032.5 160.067 1032.5 162 1032.5 163.933 1030.49 165.5 1028 165.5 1025.51 165.5 1023.5 163.933 1023.5 162Z" stroke="#000000" stroke-width="1.33333" stroke-miterlimit="8" fill-rule="evenodd"/><path d="M970.5 179.5C972.709 179.5 974.5 181.515 974.5 184 974.5 186.485 972.709 188.5 970.5 188.5 968.291 188.5 966.5 186.485 966.5 184 966.5 181.515 968.291 179.5 970.5 179.5Z" stroke="#000000" stroke-width="1.33333" stroke-miterlimit="8" fill-rule="evenodd"/><path d="M986.5 195.5C988.709 195.5 990.5 197.515 990.5 200 990.5 202.485 988.709 204.5 986.5 204.5 984.291 204.5 982.5 202.485 982.5 200 982.5 197.515 984.291 195.5 986.5 195.5Z" stroke="#000000" stroke-width="1.33333" stroke-miterlimit="8" fill-rule="evenodd"/><path d="M997 182.5C998.933 182.5 1000.5 184.291 1000.5 186.5 1000.5 188.709 998.933 190.5 997 190.5 995.067 190.5 993.5 188.709 993.5 186.5 993.5 184.291 995.067 182.5 997 182.5Z" stroke="#000000" stroke-width="1.33333" stroke-miterlimit="8" fill-rule="evenodd"/><path d="M1025.5 187.5C1027.71 187.5 1029.5 189.291 1029.5 191.5 1029.5 193.709 1027.71 195.5 1025.5 195.5 1023.29 195.5 1021.5 193.709 1021.5 191.5 1021.5 189.291 1023.29 187.5 1025.5 187.5Z" stroke="#000000" stroke-width="1.33333" stroke-miterlimit="8" fill-rule="evenodd"/><path d="M876.5 131C876.5 129.067 878.515 127.5 881 127.5 883.485 127.5 885.5 129.067 885.5 131 885.5 132.933 883.485 134.5 881 134.5 878.515 134.5 876.5 132.933 876.5 131Z" stroke="#000000" stroke-width="1.33333" stroke-miterlimit="8" fill-rule="evenodd"/><path d="M892.5 147C892.5 145.067 894.515 143.5 897 143.5 899.485 143.5 901.5 145.067 901.5 147 901.5 148.933 899.485 150.5 897 150.5 894.515 150.5 892.5 148.933 892.5 147Z" stroke="#000000" stroke-width="1.33333" stroke-miterlimit="8" fill-rule="evenodd"/><path d="M910.5 129C910.5 127.067 912.291 125.5 914.5 125.5 916.709 125.5 918.5 127.067 918.5 129 918.5 130.933 916.709 132.5 914.5 132.5 912.291 132.5 910.5 130.933 910.5 129Z" stroke="#000000" stroke-width="1.33333" stroke-miterlimit="8" fill-rule="evenodd"/><path d="M931.5 138.5C931.5 136.291 933.515 134.5 936 134.5 938.485 134.5 940.5 136.291 940.5 138.5 940.5 140.709 938.485 142.5 936 142.5 933.515 142.5 931.5 140.709 931.5 138.5Z" stroke="#000000" stroke-width="1.33333" stroke-miterlimit="8" fill-rule="evenodd"/><path d="M878.5 156.5C880.709 156.5 882.5 158.291 882.5 160.5 882.5 162.709 880.709 164.5 878.5 164.5 876.291 164.5 874.5 162.709 874.5 160.5 874.5 158.291 876.291 156.5 878.5 156.5Z" stroke="#000000" stroke-width="1.33333" stroke-miterlimit="8" fill-rule="evenodd"/><path d="M894.5 172.5C896.709 172.5 898.5 174.291 898.5 176.5 898.5 178.709 896.709 180.5 894.5 180.5 892.291 180.5 890.5 178.709 890.5 176.5 890.5 174.291 892.291 172.5 894.5 172.5Z" stroke="#000000" stroke-width="1.33333" stroke-miterlimit="8" fill-rule="evenodd"/><path d="M912 154.5C913.933 154.5 915.5 156.291 915.5 158.5 915.5 160.709 913.933 162.5 912 162.5 910.067 162.5 908.5 160.709 908.5 158.5 908.5 156.291 910.067 154.5 912 154.5Z" stroke="#000000" stroke-width="1.33333" stroke-miterlimit="8" fill-rule="evenodd"/><path d="M933.5 163.5C935.709 163.5 937.5 165.515 937.5 168 937.5 170.485 935.709 172.5 933.5 172.5 931.291 172.5 929.5 170.485 929.5 168 929.5 165.515 931.291 163.5 933.5 163.5Z" stroke="#000000" stroke-width="1.33333" stroke-miterlimit="8" fill-rule="evenodd"/><path d="M892.5 147C892.5 145.067 894.515 143.5 897 143.5 899.485 143.5 901.5 145.067 901.5 147 901.5 148.933 899.485 150.5 897 150.5 894.515 150.5 892.5 148.933 892.5 147Z" stroke="#000000" stroke-width="1.33333" stroke-miterlimit="8" fill-rule="evenodd"/><path d="M891.5 130C891.5 128.067 893.291 126.5 895.5 126.5 897.709 126.5 899.5 128.067 899.5 130 899.5 131.933 897.709 133.5 895.5 133.5 893.291 133.5 891.5 131.933 891.5 130Z" stroke="#000000" stroke-width="1.33333" stroke-miterlimit="8" fill-rule="evenodd"/><path d="M926.5 145C926.5 143.067 928.291 141.5 930.5 141.5 932.709 141.5 934.5 143.067 934.5 145 934.5 146.933 932.709 148.5 930.5 148.5 928.291 148.5 926.5 146.933 926.5 145Z" stroke="#000000" stroke-width="1.33333" stroke-miterlimit="8" fill-rule="evenodd"/><path d="M947.5 154.5C947.5 152.291 949.515 150.5 952 150.5 954.485 150.5 956.5 152.291 956.5 154.5 956.5 156.709 954.485 158.5 952 158.5 949.515 158.5 947.5 156.709 947.5 154.5Z" stroke="#000000" stroke-width="1.33333" stroke-miterlimit="8" fill-rule="evenodd"/><path d="M894.5 172.5C896.709 172.5 898.5 174.291 898.5 176.5 898.5 178.709 896.709 180.5 894.5 180.5 892.291 180.5 890.5 178.709 890.5 176.5 890.5 174.291 892.291 172.5 894.5 172.5Z" stroke="#000000" stroke-width="1.33333" stroke-miterlimit="8" fill-rule="evenodd"/><path d="M910.5 188.5C912.709 188.5 914.5 190.291 914.5 192.5 914.5 194.709 912.709 196.5 910.5 196.5 908.291 196.5 906.5 194.709 906.5 192.5 906.5 190.291 908.291 188.5 910.5 188.5Z" stroke="#000000" stroke-width="1.33333" stroke-miterlimit="8" fill-rule="evenodd"/><path d="M921 174.5C922.933 174.5 924.5 176.515 924.5 179 924.5 181.485 922.933 183.5 921 183.5 919.067 183.5 917.5 181.485 917.5 179 917.5 176.515 919.067 174.5 921 174.5Z" stroke="#000000" stroke-width="1.33333" stroke-miterlimit="8" fill-rule="evenodd"/><path d="M949.5 179.5C951.709 179.5 953.5 181.515 953.5 184 953.5 186.485 951.709 188.5 949.5 188.5 947.291 188.5 945.5 186.485 945.5 184 945.5 181.515 947.291 179.5 949.5 179.5Z" stroke="#000000" stroke-width="1.33333" stroke-miterlimit="8" fill-rule="evenodd"/><path d="M778.395 30.4838 792.672 164.304 736.167 42.161Z" stroke="#0070C0" stroke-width="2" stroke-miterlimit="8" fill="#FFFFFF" fill-rule="evenodd"/><path d="M1108.5 28.8524 1122.78 162.672 1066.27 40.5296Z" stroke="#0070C0" stroke-width="2" stroke-miterlimit="8" fill="#FFFFFF" fill-rule="evenodd"/><path d="M527.863 436.163 554.826 404 552.679 446.793 580.89 427.496 567.708 452.385 610 453.222 572.61 473.644 583.021 487.63 567.708 495.185 587.939 519.793 553.611 510.296 556.058 532.667 533.681 522.037 529.079 543.57 514.981 532.667 505.486 550.015 495.983 538.259 474.837 564 473.929 539.111 445.411 536.037 461.979 517.852 435 499.385 466.881 489.867 444.495 465.259 478.523 461.904 471.475 430.852 504.271 451.274 513.766 417.978Z" stroke="#FFFFFF" stroke-width="2" stroke-miterlimit="8" fill="#FFC000" fill-rule="evenodd"/><path d="M179.394 430.962 206.511 399 204.352 441.525 232.724 422.349 219.467 447.083 262 447.915 224.396 468.209 234.867 482.107 219.467 489.615 239.813 514.069 205.289 504.632 207.75 526.862 185.244 516.299 180.616 537.698 166.439 526.862 156.889 544.102 147.331 532.42 126.064 558 125.152 533.267 96.4704 530.212 113.133 512.14 86 493.789 118.063 484.33 95.5496 459.876 129.772 456.542 122.683 425.684 155.667 445.979 165.216 412.89Z" stroke="#FFFFFF" stroke-width="2" stroke-miterlimit="8" fill="#FFC000" fill-rule="evenodd"/><rect x="53.5001" y="312.5" width="565" height="308" stroke="#000000" stroke-width="3" stroke-miterlimit="8" stroke-dasharray="24 9" fill="none"/><text font-family="Calibri,Calibri_MSFontService,sans-serif" font-weight="700" font-size="32" transform="translate(77.6523 361)">R</text><path d="M124.5 487.5C124.5 467.618 140.618 451.5 160.5 451.5 180.382 451.5 196.5 467.618 196.5 487.5 196.5 507.382 180.382 523.5 160.5 523.5 140.618 523.5 124.5 507.382 124.5 487.5Z" stroke="#000000" stroke-width="1.33333" stroke-miterlimit="8" fill="#FFFFFF" fill-rule="evenodd"/><path d="M134.5 495C134.5 491.962 136.962 489.5 140 489.5 143.038 489.5 145.5 491.962 145.5 495 145.5 498.038 143.038 500.5 140 500.5 136.962 500.5 134.5 498.038 134.5 495Z" stroke="#000000" stroke-width="1.33333" stroke-miterlimit="8" fill-rule="evenodd"/><path d="M150.5 493C150.5 489.962 153.186 487.5 156.5 487.5 159.814 487.5 162.5 489.962 162.5 493 162.5 496.038 159.814 498.5 156.5 498.5 153.186 498.5 150.5 496.038 150.5 493Z" stroke="#000000" stroke-width="1.33333" stroke-miterlimit="8" fill-rule="evenodd"/><path d="M173.5 499C173.5 495.962 175.962 493.5 179 493.5 182.038 493.5 184.5 495.962 184.5 499 184.5 502.038 182.038 504.5 179 504.5 175.962 504.5 173.5 502.038 173.5 499Z" stroke="#000000" stroke-width="1.33333" stroke-miterlimit="8" fill-rule="evenodd"/><path d="M144.5 511.5C144.5 508.186 146.962 505.5 150 505.5 153.038 505.5 155.5 508.186 155.5 511.5 155.5 514.814 153.038 517.5 150 517.5 146.962 517.5 144.5 514.814 144.5 511.5Z" stroke="#000000" stroke-width="1.33333" stroke-miterlimit="8" fill-rule="evenodd"/><path d="M161.5 512C161.5 508.962 163.962 506.5 167 506.5 170.038 506.5 172.5 508.962 172.5 512 172.5 515.038 170.038 517.5 167 517.5 163.962 517.5 161.5 515.038 161.5 512Z" stroke="#000000" stroke-width="1.33333" stroke-miterlimit="8" fill-rule="evenodd"/><path d="M169.5 465C169.5 461.962 172.186 459.5 175.5 459.5 178.814 459.5 181.5 461.962 181.5 465 181.5 468.038 178.814 470.5 175.5 470.5 172.186 470.5 169.5 468.038 169.5 465Z" stroke="#000000" stroke-width="1.33333" stroke-miterlimit="8" fill-rule="evenodd"/><path d="M147.5 482C147.5 478.962 149.962 476.5 153 476.5 156.038 476.5 158.5 478.962 158.5 482 158.5 485.038 156.038 487.5 153 487.5 149.962 487.5 147.5 485.038 147.5 482Z" stroke="#000000" stroke-width="1.33333" stroke-miterlimit="8" fill-rule="evenodd"/><path d="M162.5 487C162.5 483.962 164.962 481.5 168 481.5 171.038 481.5 173.5 483.962 173.5 487 173.5 490.038 171.038 492.5 168 492.5 164.962 492.5 162.5 490.038 162.5 487Z" stroke="#000000" stroke-width="1.33333" stroke-miterlimit="8" fill-rule="evenodd"/><path d="M145.5 461.5C145.5 458.186 148.186 455.5 151.5 455.5 154.814 455.5 157.5 458.186 157.5 461.5 157.5 464.814 154.814 467.5 151.5 467.5 148.186 467.5 145.5 464.814 145.5 461.5Z" stroke="#000000" stroke-width="1.33333" stroke-miterlimit="8" fill-rule="evenodd"/><path d="M134.5 476C134.5 472.962 136.962 470.5 140 470.5 143.038 470.5 145.5 472.962 145.5 476 145.5 479.038 143.038 481.5 140 481.5 136.962 481.5 134.5 479.038 134.5 476Z" stroke="#000000" stroke-width="1.33333" stroke-miterlimit="8" fill-rule="evenodd"/><path d="M158.5 472.5C158.5 469.186 160.962 466.5 164 466.5 167.038 466.5 169.5 469.186 169.5 472.5 169.5 475.814 167.038 478.5 164 478.5 160.962 478.5 158.5 475.814 158.5 472.5Z" stroke="#000000" stroke-width="1.33333" stroke-miterlimit="8" fill-rule="evenodd"/><path d="M173.5 481.5C173.5 478.186 176.186 475.5 179.5 475.5 182.814 475.5 185.5 478.186 185.5 481.5 185.5 484.814 182.814 487.5 179.5 487.5 176.186 487.5 173.5 484.814 173.5 481.5Z" stroke="#000000" stroke-width="1.33333" stroke-miterlimit="8" fill-rule="evenodd"/><path d="M474.5 488.5C474.5 468.618 490.618 452.5 510.5 452.5 530.382 452.5 546.5 468.618 546.5 488.5 546.5 508.382 530.382 524.5 510.5 524.5 490.618 524.5 474.5 508.382 474.5 488.5Z" stroke="#000000" stroke-width="1.33333" stroke-miterlimit="8" fill="#FFFFFF" fill-rule="evenodd"/><path d="M484.5 495C484.5 491.962 486.962 489.5 490 489.5 493.038 489.5 495.5 491.962 495.5 495 495.5 498.038 493.038 500.5 490 500.5 486.962 500.5 484.5 498.038 484.5 495Z" stroke="#000000" stroke-width="1.33333" stroke-miterlimit="8" fill-rule="evenodd"/><path d="M500.5 493.5C500.5 490.186 503.186 487.5 506.5 487.5 509.814 487.5 512.5 490.186 512.5 493.5 512.5 496.814 509.814 499.5 506.5 499.5 503.186 499.5 500.5 496.814 500.5 493.5Z" stroke="#000000" stroke-width="1.33333" stroke-miterlimit="8" fill-rule="evenodd"/><path d="M523.5 499C523.5 495.962 525.963 493.5 529 493.5 532.038 493.5 534.5 495.962 534.5 499 534.5 502.038 532.038 504.5 529 504.5 525.963 504.5 523.5 502.038 523.5 499Z" stroke="#000000" stroke-width="1.33333" stroke-miterlimit="8" fill-rule="evenodd"/><path d="M494.5 512C494.5 508.962 496.962 506.5 500 506.5 503.038 506.5 505.5 508.962 505.5 512 505.5 515.038 503.038 517.5 500 517.5 496.962 517.5 494.5 515.038 494.5 512Z" stroke="#000000" stroke-width="1.33333" stroke-miterlimit="8" fill-rule="evenodd"/><path d="M511.5 512C511.5 508.962 513.963 506.5 517 506.5 520.038 506.5 522.5 508.962 522.5 512 522.5 515.038 520.038 517.5 517 517.5 513.963 517.5 511.5 515.038 511.5 512Z" stroke="#000000" stroke-width="1.33333" stroke-miterlimit="8" fill-rule="evenodd"/><path d="M519.5 465.5C519.5 462.186 522.186 459.5 525.5 459.5 528.814 459.5 531.5 462.186 531.5 465.5 531.5 468.814 528.814 471.5 525.5 471.5 522.186 471.5 519.5 468.814 519.5 465.5Z" stroke="#000000" stroke-width="1.33333" stroke-miterlimit="8" fill-rule="evenodd"/><path d="M497.5 482.5C497.5 479.186 499.962 476.5 503 476.5 506.038 476.5 508.5 479.186 508.5 482.5 508.5 485.814 506.038 488.5 503 488.5 499.962 488.5 497.5 485.814 497.5 482.5Z" stroke="#000000" stroke-width="1.33333" stroke-miterlimit="8" fill-rule="evenodd"/><path d="M512.5 487.5C512.5 484.186 514.963 481.5 518 481.5 521.038 481.5 523.5 484.186 523.5 487.5 523.5 490.814 521.038 493.5 518 493.5 514.963 493.5 512.5 490.814 512.5 487.5Z" stroke="#000000" stroke-width="1.33333" stroke-miterlimit="8" fill-rule="evenodd"/><path d="M495.5 462C495.5 458.962 498.186 456.5 501.5 456.5 504.814 456.5 507.5 458.962 507.5 462 507.5 465.038 504.814 467.5 501.5 467.5 498.186 467.5 495.5 465.038 495.5 462Z" stroke="#000000" stroke-width="1.33333" stroke-miterlimit="8" fill-rule="evenodd"/><path d="M484.5 476C484.5 472.962 486.962 470.5 490 470.5 493.038 470.5 495.5 472.962 495.5 476 495.5 479.038 493.038 481.5 490 481.5 486.962 481.5 484.5 479.038 484.5 476Z" stroke="#000000" stroke-width="1.33333" stroke-miterlimit="8" fill-rule="evenodd"/><path d="M508.5 473C508.5 469.962 510.962 467.5 514 467.5 517.038 467.5 519.5 469.962 519.5 473 519.5 476.038 517.038 478.5 514 478.5 510.962 478.5 508.5 476.038 508.5 473Z" stroke="#000000" stroke-width="1.33333" stroke-miterlimit="8" fill-rule="evenodd"/><path d="M523.5 482C523.5 478.962 526.186 476.5 529.5 476.5 532.814 476.5 535.5 478.962 535.5 482 535.5 485.038 532.814 487.5 529.5 487.5 526.186 487.5 523.5 485.038 523.5 482Z" stroke="#000000" stroke-width="1.33333" stroke-miterlimit="8" fill-rule="evenodd"/><path d="M339.5 455.5C339.5 453.291 341.291 451.5 343.5 451.5 345.709 451.5 347.5 453.291 347.5 455.5 347.5 457.709 345.709 459.5 343.5 459.5 341.291 459.5 339.5 457.709 339.5 455.5Z" stroke="#000000" stroke-width="1.33333" stroke-miterlimit="8" fill-rule="evenodd"/><path d="M355.5 471.5C355.5 469.291 357.291 467.5 359.5 467.5 361.709 467.5 363.5 469.291 363.5 471.5 363.5 473.709 361.709 475.5 359.5 475.5 357.291 475.5 355.5 473.709 355.5 471.5Z" stroke="#000000" stroke-width="1.33333" stroke-miterlimit="8" fill-rule="evenodd"/><path d="M372.5 453.5C372.5 451.291 374.291 449.5 376.5 449.5 378.709 449.5 380.5 451.291 380.5 453.5 380.5 455.709 378.709 457.5 376.5 457.5 374.291 457.5 372.5 455.709 372.5 453.5Z" stroke="#000000" stroke-width="1.33333" stroke-miterlimit="8" fill-rule="evenodd"/><path d="M393.5 463C393.5 461.067 395.515 459.5 398 459.5 400.485 459.5 402.5 461.067 402.5 463 402.5 464.933 400.485 466.5 398 466.5 395.515 466.5 393.5 464.933 393.5 463Z" stroke="#000000" stroke-width="1.33333" stroke-miterlimit="8" fill-rule="evenodd"/><path d="M340.5 480.5C342.709 480.5 344.5 482.291 344.5 484.5 344.5 486.709 342.709 488.5 340.5 488.5 338.291 488.5 336.5 486.709 336.5 484.5 336.5 482.291 338.291 480.5 340.5 480.5Z" stroke="#000000" stroke-width="1.33333" stroke-miterlimit="8" fill-rule="evenodd"/><path d="M356.5 496.5C358.709 496.5 360.5 498.291 360.5 500.5 360.5 502.709 358.709 504.5 356.5 504.5 354.291 504.5 352.5 502.709 352.5 500.5 352.5 498.291 354.291 496.5 356.5 496.5Z" stroke="#000000" stroke-width="1.33333" stroke-miterlimit="8" fill-rule="evenodd"/><path d="M374 478.5C375.933 478.5 377.5 480.515 377.5 483 377.5 485.485 375.933 487.5 374 487.5 372.067 487.5 370.5 485.485 370.5 483 370.5 480.515 372.067 478.5 374 478.5Z" stroke="#000000" stroke-width="1.33333" stroke-miterlimit="8" fill-rule="evenodd"/><path d="M395.5 488.5C397.709 488.5 399.5 490.291 399.5 492.5 399.5 494.709 397.709 496.5 395.5 496.5 393.291 496.5 391.5 494.709 391.5 492.5 391.5 490.291 393.291 488.5 395.5 488.5Z" stroke="#000000" stroke-width="1.33333" stroke-miterlimit="8" fill-rule="evenodd"/><path d="M355.5 471.5C355.5 469.291 357.291 467.5 359.5 467.5 361.709 467.5 363.5 469.291 363.5 471.5 363.5 473.709 361.709 475.5 359.5 475.5 357.291 475.5 355.5 473.709 355.5 471.5Z" stroke="#000000" stroke-width="1.33333" stroke-miterlimit="8" fill-rule="evenodd"/><path d="M353.5 454.5C353.5 452.291 355.291 450.5 357.5 450.5 359.709 450.5 361.5 452.291 361.5 454.5 361.5 456.709 359.709 458.5 357.5 458.5 355.291 458.5 353.5 456.709 353.5 454.5Z" stroke="#000000" stroke-width="1.33333" stroke-miterlimit="8" fill-rule="evenodd"/><path d="M388.5 469.5C388.5 467.291 390.291 465.5 392.5 465.5 394.709 465.5 396.5 467.291 396.5 469.5 396.5 471.709 394.709 473.5 392.5 473.5 390.291 473.5 388.5 471.709 388.5 469.5Z" stroke="#000000" stroke-width="1.33333" stroke-miterlimit="8" fill-rule="evenodd"/><path d="M409.5 479C409.5 477.067 411.515 475.5 414 475.5 416.485 475.5 418.5 477.067 418.5 479 418.5 480.933 416.485 482.5 414 482.5 411.515 482.5 409.5 480.933 409.5 479Z" stroke="#000000" stroke-width="1.33333" stroke-miterlimit="8" fill-rule="evenodd"/><path d="M356.5 496.5C358.709 496.5 360.5 498.291 360.5 500.5 360.5 502.709 358.709 504.5 356.5 504.5 354.291 504.5 352.5 502.709 352.5 500.5 352.5 498.291 354.291 496.5 356.5 496.5Z" stroke="#000000" stroke-width="1.33333" stroke-miterlimit="8" fill-rule="evenodd"/><path d="M372.5 512.5C374.709 512.5 376.5 514.291 376.5 516.5 376.5 518.709 374.709 520.5 372.5 520.5 370.291 520.5 368.5 518.709 368.5 516.5 368.5 514.291 370.291 512.5 372.5 512.5Z" stroke="#000000" stroke-width="1.33333" stroke-miterlimit="8" fill-rule="evenodd"/><path d="M383.5 499.5C385.709 499.5 387.5 501.291 387.5 503.5 387.5 505.709 385.709 507.5 383.5 507.5 381.291 507.5 379.5 505.709 379.5 503.5 379.5 501.291 381.291 499.5 383.5 499.5Z" stroke="#000000" stroke-width="1.33333" stroke-miterlimit="8" fill-rule="evenodd"/><path d="M411.5 504.5C413.709 504.5 415.5 506.291 415.5 508.5 415.5 510.709 413.709 512.5 411.5 512.5 409.291 512.5 407.5 510.709 407.5 508.5 407.5 506.291 409.291 504.5 411.5 504.5Z" stroke="#000000" stroke-width="1.33333" stroke-miterlimit="8" fill-rule="evenodd"/><path d="M263.5 447.5C263.5 445.291 265.291 443.5 267.5 443.5 269.709 443.5 271.5 445.291 271.5 447.5 271.5 449.709 269.709 451.5 267.5 451.5 265.291 451.5 263.5 449.709 263.5 447.5Z" stroke="#000000" stroke-width="1.33333" stroke-miterlimit="8" fill-rule="evenodd"/><path d="M279.5 463.5C279.5 461.291 281.291 459.5 283.5 459.5 285.709 459.5 287.5 461.291 287.5 463.5 287.5 465.709 285.709 467.5 283.5 467.5 281.291 467.5 279.5 465.709 279.5 463.5Z" stroke="#000000" stroke-width="1.33333" stroke-miterlimit="8" fill-rule="evenodd"/><path d="M296.5 446C296.5 444.067 298.291 442.5 300.5 442.5 302.709 442.5 304.5 444.067 304.5 446 304.5 447.933 302.709 449.5 300.5 449.5 298.291 449.5 296.5 447.933 296.5 446Z" stroke="#000000" stroke-width="1.33333" stroke-miterlimit="8" fill-rule="evenodd"/><path d="M317.5 455.5C317.5 453.291 319.515 451.5 322 451.5 324.485 451.5 326.5 453.291 326.5 455.5 326.5 457.709 324.485 459.5 322 459.5 319.515 459.5 317.5 457.709 317.5 455.5Z" stroke="#000000" stroke-width="1.33333" stroke-miterlimit="8" fill-rule="evenodd"/><path d="M264.5 473.5C266.709 473.5 268.5 475.291 268.5 477.5 268.5 479.709 266.709 481.5 264.5 481.5 262.291 481.5 260.5 479.709 260.5 477.5 260.5 475.291 262.291 473.5 264.5 473.5Z" stroke="#000000" stroke-width="1.33333" stroke-miterlimit="8" fill-rule="evenodd"/><path d="M280.5 489.5C282.709 489.5 284.5 491.291 284.5 493.5 284.5 495.709 282.709 497.5 280.5 497.5 278.291 497.5 276.5 495.709 276.5 493.5 276.5 491.291 278.291 489.5 280.5 489.5Z" stroke="#000000" stroke-width="1.33333" stroke-miterlimit="8" fill-rule="evenodd"/><path d="M298 471.5C299.933 471.5 301.5 473.291 301.5 475.5 301.5 477.709 299.933 479.5 298 479.5 296.067 479.5 294.5 477.709 294.5 475.5 294.5 473.291 296.067 471.5 298 471.5Z" stroke="#000000" stroke-width="1.33333" stroke-miterlimit="8" fill-rule="evenodd"/><path d="M319.5 480.5C321.709 480.5 323.5 482.291 323.5 484.5 323.5 486.709 321.709 488.5 319.5 488.5 317.291 488.5 315.5 486.709 315.5 484.5 315.5 482.291 317.291 480.5 319.5 480.5Z" stroke="#000000" stroke-width="1.33333" stroke-miterlimit="8" fill-rule="evenodd"/><path d="M279.5 463.5C279.5 461.291 281.291 459.5 283.5 459.5 285.709 459.5 287.5 461.291 287.5 463.5 287.5 465.709 285.709 467.5 283.5 467.5 281.291 467.5 279.5 465.709 279.5 463.5Z" stroke="#000000" stroke-width="1.33333" stroke-miterlimit="8" fill-rule="evenodd"/><path d="M277.5 446.5C277.5 444.291 279.291 442.5 281.5 442.5 283.709 442.5 285.5 444.291 285.5 446.5 285.5 448.709 283.709 450.5 281.5 450.5 279.291 450.5 277.5 448.709 277.5 446.5Z" stroke="#000000" stroke-width="1.33333" stroke-miterlimit="8" fill-rule="evenodd"/><path d="M312.5 462C312.5 460.067 314.291 458.5 316.5 458.5 318.709 458.5 320.5 460.067 320.5 462 320.5 463.933 318.709 465.5 316.5 465.5 314.291 465.5 312.5 463.933 312.5 462Z" stroke="#000000" stroke-width="1.33333" stroke-miterlimit="8" fill-rule="evenodd"/><path d="M333.5 471.5C333.5 469.291 335.515 467.5 338 467.5 340.485 467.5 342.5 469.291 342.5 471.5 342.5 473.709 340.485 475.5 338 475.5 335.515 475.5 333.5 473.709 333.5 471.5Z" stroke="#000000" stroke-width="1.33333" stroke-miterlimit="8" fill-rule="evenodd"/><path d="M280.5 489.5C282.709 489.5 284.5 491.291 284.5 493.5 284.5 495.709 282.709 497.5 280.5 497.5 278.291 497.5 276.5 495.709 276.5 493.5 276.5 491.291 278.291 489.5 280.5 489.5Z" stroke="#000000" stroke-width="1.33333" stroke-miterlimit="8" fill-rule="evenodd"/><path d="M296.5 505.5C298.709 505.5 300.5 507.291 300.5 509.5 300.5 511.709 298.709 513.5 296.5 513.5 294.291 513.5 292.5 511.709 292.5 509.5 292.5 507.291 294.291 505.5 296.5 505.5Z" stroke="#000000" stroke-width="1.33333" stroke-miterlimit="8" fill-rule="evenodd"/><path d="M307.5 491.5C309.709 491.5 311.5 493.291 311.5 495.5 311.5 497.709 309.709 499.5 307.5 499.5 305.291 499.5 303.5 497.709 303.5 495.5 303.5 493.291 305.291 491.5 307.5 491.5Z" stroke="#000000" stroke-width="1.33333" stroke-miterlimit="8" fill-rule="evenodd"/><path d="M335.5 496.5C337.709 496.5 339.5 498.291 339.5 500.5 339.5 502.709 337.709 504.5 335.5 504.5 333.291 504.5 331.5 502.709 331.5 500.5 331.5 498.291 333.291 496.5 335.5 496.5Z" stroke="#000000" stroke-width="1.33333" stroke-miterlimit="8" fill-rule="evenodd"/><path d="M164.516 347.242 178.792 481.062 122.288 358.919Z" stroke="#0070C0" stroke-width="2" stroke-miterlimit="8" fill="#FFFFFF" fill-rule="evenodd"/><path d="M494.622 345.611 508.898 479.431 452.394 357.288Z" stroke="#0070C0" stroke-width="2" stroke-miterlimit="8" fill="#FFFFFF" fill-rule="evenodd"/><path d="M921.492 508.717 931.218 513.257 918.917 513.985 924.98 519.124 917.6 517.152 918.162 525.662 911.602 518.712 907.792 521.18 905.337 518.311 898.671 523.038 900.741 515.891 894.378 516.988 896.999 512.21 890.742 511.869 893.599 508.745 888.448 507.309 891.636 505.083 883.86 501.537 890.974 500.681 891.313 494.874 896.838 497.707 901.617 491.792 904.949 497.933 911.574 492.774 913.181 499.512 921.944 497.257 916.715 504.391 926.434 505.395Z" stroke="#FFFFFF" stroke-width="2" stroke-miterlimit="8" fill="#FFC000" fill-rule="evenodd"/><path d="M1002.85 519.399 1012.58 523.939 1000.28 524.667 1006.34 529.806 998.958 527.834 999.521 536.344 992.961 529.394 989.151 531.862 986.696 528.993 980.03 533.719 982.099 526.573 975.737 527.67 978.357 522.891 972.101 522.551 974.957 519.427 969.807 517.991 972.995 515.765 965.219 512.219 972.332 511.363 972.672 505.556 978.197 508.389 982.976 502.474 986.307 508.614 992.933 503.456 994.54 510.194 1003.3 507.938 998.074 515.073 1007.79 516.077Z" stroke="#FFFFFF" stroke-width="2" stroke-miterlimit="8" fill="#FFC000" fill-rule="evenodd"/><path d="M1008.01 451.327 1017.74 455.868 1005.44 456.596 1011.5 461.734 1004.12 459.763 1004.69 468.273 998.125 461.322 994.315 463.79 991.86 460.922 985.194 465.648 987.264 458.502 980.901 459.599 983.522 454.82 977.265 454.48 980.122 451.355 974.971 449.92 978.159 447.694 970.383 444.147 977.497 443.291 977.836 437.485 983.361 440.317 988.14 434.403 991.472 440.543 998.097 435.384 999.704 442.123 1008.47 439.867 1003.24 447.002 1012.96 448.006Z" stroke="#FFFFFF" stroke-width="2" stroke-miterlimit="8" fill="#FFC000" fill-rule="evenodd"/><path d="M928.521 443.111 938.247 447.651 925.946 448.379 932.01 453.518 924.629 451.547 925.191 460.057 918.631 453.106 914.822 455.574 912.366 452.706 905.7 457.432 907.77 450.286 901.407 451.383 904.028 446.604 897.771 446.264 900.628 443.139 895.477 441.703 898.665 439.478 890.889 435.931 898.003 435.075 898.343 429.269 903.867 432.101 908.646 426.187 911.978 432.327 918.603 427.168 920.21 433.906 928.973 431.651 923.744 438.786 933.464 439.79Z" stroke="#FFFFFF" stroke-width="2" stroke-miterlimit="8" fill="#FFC000" fill-rule="evenodd"/><path d="M1142.86 435.962 1169.83 404 1167.68 446.525 1195.89 427.349 1182.71 452.083 1225 452.915 1187.61 473.209 1198.02 487.107 1182.71 494.615 1202.94 519.069 1168.61 509.632 1171.06 531.862 1148.68 521.299 1144.08 542.698 1129.98 531.862 1120.49 549.102 1110.98 537.42 1089.84 563 1088.93 538.267 1060.41 535.212 1076.98 517.14 1050 498.789 1081.88 489.33 1059.5 464.876 1093.52 461.542 1086.47 430.684 1119.27 450.979 1128.77 417.89Z" stroke="#FFFFFF" stroke-width="2" stroke-miterlimit="8" fill="#FFC000" fill-rule="evenodd"/><path d="M793.863 429.962 820.826 398 818.679 440.525 846.89 421.349 833.708 446.083 876 446.915 838.61 467.209 849.021 481.107 833.708 488.615 853.939 513.069 819.611 503.632 822.058 525.862 799.681 515.299 795.079 536.698 780.981 525.862 771.486 543.102 761.983 531.42 740.837 557 739.929 532.267 711.411 529.212 727.979 511.14 701 492.789 732.881 483.33 710.495 458.876 744.523 455.542 737.475 424.684 770.271 444.979 779.766 411.89Z" stroke="#FFFFFF" stroke-width="2" stroke-miterlimit="8" fill="#FFC000" fill-rule="evenodd"/><rect x="668.5" y="311.5" width="565" height="308" stroke="#000000" stroke-width="3" stroke-miterlimit="8" stroke-dasharray="24 9" fill="none"/><text font-family="Calibri,Calibri_MSFontService,sans-serif" font-weight="700" font-size="32" transform="translate(692.284 360)">R</text><path d="M739.5 486.5C739.5 466.618 755.618 450.5 775.5 450.5 795.382 450.5 811.5 466.618 811.5 486.5 811.5 506.382 795.382 522.5 775.5 522.5 755.618 522.5 739.5 506.382 739.5 486.5Z" stroke="#000000" stroke-width="1.33333" stroke-miterlimit="8" fill="#FFFFFF" fill-rule="evenodd"/><path d="M749.5 494C749.5 490.962 751.963 488.5 755 488.5 758.038 488.5 760.5 490.962 760.5 494 760.5 497.038 758.038 499.5 755 499.5 751.963 499.5 749.5 497.038 749.5 494Z" stroke="#000000" stroke-width="1.33333" stroke-miterlimit="8" fill-rule="evenodd"/><path d="M765.5 492C765.5 488.962 767.963 486.5 771 486.5 774.038 486.5 776.5 488.962 776.5 492 776.5 495.038 774.038 497.5 771 497.5 767.963 497.5 765.5 495.038 765.5 492Z" stroke="#000000" stroke-width="1.33333" stroke-miterlimit="8" fill-rule="evenodd"/><path d="M788.5 498C788.5 494.962 790.963 492.5 794 492.5 797.038 492.5 799.5 494.962 799.5 498 799.5 501.038 797.038 503.5 794 503.5 790.963 503.5 788.5 501.038 788.5 498Z" stroke="#000000" stroke-width="1.33333" stroke-miterlimit="8" fill-rule="evenodd"/><path d="M758.5 511C758.5 507.962 761.186 505.5 764.5 505.5 767.814 505.5 770.5 507.962 770.5 511 770.5 514.038 767.814 516.5 764.5 516.5 761.186 516.5 758.5 514.038 758.5 511Z" stroke="#000000" stroke-width="1.33333" stroke-miterlimit="8" fill-rule="evenodd"/><path d="M775.5 511C775.5 507.962 778.186 505.5 781.5 505.5 784.814 505.5 787.5 507.962 787.5 511 787.5 514.038 784.814 516.5 781.5 516.5 778.186 516.5 775.5 514.038 775.5 511Z" stroke="#000000" stroke-width="1.33333" stroke-miterlimit="8" fill-rule="evenodd"/><path d="M784.5 464C784.5 460.962 786.963 458.5 790 458.5 793.038 458.5 795.5 460.962 795.5 464 795.5 467.038 793.038 469.5 790 469.5 786.963 469.5 784.5 467.038 784.5 464Z" stroke="#000000" stroke-width="1.33333" stroke-miterlimit="8" fill-rule="evenodd"/><path d="M761.5 481C761.5 477.962 764.186 475.5 767.5 475.5 770.814 475.5 773.5 477.962 773.5 481 773.5 484.038 770.814 486.5 767.5 486.5 764.186 486.5 761.5 484.038 761.5 481Z" stroke="#000000" stroke-width="1.33333" stroke-miterlimit="8" fill-rule="evenodd"/><path d="M776.5 486.5C776.5 483.186 779.186 480.5 782.5 480.5 785.814 480.5 788.5 483.186 788.5 486.5 788.5 489.814 785.814 492.5 782.5 492.5 779.186 492.5 776.5 489.814 776.5 486.5Z" stroke="#000000" stroke-width="1.33333" stroke-miterlimit="8" fill-rule="evenodd"/><path d="M760.5 460.5C760.5 457.186 762.963 454.5 766 454.5 769.038 454.5 771.5 457.186 771.5 460.5 771.5 463.814 769.038 466.5 766 466.5 762.963 466.5 760.5 463.814 760.5 460.5Z" stroke="#000000" stroke-width="1.33333" stroke-miterlimit="8" fill-rule="evenodd"/><path d="M749.5 475C749.5 471.962 751.963 469.5 755 469.5 758.038 469.5 760.5 471.962 760.5 475 760.5 478.038 758.038 480.5 755 480.5 751.963 480.5 749.5 478.038 749.5 475Z" stroke="#000000" stroke-width="1.33333" stroke-miterlimit="8" fill-rule="evenodd"/><path d="M772.5 472C772.5 468.962 775.186 466.5 778.5 466.5 781.814 466.5 784.5 468.962 784.5 472 784.5 475.038 781.814 477.5 778.5 477.5 775.186 477.5 772.5 475.038 772.5 472Z" stroke="#000000" stroke-width="1.33333" stroke-miterlimit="8" fill-rule="evenodd"/><path d="M788.5 481C788.5 477.962 790.963 475.5 794 475.5 797.038 475.5 799.5 477.962 799.5 481 799.5 484.038 797.038 486.5 794 486.5 790.963 486.5 788.5 484.038 788.5 481Z" stroke="#000000" stroke-width="1.33333" stroke-miterlimit="8" fill-rule="evenodd"/><path d="M1089.5 487.5C1089.5 467.618 1105.62 451.5 1125.5 451.5 1145.38 451.5 1161.5 467.618 1161.5 487.5 1161.5 507.382 1145.38 523.5 1125.5 523.5 1105.62 523.5 1089.5 507.382 1089.5 487.5Z" stroke="#000000" stroke-width="1.33333" stroke-miterlimit="8" fill="#FFFFFF" fill-rule="evenodd"/><path d="M1099.5 494C1099.5 490.962 1101.96 488.5 1105 488.5 1108.04 488.5 1110.5 490.962 1110.5 494 1110.5 497.038 1108.04 499.5 1105 499.5 1101.96 499.5 1099.5 497.038 1099.5 494Z" stroke="#000000" stroke-width="1.33333" stroke-miterlimit="8" fill-rule="evenodd"/><path d="M1115.5 493C1115.5 489.962 1117.96 487.5 1121 487.5 1124.04 487.5 1126.5 489.962 1126.5 493 1126.5 496.038 1124.04 498.5 1121 498.5 1117.96 498.5 1115.5 496.038 1115.5 493Z" stroke="#000000" stroke-width="1.33333" stroke-miterlimit="8" fill-rule="evenodd"/><path d="M1137.5 498.5C1137.5 495.186 1140.19 492.5 1143.5 492.5 1146.81 492.5 1149.5 495.186 1149.5 498.5 1149.5 501.814 1146.81 504.5 1143.5 504.5 1140.19 504.5 1137.5 501.814 1137.5 498.5Z" stroke="#000000" stroke-width="1.33333" stroke-miterlimit="8" fill-rule="evenodd"/><path d="M1108.5 511C1108.5 507.962 1111.19 505.5 1114.5 505.5 1117.81 505.5 1120.5 507.962 1120.5 511 1120.5 514.038 1117.81 516.5 1114.5 516.5 1111.19 516.5 1108.5 514.038 1108.5 511Z" stroke="#000000" stroke-width="1.33333" stroke-miterlimit="8" fill-rule="evenodd"/><path d="M1125.5 511C1125.5 507.962 1128.19 505.5 1131.5 505.5 1134.81 505.5 1137.5 507.962 1137.5 511 1137.5 514.038 1134.81 516.5 1131.5 516.5 1128.19 516.5 1125.5 514.038 1125.5 511Z" stroke="#000000" stroke-width="1.33333" stroke-miterlimit="8" fill-rule="evenodd"/><path d="M1134.5 464.5C1134.5 461.186 1136.96 458.5 1140 458.5 1143.04 458.5 1145.5 461.186 1145.5 464.5 1145.5 467.814 1143.04 470.5 1140 470.5 1136.96 470.5 1134.5 467.814 1134.5 464.5Z" stroke="#000000" stroke-width="1.33333" stroke-miterlimit="8" fill-rule="evenodd"/><path d="M1111.5 481.5C1111.5 478.186 1114.19 475.5 1117.5 475.5 1120.81 475.5 1123.5 478.186 1123.5 481.5 1123.5 484.814 1120.81 487.5 1117.5 487.5 1114.19 487.5 1111.5 484.814 1111.5 481.5Z" stroke="#000000" stroke-width="1.33333" stroke-miterlimit="8" fill-rule="evenodd"/><path d="M1126.5 487C1126.5 483.962 1129.19 481.5 1132.5 481.5 1135.81 481.5 1138.5 483.962 1138.5 487 1138.5 490.038 1135.81 492.5 1132.5 492.5 1129.19 492.5 1126.5 490.038 1126.5 487Z" stroke="#000000" stroke-width="1.33333" stroke-miterlimit="8" fill-rule="evenodd"/><path d="M1110.5 461C1110.5 457.962 1112.96 455.5 1116 455.5 1119.04 455.5 1121.5 457.962 1121.5 461 1121.5 464.038 1119.04 466.5 1116 466.5 1112.96 466.5 1110.5 464.038 1110.5 461Z" stroke="#000000" stroke-width="1.33333" stroke-miterlimit="8" fill-rule="evenodd"/><path d="M1099.5 475.5C1099.5 472.186 1101.96 469.5 1105 469.5 1108.04 469.5 1110.5 472.186 1110.5 475.5 1110.5 478.814 1108.04 481.5 1105 481.5 1101.96 481.5 1099.5 478.814 1099.5 475.5Z" stroke="#000000" stroke-width="1.33333" stroke-miterlimit="8" fill-rule="evenodd"/><path d="M1122.5 472C1122.5 468.962 1125.19 466.5 1128.5 466.5 1131.81 466.5 1134.5 468.962 1134.5 472 1134.5 475.038 1131.81 477.5 1128.5 477.5 1125.19 477.5 1122.5 475.038 1122.5 472Z" stroke="#000000" stroke-width="1.33333" stroke-miterlimit="8" fill-rule="evenodd"/><path d="M1138.5 481C1138.5 477.962 1140.96 475.5 1144 475.5 1147.04 475.5 1149.5 477.962 1149.5 481 1149.5 484.038 1147.04 486.5 1144 486.5 1140.96 486.5 1138.5 484.038 1138.5 481Z" stroke="#000000" stroke-width="1.33333" stroke-miterlimit="8" fill-rule="evenodd"/><path d="M953.5 454.5C953.5 452.291 955.515 450.5 958 450.5 960.485 450.5 962.5 452.291 962.5 454.5 962.5 456.709 960.485 458.5 958 458.5 955.515 458.5 953.5 456.709 953.5 454.5Z" stroke="#000000" stroke-width="1.33333" stroke-miterlimit="8" fill-rule="evenodd"/><path d="M969.5 470.5C969.5 468.291 971.515 466.5 974 466.5 976.485 466.5 978.5 468.291 978.5 470.5 978.5 472.709 976.485 474.5 974 474.5 971.515 474.5 969.5 472.709 969.5 470.5Z" stroke="#000000" stroke-width="1.33333" stroke-miterlimit="8" fill-rule="evenodd"/><path d="M987.5 452.5C987.5 450.291 989.291 448.5 991.5 448.5 993.709 448.5 995.5 450.291 995.5 452.5 995.5 454.709 993.709 456.5 991.5 456.5 989.291 456.5 987.5 454.709 987.5 452.5Z" stroke="#000000" stroke-width="1.33333" stroke-miterlimit="8" fill-rule="evenodd"/><path d="M1008.5 462C1008.5 460.067 1010.29 458.5 1012.5 458.5 1014.71 458.5 1016.5 460.067 1016.5 462 1016.5 463.933 1014.71 465.5 1012.5 465.5 1010.29 465.5 1008.5 463.933 1008.5 462Z" stroke="#000000" stroke-width="1.33333" stroke-miterlimit="8" fill-rule="evenodd"/><path d="M955.5 479.5C957.709 479.5 959.5 481.515 959.5 484 959.5 486.485 957.709 488.5 955.5 488.5 953.291 488.5 951.5 486.485 951.5 484 951.5 481.515 953.291 479.5 955.5 479.5Z" stroke="#000000" stroke-width="1.33333" stroke-miterlimit="8" fill-rule="evenodd"/><path d="M971.5 495.5C973.709 495.5 975.5 497.515 975.5 500 975.5 502.485 973.709 504.5 971.5 504.5 969.291 504.5 967.5 502.485 967.5 500 967.5 497.515 969.291 495.5 971.5 495.5Z" stroke="#000000" stroke-width="1.33333" stroke-miterlimit="8" fill-rule="evenodd"/><path d="M988.5 478.5C990.709 478.5 992.5 480.291 992.5 482.5 992.5 484.709 990.709 486.5 988.5 486.5 986.291 486.5 984.5 484.709 984.5 482.5 984.5 480.291 986.291 478.5 988.5 478.5Z" stroke="#000000" stroke-width="1.33333" stroke-miterlimit="8" fill-rule="evenodd"/><path d="M1010 487.5C1011.93 487.5 1013.5 489.291 1013.5 491.5 1013.5 493.709 1011.93 495.5 1010 495.5 1008.07 495.5 1006.5 493.709 1006.5 491.5 1006.5 489.291 1008.07 487.5 1010 487.5Z" stroke="#000000" stroke-width="1.33333" stroke-miterlimit="8" fill-rule="evenodd"/><path d="M969.5 470.5C969.5 468.291 971.515 466.5 974 466.5 976.485 466.5 978.5 468.291 978.5 470.5 978.5 472.709 976.485 474.5 974 474.5 971.515 474.5 969.5 472.709 969.5 470.5Z" stroke="#000000" stroke-width="1.33333" stroke-miterlimit="8" fill-rule="evenodd"/><path d="M968.5 453.5C968.5 451.291 970.291 449.5 972.5 449.5 974.709 449.5 976.5 451.291 976.5 453.5 976.5 455.709 974.709 457.5 972.5 457.5 970.291 457.5 968.5 455.709 968.5 453.5Z" stroke="#000000" stroke-width="1.33333" stroke-miterlimit="8" fill-rule="evenodd"/><path d="M1003.5 468.5C1003.5 466.291 1005.29 464.5 1007.5 464.5 1009.71 464.5 1011.5 466.291 1011.5 468.5 1011.5 470.709 1009.71 472.5 1007.5 472.5 1005.29 472.5 1003.5 470.709 1003.5 468.5Z" stroke="#000000" stroke-width="1.33333" stroke-miterlimit="8" fill-rule="evenodd"/><path d="M1024.5 478C1024.5 476.067 1026.29 474.5 1028.5 474.5 1030.71 474.5 1032.5 476.067 1032.5 478 1032.5 479.933 1030.71 481.5 1028.5 481.5 1026.29 481.5 1024.5 479.933 1024.5 478Z" stroke="#000000" stroke-width="1.33333" stroke-miterlimit="8" fill-rule="evenodd"/><path d="M971.5 495.5C973.709 495.5 975.5 497.515 975.5 500 975.5 502.485 973.709 504.5 971.5 504.5 969.291 504.5 967.5 502.485 967.5 500 967.5 497.515 969.291 495.5 971.5 495.5Z" stroke="#000000" stroke-width="1.33333" stroke-miterlimit="8" fill-rule="evenodd"/><path d="M987.5 511.5C989.709 511.5 991.5 513.515 991.5 516 991.5 518.485 989.709 520.5 987.5 520.5 985.291 520.5 983.5 518.485 983.5 516 983.5 513.515 985.291 511.5 987.5 511.5Z" stroke="#000000" stroke-width="1.33333" stroke-miterlimit="8" fill-rule="evenodd"/><path d="M998 498.5C999.933 498.5 1001.5 500.291 1001.5 502.5 1001.5 504.709 999.933 506.5 998 506.5 996.067 506.5 994.5 504.709 994.5 502.5 994.5 500.291 996.067 498.5 998 498.5Z" stroke="#000000" stroke-width="1.33333" stroke-miterlimit="8" fill-rule="evenodd"/><path d="M1026 503.5C1027.93 503.5 1029.5 505.291 1029.5 507.5 1029.5 509.709 1027.93 511.5 1026 511.5 1024.07 511.5 1022.5 509.709 1022.5 507.5 1022.5 505.291 1024.07 503.5 1026 503.5Z" stroke="#000000" stroke-width="1.33333" stroke-miterlimit="8" fill-rule="evenodd"/><path d="M877.5 446.5C877.5 444.291 879.515 442.5 882 442.5 884.485 442.5 886.5 444.291 886.5 446.5 886.5 448.709 884.485 450.5 882 450.5 879.515 450.5 877.5 448.709 877.5 446.5Z" stroke="#000000" stroke-width="1.33333" stroke-miterlimit="8" fill-rule="evenodd"/><path d="M893.5 462.5C893.5 460.291 895.515 458.5 898 458.5 900.485 458.5 902.5 460.291 902.5 462.5 902.5 464.709 900.485 466.5 898 466.5 895.515 466.5 893.5 464.709 893.5 462.5Z" stroke="#000000" stroke-width="1.33333" stroke-miterlimit="8" fill-rule="evenodd"/><path d="M911.5 445C911.5 443.067 913.291 441.5 915.5 441.5 917.709 441.5 919.5 443.067 919.5 445 919.5 446.933 917.709 448.5 915.5 448.5 913.291 448.5 911.5 446.933 911.5 445Z" stroke="#000000" stroke-width="1.33333" stroke-miterlimit="8" fill-rule="evenodd"/><path d="M932.5 454.5C932.5 452.291 934.291 450.5 936.5 450.5 938.709 450.5 940.5 452.291 940.5 454.5 940.5 456.709 938.709 458.5 936.5 458.5 934.291 458.5 932.5 456.709 932.5 454.5Z" stroke="#000000" stroke-width="1.33333" stroke-miterlimit="8" fill-rule="evenodd"/><path d="M879.5 472.5C881.709 472.5 883.5 474.291 883.5 476.5 883.5 478.709 881.709 480.5 879.5 480.5 877.291 480.5 875.5 478.709 875.5 476.5 875.5 474.291 877.291 472.5 879.5 472.5Z" stroke="#000000" stroke-width="1.33333" stroke-miterlimit="8" fill-rule="evenodd"/><path d="M895.5 488.5C897.709 488.5 899.5 490.291 899.5 492.5 899.5 494.709 897.709 496.5 895.5 496.5 893.291 496.5 891.5 494.709 891.5 492.5 891.5 490.291 893.291 488.5 895.5 488.5Z" stroke="#000000" stroke-width="1.33333" stroke-miterlimit="8" fill-rule="evenodd"/><path d="M912.5 470.5C914.709 470.5 916.5 472.291 916.5 474.5 916.5 476.709 914.709 478.5 912.5 478.5 910.291 478.5 908.5 476.709 908.5 474.5 908.5 472.291 910.291 470.5 912.5 470.5Z" stroke="#000000" stroke-width="1.33333" stroke-miterlimit="8" fill-rule="evenodd"/><path d="M934 479.5C935.933 479.5 937.5 481.515 937.5 484 937.5 486.485 935.933 488.5 934 488.5 932.067 488.5 930.5 486.485 930.5 484 930.5 481.515 932.067 479.5 934 479.5Z" stroke="#000000" stroke-width="1.33333" stroke-miterlimit="8" fill-rule="evenodd"/><path d="M893.5 462.5C893.5 460.291 895.515 458.5 898 458.5 900.485 458.5 902.5 460.291 902.5 462.5 902.5 464.709 900.485 466.5 898 466.5 895.515 466.5 893.5 464.709 893.5 462.5Z" stroke="#000000" stroke-width="1.33333" stroke-miterlimit="8" fill-rule="evenodd"/><path d="M892.5 445.5C892.5 443.291 894.291 441.5 896.5 441.5 898.709 441.5 900.5 443.291 900.5 445.5 900.5 447.709 898.709 449.5 896.5 449.5 894.291 449.5 892.5 447.709 892.5 445.5Z" stroke="#000000" stroke-width="1.33333" stroke-miterlimit="8" fill-rule="evenodd"/><path d="M927.5 461C927.5 459.067 929.291 457.5 931.5 457.5 933.709 457.5 935.5 459.067 935.5 461 935.5 462.933 933.709 464.5 931.5 464.5 929.291 464.5 927.5 462.933 927.5 461Z" stroke="#000000" stroke-width="1.33333" stroke-miterlimit="8" fill-rule="evenodd"/><path d="M948.5 470.5C948.5 468.291 950.291 466.5 952.5 466.5 954.709 466.5 956.5 468.291 956.5 470.5 956.5 472.709 954.709 474.5 952.5 474.5 950.291 474.5 948.5 472.709 948.5 470.5Z" stroke="#000000" stroke-width="1.33333" stroke-miterlimit="8" fill-rule="evenodd"/><path d="M895.5 488.5C897.709 488.5 899.5 490.291 899.5 492.5 899.5 494.709 897.709 496.5 895.5 496.5 893.291 496.5 891.5 494.709 891.5 492.5 891.5 490.291 893.291 488.5 895.5 488.5Z" stroke="#000000" stroke-width="1.33333" stroke-miterlimit="8" fill-rule="evenodd"/><path d="M911.5 504.5C913.709 504.5 915.5 506.291 915.5 508.5 915.5 510.709 913.709 512.5 911.5 512.5 909.291 512.5 907.5 510.709 907.5 508.5 907.5 506.291 909.291 504.5 911.5 504.5Z" stroke="#000000" stroke-width="1.33333" stroke-miterlimit="8" fill-rule="evenodd"/><path d="M922 490.5C923.933 490.5 925.5 492.515 925.5 495 925.5 497.485 923.933 499.5 922 499.5 920.067 499.5 918.5 497.485 918.5 495 918.5 492.515 920.067 490.5 922 490.5Z" stroke="#000000" stroke-width="1.33333" stroke-miterlimit="8" fill-rule="evenodd"/><path d="M950 495.5C951.933 495.5 953.5 497.515 953.5 500 953.5 502.485 951.933 504.5 950 504.5 948.067 504.5 946.5 502.485 946.5 500 946.5 497.515 948.067 495.5 950 495.5Z" stroke="#000000" stroke-width="1.33333" stroke-miterlimit="8" fill-rule="evenodd"/><path d="M0.0979108-0.659438 103.684 14.7206 103.488 16.0395-0.0979108 0.659438ZM102.855 11.2276 110.18 16.3592 101.68 19.1409Z" transform="matrix(1 0 0 -1 800.5 461.859)"/><path d="M919.548 444.835 981.777 449.299 981.682 450.629 919.452 446.165ZM980.685 445.879 988.379 450.441 980.113 453.858Z"/><path d="M0.0377699-0.665596 103.505 5.20574 103.429 6.53693-0.0377699 0.665596ZM102.362 1.80221 110.123 6.24903 101.909 9.78937Z" transform="matrix(-1 0 0 1 1099.62 512.5)"/><path d="M984.002 519.806 920.056 512.881 920.2 511.555 984.146 518.48ZM921.023 516.338 913.5 511.5 921.884 508.385Z"/><path d="M0.0194604-0.666383 98.7627 2.21722 98.7238 3.54999-0.0194604 0.666383ZM97.5274-1.15361 105.407 3.07822 97.2939 6.84299Z" transform="matrix(-1 0 0 1 905.907 509.5)"/><path d="M996.555 452.836 1093.25 460.833 1093.14 462.162 996.445 454.164ZM1092.2 457.401 1099.84 462.047 1091.54 465.374Z"/><path d="M0.0979108-0.659438 103.684 14.7206 103.488 16.0395-0.0979108 0.659438ZM102.855 11.2276 110.18 16.3592 101.68 19.1409Z" transform="matrix(1 0 0 -1 800.5 145.859)"/><path d="M918.548 128.835 980.777 133.299 980.682 134.629 918.452 130.165ZM979.685 129.879 987.379 134.441 979.113 137.858Z"/><path d="M0.0377699-0.665596 103.505 5.20574 103.429 6.53693-0.0377699 0.665596ZM102.362 1.80221 110.123 6.24903 101.909 9.78937Z" transform="matrix(-1 0 0 1 1099.62 196.5)"/><path d="M984.002 203.806 920.056 196.881 920.2 195.555 984.146 202.48ZM921.023 200.338 913.5 195.5 921.884 192.385Z"/><path d="M0.0194604-0.666383 98.7627 2.21722 98.7238 3.54999-0.0194604 0.666383ZM97.5274-1.15361 105.407 3.07822 97.2939 6.84299Z" transform="matrix(-1 0 0 1 905.907 193.5)"/><path d="M995.555 136.836 1092.25 144.833 1092.14 146.162 995.445 138.164ZM1091.2 141.401 1098.84 146.047 1090.54 149.374Z"/><path d="M0.0979108-0.659438 103.684 14.7206 103.488 16.0395-0.0979108 0.659438ZM102.855 11.2276 110.18 16.3592 101.68 19.1409Z" transform="matrix(1 0 0 -1 186.5 461.859)"/><path d="M304.548 444.835 366.777 449.299 366.682 450.629 304.452 446.165ZM365.685 445.879 373.379 450.441 365.113 453.858Z"/><path d="M0.0377699-0.665596 103.505 5.20574 103.429 6.53693-0.0377699 0.665596ZM102.362 1.80221 110.123 6.24903 101.909 9.78937Z" transform="matrix(-1 0 0 1 485.623 512.5)"/><path d="M370.002 519.806 306.056 512.881 306.2 511.555 370.146 518.48ZM307.023 516.338 299.5 511.5 307.884 508.385Z"/><path d="M0.0194604-0.666383 98.7627 2.21722 98.7238 3.54999-0.0194604 0.666383ZM97.5274-1.15361 105.407 3.07822 97.2939 6.84299Z" transform="matrix(-1 0 0 1 291.907 509.5)"/><path d="M381.555 452.836 478.254 460.833 478.145 462.162 381.445 454.164ZM477.201 457.401 484.844 462.047 476.541 465.374Z"/><path d="M0.0979108-0.659438 103.684 14.7206 103.488 16.0395-0.0979108 0.659438ZM102.855 11.2276 110.18 16.3592 101.68 19.1409Z" transform="matrix(1 0 0 -1 184.5 144.859)"/><path d="M302.548 127.835 364.777 132.299 364.682 133.629 302.452 129.165ZM363.685 128.879 371.379 133.441 363.113 136.858Z"/><path d="M0.0377699-0.665596 103.505 5.20574 103.429 6.53693-0.0377699 0.665596ZM102.362 1.80221 110.123 6.24903 101.909 9.78937Z" transform="matrix(-1 0 0 1 483.623 196.5)"/><path d="M368.002 202.806 304.056 195.881 304.2 194.555 368.146 201.48ZM305.023 199.338 297.5 194.5 305.884 191.385Z"/><path d="M0.0194604-0.666383 98.7627 2.21722 98.7238 3.54999-0.0194604 0.666383ZM97.5274-1.15361 105.407 3.07822 97.2939 6.84299Z" transform="matrix(-1 0 0 1 289.907 192.5)"/><path d="M379.555 136.836 476.254 144.833 476.145 146.162 379.445 138.164ZM475.201 141.401 482.844 146.047 474.541 149.374Z"/><rect x="61.5001" y="234.5" width="52" height="62" stroke="#000000" stroke-width="1.33333" stroke-miterlimit="8" fill="#FFFFFF"/><text font-family="Calibri,Calibri_MSFontService,sans-serif" font-weight="700" font-size="53" transform="translate(73.4074 283)">1</text><rect x="676.5" y="233.5" width="52" height="62" stroke="#000000" stroke-width="1.33333" stroke-miterlimit="8" fill="#FFFFFF"/><text font-family="Calibri,Calibri_MSFontService,sans-serif" font-weight="700" font-size="53" transform="translate(688.41 282)">2</text><rect x="62.5001" y="551.5" width="51" height="62" stroke="#000000" stroke-width="1.33333" stroke-miterlimit="8" fill="#FFFFFF"/><text font-family="Calibri,Calibri_MSFontService,sans-serif" font-weight="700" font-size="53" transform="translate(74.1592 600)">3</text><rect x="675.5" y="550.5" width="52" height="62" stroke="#000000" stroke-width="1.33333" stroke-miterlimit="8" fill="#FFFFFF"/><text font-family="Calibri,Calibri_MSFontService,sans-serif" font-weight="700" font-size="53" transform="translate(687.698 599)">4</text><rect x="8" y="9" width="1265" height="623" stroke="#000000" stroke-width="2" stroke-miterlimit="8" fill="none"/><text font-family="Calibri,Calibri_MSFontService,sans-serif" font-weight="400" font-size="43" transform="translate(152.142 682)">Induced short circuit current while V<tspan font-size="43" x="667.253" y="0">-</tspan>STDP is effective.</text><rect x="842.5" y="27.5001" width="89" height="37" fill="#FFFFFF"/><path d="M835.084 27.5001 835.084 64.5001Z" stroke="#000000" stroke-width="1.33333" stroke-miterlimit="8" fill="none" fill-rule="evenodd"/><path d="M835.084 34.4376 780.604 66.2712" stroke="#000000" stroke-width="1.33333" stroke-miterlimit="8" fill="none" fill-rule="evenodd"/><text font-family="Calibri,Calibri_MSFontService,sans-serif" font-weight="400" font-size="16" transform="translate(855.496 51)">Electrode</text><rect x="872.5" y="73.5001" width="14" height="35" fill="#FFFFFF"/><path d="M871.333 73.5001 871.333 108.5Z" stroke="#000000" stroke-width="1.33333" stroke-miterlimit="8" fill="none" fill-rule="evenodd"/><path d="M871.333 80.0626 809.528 154.413" stroke="#000000" stroke-width="1.33333" stroke-miterlimit="8" fill="none" fill-rule="evenodd"/><text font-family="Calibri,Calibri_MSFontService,sans-serif" font-style="italic" font-weight="400" font-size="16" transform="translate(878.582 96)">a<tspan font-size="16" x="8.16669" y="0">ctivated </tspan><tspan font-size="16" x="63.8267" y="0">m</tspan><tspan font-size="16" x="76.4933" y="0">emory group A</tspan></text><rect x="361.5" y="361.5" width="74" height="50" fill="#FFFFFF"/><path d="M355.334 361.5 355.334 411.5Z" stroke="#000000" stroke-width="1.33333" stroke-miterlimit="8" fill="none" fill-rule="evenodd"/><path d="M355.334 370.875 300.699 445.726" stroke="#000000" stroke-width="1.33333" stroke-miterlimit="8" fill="none" fill-rule="evenodd"/><text font-family="Calibri,Calibri_MSFontService,sans-serif" font-weight="400" font-size="16" transform="translate(381.448 381)">firing <tspan font-size="16" x="-6.62" y="19">neuron</tspan></text><rect x="728.5" y="255.5" width="483" height="39" stroke="#000000" stroke-width="1.33333" stroke-miterlimit="8" fill="#FFFFFF"/><text font-family="Calibri,Calibri_MSFontService,sans-serif" font-weight="400" font-size="16" transform="translate(820.326 280)">Memory group activation via current injection</text><rect x="727.5" y="552.5" width="485" height="58" stroke="#000000" stroke-width="1.33333" stroke-miterlimit="8" fill="#FFFFFF"/><text font-family="Calibri,Calibri_MSFontService,sans-serif" font-weight="400" font-size="16" transform="translate(740.647 567)">Self<tspan font-size="16" x="23.8333" y="0">-</tspan><tspan font-size="16" x="28.6667" y="0">sustained (but time</tspan><tspan font-size="16" x="154.627" y="0">-</tspan><tspan font-size="16" x="159.46" y="0">limited) activation of a pair of memory groups </tspan><tspan font-size="16" x="24.2" y="19">through a short circuit current after modifying the weights of </tspan><tspan font-size="16" x="129.813" y="38">relevant synapses with V</tspan>-<tspan font-size="16" x="294.607" y="38">STDP</tspan></text><rect x="231.5" y="236.5" width="83" height="41" fill="#FFFFFF"/><path d="M224.584 236.5 224.584 277.5Z" stroke="#000000" stroke-width="1.33333" stroke-miterlimit="8" fill="none" fill-rule="evenodd"/><path d="M224.584 244.188 177.919 202.049" stroke="#000000" stroke-width="1.33333" stroke-miterlimit="8" fill="none" fill-rule="evenodd"/><text font-family="Calibri,Calibri_MSFontService,sans-serif" font-style="italic" font-weight="400" font-size="16" transform="translate(245.44 252)">memory <tspan font-size="16" x="7.88" y="19">group</tspan></text><rect x="437.5" y="52.5001" width="67" height="41" fill="#FFFFFF"/><path d="M431.917 52.5001 431.917 93.5001Z" stroke="#000000" stroke-width="1.33333" stroke-miterlimit="8" fill="none" fill-rule="evenodd"/><path d="M431.917 60.1875 361.55 155.406" stroke="#000000" stroke-width="1.33333" stroke-miterlimit="8" fill="none" fill-rule="evenodd"/><text font-family="Calibri,Calibri_MSFontService,sans-serif" font-weight="400" font-size="16" transform="translate(447.006 78)">neuron</text><rect x="148.5" y="155.5" width="26" height="31" stroke="#000000" stroke-width="1.33333" stroke-miterlimit="8" fill="#FFFFFF"/><text font-family="Calibri,Calibri_MSFontService,sans-serif" font-style="italic" font-weight="700" font-size="21" transform="translate(154.656 178)">A</text><rect x="496.5" y="155.5" width="26" height="30" stroke="#000000" stroke-width="1.33333" stroke-miterlimit="8" fill="#FFFFFF"/><text font-family="Calibri,Calibri_MSFontService,sans-serif" font-style="italic" font-weight="700" font-size="21" transform="translate(502.675 177)">B</text><rect x="761.5" y="153.5" width="26" height="31" stroke="#000000" stroke-width="1.33333" stroke-miterlimit="8" fill="#FFFFFF"/><text font-family="Calibri,Calibri_MSFontService,sans-serif" font-style="italic" font-weight="700" font-size="21" transform="translate(767.303 176)">A</text><rect x="1110.5" y="154.5" width="26" height="30" stroke="#000000" stroke-width="1.33333" stroke-miterlimit="8" fill="#FFFFFF"/><text font-family="Calibri,Calibri_MSFontService,sans-serif" font-style="italic" font-weight="700" font-size="21" transform="translate(1116.67 176)">B</text><rect x="149.5" y="473.5" width="26" height="31" stroke="#000000" stroke-width="1.33333" stroke-miterlimit="8" fill="#FFFFFF"/><text font-family="Calibri,Calibri_MSFontService,sans-serif" font-style="italic" font-weight="700" font-size="21" transform="translate(155.863 496)">A</text><rect x="496.5" y="473.5" width="26" height="30" stroke="#000000" stroke-width="1.33333" stroke-miterlimit="8" fill="#FFFFFF"/><text font-family="Calibri,Calibri_MSFontService,sans-serif" font-style="italic" font-weight="700" font-size="21" transform="translate(502.948 495)">B</text><rect x="762.5" y="473.5" width="26" height="31" stroke="#000000" stroke-width="1.33333" stroke-miterlimit="8" fill="#FFFFFF"/><text font-family="Calibri,Calibri_MSFontService,sans-serif" font-style="italic" font-weight="700" font-size="21" transform="translate(768.424 496)">A</text><rect x="1112.5" y="471.5" width="26" height="31" stroke="#000000" stroke-width="1.33333" stroke-miterlimit="8" fill="#FFFFFF"/><text font-family="Calibri,Calibri_MSFontService,sans-serif" font-style="italic" font-weight="700" font-size="21" transform="translate(1118.6 494)">B</text></g></svg>