<svg width="1280" height="720" xmlns="http://www.w3.org/2000/svg" xmlns:xlink="http://www.w3.org/1999/xlink" overflow="hidden"><defs><clipPath id="clip0"><rect x="0" y="0" width="1280" height="720"/></clipPath><radialGradient cx="376238" cy="347662" r="512273" gradientUnits="userSpaceOnUse" spreadMethod="pad" id="fill1" gradientTransform="matrix(0.000104987 0 0 0.000104987 218 222)"><stop offset="0" stop-color="#AEDA9A"/><stop offset="0.36" stop-color="#AEDA9A"/><stop offset="0.78" stop-color="#CDE6C2"/><stop offset="1" stop-color="#FFFFFF"/></radialGradient><radialGradient cx="376238" cy="352425" r="515517" gradientUnits="userSpaceOnUse" spreadMethod="pad" id="fill2" gradientTransform="matrix(0.000104987 0 0 0.000104987 160 88)"><stop offset="0" stop-color="#AEDA9A"/><stop offset="0.53" stop-color="#CDE6C2" stop-opacity="0.521569"/><stop offset="1" stop-color="#FFFFFF"/></radialGradient><radialGradient cx="376238" cy="352425" r="515517" gradientUnits="userSpaceOnUse" spreadMethod="pad" id="fill3" gradientTransform="matrix(0.000104987 0 0 0.000104987 231 67)"><stop offset="0" stop-color="#AEDA9A"/><stop offset="0.25" stop-color="#AEDA9A"/><stop offset="0.88" stop-color="#CDE6C2" stop-opacity="0.521569"/><stop offset="1" stop-color="#FFFFFF"/></radialGradient><radialGradient cx="376238" cy="347662" r="512273" gradientUnits="userSpaceOnUse" spreadMethod="pad" id="fill4" gradientTransform="matrix(0.000104987 0 0 0.000104987 277 255)"><stop offset="0" stop-color="#AEDA9A"/><stop offset="0.8" stop-color="#CDE6C2" stop-opacity="0.521569"/><stop offset="1" stop-color="#FFFFFF"/></radialGradient><radialGradient cx="376238" cy="352425" r="515517" gradientUnits="userSpaceOnUse" spreadMethod="pad" id="fill5" gradientTransform="matrix(0.000104987 0 0 0.000104987 351 240)"><stop offset="0" stop-color="#AEDA9A"/><stop offset="0.53" stop-color="#CDE6C2" stop-opacity="0.521569"/><stop offset="1" stop-color="#FFFFFF"/></radialGradient><radialGradient cx="595312" cy="347662" r="689396" gradientUnits="userSpaceOnUse" spreadMethod="pad" id="fill6" gradientTransform="matrix(0.000104987 0 0 0.000104987 296 61)"><stop offset="0" stop-color="#AEDA9A"/><stop offset="0.55" stop-color="#AEDA9A"/><stop offset="0.88" stop-color="#CDE6C2" stop-opacity="0.521569"/><stop offset="1" stop-color="#FFFFFF"/></radialGradient><radialGradient cx="217154" cy="196982" r="293186" gradientUnits="userSpaceOnUse" spreadMethod="pad" id="fill7" gradientTransform="matrix(-3.0125e-05 -0.000100572 0.000100572 -3.0125e-05 108.86 205.716)"><stop offset="0" stop-color="#AEDA9A"/><stop offset="0.36" stop-color="#AEDA9A"/><stop offset="0.78" stop-color="#CDE6C2"/><stop offset="1" stop-color="#FFFFFF"/></radialGradient><radialGradient cx="197582" cy="207060" r="286204" gradientUnits="userSpaceOnUse" spreadMethod="pad" id="fill8" gradientTransform="matrix(-3.0125e-05 -0.000100572 0.000100572 -3.0125e-05 84.5143 167.802)"><stop offset="0" stop-color="#AEDA9A"/><stop offset="0.8" stop-color="#CDE6C2" stop-opacity="0.521569"/><stop offset="1" stop-color="#FFFFFF"/></radialGradient><radialGradient cx="212098" cy="184851" r="281345" gradientUnits="userSpaceOnUse" spreadMethod="pad" id="fill9" gradientTransform="matrix(-3.0125e-05 -0.000100572 0.000100572 -3.0125e-05 109.561 134.838)"><stop offset="0" stop-color="#AEDA9A"/><stop offset="0.53" stop-color="#CDE6C2" stop-opacity="0.521569"/><stop offset="1" stop-color="#FFFFFF"/></radialGradient><radialGradient cx="690563" cy="661988" r="956611" fx="690562" gradientUnits="userSpaceOnUse" spreadMethod="pad" id="fill10" gradientTransform="matrix(0.000104987 0 0 0.000104987 59 189)"><stop offset="0" stop-color="#AEDA9A"/><stop offset="0.36" stop-color="#AEDA9A"/><stop offset="0.84" stop-color="#CDE6C2"/><stop offset="1" stop-color="#FFFFFF"/></radialGradient><radialGradient cx="690563" cy="661988" r="956611" fx="690562" gradientUnits="userSpaceOnUse" spreadMethod="pad" id="fill11" gradientTransform="matrix(0.000104987 0 0 0.000104987 422 63)"><stop offset="0" stop-color="#AEDA9A"/><stop offset="0.39" stop-color="#AEDA9A"/><stop offset="0.85" stop-color="#CDE6C2"/><stop offset="1" stop-color="#FFFFFF"/></radialGradient><radialGradient cx="219075" cy="195262" r="293464" gradientUnits="userSpaceOnUse" spreadMethod="pad" id="fill12" gradientTransform="matrix(0.000104987 0 0 0.000104987 171 292)"><stop offset="0" stop-color="#AEDA9A"/><stop offset="0.36" stop-color="#AEDA9A"/><stop offset="0.78" stop-color="#CDE6C2"/><stop offset="1" stop-color="#FFFFFF"/></radialGradient><radialGradient cx="200025" cy="209550" r="289692" gradientUnits="userSpaceOnUse" spreadMethod="pad" id="fill13" gradientTransform="matrix(0.000104987 0 0 0.000104987 204 303)"><stop offset="0" stop-color="#AEDA9A"/><stop offset="0.8" stop-color="#CDE6C2" stop-opacity="0.521569"/><stop offset="1" stop-color="#FFFFFF"/></radialGradient><radialGradient cx="209550" cy="185738" r="280017" gradientUnits="userSpaceOnUse" spreadMethod="pad" id="fill14" gradientTransform="matrix(0.000104987 0 0 0.000104987 239 313)"><stop offset="0" stop-color="#AEDA9A"/><stop offset="0.53" stop-color="#CDE6C2" stop-opacity="0.521569"/><stop offset="1" stop-color="#FFFFFF"/></radialGradient><radialGradient cx="219075" cy="195262" r="293464" gradientUnits="userSpaceOnUse" spreadMethod="pad" id="fill15" gradientTransform="matrix(0.000104987 0 0 0.000104987 470 195)"><stop offset="0" stop-color="#AEDA9A"/><stop offset="0.36" stop-color="#AEDA9A"/><stop offset="0.78" stop-color="#CDE6C2"/><stop offset="1" stop-color="#FFFFFF"/></radialGradient><radialGradient cx="200025" cy="209550" r="289692" gradientUnits="userSpaceOnUse" spreadMethod="pad" id="fill16" gradientTransform="matrix(0.000104987 0 0 0.000104987 503 206)"><stop offset="0" stop-color="#AEDA9A"/><stop offset="0.8" stop-color="#CDE6C2" stop-opacity="0.521569"/><stop offset="1" stop-color="#FFFFFF"/></radialGradient><radialGradient cx="209550" cy="180975" r="276881" gradientUnits="userSpaceOnUse" spreadMethod="pad" id="fill17" gradientTransform="matrix(0.000104987 0 0 0.000104987 496 246)"><stop offset="0" stop-color="#AEDA9A"/><stop offset="0.53" stop-color="#CDE6C2" stop-opacity="0.521569"/><stop offset="1" stop-color="#FFFFFF"/></radialGradient><radialGradient cx="217154" cy="196982" r="293186" gradientUnits="userSpaceOnUse" spreadMethod="pad" id="fill18" gradientTransform="scale(0.000104987 0.000104987)"><stop offset="0" stop-color="#AEDA9A"/><stop offset="0.36" stop-color="#AEDA9A"/><stop offset="0.78" stop-color="#CDE6C2"/><stop offset="1" stop-color="#FFFFFF"/></radialGradient><radialGradient cx="197582" cy="207060" r="286204" gradientUnits="userSpaceOnUse" spreadMethod="pad" id="fill19" gradientTransform="scale(0.000104987 0.000104987)"><stop offset="0" stop-color="#AEDA9A"/><stop offset="0.8" stop-color="#CDE6C2" stop-opacity="0.521569"/><stop offset="1" stop-color="#FFFFFF"/></radialGradient><radialGradient cx="212098" cy="184851" r="281345" gradientUnits="userSpaceOnUse" spreadMethod="pad" id="fill20" gradientTransform="scale(0.000104987 0.000104987)"><stop offset="0" stop-color="#AEDA9A"/><stop offset="0.53" stop-color="#CDE6C2" stop-opacity="0.521569"/><stop offset="1" stop-color="#FFFFFF"/></radialGradient><radialGradient cx="376238" cy="347662" r="512273" gradientUnits="userSpaceOnUse" spreadMethod="pad" id="fill21" gradientTransform="matrix(0.000104987 0 0 0.000104987 996 482)"><stop offset="0" stop-color="#AEDA9A"/><stop offset="0.53" stop-color="#CDE6C2" stop-opacity="0.521569"/><stop offset="1" stop-color="#FFFFFF"/></radialGradient><radialGradient cx="261937" cy="271462" r="377231" fx="261938" gradientUnits="userSpaceOnUse" spreadMethod="pad" id="fill22" gradientTransform="matrix(0.000104987 0 0 0.000104987 1011 496)"><stop offset="0" stop-color="#7030A0"/><stop offset="0.2" stop-color="#7030A0"/><stop offset="0.61" stop-color="#9DC3E6"/><stop offset="1" stop-color="#FFFFFF"/></radialGradient><radialGradient cx="376238" cy="347662" r="512273" gradientUnits="userSpaceOnUse" spreadMethod="pad" id="fill23" gradientTransform="matrix(0.000104987 0 0 0.000104987 922 496)"><stop offset="0" stop-color="#AEDA9A"/><stop offset="0.8" stop-color="#CDE6C2" stop-opacity="0.521569"/><stop offset="1" stop-color="#FFFFFF"/></radialGradient><radialGradient cx="261937" cy="271462" r="377231" fx="261938" gradientUnits="userSpaceOnUse" spreadMethod="pad" id="fill24" gradientTransform="matrix(0.000104987 0 0 0.000104987 934 502)"><stop offset="0" stop-color="#7030A0"/><stop offset="0.2" stop-color="#7030A0"/><stop offset="0.61" stop-color="#9DC3E6"/><stop offset="1" stop-color="#FFFFFF"/></radialGradient><radialGradient cx="690563" cy="661988" r="956611" fx="690562" gradientUnits="userSpaceOnUse" spreadMethod="pad" id="fill25" gradientTransform="matrix(0.000104987 0 0 0.000104987 1067 304)"><stop offset="0" stop-color="#AEDA9A"/><stop offset="0.39" stop-color="#AEDA9A"/><stop offset="0.85" stop-color="#CDE6C2"/><stop offset="1" stop-color="#FFFFFF"/></radialGradient><radialGradient cx="376238" cy="347662" r="512273" gradientUnits="userSpaceOnUse" spreadMethod="pad" id="fill26" gradientTransform="matrix(0.000104987 0 0 0.000104987 863 463)"><stop offset="0" stop-color="#AEDA9A"/><stop offset="0.36" stop-color="#AEDA9A"/><stop offset="0.78" stop-color="#CDE6C2"/><stop offset="1" stop-color="#FFFFFF"/></radialGradient><radialGradient cx="261937" cy="271462" r="377231" fx="261938" gradientUnits="userSpaceOnUse" spreadMethod="pad" id="fill27" gradientTransform="matrix(0.000104987 0 0 0.000104987 879 469)"><stop offset="0" stop-color="#7030A0"/><stop offset="0.2" stop-color="#7030A0"/><stop offset="0.61" stop-color="#9DC3E6"/><stop offset="1" stop-color="#FFFFFF"/></radialGradient><radialGradient cx="595312" cy="352425" r="691810" gradientUnits="userSpaceOnUse" spreadMethod="pad" id="fill28" gradientTransform="matrix(0.000104987 0 0 0.000104987 941 302)"><stop offset="0" stop-color="#AEDA9A"/><stop offset="0.55" stop-color="#AEDA9A"/><stop offset="0.88" stop-color="#CDE6C2" stop-opacity="0.521569"/><stop offset="1" stop-color="#FFFFFF"/></radialGradient><radialGradient cx="490537" cy="271463" r="560642" fx="490538" fy="271462" gradientUnits="userSpaceOnUse" spreadMethod="pad" id="fill29" gradientTransform="matrix(0.000104987 0 0 0.000104987 954 311)"><stop offset="0" stop-color="#7030A0"/><stop offset="0.21" stop-color="#7030A0"/><stop offset="0.61" stop-color="#9DC3E6"/><stop offset="1" stop-color="#FFFFFF"/></radialGradient><radialGradient cx="376238" cy="352425" r="515517" gradientUnits="userSpaceOnUse" spreadMethod="pad" id="fill30" gradientTransform="matrix(0.000104987 0 0 0.000104987 876 308)"><stop offset="0" stop-color="#AEDA9A"/><stop offset="0.25" stop-color="#AEDA9A"/><stop offset="0.88" stop-color="#CDE6C2" stop-opacity="0.521569"/><stop offset="1" stop-color="#FFFFFF"/></radialGradient><radialGradient cx="261938" cy="276225" r="380672" gradientUnits="userSpaceOnUse" spreadMethod="pad" id="fill31" gradientTransform="matrix(0.000104987 0 0 0.000104987 887 316)"><stop offset="0" stop-color="#7030A0"/><stop offset="0.2" stop-color="#7030A0"/><stop offset="0.61" stop-color="#9DC3E6"/><stop offset="1" stop-color="#FFFFFF"/></radialGradient><radialGradient cx="376238" cy="352425" r="515517" gradientUnits="userSpaceOnUse" spreadMethod="pad" id="fill32" gradientTransform="matrix(0.000104987 0 0 0.000104987 805 329)"><stop offset="0" stop-color="#AEDA9A"/><stop offset="0.53" stop-color="#CDE6C2" stop-opacity="0.521569"/><stop offset="1" stop-color="#FFFFFF"/></radialGradient><radialGradient cx="166687" cy="180975" r="246042" fx="166688" gradientUnits="userSpaceOnUse" spreadMethod="pad" id="fill33" gradientTransform="matrix(0.000104987 0 0 0.000104987 826 346)"><stop offset="0" stop-color="#7030A0"/><stop offset="0.2" stop-color="#7030A0"/><stop offset="0.61" stop-color="#9DC3E6"/><stop offset="1" stop-color="#FFFFFF"/></radialGradient><radialGradient cx="690563" cy="661988" r="956611" fx="690562" gradientUnits="userSpaceOnUse" spreadMethod="pad" id="fill34" gradientTransform="matrix(0.000104987 0 0 0.000104987 704 430)"><stop offset="0" stop-color="#AEDA9A"/><stop offset="0.36" stop-color="#AEDA9A"/><stop offset="0.84" stop-color="#CDE6C2"/><stop offset="1" stop-color="#FFFFFF"/></radialGradient><radialGradient cx="217154" cy="196982" r="293186" gradientUnits="userSpaceOnUse" spreadMethod="pad" id="fill35" gradientTransform="matrix(-3.0125e-05 -0.000100572 0.000100572 -3.0125e-05 753.884 446.845)"><stop offset="0" stop-color="#AEDA9A"/><stop offset="0.36" stop-color="#AEDA9A"/><stop offset="0.78" stop-color="#CDE6C2"/><stop offset="1" stop-color="#FFFFFF"/></radialGradient><radialGradient cx="197582" cy="207060" r="286204" gradientUnits="userSpaceOnUse" spreadMethod="pad" id="fill36" gradientTransform="matrix(-3.0125e-05 -0.000100572 0.000100572 -3.0125e-05 729.538 408.931)"><stop offset="0" stop-color="#AEDA9A"/><stop offset="0.8" stop-color="#CDE6C2" stop-opacity="0.521569"/><stop offset="1" stop-color="#FFFFFF"/></radialGradient><radialGradient cx="212098" cy="184851" r="281345" gradientUnits="userSpaceOnUse" spreadMethod="pad" id="fill37" gradientTransform="matrix(-3.0125e-05 -0.000100572 0.000100572 -3.0125e-05 754.585 375.967)"><stop offset="0" stop-color="#AEDA9A"/><stop offset="0.53" stop-color="#CDE6C2" stop-opacity="0.521569"/><stop offset="1" stop-color="#FFFFFF"/></radialGradient><radialGradient cx="219075" cy="195262" r="293464" gradientUnits="userSpaceOnUse" spreadMethod="pad" id="fill38" gradientTransform="matrix(0.000104987 0 0 0.000104987 816 533)"><stop offset="0" stop-color="#AEDA9A"/><stop offset="0.36" stop-color="#AEDA9A"/><stop offset="0.78" stop-color="#CDE6C2"/><stop offset="1" stop-color="#FFFFFF"/></radialGradient><radialGradient cx="200025" cy="209550" r="289692" gradientUnits="userSpaceOnUse" spreadMethod="pad" id="fill39" gradientTransform="matrix(0.000104987 0 0 0.000104987 849 544)"><stop offset="0" stop-color="#AEDA9A"/><stop offset="0.8" stop-color="#CDE6C2" stop-opacity="0.521569"/><stop offset="1" stop-color="#FFFFFF"/></radialGradient><radialGradient cx="214312" cy="185738" r="283599" gradientUnits="userSpaceOnUse" spreadMethod="pad" id="fill40" gradientTransform="matrix(0.000104987 0 0 0.000104987 884 554)"><stop offset="0" stop-color="#AEDA9A"/><stop offset="0.53" stop-color="#CDE6C2" stop-opacity="0.521569"/><stop offset="1" stop-color="#FFFFFF"/></radialGradient><radialGradient cx="219075" cy="195262" r="293464" gradientUnits="userSpaceOnUse" spreadMethod="pad" id="fill41" gradientTransform="matrix(0.000104987 0 0 0.000104987 1115 436)"><stop offset="0" stop-color="#AEDA9A"/><stop offset="0.36" stop-color="#AEDA9A"/><stop offset="0.78" stop-color="#CDE6C2"/><stop offset="1" stop-color="#FFFFFF"/></radialGradient><radialGradient cx="200025" cy="209550" r="289692" gradientUnits="userSpaceOnUse" spreadMethod="pad" id="fill42" gradientTransform="matrix(0.000104987 0 0 0.000104987 1148 447)"><stop offset="0" stop-color="#AEDA9A"/><stop offset="0.8" stop-color="#CDE6C2" stop-opacity="0.521569"/><stop offset="1" stop-color="#FFFFFF"/></radialGradient><radialGradient cx="209550" cy="185738" r="280017" gradientUnits="userSpaceOnUse" spreadMethod="pad" id="fill43" gradientTransform="matrix(0.000104987 0 0 0.000104987 1141 487)"><stop offset="0" stop-color="#AEDA9A"/><stop offset="0.53" stop-color="#CDE6C2" stop-opacity="0.521569"/><stop offset="1" stop-color="#FFFFFF"/></radialGradient><radialGradient cx="217154" cy="196982" r="293186" gradientUnits="userSpaceOnUse" spreadMethod="pad" id="fill44" gradientTransform="scale(0.000104987 0.000104987)"><stop offset="0" stop-color="#AEDA9A"/><stop offset="0.36" stop-color="#AEDA9A"/><stop offset="0.78" stop-color="#CDE6C2"/><stop offset="1" stop-color="#FFFFFF"/></radialGradient><radialGradient cx="197582" cy="207060" r="286204" gradientUnits="userSpaceOnUse" spreadMethod="pad" id="fill45" gradientTransform="scale(0.000104987 0.000104987)"><stop offset="0" stop-color="#AEDA9A"/><stop offset="0.8" stop-color="#CDE6C2" stop-opacity="0.521569"/><stop offset="1" stop-color="#FFFFFF"/></radialGradient><radialGradient cx="212098" cy="184851" r="281345" gradientUnits="userSpaceOnUse" spreadMethod="pad" id="fill46" gradientTransform="scale(0.000104987 0.000104987)"><stop offset="0" stop-color="#AEDA9A"/><stop offset="0.53" stop-color="#CDE6C2" stop-opacity="0.521569"/><stop offset="1" stop-color="#FFFFFF"/></radialGradient><radialGradient cx="147638" cy="142875" r="205451" fx="147638" fy="142875" gradientUnits="userSpaceOnUse" spreadMethod="pad" id="fill47" gradientTransform="matrix(0.000104987 0 0 0.000104987 824 537)"><stop offset="0" stop-color="#7030A0"/><stop offset="0.11" stop-color="#7030A0"/><stop offset="0.69" stop-color="#9AB7E0"/><stop offset="0.86" stop-color="#B4D1EC"/><stop offset="0.99083" stop-color="#D3E4F4"/><stop offset="1" stop-color="#D3E4F4"/></radialGradient><radialGradient cx="109537" cy="109537" r="154909" fx="109538" fy="109538" gradientUnits="userSpaceOnUse" spreadMethod="pad" id="fill48" gradientTransform="matrix(0.000104987 0 0 0.000104987 859 556)"><stop offset="0" stop-color="#7030A0"/><stop offset="0.11" stop-color="#7030A0"/><stop offset="0.55" stop-color="#9AB7E0"/><stop offset="0.74" stop-color="#B4D1EC"/><stop offset="0.99083" stop-color="#D3E4F4"/><stop offset="1" stop-color="#D3E4F4"/></radialGradient><radialGradient cx="109538" cy="114300" r="158313" fx="109538" fy="114300" gradientUnits="userSpaceOnUse" spreadMethod="pad" id="fill49" gradientTransform="matrix(0.000104987 0 0 0.000104987 898 564)"><stop offset="0" stop-color="#7030A0"/><stop offset="0.11" stop-color="#7030A0"/><stop offset="0.55" stop-color="#9AB7E0"/><stop offset="0.74" stop-color="#B4D1EC"/><stop offset="0.99083" stop-color="#D3E4F4"/><stop offset="1" stop-color="#D3E4F4"/></radialGradient><radialGradient cx="147638" cy="147638" r="208791" fx="147638" fy="147638" gradientUnits="userSpaceOnUse" spreadMethod="pad" id="fill50" gradientTransform="matrix(0.000104987 0 0 0.000104987 753 401)"><stop offset="0" stop-color="#7030A0"/><stop offset="0.11" stop-color="#7030A0"/><stop offset="0.69" stop-color="#9AB7E0"/><stop offset="0.86" stop-color="#B4D1EC"/><stop offset="0.99083" stop-color="#D3E4F4"/><stop offset="1" stop-color="#D3E4F4"/></radialGradient><radialGradient cx="109538" cy="114300" r="158313" fx="109538" fy="114300" gradientUnits="userSpaceOnUse" spreadMethod="pad" id="fill51" gradientTransform="matrix(0.000104987 0 0 0.000104987 730 371)"><stop offset="0" stop-color="#7030A0"/><stop offset="0.11" stop-color="#7030A0"/><stop offset="0.55" stop-color="#9AB7E0"/><stop offset="0.74" stop-color="#B4D1EC"/><stop offset="0.99083" stop-color="#D3E4F4"/><stop offset="1" stop-color="#D3E4F4"/></radialGradient><radialGradient cx="109537" cy="109537" r="154909" fx="109538" fy="109538" gradientUnits="userSpaceOnUse" spreadMethod="pad" id="fill52" gradientTransform="matrix(0.000104987 0 0 0.000104987 754 337)"><stop offset="0" stop-color="#7030A0"/><stop offset="0.11" stop-color="#7030A0"/><stop offset="0.55" stop-color="#9AB7E0"/><stop offset="0.74" stop-color="#B4D1EC"/><stop offset="0.99083" stop-color="#D3E4F4"/><stop offset="1" stop-color="#D3E4F4"/></radialGradient><radialGradient cx="147638" cy="147638" r="208791" fx="147638" fy="147638" gradientUnits="userSpaceOnUse" spreadMethod="pad" id="fill53" gradientTransform="scale(0.000104987 0.000104987)"><stop offset="0" stop-color="#7030A0"/><stop offset="0.11" stop-color="#7030A0"/><stop offset="0.69" stop-color="#9AB7E0"/><stop offset="0.86" stop-color="#B4D1EC"/><stop offset="0.99083" stop-color="#D3E4F4"/><stop offset="1" stop-color="#D3E4F4"/></radialGradient><radialGradient cx="109538" cy="114300" r="158313" fx="109538" fy="114300" gradientUnits="userSpaceOnUse" spreadMethod="pad" id="fill54" gradientTransform="scale(0.000104987 0.000104987)"><stop offset="0" stop-color="#7030A0"/><stop offset="0.11" stop-color="#7030A0"/><stop offset="0.55" stop-color="#9AB7E0"/><stop offset="0.74" stop-color="#B4D1EC"/><stop offset="0.99083" stop-color="#D3E4F4"/><stop offset="1" stop-color="#D3E4F4"/></radialGradient><radialGradient cx="114300" cy="114300" r="161645" fx="114300" fy="114300" gradientUnits="userSpaceOnUse" spreadMethod="pad" id="fill55" gradientTransform="scale(0.000104987 0.000104987)"><stop offset="0" stop-color="#7030A0"/><stop offset="0.11" stop-color="#7030A0"/><stop offset="0.55" stop-color="#9AB7E0"/><stop offset="0.74" stop-color="#B4D1EC"/><stop offset="0.99083" stop-color="#D3E4F4"/><stop offset="1" stop-color="#D3E4F4"/></radialGradient><radialGradient cx="147638" cy="147638" r="208791" fx="147638" fy="147638" gradientUnits="userSpaceOnUse" spreadMethod="pad" id="fill56" gradientTransform="matrix(0.000104987 0 0 0.000104987 1124 442)"><stop offset="0" stop-color="#7030A0"/><stop offset="0.11" stop-color="#7030A0"/><stop offset="0.69" stop-color="#9AB7E0"/><stop offset="0.86" stop-color="#B4D1EC"/><stop offset="0.99083" stop-color="#D3E4F4"/><stop offset="1" stop-color="#D3E4F4"/></radialGradient><radialGradient cx="109537" cy="109537" r="154909" fx="109538" fy="109538" gradientUnits="userSpaceOnUse" spreadMethod="pad" id="fill57" gradientTransform="matrix(0.000104987 0 0 0.000104987 1159 461)"><stop offset="0" stop-color="#7030A0"/><stop offset="0.11" stop-color="#7030A0"/><stop offset="0.55" stop-color="#9AB7E0"/><stop offset="0.74" stop-color="#B4D1EC"/><stop offset="0.99083" stop-color="#D3E4F4"/><stop offset="1" stop-color="#D3E4F4"/></radialGradient><radialGradient cx="114300" cy="114300" r="161645" fx="114300" fy="114300" gradientUnits="userSpaceOnUse" spreadMethod="pad" id="fill58" gradientTransform="matrix(0.000104987 0 0 0.000104987 1147 496)"><stop offset="0" stop-color="#7030A0"/><stop offset="0.11" stop-color="#7030A0"/><stop offset="0.55" stop-color="#9AB7E0"/><stop offset="0.74" stop-color="#B4D1EC"/><stop offset="0.99083" stop-color="#D3E4F4"/><stop offset="1" stop-color="#D3E4F4"/></radialGradient></defs><g clip-path="url(#clip0)"><rect x="0" y="0" width="1280" height="720" fill="#FFFFFF"/><path d="M0 0 1280 0 1280 720 0 720Z" fill="#FFFFFF"/><path d="M218 258.5C218 238.342 235.685 222 257.5 222 279.315 222 297 238.342 297 258.5 297 278.658 279.315 295 257.5 295 235.685 295 218 278.658 218 258.5Z" fill="url(#fill1)" fill-rule="evenodd"/><path d="M160 125C160 104.565 177.685 88 199.5 88 221.315 88 239 104.565 239 125 239 145.435 221.315 162 199.5 162 177.685 162 160 145.435 160 125Z" fill="url(#fill2)" fill-rule="evenodd"/><path d="M231 104C231 83.5655 248.685 67 270.5 67 292.315 67 310 83.5655 310 104 310 124.435 292.315 141 270.5 141 248.685 141 231 124.435 231 104Z" fill="url(#fill3)" fill-rule="evenodd"/><path d="M277 291.5C277 271.342 294.685 255 316.5 255 338.315 255 356 271.342 356 291.5 356 311.658 338.315 328 316.5 328 294.685 328 277 311.658 277 291.5Z" fill="url(#fill4)" fill-rule="evenodd"/><path d="M351 277C351 256.565 368.685 240 390.5 240 412.315 240 430 256.565 430 277 430 297.435 412.315 314 390.5 314 368.685 314 351 297.435 351 277Z" fill="url(#fill5)" fill-rule="evenodd"/><path d="M296 97.5C296 77.3416 323.982 61 358.5 61 393.018 61 421 77.3416 421 97.5 421 117.658 393.018 134 358.5 134 323.982 134 296 117.658 296 97.5Z" fill="url(#fill6)" fill-rule="evenodd"/><path d="M199.431 107.855 209.137 97 208.365 111.442 218.52 104.93 213.775 113.33 229 113.613 215.54 120.505 219.288 125.225 213.775 127.775 221.058 136.08 208.7 132.875 209.581 140.425 201.525 136.837 199.868 144.105 194.793 140.425 191.375 146.28 187.954 142.312 180.341 151 180.015 142.6 169.748 141.562 175.712 135.425 166 129.193 177.477 125.98 169.418 117.675 181.668 116.542 179.131 106.062 190.938 112.955 194.356 101.717Z" stroke="#FFFFFF" stroke-width="2" stroke-miterlimit="8" fill="#FFC000" fill-rule="evenodd"/><path d="M279.431 88.855 289.138 78 288.365 92.4425 298.52 85.93 293.775 94.33 309 94.6125 295.54 101.505 299.288 106.225 293.775 108.775 301.058 117.08 288.7 113.875 289.581 121.425 281.525 117.838 279.868 125.105 274.793 121.425 271.375 127.28 267.954 123.312 260.341 132 260.015 123.6 249.748 122.562 255.712 116.425 246 110.192 257.477 106.98 249.418 98.675 261.668 97.5425 259.131 87.0625 270.938 93.955 274.356 82.7175Z" stroke="#FFFFFF" stroke-width="2" stroke-miterlimit="8" fill="#FFC000" fill-rule="evenodd"/><path d="M340.431 80.855 350.138 70 349.365 84.4425 359.52 77.93 354.775 86.33 370 86.6125 356.54 93.505 360.288 98.225 354.775 100.775 362.058 109.08 349.7 105.875 350.581 113.425 342.525 109.838 340.868 117.105 335.793 113.425 332.375 119.28 328.954 115.312 321.341 124 321.015 115.6 310.748 114.562 316.712 108.425 307 102.192 318.477 98.98 310.418 90.675 322.668 89.5425 320.131 79.0625 331.938 85.955 335.356 74.7175Z" stroke="#FFFFFF" stroke-width="2" stroke-miterlimit="8" fill="#FFC000" fill-rule="evenodd"/><path d="M391.9 85.855 401.453 75 400.692 89.4425 410.687 82.93 406.017 91.33 421 91.6125 407.753 98.505 411.442 103.225 406.017 105.775 413.184 114.08 401.022 110.875 401.889 118.425 393.961 114.838 392.331 122.105 387.336 118.425 383.972 124.28 380.605 120.312 373.114 129 372.792 120.6 362.688 119.562 368.558 113.425 359 107.192 370.295 103.98 362.364 95.675 374.42 94.5425 371.922 84.0625 383.542 90.955 386.906 79.7175Z" stroke="#FFFFFF" stroke-width="2" stroke-miterlimit="8" fill="#FFC000" fill-rule="evenodd"/><path d="M264.431 232.654 274.138 222 273.365 236.175 283.52 229.783 278.775 238.028 294 238.305 280.54 245.07 284.288 249.702 278.775 252.205 286.058 260.356 273.7 257.211 274.581 264.621 266.525 261.1 264.868 268.233 259.793 264.621 256.375 270.367 252.954 266.473 245.341 275 245.015 266.756 234.748 265.737 240.712 259.713 231 253.596 242.477 250.443 234.418 242.292 246.668 241.181 244.131 230.895 255.938 237.66 259.356 226.63Z" stroke="#FFFFFF" stroke-width="2" stroke-miterlimit="8" fill="#FFC000" fill-rule="evenodd"/><path d="M325.9 274.855 335.453 264 334.692 278.443 344.687 271.93 340.017 280.33 355 280.612 341.753 287.505 345.442 292.225 340.017 294.775 347.184 303.08 335.022 299.875 335.889 307.425 327.961 303.837 326.331 311.105 321.336 307.425 317.972 313.28 314.605 309.312 307.114 318 306.792 309.6 296.688 308.562 302.558 302.425 293 296.193 304.295 292.98 296.364 284.675 308.42 283.543 305.922 273.062 317.542 279.955 320.906 268.717Z" stroke="#FFFFFF" stroke-width="2" stroke-miterlimit="8" fill="#FFC000" fill-rule="evenodd"/><path d="M393.9 266.855 403.453 256 402.692 270.443 412.687 263.93 408.017 272.33 423 272.612 409.753 279.505 413.442 284.225 408.017 286.775 415.184 295.08 403.022 291.875 403.889 299.425 395.961 295.837 394.331 303.105 389.336 299.425 385.972 305.28 382.605 301.312 375.114 310 374.792 301.6 364.688 300.562 370.558 294.425 361 288.193 372.295 284.98 364.364 276.675 376.42 275.543 373.922 265.062 385.542 271.955 388.906 260.717Z" stroke="#FFFFFF" stroke-width="2" stroke-miterlimit="8" fill="#FFC000" fill-rule="evenodd"/><path d="M128.671 199.782C117.73 203.059 105.931 195.938 102.319 183.876 98.7056 171.815 104.646 159.38 115.588 156.103 126.529 152.825 138.327 159.947 141.94 172.008 145.553 184.07 139.612 196.505 128.671 199.782Z" fill="url(#fill7)" fill-rule="evenodd"/><path d="M105.339 161.565C93.8377 165.01 81.8494 158.906 78.5621 147.931 75.2748 136.957 81.9334 125.267 93.4345 121.822 104.936 118.377 116.924 124.481 120.211 135.456 123.498 146.43 116.84 158.12 105.339 161.565Z" fill="url(#fill8)" fill-rule="evenodd"/><path d="M128.152 129.269C117.885 132.345 106.701 125.288 103.172 113.507 99.6431 101.726 105.106 89.6828 115.373 86.6073 125.641 83.5318 136.825 90.5889 140.354 102.37 143.882 114.151 138.42 126.194 128.152 129.269Z" fill="url(#fill9)" fill-rule="evenodd"/><path d="M59 258.5C59 220.116 91.4594 189 131.5 189 171.541 189 204 220.116 204 258.5 204 296.884 171.541 328 131.5 328 91.4594 328 59 296.884 59 258.5Z" fill="url(#fill10)" fill-rule="evenodd"/><path d="M141.394 196.962 168.511 165 166.352 207.525 194.724 188.349 181.467 213.083 224 213.915 186.396 234.209 196.867 248.107 181.467 255.615 201.813 280.069 167.289 270.632 169.75 292.862 147.244 282.299 142.616 303.698 128.439 292.862 118.889 310.102 109.331 298.42 88.0644 324 87.1519 299.267 58.4704 296.212 75.1333 278.14 48 259.789 80.063 250.33 57.5496 225.876 91.7719 222.542 84.683 191.684 117.667 211.979 127.216 178.89Z" stroke="#FFFFFF" stroke-width="2" stroke-miterlimit="8" fill="#FFC000" fill-rule="evenodd"/><path d="M422 132.5C422 94.1162 454.459 63 494.5 63 534.541 63 567 94.1162 567 132.5 567 170.884 534.541 202 494.5 202 454.459 202 422 170.884 422 132.5Z" fill="url(#fill11)" fill-rule="evenodd"/><path d="M521.863 81.9619 548.826 50 546.679 92.5251 574.89 73.3494 561.708 98.0828 604 98.9146 566.61 119.209 577.021 133.107 561.708 140.615 581.939 165.069 547.611 155.632 550.058 177.862 527.681 167.299 523.079 188.698 508.981 177.862 499.486 195.102 489.983 183.42 468.837 209 467.929 184.267 439.411 181.212 455.979 163.14 429 144.789 460.881 135.33 438.495 110.876 472.523 107.542 465.475 76.684 498.271 96.9786 507.766 63.8904Z" stroke="#FFFFFF" stroke-width="2" stroke-miterlimit="8" fill="#FFC000" fill-rule="evenodd"/><path d="M49 30 587 30 587 356 49 356Z" stroke="#000000" stroke-width="2" stroke-miterlimit="8" fill="none"/><text font-family="Calibri,Calibri_MSFontService,sans-serif" font-weight="700" font-size="37" transform="translate(71.786 76)">R</text><path d="M90.5001 250C90.5001 229.842 107.737 213.5 129 213.5 150.263 213.5 167.5 229.842 167.5 250 167.5 270.158 150.263 286.5 129 286.5 107.737 286.5 90.5001 270.158 90.5001 250Z" stroke="#000000" stroke-width="1.33333" stroke-miterlimit="8" fill="none" fill-rule="evenodd"/><path d="M100.5 257.5C100.5 254.186 103.186 251.5 106.5 251.5 109.814 251.5 112.5 254.186 112.5 257.5 112.5 260.814 109.814 263.5 106.5 263.5 103.186 263.5 100.5 260.814 100.5 257.5Z" stroke="#000000" stroke-width="1.33333" stroke-miterlimit="8" fill-rule="evenodd"/><path d="M118.5 255.5C118.5 252.186 121.186 249.5 124.5 249.5 127.814 249.5 130.5 252.186 130.5 255.5 130.5 258.814 127.814 261.5 124.5 261.5 121.186 261.5 118.5 258.814 118.5 255.5Z" stroke="#000000" stroke-width="1.33333" stroke-miterlimit="8" fill-rule="evenodd"/><path d="M142.5 261.5C142.5 258.186 145.186 255.5 148.5 255.5 151.814 255.5 154.5 258.186 154.5 261.5 154.5 264.814 151.814 267.5 148.5 267.5 145.186 267.5 142.5 264.814 142.5 261.5Z" stroke="#000000" stroke-width="1.33333" stroke-miterlimit="8" fill-rule="evenodd"/><path d="M110.5 274.5C110.5 271.186 113.186 268.5 116.5 268.5 119.814 268.5 122.5 271.186 122.5 274.5 122.5 277.814 119.814 280.5 116.5 280.5 113.186 280.5 110.5 277.814 110.5 274.5Z" stroke="#000000" stroke-width="1.33333" stroke-miterlimit="8" fill-rule="evenodd"/><path d="M129.5 274.5C129.5 271.186 132.186 268.5 135.5 268.5 138.814 268.5 141.5 271.186 141.5 274.5 141.5 277.814 138.814 280.5 135.5 280.5 132.186 280.5 129.5 277.814 129.5 274.5Z" stroke="#000000" stroke-width="1.33333" stroke-miterlimit="8" fill-rule="evenodd"/><path d="M138.5 227C138.5 223.962 141.186 221.5 144.5 221.5 147.814 221.5 150.5 223.962 150.5 227 150.5 230.038 147.814 232.5 144.5 232.5 141.186 232.5 138.5 230.038 138.5 227Z" stroke="#000000" stroke-width="1.33333" stroke-miterlimit="8" fill-rule="evenodd"/><path d="M114.5 244C114.5 240.962 117.186 238.5 120.5 238.5 123.814 238.5 126.5 240.962 126.5 244 126.5 247.038 123.814 249.5 120.5 249.5 117.186 249.5 114.5 247.038 114.5 244Z" stroke="#000000" stroke-width="1.33333" stroke-miterlimit="8" fill-rule="evenodd"/><path d="M130.5 249.5C130.5 246.186 133.186 243.5 136.5 243.5 139.814 243.5 142.5 246.186 142.5 249.5 142.5 252.814 139.814 255.5 136.5 255.5 133.186 255.5 130.5 252.814 130.5 249.5Z" stroke="#000000" stroke-width="1.33333" stroke-miterlimit="8" fill-rule="evenodd"/><path d="M112.5 223.5C112.5 220.186 115.186 217.5 118.5 217.5 121.814 217.5 124.5 220.186 124.5 223.5 124.5 226.814 121.814 229.5 118.5 229.5 115.186 229.5 112.5 226.814 112.5 223.5Z" stroke="#000000" stroke-width="1.33333" stroke-miterlimit="8" fill-rule="evenodd"/><path d="M100.5 238C100.5 234.962 103.186 232.5 106.5 232.5 109.814 232.5 112.5 234.962 112.5 238 112.5 241.038 109.814 243.5 106.5 243.5 103.186 243.5 100.5 241.038 100.5 238Z" stroke="#000000" stroke-width="1.33333" stroke-miterlimit="8" fill-rule="evenodd"/><path d="M125.5 234.5C125.5 231.186 128.41 228.5 132 228.5 135.59 228.5 138.5 231.186 138.5 234.5 138.5 237.814 135.59 240.5 132 240.5 128.41 240.5 125.5 237.814 125.5 234.5Z" stroke="#000000" stroke-width="1.33333" stroke-miterlimit="8" fill-rule="evenodd"/><path d="M142.5 244C142.5 240.962 145.41 238.5 149 238.5 152.59 238.5 155.5 240.962 155.5 244 155.5 247.038 152.59 249.5 149 249.5 145.41 249.5 142.5 247.038 142.5 244Z" stroke="#000000" stroke-width="1.33333" stroke-miterlimit="8" fill-rule="evenodd"/><path d="M124.5 249.5 150.5 249.5 150.5 279.5 124.5 279.5Z" stroke="#000000" stroke-width="1.33333" stroke-miterlimit="8" fill="#FFFFFF"/><text font-family="Calibri,Calibri_MSFontService,sans-serif" font-style="italic" font-weight="700" font-size="21" transform="translate(130.549 271)">A</text><path d="M468.5 133.5C468.5 113.066 485.961 96.5001 507.5 96.5001 529.039 96.5001 546.5 113.066 546.5 133.5 546.5 153.935 529.039 170.5 507.5 170.5 485.961 170.5 468.5 153.935 468.5 133.5Z" stroke="#000000" stroke-width="1.33333" stroke-miterlimit="8" fill="none" fill-rule="evenodd"/><path d="M479.5 140.5C479.5 137.186 482.186 134.5 485.5 134.5 488.814 134.5 491.5 137.186 491.5 140.5 491.5 143.814 488.814 146.5 485.5 146.5 482.186 146.5 479.5 143.814 479.5 140.5Z" stroke="#000000" stroke-width="1.33333" stroke-miterlimit="8" fill-rule="evenodd"/><path d="M496.5 139C496.5 135.962 499.41 133.5 503 133.5 506.59 133.5 509.5 135.962 509.5 139 509.5 142.038 506.59 144.5 503 144.5 499.41 144.5 496.5 142.038 496.5 139Z" stroke="#000000" stroke-width="1.33333" stroke-miterlimit="8" fill-rule="evenodd"/><path d="M521.5 145C521.5 141.962 524.186 139.5 527.5 139.5 530.814 139.5 533.5 141.962 533.5 145 533.5 148.038 530.814 150.5 527.5 150.5 524.186 150.5 521.5 148.038 521.5 145Z" stroke="#000000" stroke-width="1.33333" stroke-miterlimit="8" fill-rule="evenodd"/><path d="M489.5 158C489.5 154.962 492.186 152.5 495.5 152.5 498.814 152.5 501.5 154.962 501.5 158 501.5 161.038 498.814 163.5 495.5 163.5 492.186 163.5 489.5 161.038 489.5 158Z" stroke="#000000" stroke-width="1.33333" stroke-miterlimit="8" fill-rule="evenodd"/><path d="M508.5 158C508.5 154.962 511.186 152.5 514.5 152.5 517.814 152.5 520.5 154.962 520.5 158 520.5 161.038 517.814 163.5 514.5 163.5 511.186 163.5 508.5 161.038 508.5 158Z" stroke="#000000" stroke-width="1.33333" stroke-miterlimit="8" fill-rule="evenodd"/><path d="M517.5 110.5C517.5 107.186 520.186 104.5 523.5 104.5 526.814 104.5 529.5 107.186 529.5 110.5 529.5 113.814 526.814 116.5 523.5 116.5 520.186 116.5 517.5 113.814 517.5 110.5Z" stroke="#000000" stroke-width="1.33333" stroke-miterlimit="8" fill-rule="evenodd"/><path d="M493.5 127.5C493.5 124.186 496.186 121.5 499.5 121.5 502.814 121.5 505.5 124.186 505.5 127.5 505.5 130.814 502.814 133.5 499.5 133.5 496.186 133.5 493.5 130.814 493.5 127.5Z" stroke="#000000" stroke-width="1.33333" stroke-miterlimit="8" fill-rule="evenodd"/><path d="M509.5 133C509.5 129.962 512.186 127.5 515.5 127.5 518.814 127.5 521.5 129.962 521.5 133 521.5 136.038 518.814 138.5 515.5 138.5 512.186 138.5 509.5 136.038 509.5 133Z" stroke="#000000" stroke-width="1.33333" stroke-miterlimit="8" fill-rule="evenodd"/><path d="M491.5 106.5C491.5 103.186 494.186 100.5 497.5 100.5 500.814 100.5 503.5 103.186 503.5 106.5 503.5 109.814 500.814 112.5 497.5 112.5 494.186 112.5 491.5 109.814 491.5 106.5Z" stroke="#000000" stroke-width="1.33333" stroke-miterlimit="8" fill-rule="evenodd"/><path d="M479.5 121.5C479.5 118.186 482.186 115.5 485.5 115.5 488.814 115.5 491.5 118.186 491.5 121.5 491.5 124.814 488.814 127.5 485.5 127.5 482.186 127.5 479.5 124.814 479.5 121.5Z" stroke="#000000" stroke-width="1.33333" stroke-miterlimit="8" fill-rule="evenodd"/><path d="M504.5 118C504.5 114.962 507.41 112.5 511 112.5 514.59 112.5 517.5 114.962 517.5 118 517.5 121.038 514.59 123.5 511 123.5 507.41 123.5 504.5 121.038 504.5 118Z" stroke="#000000" stroke-width="1.33333" stroke-miterlimit="8" fill-rule="evenodd"/><path d="M521.5 127.5C521.5 124.186 524.186 121.5 527.5 121.5 530.814 121.5 533.5 124.186 533.5 127.5 533.5 130.814 530.814 133.5 527.5 133.5 524.186 133.5 521.5 130.814 521.5 127.5Z" stroke="#000000" stroke-width="1.33333" stroke-miterlimit="8" fill-rule="evenodd"/><path d="M503.5 133.5 529.5 133.5 529.5 163.5 503.5 163.5Z" stroke="#000000" stroke-width="1.33333" stroke-miterlimit="8" fill="#FFFFFF"/><text font-family="Calibri,Calibri_MSFontService,sans-serif" font-style="italic" font-weight="700" font-size="21" transform="translate(509.866 155)">B</text><path d="M167.06 249.002 239.142 253.304 239.023 255.301 166.94 250.998ZM237.99 250.23 245.737 254.7 237.513 258.216Z"/><path d="M248.5 255C248.5 250.306 252.753 246.5 258 246.5 263.247 246.5 267.5 250.306 267.5 255 267.5 259.694 263.247 263.5 258 263.5 252.753 263.5 248.5 259.694 248.5 255Z" stroke="#000000" stroke-width="1.33333" stroke-miterlimit="8" fill-rule="evenodd"/><path d="M307.5 292C307.5 287.306 311.753 283.5 317 283.5 322.247 283.5 326.5 287.306 326.5 292 326.5 296.694 322.247 300.5 317 300.5 311.753 300.5 307.5 296.694 307.5 292Z" stroke="#000000" stroke-width="1.33333" stroke-miterlimit="8" fill-rule="evenodd"/><path d="M384.5 286C384.5 281.306 388.53 277.5 393.5 277.5 398.471 277.5 402.5 281.306 402.5 286 402.5 290.694 398.471 294.5 393.5 294.5 388.53 294.5 384.5 290.694 384.5 286Z" stroke="#000000" stroke-width="1.33333" stroke-miterlimit="8" fill-rule="evenodd"/><path d="M188.5 125C188.5 120.306 192.753 116.5 198 116.5 203.247 116.5 207.5 120.306 207.5 125 207.5 129.694 203.247 133.5 198 133.5 192.753 133.5 188.5 129.694 188.5 125Z" stroke="#000000" stroke-width="1.33333" stroke-miterlimit="8" fill-rule="evenodd"/><path d="M266.5 104C266.5 99.3056 270.753 95.5001 276 95.5001 281.247 95.5001 285.5 99.3056 285.5 104 285.5 108.694 281.247 112.5 276 112.5 270.753 112.5 266.5 108.694 266.5 104Z" stroke="#000000" stroke-width="1.33333" stroke-miterlimit="8" fill-rule="evenodd"/><path d="M330.5 98.0001C330.5 93.3056 334.753 89.5001 340 89.5001 345.247 89.5001 349.5 93.3056 349.5 98.0001 349.5 102.694 345.247 106.5 340 106.5 334.753 106.5 330.5 102.694 330.5 98.0001Z" stroke="#000000" stroke-width="1.33333" stroke-miterlimit="8" fill-rule="evenodd"/><path d="M268.595 262.197 302.21 287.112 301.019 288.719 267.405 263.803ZM302.926 283.908 306.971 291.886 298.162 290.335Z"/><path d="M320.033 288.001 380.424 289.992 380.358 291.991 319.967 289.999ZM379.19 286.95 387.054 291.211 378.927 294.945Z"/><path d="M0.826503-0.562933 77.085 111.4 75.432 112.526-0.826503 0.562933ZM78.814 108.61 80.0114 117.473 72.202 113.113Z" transform="matrix(1 0 0 -1 400 276.473)"/><path d="M468.007 133.429 400.691 103.614 401.5 101.785 468.817 131.601ZM400.695 106.897 395 100 403.935 99.5824Z"/><path d="M0.138222-0.990401 38.7968 4.40486 38.5204 6.38566-0.138222 0.990401ZM37.891 1.24936 45.2613 6.31675 36.7852 9.17257Z" transform="matrix(-1 0 0 1 330.261 98)"/><path d="M0.229036-0.973418 62.349 13.6428 61.8909 15.5896-0.229036 0.973418ZM61.7381 10.4171 68.6093 16.1431 59.9059 18.2045Z" transform="matrix(-1 0 0 1 266.609 104)"/><path d="M0.88893-0.458043 40.0744 75.5897 38.2965 76.5058-0.88893 0.458043ZM42.1304 73.0303 42.2391 81.974 35.019 76.6947Z" transform="matrix(-1 0 0 1 197.239 133)"/><path d="M171 312.5C171 301.178 181.297 292 194 292 206.703 292 217 301.178 217 312.5 217 323.822 206.703 333 194 333 181.297 333 171 323.822 171 312.5Z" fill="url(#fill12)" fill-rule="evenodd"/><path d="M204 325C204 312.85 213.402 303 225 303 236.598 303 246 312.85 246 325 246 337.15 236.598 347 225 347 213.402 347 204 337.15 204 325Z" fill="url(#fill13)" fill-rule="evenodd"/><path d="M239 332.5C239 321.73 248.85 313 261 313 273.15 313 283 321.73 283 332.5 283 343.27 273.15 352 261 352 248.85 352 239 343.27 239 332.5Z" fill="url(#fill14)" fill-rule="evenodd"/><path d="M470 215.5C470 204.178 480.297 195 493 195 505.703 195 516 204.178 516 215.5 516 226.822 505.703 236 493 236 480.297 236 470 226.822 470 215.5Z" fill="url(#fill15)" fill-rule="evenodd"/><path d="M503 228C503 215.85 512.402 206 524 206 535.598 206 545 215.85 545 228 545 240.15 535.598 250 524 250 512.402 250 503 240.15 503 228Z" fill="url(#fill16)" fill-rule="evenodd"/><path d="M496 265C496 254.507 505.85 246 518 246 530.15 246 540 254.507 540 265 540 275.493 530.15 284 518 284 505.85 284 496 275.493 496 265Z" fill="url(#fill17)" fill-rule="evenodd"/><path d="M0 20.6806C-5.80506e-15 9.25901 10.2072 0 22.7983 0 35.3895-5.26583e-15 45.5966 9.25901 45.5966 20.6806 45.5966 32.1021 35.3895 41.3612 22.7983 41.3612 10.2072 41.3612-8.70759e-15 32.1021 0 20.6806Z" fill="url(#fill18)" fill-rule="evenodd" transform="matrix(-0.988079 -0.153947 -0.153947 0.988079 432.487 151.155)"/><path d="M0 21.7386C-5.28184e-15 9.73272 9.28716 0 20.7435 0 32.1998-5.53524e-15 41.4869 9.73272 41.4869 21.7386 41.4869 33.7445 32.1998 43.4773 20.7435 43.4773 9.28716 43.4773-7.92276e-15 33.7445 0 21.7386Z" fill="url(#fill19)" fill-rule="evenodd" transform="matrix(-0.988079 -0.153947 -0.153947 0.988079 398.023 157.36)"/><path d="M0 19.4069C-5.66989e-15 8.68878 9.96948 0 22.2675 0 34.5654-4.94152e-15 44.5349 8.68878 44.5349 19.4069 44.5349 30.1251 34.5654 38.8139 22.2675 38.8139 9.96948 38.8139-8.50483e-15 30.1251 0 19.4069Z" fill="url(#fill20)" fill-rule="evenodd" transform="matrix(-0.988079 -0.153947 -0.153947 0.988079 362.364 161.492)"/><path d="M378.5 101C378.5 96.3056 382.53 92.5001 387.5 92.5001 392.471 92.5001 396.5 96.3056 396.5 101 396.5 105.694 392.471 109.5 387.5 109.5 382.53 109.5 378.5 105.694 378.5 101Z" stroke="#000000" stroke-width="1.33333" stroke-miterlimit="8" fill-rule="evenodd"/><path d="M377.868 101.909 355.533 99.6623 355.733 97.6723 378.068 99.9191ZM356.559 102.781 349 98 357.36 94.8208Z"/><path d="M996 518.5C996 498.342 1013.68 482 1035.5 482 1057.32 482 1075 498.342 1075 518.5 1075 538.658 1057.32 555 1035.5 555 1013.68 555 996 538.658 996 518.5Z" fill="url(#fill21)" fill-rule="evenodd"/><path d="M1011 524.5C1011 508.76 1023.31 496 1038.5 496 1053.69 496 1066 508.76 1066 524.5 1066 540.24 1053.69 553 1038.5 553 1023.31 553 1011 540.24 1011 524.5Z" fill="url(#fill22)" fill-rule="evenodd"/><path d="M922 532.5C922 512.342 939.685 496 961.5 496 983.315 496 1001 512.342 1001 532.5 1001 552.658 983.315 569 961.5 569 939.685 569 922 552.658 922 532.5Z" fill="url(#fill23)" fill-rule="evenodd"/><path d="M934 530.5C934 514.76 946.312 502 961.5 502 976.688 502 989 514.76 989 530.5 989 546.24 976.688 559 961.5 559 946.312 559 934 546.24 934 530.5Z" fill="url(#fill24)" fill-rule="evenodd"/><path d="M1067 373.5C1067 335.116 1099.46 304 1139.5 304 1179.54 304 1212 335.116 1212 373.5 1212 411.884 1179.54 443 1139.5 443 1099.46 443 1067 411.884 1067 373.5Z" fill="url(#fill25)" fill-rule="evenodd"/><path d="M863 499.5C863 479.342 880.685 463 902.5 463 924.315 463 942 479.342 942 499.5 942 519.658 924.315 536 902.5 536 880.685 536 863 519.658 863 499.5Z" fill="url(#fill26)" fill-rule="evenodd"/><path d="M879 497.5C879 481.76 891.312 469 906.5 469 921.688 469 934 481.76 934 497.5 934 513.24 921.688 526 906.5 526 891.312 526 879 513.24 879 497.5Z" fill="url(#fill27)" fill-rule="evenodd"/><path d="M941 339C941 318.565 968.982 302 1003.5 302 1038.02 302 1066 318.565 1066 339 1066 359.435 1038.02 376 1003.5 376 968.982 376 941 359.435 941 339Z" fill="url(#fill28)" fill-rule="evenodd"/><path d="M954 339.5C954 323.76 977.057 311 1005.5 311 1033.94 311 1057 323.76 1057 339.5 1057 355.24 1033.94 368 1005.5 368 977.057 368 954 355.24 954 339.5Z" fill="url(#fill29)" fill-rule="evenodd"/><path d="M876 345C876 324.565 893.685 308 915.5 308 937.315 308 955 324.565 955 345 955 365.435 937.315 382 915.5 382 893.685 382 876 365.435 876 345Z" fill="url(#fill30)" fill-rule="evenodd"/><path d="M887 345C887 328.984 899.312 316 914.5 316 929.688 316 942 328.984 942 345 942 361.016 929.688 374 914.5 374 899.312 374 887 361.016 887 345Z" fill="url(#fill31)" fill-rule="evenodd"/><path d="M805 366C805 345.565 822.685 329 844.5 329 866.315 329 884 345.565 884 366 884 386.435 866.315 403 844.5 403 822.685 403 805 386.435 805 366Z" fill="url(#fill32)" fill-rule="evenodd"/><path d="M826 365C826 354.507 833.835 346 843.5 346 853.165 346 861 354.507 861 365 861 375.493 853.165 384 843.5 384 833.835 384 826 375.493 826 365Z" fill="url(#fill33)" fill-rule="evenodd"/><path d="M704 499.5C704 461.116 736.459 430 776.5 430 816.541 430 849 461.116 849 499.5 849 537.884 816.541 569 776.5 569 736.459 569 704 537.884 704 499.5Z" fill="url(#fill34)" fill-rule="evenodd"/><path d="M773.695 440.911C762.753 444.188 750.955 437.067 747.342 425.005 743.729 412.943 749.67 400.509 760.611 397.231 771.552 393.954 783.351 401.075 786.964 413.137 790.577 425.199 784.636 437.633 773.695 440.911Z" fill="url(#fill35)" fill-rule="evenodd"/><path d="M750.362 402.693C738.861 406.138 726.873 400.035 723.586 389.06 720.298 378.085 726.957 366.396 738.458 362.951 749.959 359.506 761.947 365.61 765.235 376.585 768.522 387.559 761.863 399.249 750.362 402.693Z" fill="url(#fill36)" fill-rule="evenodd"/><path d="M773.176 370.398C762.908 373.474 751.724 366.417 748.195 354.636 744.667 342.855 750.129 330.811 760.397 327.736 770.664 324.661 781.848 331.718 785.377 343.498 788.906 355.279 783.443 367.323 773.176 370.398Z" fill="url(#fill37)" fill-rule="evenodd"/><path d="M694 271 1232 271 1232 597 694 597Z" stroke="#000000" stroke-width="2" stroke-miterlimit="8" fill="none"/><text font-family="Calibri,Calibri_MSFontService,sans-serif" font-weight="700" font-size="37" transform="translate(716.81 317)">R</text><path d="M735.5 491C735.5 470.842 752.737 454.5 774 454.5 795.263 454.5 812.5 470.842 812.5 491 812.5 511.158 795.263 527.5 774 527.5 752.737 527.5 735.5 511.158 735.5 491Z" stroke="#000000" stroke-width="1.33333" stroke-miterlimit="8" fill="none" fill-rule="evenodd"/><path d="M745.5 498.5C745.5 495.186 748.186 492.5 751.5 492.5 754.814 492.5 757.5 495.186 757.5 498.5 757.5 501.814 754.814 504.5 751.5 504.5 748.186 504.5 745.5 501.814 745.5 498.5Z" stroke="#000000" stroke-width="1.33333" stroke-miterlimit="8" fill-rule="evenodd"/><path d="M763.5 497C763.5 493.962 766.186 491.5 769.5 491.5 772.814 491.5 775.5 493.962 775.5 497 775.5 500.038 772.814 502.5 769.5 502.5 766.186 502.5 763.5 500.038 763.5 497Z" stroke="#000000" stroke-width="1.33333" stroke-miterlimit="8" fill-rule="evenodd"/><path d="M787.5 502.5C787.5 499.186 790.186 496.5 793.5 496.5 796.814 496.5 799.5 499.186 799.5 502.5 799.5 505.814 796.814 508.5 793.5 508.5 790.186 508.5 787.5 505.814 787.5 502.5Z" stroke="#000000" stroke-width="1.33333" stroke-miterlimit="8" fill-rule="evenodd"/><path d="M755.5 515.5C755.5 512.186 758.186 509.5 761.5 509.5 764.814 509.5 767.5 512.186 767.5 515.5 767.5 518.814 764.814 521.5 761.5 521.5 758.186 521.5 755.5 518.814 755.5 515.5Z" stroke="#000000" stroke-width="1.33333" stroke-miterlimit="8" fill-rule="evenodd"/><path d="M774.5 515.5C774.5 512.186 777.186 509.5 780.5 509.5 783.814 509.5 786.5 512.186 786.5 515.5 786.5 518.814 783.814 521.5 780.5 521.5 777.186 521.5 774.5 518.814 774.5 515.5Z" stroke="#000000" stroke-width="1.33333" stroke-miterlimit="8" fill-rule="evenodd"/><path d="M783.5 468C783.5 464.962 786.186 462.5 789.5 462.5 792.814 462.5 795.5 464.962 795.5 468 795.5 471.038 792.814 473.5 789.5 473.5 786.186 473.5 783.5 471.038 783.5 468Z" stroke="#000000" stroke-width="1.33333" stroke-miterlimit="8" fill-rule="evenodd"/><path d="M759.5 485.5C759.5 482.186 762.186 479.5 765.5 479.5 768.814 479.5 771.5 482.186 771.5 485.5 771.5 488.814 768.814 491.5 765.5 491.5 762.186 491.5 759.5 488.814 759.5 485.5Z" stroke="#000000" stroke-width="1.33333" stroke-miterlimit="8" fill-rule="evenodd"/><path d="M775.5 490.5C775.5 487.186 778.186 484.5 781.5 484.5 784.814 484.5 787.5 487.186 787.5 490.5 787.5 493.814 784.814 496.5 781.5 496.5 778.186 496.5 775.5 493.814 775.5 490.5Z" stroke="#000000" stroke-width="1.33333" stroke-miterlimit="8" fill-rule="evenodd"/><path d="M757.5 464.5C757.5 461.186 760.186 458.5 763.5 458.5 766.814 458.5 769.5 461.186 769.5 464.5 769.5 467.814 766.814 470.5 763.5 470.5 760.186 470.5 757.5 467.814 757.5 464.5Z" stroke="#000000" stroke-width="1.33333" stroke-miterlimit="8" fill-rule="evenodd"/><path d="M745.5 479C745.5 475.962 748.186 473.5 751.5 473.5 754.814 473.5 757.5 475.962 757.5 479 757.5 482.038 754.814 484.5 751.5 484.5 748.186 484.5 745.5 482.038 745.5 479Z" stroke="#000000" stroke-width="1.33333" stroke-miterlimit="8" fill-rule="evenodd"/><path d="M770.5 476C770.5 472.962 773.41 470.5 777 470.5 780.59 470.5 783.5 472.962 783.5 476 783.5 479.038 780.59 481.5 777 481.5 773.41 481.5 770.5 479.038 770.5 476Z" stroke="#000000" stroke-width="1.33333" stroke-miterlimit="8" fill-rule="evenodd"/><path d="M787.5 485C787.5 481.962 790.41 479.5 794 479.5 797.59 479.5 800.5 481.962 800.5 485 800.5 488.038 797.59 490.5 794 490.5 790.41 490.5 787.5 488.038 787.5 485Z" stroke="#000000" stroke-width="1.33333" stroke-miterlimit="8" fill-rule="evenodd"/><path d="M769.5 490.5 795.5 490.5 795.5 521.5 769.5 521.5Z" stroke="#000000" stroke-width="1.33333" stroke-miterlimit="8" fill="#FFFFFF"/><text font-family="Calibri,Calibri_MSFontService,sans-serif" font-style="italic" font-weight="700" font-size="21" transform="translate(775.572 513)">A</text><path d="M1113.5 374.5C1113.5 354.066 1130.96 337.5 1152.5 337.5 1174.04 337.5 1191.5 354.066 1191.5 374.5 1191.5 394.935 1174.04 411.5 1152.5 411.5 1130.96 411.5 1113.5 394.935 1113.5 374.5Z" stroke="#000000" stroke-width="1.33333" stroke-miterlimit="8" fill="none" fill-rule="evenodd"/><path d="M1124.5 382C1124.5 378.962 1127.19 376.5 1130.5 376.5 1133.81 376.5 1136.5 378.962 1136.5 382 1136.5 385.038 1133.81 387.5 1130.5 387.5 1127.19 387.5 1124.5 385.038 1124.5 382Z" stroke="#000000" stroke-width="1.33333" stroke-miterlimit="8" fill-rule="evenodd"/><path d="M1141.5 380.5C1141.5 377.186 1144.41 374.5 1148 374.5 1151.59 374.5 1154.5 377.186 1154.5 380.5 1154.5 383.814 1151.59 386.5 1148 386.5 1144.41 386.5 1141.5 383.814 1141.5 380.5Z" stroke="#000000" stroke-width="1.33333" stroke-miterlimit="8" fill-rule="evenodd"/><path d="M1166.5 386C1166.5 382.962 1169.19 380.5 1172.5 380.5 1175.81 380.5 1178.5 382.962 1178.5 386 1178.5 389.038 1175.81 391.5 1172.5 391.5 1169.19 391.5 1166.5 389.038 1166.5 386Z" stroke="#000000" stroke-width="1.33333" stroke-miterlimit="8" fill-rule="evenodd"/><path d="M1134.5 399C1134.5 395.962 1137.19 393.5 1140.5 393.5 1143.81 393.5 1146.5 395.962 1146.5 399 1146.5 402.038 1143.81 404.5 1140.5 404.5 1137.19 404.5 1134.5 402.038 1134.5 399Z" stroke="#000000" stroke-width="1.33333" stroke-miterlimit="8" fill-rule="evenodd"/><path d="M1153.5 399C1153.5 395.962 1156.19 393.5 1159.5 393.5 1162.81 393.5 1165.5 395.962 1165.5 399 1165.5 402.038 1162.81 404.5 1159.5 404.5 1156.19 404.5 1153.5 402.038 1153.5 399Z" stroke="#000000" stroke-width="1.33333" stroke-miterlimit="8" fill-rule="evenodd"/><path d="M1162.5 351.5C1162.5 348.186 1165.19 345.5 1168.5 345.5 1171.81 345.5 1174.5 348.186 1174.5 351.5 1174.5 354.814 1171.81 357.5 1168.5 357.5 1165.19 357.5 1162.5 354.814 1162.5 351.5Z" stroke="#000000" stroke-width="1.33333" stroke-miterlimit="8" fill-rule="evenodd"/><path d="M1138.5 368.5C1138.5 365.186 1141.19 362.5 1144.5 362.5 1147.81 362.5 1150.5 365.186 1150.5 368.5 1150.5 371.814 1147.81 374.5 1144.5 374.5 1141.19 374.5 1138.5 371.814 1138.5 368.5Z" stroke="#000000" stroke-width="1.33333" stroke-miterlimit="8" fill-rule="evenodd"/><path d="M1154.5 374C1154.5 370.962 1157.19 368.5 1160.5 368.5 1163.81 368.5 1166.5 370.962 1166.5 374 1166.5 377.038 1163.81 379.5 1160.5 379.5 1157.19 379.5 1154.5 377.038 1154.5 374Z" stroke="#000000" stroke-width="1.33333" stroke-miterlimit="8" fill-rule="evenodd"/><path d="M1136.5 348C1136.5 344.962 1139.19 342.5 1142.5 342.5 1145.81 342.5 1148.5 344.962 1148.5 348 1148.5 351.038 1145.81 353.5 1142.5 353.5 1139.19 353.5 1136.5 351.038 1136.5 348Z" stroke="#000000" stroke-width="1.33333" stroke-miterlimit="8" fill-rule="evenodd"/><path d="M1124.5 362.5C1124.5 359.186 1127.19 356.5 1130.5 356.5 1133.81 356.5 1136.5 359.186 1136.5 362.5 1136.5 365.814 1133.81 368.5 1130.5 368.5 1127.19 368.5 1124.5 365.814 1124.5 362.5Z" stroke="#000000" stroke-width="1.33333" stroke-miterlimit="8" fill-rule="evenodd"/><path d="M1149.5 359.5C1149.5 356.186 1152.41 353.5 1156 353.5 1159.59 353.5 1162.5 356.186 1162.5 359.5 1162.5 362.814 1159.59 365.5 1156 365.5 1152.41 365.5 1149.5 362.814 1149.5 359.5Z" stroke="#000000" stroke-width="1.33333" stroke-miterlimit="8" fill-rule="evenodd"/><path d="M1166.5 368.5C1166.5 365.186 1169.41 362.5 1173 362.5 1176.59 362.5 1179.5 365.186 1179.5 368.5 1179.5 371.814 1176.59 374.5 1173 374.5 1169.41 374.5 1166.5 371.814 1166.5 368.5Z" stroke="#000000" stroke-width="1.33333" stroke-miterlimit="8" fill-rule="evenodd"/><path d="M1148.5 374.5 1174.5 374.5 1174.5 404.5 1148.5 404.5Z" stroke="#000000" stroke-width="1.33333" stroke-miterlimit="8" fill="#FFFFFF"/><text font-family="Calibri,Calibri_MSFontService,sans-serif" font-style="italic" font-weight="700" font-size="21" transform="translate(1154.89 396)">B</text><path d="M812.06 490.002 884.142 494.304 884.023 496.301 811.94 491.998ZM882.99 491.23 890.737 495.7 882.513 499.216Z"/><path d="M893.5 496C893.5 491.306 897.753 487.5 903 487.5 908.247 487.5 912.5 491.306 912.5 496 912.5 500.694 908.247 504.5 903 504.5 897.753 504.5 893.5 500.694 893.5 496Z" stroke="#000000" stroke-width="1.33333" stroke-miterlimit="8" fill-rule="evenodd"/><path d="M952.5 533C952.5 528.306 956.753 524.5 962 524.5 967.247 524.5 971.5 528.306 971.5 533 971.5 537.694 967.247 541.5 962 541.5 956.753 541.5 952.5 537.694 952.5 533Z" stroke="#000000" stroke-width="1.33333" stroke-miterlimit="8" fill-rule="evenodd"/><path d="M1029.5 527C1029.5 522.306 1033.53 518.5 1038.5 518.5 1043.47 518.5 1047.5 522.306 1047.5 527 1047.5 531.694 1043.47 535.5 1038.5 535.5 1033.53 535.5 1029.5 531.694 1029.5 527Z" stroke="#000000" stroke-width="1.33333" stroke-miterlimit="8" fill-rule="evenodd"/><path d="M833.5 366C833.5 361.306 837.753 357.5 843 357.5 848.247 357.5 852.5 361.306 852.5 366 852.5 370.694 848.247 374.5 843 374.5 837.753 374.5 833.5 370.694 833.5 366Z" stroke="#000000" stroke-width="1.33333" stroke-miterlimit="8" fill-rule="evenodd"/><path d="M912.5 345C912.5 340.306 916.529 336.5 921.5 336.5 926.471 336.5 930.5 340.306 930.5 345 930.5 349.694 926.471 353.5 921.5 353.5 916.529 353.5 912.5 349.694 912.5 345Z" stroke="#000000" stroke-width="1.33333" stroke-miterlimit="8" fill-rule="evenodd"/><path d="M975.5 339C975.5 334.306 979.753 330.5 985 330.5 990.247 330.5 994.5 334.306 994.5 339 994.5 343.694 990.247 347.5 985 347.5 979.753 347.5 975.5 343.694 975.5 339Z" stroke="#000000" stroke-width="1.33333" stroke-miterlimit="8" fill-rule="evenodd"/><path d="M913.595 503.197 947.21 528.112 946.019 529.719 912.405 504.803ZM947.926 524.908 951.971 532.886 943.162 531.335Z"/><path d="M965.033 529.001 1025.42 530.992 1025.36 532.991 964.967 530.999ZM1024.19 527.95 1032.05 532.211 1023.93 535.945Z"/><path d="M0.826503-0.562933 77.085 111.4 75.432 112.526-0.826503 0.562933ZM78.814 108.61 80.0114 117.473 72.202 113.113Z" transform="matrix(1 0 0 -1 1045 517.474)"/><path d="M1113.01 375.429 1045.69 345.614 1046.5 343.785 1113.82 373.601ZM1045.69 348.897 1040 342 1048.93 341.582Z"/><path d="M0.138222-0.990401 38.7968 4.40486 38.5204 6.38566-0.138222 0.990401ZM37.891 1.24936 45.2613 6.31675 36.7852 9.17257Z" transform="matrix(-1 0 0 1 975.261 339)"/><path d="M0.229036-0.973418 62.349 13.6428 61.8909 15.5896-0.229036 0.973418ZM61.7381 10.4171 68.6093 16.1431 59.9059 18.2045Z" transform="matrix(-1 0 0 1 911.609 345)"/><path d="M0.88893-0.458043 40.0744 75.5897 38.2965 76.5058-0.88893 0.458043ZM42.1304 73.0303 42.2391 81.974 35.019 76.6947Z" transform="matrix(-1 0 0 1 842.239 374)"/><path d="M816 553.5C816 542.178 826.297 533 839 533 851.703 533 862 542.178 862 553.5 862 564.822 851.703 574 839 574 826.297 574 816 564.822 816 553.5Z" fill="url(#fill38)" fill-rule="evenodd"/><path d="M849 566C849 553.85 858.402 544 870 544 881.598 544 891 553.85 891 566 891 578.15 881.598 588 870 588 858.402 588 849 578.15 849 566Z" fill="url(#fill39)" fill-rule="evenodd"/><path d="M884 573.5C884 562.73 894.074 554 906.5 554 918.926 554 929 562.73 929 573.5 929 584.27 918.926 593 906.5 593 894.074 593 884 584.27 884 573.5Z" fill="url(#fill40)" fill-rule="evenodd"/><path d="M1115 456.5C1115 445.178 1125.3 436 1138 436 1150.7 436 1161 445.178 1161 456.5 1161 467.822 1150.7 477 1138 477 1125.3 477 1115 467.822 1115 456.5Z" fill="url(#fill41)" fill-rule="evenodd"/><path d="M1148 469C1148 456.85 1157.4 447 1169 447 1180.6 447 1190 456.85 1190 469 1190 481.15 1180.6 491 1169 491 1157.4 491 1148 481.15 1148 469Z" fill="url(#fill42)" fill-rule="evenodd"/><path d="M1141 506.5C1141 495.73 1150.85 487 1163 487 1175.15 487 1185 495.73 1185 506.5 1185 517.27 1175.15 526 1163 526 1150.85 526 1141 517.27 1141 506.5Z" fill="url(#fill43)" fill-rule="evenodd"/><path d="M0 20.6806C-5.80506e-15 9.25901 10.2072 0 22.7983 0 35.3895-5.26583e-15 45.5966 9.25901 45.5966 20.6806 45.5966 32.1021 35.3895 41.3612 22.7983 41.3612 10.2072 41.3612-8.70759e-15 32.1021 0 20.6806Z" fill="url(#fill44)" fill-rule="evenodd" transform="matrix(-0.988079 -0.153947 -0.153947 0.988079 1077.51 392.283)"/><path d="M0 21.7386C-5.28184e-15 9.73272 9.28716 0 20.7435 0 32.1998-5.53524e-15 41.4869 9.73272 41.4869 21.7386 41.4869 33.7445 32.1998 43.4773 20.7435 43.4773 9.28716 43.4773-7.92276e-15 33.7445 0 21.7386Z" fill="url(#fill45)" fill-rule="evenodd" transform="matrix(-0.988079 -0.153947 -0.153947 0.988079 1043.05 398.489)"/><path d="M0 19.4069C-5.66989e-15 8.68878 9.96948 0 22.2675 0 34.5654-4.94152e-15 44.5349 8.68878 44.5349 19.4069 44.5349 30.1251 34.5654 38.8139 22.2675 38.8139 9.96948 38.8139-8.50483e-15 30.1251 0 19.4069Z" fill="url(#fill46)" fill-rule="evenodd" transform="matrix(-0.988079 -0.153947 -0.153947 0.988079 1007.39 402.62)"/><path d="M1023.5 342C1023.5 337.306 1027.53 333.5 1032.5 333.5 1037.47 333.5 1041.5 337.306 1041.5 342 1041.5 346.694 1037.47 350.5 1032.5 350.5 1027.53 350.5 1023.5 346.694 1023.5 342Z" stroke="#000000" stroke-width="1.33333" stroke-miterlimit="8" fill-rule="evenodd"/><path d="M1022.87 342.909 1000.53 340.662 1000.73 338.672 1023.07 340.919ZM1001.56 343.781 994 339 1002.36 335.821Z"/><text font-family="Calibri,Calibri_MSFontService,sans-serif" font-weight="400" font-size="24" transform="translate(690.014 188)">Again, ideally, a short circuit current between A and B <tspan font-size="24" x="0" y="29">causes high concentrations of </tspan><tspan font-family="Cambria Math,Cambria Math_MSFontService,sans-serif" font-size="24" x="294.167" y="29"></tspan><tspan font-family="Cambria Math,Cambria Math_MSFontService,sans-serif" font-size="18" x="307.093" y="34">2</tspan><tspan font-size="24" x="323.753" y="29">only along one </tspan><tspan font-size="24" x="474.753" y="29">or </tspan><tspan font-size="24" x="0" y="58">more paths from A to B and vice versa</tspan><tspan font-size="24" x="371" y="58">.</tspan></text><path d="M595.947 275.587C619.5 265.58 646.153 268.788 667.051 284.144L677.934 274.315 676.37 304.207 644.166 304.81 655.012 295.016C638.796 284.416 618.965 282.719 601.434 290.432Z" stroke="#000000" stroke-width="2" stroke-miterlimit="8" fill="#FFFFFF" fill-rule="evenodd"/><text font-family="Calibri,Calibri_MSFontService,sans-serif" font-weight="400" font-size="43" transform="translate(295.341 695)">Start and end of the <tspan font-style="italic" font-size="43" x="356.647" y="0">short circuit state</tspan></text><path d="M18.5001 324.5 70.5001 324.5 70.5001 386.5 18.5001 386.5Z" stroke="#000000" stroke-width="1.33333" stroke-miterlimit="8" fill="#FFFFFF"/><text font-family="Calibri,Calibri_MSFontService,sans-serif" font-weight="700" font-size="53" transform="translate(30.6446 373)">1</text><path d="M677.5 570.5 729.5 570.5 729.5 631.5 677.5 631.5Z" stroke="#000000" stroke-width="1.33333" stroke-miterlimit="8" fill="#FFFFFF"/><text font-family="Calibri,Calibri_MSFontService,sans-serif" font-weight="700" font-size="53" transform="translate(689.485 619)">2</text><path d="M8 9 1273 9 1273 646 8 646Z" stroke="#000000" stroke-width="2" stroke-miterlimit="8" fill="none"/><path d="M824 552C824 543.716 830.94 537 839.5 537 848.06 537 855 543.716 855 552 855 560.284 848.06 567 839.5 567 830.94 567 824 560.284 824 552Z" fill="url(#fill47)" fill-rule="evenodd"/><path d="M859 567.5C859 561.149 864.149 556 870.5 556 876.851 556 882 561.149 882 567.5 882 573.851 876.851 579 870.5 579 864.149 579 859 573.851 859 567.5Z" fill="url(#fill48)" fill-rule="evenodd"/><path d="M898 576C898 569.373 903.149 564 909.5 564 915.851 564 921 569.373 921 576 921 582.627 915.851 588 909.5 588 903.149 588 898 582.627 898 576Z" fill="url(#fill49)" fill-rule="evenodd"/><path d="M753 416.5C753 407.94 759.94 401 768.5 401 777.06 401 784 407.94 784 416.5 784 425.06 777.06 432 768.5 432 759.94 432 753 425.06 753 416.5Z" fill="url(#fill50)" fill-rule="evenodd"/><path d="M730 383C730 376.373 735.149 371 741.5 371 747.851 371 753 376.373 753 383 753 389.627 747.851 395 741.5 395 735.149 395 730 389.627 730 383Z" fill="url(#fill51)" fill-rule="evenodd"/><path d="M754 348.5C754 342.149 759.149 337 765.5 337 771.851 337 777 342.149 777 348.5 777 354.851 771.851 360 765.5 360 759.149 360 754 354.851 754 348.5Z" fill="url(#fill52)" fill-rule="evenodd"/><path d="M0 15.5C-3.94671e-15 6.93959 6.93959 0 15.5 0 24.0604-3.94671e-15 31 6.93959 31 15.5 31 24.0604 24.0604 31 15.5 31 6.93959 31-5.92007e-15 24.0604 0 15.5Z" fill="url(#fill53)" fill-rule="evenodd" transform="matrix(-1 0 0 1 1068 394)"/><path d="M0 12C-2.92821e-15 5.37258 5.14872 0 11.5 0 17.8513-3.05552e-15 23 5.37258 23 12 23 18.6274 17.8513 24 11.5 24 5.14872 24-4.39231e-15 18.6274 0 12Z" fill="url(#fill54)" fill-rule="evenodd" transform="matrix(-1 0 0 1 1028 403)"/><path d="M0 12C-3.05552e-15 5.37258 5.37258 0 12 0 18.6274-3.05552e-15 24 5.37258 24 12 24 18.6274 18.6274 24 12 24 5.37258 24-4.58328e-15 18.6274 0 12Z" fill="url(#fill55)" fill-rule="evenodd" transform="matrix(-1 0 0 1 996 408)"/><path d="M1124 457.5C1124 448.94 1130.94 442 1139.5 442 1148.06 442 1155 448.94 1155 457.5 1155 466.06 1148.06 473 1139.5 473 1130.94 473 1124 466.06 1124 457.5Z" fill="url(#fill56)" fill-rule="evenodd"/><path d="M1159 472.5C1159 466.149 1164.15 461 1170.5 461 1176.85 461 1182 466.149 1182 472.5 1182 478.851 1176.85 484 1170.5 484 1164.15 484 1159 478.851 1159 472.5Z" fill="url(#fill57)" fill-rule="evenodd"/><path d="M1147 508C1147 501.373 1152.37 496 1159 496 1165.63 496 1171 501.373 1171 508 1171 514.627 1165.63 520 1159 520 1152.37 520 1147 514.627 1147 508Z" fill="url(#fill58)" fill-rule="evenodd"/></g></svg>