<svg width="1280" height="720" xmlns="http://www.w3.org/2000/svg" xmlns:xlink="http://www.w3.org/1999/xlink" overflow="hidden"><defs><clipPath id="clip0"><rect x="0" y="0" width="1280" height="720"/></clipPath></defs><g clip-path="url(#clip0)"><rect x="0" y="0" width="1280" height="720" fill="#FFFFFF"/><path d="M298.5 367.5C298.5 326.631 331.631 293.5 372.5 293.5 413.369 293.5 446.5 326.631 446.5 367.5 446.5 408.369 413.369 441.5 372.5 441.5 331.631 441.5 298.5 408.369 298.5 367.5Z" stroke="#000000" stroke-width="3" stroke-miterlimit="8" fill="#92D050" fill-rule="evenodd"/><text font-family="Calibri,Calibri_MSFontService,sans-serif" font-style="italic" font-weight="400" font-size="24" transform="translate(340.053 360)">dream <tspan font-size="24" x="7.51334" y="29">state</tspan></text><path d="M199.015-0.999882 219.403-0.687185 239.18 0.126413 258.273 1.44101 276.615 3.31906 294.022 5.5732 310.432 8.32914 325.847 11.4622 340.017 15.0361 352.879 18.9261 364.366 23.1317 369.599 25.3381 374.45 27.6695 378.869 30.0052 382.918 32.4723 386.538 34.9492 389.725 37.563 392.482 40.1908 394.743 42.905 396.597 45.7509 397.252 47.7403 395.352 48.3661 394.738 46.5004 394.849 46.7332 393.099 44.0457 393.169 44.1402 390.982 41.5152 391.06 41.5987 388.372 39.0362 388.428 39.0858 385.303 36.5233 385.373 36.5753 381.81 34.1378 381.855 34.1664 377.855 31.7289 377.908 31.7591 373.533 29.4466 373.567 29.4638 368.754 27.1513 368.799 27.1714 363.611 24.9839 363.656 25.0015 352.219 20.814 352.273 20.8322 339.46 16.9572 339.505 16.9696 325.38 13.4071 325.426 13.4175 310.051 10.2925 310.084 10.2987 293.709 7.54869 293.747 7.55422 276.372 5.30422 276.398 5.3073 258.086 3.4323 258.119 3.43514 239.056 2.12264 239.084 2.12415 219.334 1.31165 219.36 1.31238 198.985 0.999882ZM399.831 45.7451 398 54.5 392.094 47.7825Z" transform="matrix(1 0 0 -1 246 367)"/><text font-family="Calibri,Calibri_MSFontService,sans-serif" font-style="italic" font-weight="400" font-size="19" transform="translate(548.629 377)">A<tspan font-style="normal" font-size="19" x="15" y="0">xor</tspan><tspan font-size="19" x="43.1667" y="0">B</tspan><tspan font-style="normal" font-size="19" x="0" y="23">activated</tspan></text><path d="M570.5 238C570.5 197.407 603.631 164.5 644.5 164.5 685.369 164.5 718.5 197.407 718.5 238 718.5 278.593 685.369 311.5 644.5 311.5 603.631 311.5 570.5 278.593 570.5 238Z" stroke="#000000" stroke-width="3" stroke-miterlimit="8" fill="#FFC000" fill-rule="evenodd"/><text font-family="Calibri,Calibri_MSFontService,sans-serif" font-style="italic" font-weight="400" font-size="24" transform="translate(617.41 231)">recall <tspan font-size="24" x="2.26666" y="29">state</tspan></text><path d="M199.015-0.999882 219.403-0.687185 239.182 0.12648 258.273 1.50355 276.615 3.31902 294.024 5.63599 310.434 8.39196 325.849 11.5876 340.017 15.1611 352.882 19.0518 364.373 23.3219 369.603 25.5903 374.45 27.9195 378.869 30.2552 382.923 32.7254 386.543 35.2655 389.73 37.8793 392.49 40.5745 394.747 43.3474 396.596 46.1877 397.274 48.2332 395.375 48.862 394.738 46.9394 394.849 47.1707 393.099 44.4832 393.162 44.5688 390.974 41.8813 391.051 41.9654 388.364 39.3404 388.428 39.3983 385.303 36.8358 385.363 36.8811 381.801 34.3811 381.855 34.4164 377.855 31.9789 377.908 32.0091 373.533 29.6966 373.567 29.7138 368.754 27.4013 368.79 27.4174 363.602 25.1674 363.652 25.1874 352.214 20.9374 352.273 20.9572 339.46 17.0822 339.505 17.0946 325.38 13.5321 325.422 13.5417 310.047 10.3542 310.084 10.3612 293.709 7.61119 293.743 7.61626 276.368 5.30376 276.401 5.30764 258.089 3.49514 258.116 3.49741 239.053 2.12241 239.084 2.12415 219.334 1.31165 219.36 1.31238 198.985 0.999882ZM399.861 46.2516 398 55.0002 392.118 48.2625Z" transform="matrix(-1 0 0 1 769 240)"/><text font-family="Calibri,Calibri_MSFontService,sans-serif" font-style="italic" font-weight="400" font-size="19" transform="translate(428.394 209)">A<tspan font-style="normal" font-size="19" x="15" y="0">and </tspan><tspan font-size="19" x="47.8333" y="0">B</tspan><tspan font-style="normal" font-size="19" x="0" y="23">deactivated</tspan></text><path d="M719.015 238 739.403 238.313 759.182 239.126 778.273 240.504 796.615 242.319 814.024 244.636 830.434 247.392 845.849 250.588 860.017 254.161 872.882 258.052 884.373 262.322 889.603 264.59 894.45 266.919 898.869 269.255 902.923 271.725 906.543 274.265 909.73 276.879 912.49 279.574 914.747 282.347 916.596 285.188 917.274 287.233 915.375 287.862 914.738 285.939 914.849 286.171 913.099 283.483 913.162 283.569 910.974 280.881 911.051 280.965 908.364 278.34 908.428 278.398 905.303 275.836 905.363 275.881 901.801 273.381 901.855 273.416 897.855 270.979 897.908 271.009 893.533 268.697 893.567 268.714 888.754 266.401 888.79 266.417 883.602 264.167 883.652 264.187 872.214 259.937 872.273 259.957 859.46 256.082 859.505 256.095 845.38 252.532 845.422 252.542 830.047 249.354 830.084 249.361 813.709 246.611 813.743 246.616 796.368 244.304 796.401 244.308 778.089 242.495 778.116 242.497 759.053 241.122 759.084 241.124 739.334 240.312 739.36 240.312 718.985 240ZM919.861 285.252 918 294 912.118 287.262Z"/><path d="M844.5 367C844.5 326.407 877.407 293.5 918 293.5 958.593 293.5 991.5 326.407 991.5 367 991.5 407.593 958.593 440.5 918 440.5 877.407 440.5 844.5 407.593 844.5 367Z" stroke="#000000" stroke-width="3" stroke-miterlimit="8" fill="#8FAADC" fill-rule="evenodd"/><text font-family="Calibri,Calibri_MSFontService,sans-serif" font-style="italic" font-weight="400" font-size="24" transform="translate(892.317 345)">short <tspan font-size="24" x="-4.66669" y="29">circuit </tspan><tspan font-size="24" x="0.926697" y="58">state</tspan><tspan font-style="normal" font-size="19" x="-126.476" y="-139">short circuit current </tspan><tspan font-style="normal" font-size="19" x="-126.476" y="-116">between </tspan><tspan font-size="19" x="-55.2422" y="-116">A</tspan><tspan font-style="normal" font-size="19" x="-40.2422" y="-116">and </tspan><tspan font-size="19" x="-7.40894" y="-116">B</tspan><tspan font-style="normal" font-size="43" x="-384.001" y="256">s</tspan><tspan font-size="43" x="-367.334" y="256">leep cycle state</tspan></text></g></svg>