<svg width="1280" height="720" xmlns="http://www.w3.org/2000/svg" xmlns:xlink="http://www.w3.org/1999/xlink" overflow="hidden"><defs><clipPath id="clip0"><rect x="0" y="0" width="1280" height="720"/></clipPath></defs><g clip-path="url(#clip0)"><rect x="0" y="0" width="1280" height="720" fill="#FFFFFF"/><rect x="24" y="241" width="576" height="42" fill="#C00000"/><rect x="0" y="0" width="527" height="42" fill="#C00000" transform="matrix(-1 0 0 1 1223 241)"/><path d="M1134.5 371.5 1230.5 371.5 1230.5 435.5 1134.5 435.5Z" fill="#FFFFFF" fill-rule="evenodd"/><path d="M1126.5 371.5 1126.5 435.5Z" stroke="#000000" stroke-width="1.33333" stroke-miterlimit="8" fill="none" fill-rule="evenodd"/><path d="M1126.5 383.5 1089.7 271.029" stroke="#000000" stroke-width="1.33333" stroke-miterlimit="8" fill="none" fill-rule="evenodd"/><text font-family="Calibri,Calibri_MSFontService,sans-serif" font-weight="700" font-size="43" transform="translate(1155.17 418)">VN</text><rect x="8" y="9" width="1265" height="470" stroke="#000000" stroke-width="2" stroke-miterlimit="8" fill="none"/><text font-family="Calibri,Calibri_MSFontService,sans-serif" font-weight="400" font-size="43" transform="translate(222.521 540)">Permeable Segment of the Vascular Network (<tspan font-weight="700" font-size="43" x="797.927" y="0">VN</tspan><tspan font-size="43" x="851.26" y="0">)</tspan></text><path d="M16 260.5C16 239.789 32.7893 223 53.5 223 74.2107 223 91 239.789 91 260.5 91 281.211 74.2107 298 53.5 298 32.7893 298 16 281.211 16 260.5Z" stroke="#FFCCCC" stroke-width="2" stroke-miterlimit="8" fill="#C00000" fill-rule="evenodd"/><text fill="#FFCCCC" font-family="Calibri,Calibri_MSFontService,sans-serif" font-style="italic" font-weight="700" font-size="24" transform="translate(21.191 268)">source</text><path d="M1188 261.5C1188 240.789 1204.79 224 1225.5 224 1246.21 224 1263 240.789 1263 261.5 1263 282.211 1246.21 299 1225.5 299 1204.79 299 1188 282.211 1188 261.5Z" stroke="#FFCCCC" stroke-width="2" stroke-miterlimit="8" fill="#C00000" fill-rule="evenodd"/><text fill="#FFCCCC" font-family="Calibri,Calibri_MSFontService,sans-serif" font-style="italic" font-weight="700" font-size="24" transform="translate(1205.86 269)">sink</text><rect x="0" y="0" width="96" height="42" fill="#C00000" fill-opacity="0.631373" transform="matrix(-1 0 0 1 696 241)"/><path d="M761.5 84.5C761.5 56.3335 784.334 33.5001 812.5 33.5001 840.667 33.5001 863.5 56.3335 863.5 84.5 863.5 112.667 840.667 135.5 812.5 135.5 784.334 135.5 761.5 112.667 761.5 84.5Z" stroke="#000000" stroke-width="1.33333" stroke-miterlimit="8" fill-rule="evenodd"/><text fill="#FFFFFF" font-family="Calibri,Calibri_MSFontService,sans-serif" font-weight="400" font-size="24" transform="translate(777.122 91)">neuron</text><path d="M223 268C223 263.582 226.358 260 230.5 260 234.642 260 238 263.582 238 268 238 272.418 234.642 276 230.5 276 226.358 276 223 272.418 223 268Z" stroke="#548235" stroke-width="2" stroke-miterlimit="8" fill="#A9D18E" fill-rule="evenodd"/><path d="M238.5 267 250.317 267 250.317 270 238.5 270ZM248.817 264 257.817 268.5 248.817 273Z" fill="#548235"/><path d="M310 260.5C310 256.358 313.358 253 317.5 253 321.642 253 325 256.358 325 260.5 325 264.642 321.642 268 317.5 268 313.358 268 310 264.642 310 260.5Z" stroke="#548235" stroke-width="2" stroke-miterlimit="8" fill="#A9D18E" fill-rule="evenodd"/><path d="M325.5 259 337.317 259 337.317 262 325.5 262ZM335.817 256 344.817 260.5 335.817 265Z" fill="#548235"/><path d="M390 268.5C390 264.358 393.358 261 397.5 261 401.642 261 405 264.358 405 268.5 405 272.642 401.642 276 397.5 276 393.358 276 390 272.642 390 268.5Z" stroke="#548235" stroke-width="2" stroke-miterlimit="8" fill="#A9D18E" fill-rule="evenodd"/><path d="M405.5 268 417.317 268 417.317 271 405.5 271ZM415.817 265 424.817 269.5 415.817 274Z" fill="#548235"/><path d="M137 255.5C137 251.358 140.358 248 144.5 248 148.642 248 152 251.358 152 255.5 152 259.642 148.642 263 144.5 263 140.358 263 137 259.642 137 255.5Z" stroke="#548235" stroke-width="2" stroke-miterlimit="8" fill="#A9D18E" fill-rule="evenodd"/><path d="M152.5 255 164.317 255 164.317 258 152.5 258ZM162.817 252 171.817 256.5 162.817 261Z" fill="#548235"/><path d="M593.999 221.56C590.326 219.575 588.959 214.988 590.944 211.316 592.929 207.643 597.516 206.275 601.188 208.261 604.861 210.246 606.228 214.832 604.243 218.505 602.258 222.177 597.671 223.545 593.999 221.56Z" stroke="#548235" stroke-width="2" stroke-miterlimit="8" fill="#A9D18E" fill-rule="evenodd"/><path d="M599.868 207.547 605.488 197.152 608.127 198.579 602.508 208.974ZM602.135 197.045 610.374 191.268 610.053 201.325Z" fill="#548235"/><path d="M619.591 386.543C623.609 385.409 627.785 387.747 628.919 391.765 630.052 395.783 627.714 399.959 623.696 401.093 619.678 402.226 615.502 399.888 614.369 395.87 613.235 391.852 615.573 387.676 619.591 386.543Z" stroke="#548235" stroke-width="2" stroke-miterlimit="8" fill="#A9D18E" fill-rule="evenodd"/><path d="M625.14 400.686 628.348 412.058 625.461 412.873 622.252 401.5ZM630.828 409.8 628.94 419.684 622.166 412.244Z" fill="#548235"/><path d="M601.364 309.399C603.837 306.036 608.569 305.315 611.932 307.788 615.295 310.262 616.016 314.993 613.542 318.356 611.069 321.719 606.337 322.44 602.974 319.967 599.611 317.493 598.89 312.762 601.364 309.399Z" stroke="#548235" stroke-width="2" stroke-miterlimit="8" fill="#A9D18E" fill-rule="evenodd"/><path d="M614.431 317.148 623.95 324.15 622.172 326.566 612.654 319.565ZM624.519 320.844 629.103 329.802 619.187 328.094Z" fill="#548235"/><path d="M696 297C696 307.493 694.582 316 692.833 316L651.167 316C649.418 316 648 324.507 648 335 648 324.507 646.582 316 644.833 316L603.167 316C601.418 316 600 307.493 600 297" stroke="#000000" stroke-width="2" stroke-miterlimit="8" fill="none" fill-rule="evenodd"/><text font-family="Calibri,Calibri_MSFontService,sans-serif" font-weight="400" font-size="24" transform="translate(568.435 363)">Permeable Segment</text><path d="M632 260.5C632 256.358 635.358 253 639.5 253 643.642 253 647 256.358 647 260.5 647 264.642 643.642 268 639.5 268 635.358 268 632 264.642 632 260.5Z" stroke="#548235" stroke-width="2" stroke-miterlimit="8" fill="#A9D18E" fill-rule="evenodd"/><path d="M647.5 259 659.317 259 659.317 262 647.5 262ZM657.817 256 666.817 260.5 657.817 265Z" fill="#548235"/><path d="M963 264.5C963 260.358 966.358 257 970.5 257 974.642 257 978 260.358 978 264.5 978 268.642 974.642 272 970.5 272 966.358 272 963 268.642 963 264.5Z" stroke="#548235" stroke-width="2" stroke-miterlimit="8" fill="#A9D18E" fill-rule="evenodd"/><path d="M978.5 264 990.317 264 990.317 267 978.5 267ZM988.817 261 997.817 265.5 988.817 270Z" fill="#548235"/><rect x="363.5" y="394.5" width="79" height="41" fill="#FFFFFF"/><path d="M356.917 394.5 356.917 435.5Z" stroke="#000000" stroke-width="1.33333" stroke-miterlimit="8" fill="none" fill-rule="evenodd"/><path d="M356.917 402.188 321.977 266.051" stroke="#000000" stroke-width="1.33333" stroke-miterlimit="8" fill="none" fill-rule="evenodd"/><text font-family="Calibri,Calibri_MSFontService,sans-serif" font-weight="400" font-size="19" transform="translate(367.929 409)">Chemical<tspan font-size="19" x="-1.38" y="23">Particles</tspan></text><path d="M357.206 417.555 236.5 273.5" stroke="#000000" stroke-width="1.33333" stroke-miterlimit="8" fill="none" fill-rule="evenodd"/><path d="M172.5 137.5C172.5 109.334 195.334 86.5001 223.5 86.5001 251.667 86.5001 274.5 109.334 274.5 137.5 274.5 165.667 251.667 188.5 223.5 188.5 195.334 188.5 172.5 165.667 172.5 137.5Z" stroke="#000000" stroke-width="1.33333" stroke-miterlimit="8" fill-rule="evenodd"/><text fill="#FFFFFF" font-family="Calibri,Calibri_MSFontService,sans-serif" font-weight="400" font-size="24" transform="translate(187.424 144)">neuron</text></g></svg>