<svg width="1280" height="720" xmlns="http://www.w3.org/2000/svg" xmlns:xlink="http://www.w3.org/1999/xlink" overflow="hidden"><defs><clipPath id="clip0"><rect x="0" y="0" width="1280" height="720"/></clipPath><radialGradient cx="395288" cy="400050" r="562399" gradientUnits="userSpaceOnUse" spreadMethod="pad" id="fill1" gradientTransform="matrix(0.000104987 0 0 0.000104987 301 514)"><stop offset="0" stop-color="#BEDCAA"/><stop offset="0.36" stop-color="#D4E8C6"/><stop offset="0.68" stop-color="#FFFFFF" stop-opacity="0"/><stop offset="1" stop-color="#FFFFFF" stop-opacity="0"/></radialGradient><radialGradient cx="395288" cy="395288" r="559021" gradientUnits="userSpaceOnUse" spreadMethod="pad" id="fill2" gradientTransform="matrix(0.000104987 0 0 0.000104987 181 425)"><stop offset="0" stop-color="#BEDCAA"/><stop offset="0.36" stop-color="#D4E8C6"/><stop offset="0.68" stop-color="#FFFFFF" stop-opacity="0"/><stop offset="1" stop-color="#FFFFFF" stop-opacity="0"/></radialGradient><radialGradient cx="1566862" cy="1566862" r="2215878" gradientUnits="userSpaceOnUse" spreadMethod="pad" id="fill3" gradientTransform="matrix(0.000104987 0 0 0.000104987 122 387)"><stop offset="0" stop-color="#BEDCAA"/><stop offset="0.37" stop-color="#D4E8C6"/><stop offset="0.66" stop-color="#FFFFFF" stop-opacity="0"/><stop offset="1" stop-color="#FFFFFF" stop-opacity="0"/></radialGradient><radialGradient cx="395288" cy="400050" r="562399" gradientUnits="userSpaceOnUse" spreadMethod="pad" id="fill4" gradientTransform="matrix(0.000104987 0 0 0.000104987 377 642)"><stop offset="0" stop-color="#BEDCAA"/><stop offset="0.36" stop-color="#D4E8C6"/><stop offset="0.68" stop-color="#FFFFFF" stop-opacity="0"/><stop offset="1" stop-color="#FFFFFF" stop-opacity="0"/></radialGradient><radialGradient cx="995362" cy="1000125" r="1411027" gradientUnits="userSpaceOnUse" spreadMethod="pad" id="fill5" gradientTransform="matrix(0.000104987 0 0 0.000104987 434 500)"><stop offset="0" stop-color="#BEDCAA"/><stop offset="0.37" stop-color="#D4E8C6"/><stop offset="0.66" stop-color="#FFFFFF" stop-opacity="0"/><stop offset="1" stop-color="#FFFFFF" stop-opacity="0"/></radialGradient></defs><g clip-path="url(#clip0)"><rect x="0" y="0" width="1280" height="720" fill="#FFFFFF"/><path d="M301 556C301 532.804 319.58 514 342.5 514 365.42 514 384 532.804 384 556 384 579.196 365.42 598 342.5 598 319.58 598 301 579.196 301 556Z" fill="url(#fill1)" fill-rule="evenodd"/><path d="M181 466.5C181 443.58 199.58 425 222.5 425 245.42 425 264 443.58 264 466.5 264 489.42 245.42 508 222.5 508 199.58 508 181 489.42 181 466.5Z" fill="url(#fill2)" fill-rule="evenodd"/><path d="M122 551.5C122 460.649 195.649 387 286.5 387 377.351 387 451 460.649 451 551.5 451 642.351 377.351 716 286.5 716 195.649 716 122 642.351 122 551.5Z" fill="url(#fill3)" fill-rule="evenodd"/><path d="M377 684C377 660.804 395.58 642 418.5 642 441.42 642 460 660.804 460 684 460 707.196 441.42 726 418.5 726 395.58 726 377 707.196 377 684Z" fill="url(#fill4)" fill-rule="evenodd"/><path d="M434 605C434 547.01 480.786 500 538.5 500 596.214 500 643 547.01 643 605 643 662.99 596.214 710 538.5 710 480.786 710 434 662.99 434 605Z" fill="url(#fill5)" fill-rule="evenodd"/><path d="M231.5 69.0001C231.5 62.6488 236.649 57.5001 243 57.5001 249.351 57.5001 254.5 62.6488 254.5 69.0001 254.5 75.3513 249.351 80.5001 243 80.5001 236.649 80.5001 231.5 75.3513 231.5 69.0001Z" stroke="#000000" stroke-width="3" stroke-miterlimit="8" fill="#FFFFFF" fill-rule="evenodd"/><path d="M138.5 502C138.5 495.649 143.425 490.5 149.5 490.5 155.575 490.5 160.5 495.649 160.5 502 160.5 508.351 155.575 513.5 149.5 513.5 143.425 513.5 138.5 508.351 138.5 502Z" stroke="#000000" stroke-width="3" stroke-miterlimit="8" fill="#FFFFFF" fill-rule="evenodd"/><path d="M249.5 147C249.5 140.649 254.649 135.5 261 135.5 267.351 135.5 272.5 140.649 272.5 147 272.5 153.351 267.351 158.5 261 158.5 254.649 158.5 249.5 153.351 249.5 147Z" stroke="#000000" stroke-width="3" stroke-miterlimit="8" fill="#FFFFFF" fill-rule="evenodd"/><path d="M281.5 502C281.5 495.649 286.649 490.5 293 490.5 299.351 490.5 304.5 495.649 304.5 502 304.5 508.351 299.351 513.5 293 513.5 286.649 513.5 281.5 508.351 281.5 502Z" stroke="#000000" stroke-width="3" stroke-miterlimit="8" fill="#FFFFFF" fill-rule="evenodd"/><path d="M186.5 550C186.5 543.649 191.425 538.5 197.5 538.5 203.575 538.5 208.5 543.649 208.5 550 208.5 556.351 203.575 561.5 197.5 561.5 191.425 561.5 186.5 556.351 186.5 550Z" stroke="#000000" stroke-width="3" stroke-miterlimit="8" fill="#FFFFFF" fill-rule="evenodd"/><path d="M404.5 685C404.5 678.649 409.649 673.5 416 673.5 422.351 673.5 427.5 678.649 427.5 685 427.5 691.351 422.351 696.5 416 696.5 409.649 696.5 404.5 691.351 404.5 685Z" stroke="#000000" stroke-width="3" stroke-miterlimit="8" fill="#FFFFFF" fill-rule="evenodd"/><path d="M218.5 582C218.5 575.649 223.425 570.5 229.5 570.5 235.575 570.5 240.5 575.649 240.5 582 240.5 588.351 235.575 593.5 229.5 593.5 223.425 593.5 218.5 588.351 218.5 582Z" stroke="#000000" stroke-width="3" stroke-miterlimit="8" fill="#FFFFFF" fill-rule="evenodd"/><path d="M556.5 410C556.5 403.649 561.425 398.5 567.5 398.5 573.575 398.5 578.5 403.649 578.5 410 578.5 416.351 573.575 421.5 567.5 421.5 561.425 421.5 556.5 416.351 556.5 410Z" stroke="#000000" stroke-width="3" stroke-miterlimit="8" fill="#FFFFFF" fill-rule="evenodd"/><path d="M273.5 636.5C273.5 630.425 278.649 625.5 285 625.5 291.351 625.5 296.5 630.425 296.5 636.5 296.5 642.575 291.351 647.5 285 647.5 278.649 647.5 273.5 642.575 273.5 636.5Z" stroke="#000000" stroke-width="3" stroke-miterlimit="8" fill="#FFFFFF" fill-rule="evenodd"/><path d="M240.5 349C240.5 342.649 245.649 337.5 252 337.5 258.351 337.5 263.5 342.649 263.5 349 263.5 355.351 258.351 360.5 252 360.5 245.649 360.5 240.5 355.351 240.5 349Z" stroke="#000000" stroke-width="3" stroke-miterlimit="8" fill="#FFFFFF" fill-rule="evenodd"/><path d="M133.5 464.5C133.5 458.425 138.649 453.5 145 453.5 151.351 453.5 156.5 458.425 156.5 464.5 156.5 470.575 151.351 475.5 145 475.5 138.649 475.5 133.5 470.575 133.5 464.5Z" stroke="#000000" stroke-width="3" stroke-miterlimit="8" fill="#FFFFFF" fill-rule="evenodd"/><path d="M165.5 352C165.5 345.649 170.649 340.5 177 340.5 183.351 340.5 188.5 345.649 188.5 352 188.5 358.351 183.351 363.5 177 363.5 170.649 363.5 165.5 358.351 165.5 352Z" stroke="#000000" stroke-width="3" stroke-miterlimit="8" fill="#FFFFFF" fill-rule="evenodd"/><path d="M431.5 245C431.5 238.649 436.425 233.5 442.5 233.5 448.575 233.5 453.5 238.649 453.5 245 453.5 251.351 448.575 256.5 442.5 256.5 436.425 256.5 431.5 251.351 431.5 245Z" stroke="#000000" stroke-width="3" stroke-miterlimit="8" fill="#FFFFFF" fill-rule="evenodd"/><path d="M429.5 411C429.5 404.649 434.649 399.5 441 399.5 447.351 399.5 452.5 404.649 452.5 411 452.5 417.351 447.351 422.5 441 422.5 434.649 422.5 429.5 417.351 429.5 411Z" stroke="#000000" stroke-width="3" stroke-miterlimit="8" fill="#FFFFFF" fill-rule="evenodd"/><path d="M218.5 582C218.5 575.649 223.425 570.5 229.5 570.5 235.575 570.5 240.5 575.649 240.5 582 240.5 588.351 235.575 593.5 229.5 593.5 223.425 593.5 218.5 588.351 218.5 582Z" stroke="#000000" stroke-width="3" stroke-miterlimit="8" fill="#FFFFFF" fill-rule="evenodd"/><path d="M530.5 163C530.5 156.649 535.649 151.5 542 151.5 548.351 151.5 553.5 156.649 553.5 163 553.5 169.351 548.351 174.5 542 174.5 535.649 174.5 530.5 169.351 530.5 163Z" stroke="#000000" stroke-width="3" stroke-miterlimit="8" fill="#FFFFFF" fill-rule="evenodd"/><path d="M172.5 131C172.5 124.649 177.649 119.5 184 119.5 190.351 119.5 195.5 124.649 195.5 131 195.5 137.351 190.351 142.5 184 142.5 177.649 142.5 172.5 137.351 172.5 131Z" stroke="#000000" stroke-width="3" stroke-miterlimit="8" fill="#FFFFFF" fill-rule="evenodd"/><path d="M281.5 452C281.5 445.649 286.649 440.5 293 440.5 299.351 440.5 304.5 445.649 304.5 452 304.5 458.351 299.351 463.5 293 463.5 286.649 463.5 281.5 458.351 281.5 452Z" stroke="#000000" stroke-width="3" stroke-miterlimit="8" fill="#FFFFFF" fill-rule="evenodd"/><path d="M293.5 280.5C293.5 274.425 298.425 269.5 304.5 269.5 310.575 269.5 315.5 274.425 315.5 280.5 315.5 286.575 310.575 291.5 304.5 291.5 298.425 291.5 293.5 286.575 293.5 280.5Z" stroke="#000000" stroke-width="3" stroke-miterlimit="8" fill="#FFFFFF" fill-rule="evenodd"/><path d="M399.5 304.5C399.5 298.425 404.425 293.5 410.5 293.5 416.575 293.5 421.5 298.425 421.5 304.5 421.5 310.575 416.575 315.5 410.5 315.5 404.425 315.5 399.5 310.575 399.5 304.5Z" stroke="#000000" stroke-width="3" stroke-miterlimit="8" fill="#FFFFFF" fill-rule="evenodd"/><path d="M109.5 394.5C109.5 388.425 114.649 383.5 121 383.5 127.351 383.5 132.5 388.425 132.5 394.5 132.5 400.575 127.351 405.5 121 405.5 114.649 405.5 109.5 400.575 109.5 394.5Z" stroke="#000000" stroke-width="3" stroke-miterlimit="8" fill="#FFFFFF" fill-rule="evenodd"/><path d="M180.5 631C180.5 624.649 185.649 619.5 192 619.5 198.351 619.5 203.5 624.649 203.5 631 203.5 637.351 198.351 642.5 192 642.5 185.649 642.5 180.5 637.351 180.5 631Z" stroke="#000000" stroke-width="3" stroke-miterlimit="8" fill="#00B050" fill-rule="evenodd"/><path d="M220.5 469C220.5 462.649 225.649 457.5 232 457.5 238.351 457.5 243.5 462.649 243.5 469 243.5 475.351 238.351 480.5 232 480.5 225.649 480.5 220.5 475.351 220.5 469Z" stroke="#000000" stroke-width="3" stroke-miterlimit="8" fill="#FFFFFF" fill-rule="evenodd"/><path d="M218.5 582C218.5 575.649 223.425 570.5 229.5 570.5 235.575 570.5 240.5 575.649 240.5 582 240.5 588.351 235.575 593.5 229.5 593.5 223.425 593.5 218.5 588.351 218.5 582Z" stroke="#000000" stroke-width="3" stroke-miterlimit="8" fill="#FFFFFF" fill-rule="evenodd"/><path d="M227.5 211C227.5 204.649 232.649 199.5 239 199.5 245.351 199.5 250.5 204.649 250.5 211 250.5 217.351 245.351 222.5 239 222.5 232.649 222.5 227.5 217.351 227.5 211Z" stroke="#000000" stroke-width="3" stroke-miterlimit="8" fill="#FFFFFF" fill-rule="evenodd"/><path d="M543.5 292C543.5 285.649 548.649 280.5 555 280.5 561.351 280.5 566.5 285.649 566.5 292 566.5 298.351 561.351 303.5 555 303.5 548.649 303.5 543.5 298.351 543.5 292Z" stroke="#000000" stroke-width="3" stroke-miterlimit="8" fill="#FFFFFF" fill-rule="evenodd"/><path d="M343.5 222C343.5 215.649 348.649 210.5 355 210.5 361.351 210.5 366.5 215.649 366.5 222 366.5 228.351 361.351 233.5 355 233.5 348.649 233.5 343.5 228.351 343.5 222Z" stroke="#000000" stroke-width="3" stroke-miterlimit="8" fill="#FFFFFF" fill-rule="evenodd"/><path d="M174.5 280.5C174.5 274.425 179.425 269.5 185.5 269.5 191.575 269.5 196.5 274.425 196.5 280.5 196.5 286.575 191.575 291.5 185.5 291.5 179.425 291.5 174.5 286.575 174.5 280.5Z" stroke="#000000" stroke-width="3" stroke-miterlimit="8" fill="#FFFFFF" fill-rule="evenodd"/><path d="M583.5 531.5C583.5 525.425 588.425 520.5 594.5 520.5 600.575 520.5 605.5 525.425 605.5 531.5 605.5 537.575 600.575 542.5 594.5 542.5 588.425 542.5 583.5 537.575 583.5 531.5Z" stroke="#000000" stroke-width="3" stroke-miterlimit="8" fill="#FFFFFF" fill-rule="evenodd"/><path d="M122.5 614C122.5 607.649 127.425 602.5 133.5 602.5 139.575 602.5 144.5 607.649 144.5 614 144.5 620.351 139.575 625.5 133.5 625.5 127.425 625.5 122.5 620.351 122.5 614Z" stroke="#000000" stroke-width="3" stroke-miterlimit="8" fill="#FFFFFF" fill-rule="evenodd"/><path d="M368.5 132C368.5 125.649 373.649 120.5 380 120.5 386.351 120.5 391.5 125.649 391.5 132 391.5 138.351 386.351 143.5 380 143.5 373.649 143.5 368.5 138.351 368.5 132Z" stroke="#000000" stroke-width="3" stroke-miterlimit="8" fill="#FFFFFF" fill-rule="evenodd"/><path d="M332.5 552C332.5 545.649 337.425 540.5 343.5 540.5 349.575 540.5 354.5 545.649 354.5 552 354.5 558.351 349.575 563.5 343.5 563.5 337.425 563.5 332.5 558.351 332.5 552Z" stroke="#000000" stroke-width="3" stroke-miterlimit="8" fill="#FFFFFF" fill-rule="evenodd"/><path d="M218.5 582C218.5 575.649 223.425 570.5 229.5 570.5 235.575 570.5 240.5 575.649 240.5 582 240.5 588.351 235.575 593.5 229.5 593.5 223.425 593.5 218.5 588.351 218.5 582Z" stroke="#000000" stroke-width="3" stroke-miterlimit="8" fill="#FFFFFF" fill-rule="evenodd"/><path d="M431.5 634.5C431.5 628.425 436.649 623.5 443 623.5 449.351 623.5 454.5 628.425 454.5 634.5 454.5 640.575 449.351 645.5 443 645.5 436.649 645.5 431.5 640.575 431.5 634.5Z" stroke="#000000" stroke-width="3" stroke-miterlimit="8" fill="#FFFFFF" fill-rule="evenodd"/><path d="M213.5 417C213.5 410.649 218.649 405.5 225 405.5 231.351 405.5 236.5 410.649 236.5 417 236.5 423.351 231.351 428.5 225 428.5 218.649 428.5 213.5 423.351 213.5 417Z" stroke="#000000" stroke-width="3" stroke-miterlimit="8" fill="#FFFFFF" fill-rule="evenodd"/><path d="M368.5 474.5C368.5 468.425 373.649 463.5 380 463.5 386.351 463.5 391.5 468.425 391.5 474.5 391.5 480.575 386.351 485.5 380 485.5 373.649 485.5 368.5 480.575 368.5 474.5Z" stroke="#000000" stroke-width="3" stroke-miterlimit="8" fill="#00B050" fill-rule="evenodd"/><path d="M409.5 540.5C409.5 534.425 414.649 529.5 421 529.5 427.351 529.5 432.5 534.425 432.5 540.5 432.5 546.575 427.351 551.5 421 551.5 414.649 551.5 409.5 546.575 409.5 540.5Z" stroke="#000000" stroke-width="3" stroke-miterlimit="8" fill="#ED7D31" fill-rule="evenodd"/><path d="M320.5 383C320.5 376.649 325.649 371.5 332 371.5 338.351 371.5 343.5 376.649 343.5 383 343.5 389.351 338.351 394.5 332 394.5 325.649 394.5 320.5 389.351 320.5 383Z" stroke="#000000" stroke-width="3" stroke-miterlimit="8" fill="#FFFFFF" fill-rule="evenodd"/><path d="M482.5 372C482.5 365.649 487.425 360.5 493.5 360.5 499.575 360.5 504.5 365.649 504.5 372 504.5 378.351 499.575 383.5 493.5 383.5 487.425 383.5 482.5 378.351 482.5 372Z" stroke="#000000" stroke-width="3" stroke-miterlimit="8" fill="#FFFFFF" fill-rule="evenodd"/><path d="M1068 673.5C1061.65 673.5 1056.5 668.575 1056.5 662.5 1056.5 656.425 1061.65 651.5 1068 651.5 1074.35 651.5 1079.5 656.425 1079.5 662.5 1079.5 668.575 1074.35 673.5 1068 673.5Z" stroke="#000000" stroke-width="3" stroke-miterlimit="8" fill="#FFFFFF" fill-rule="evenodd"/><path d="M1058.5 580.5C1052.43 580.5 1047.5 575.351 1047.5 569 1047.5 562.649 1052.43 557.5 1058.5 557.5 1064.58 557.5 1069.5 562.649 1069.5 569 1069.5 575.351 1064.58 580.5 1058.5 580.5Z" stroke="#000000" stroke-width="3" stroke-miterlimit="8" fill="#FFFFFF" fill-rule="evenodd"/><path d="M989 670.5C982.649 670.5 977.5 665.351 977.5 659 977.5 652.649 982.649 647.5 989 647.5 995.351 647.5 1000.5 652.649 1000.5 659 1000.5 665.351 995.351 670.5 989 670.5Z" stroke="#000000" stroke-width="3" stroke-miterlimit="8" fill="#FFFFFF" fill-rule="evenodd"/><path d="M1058.5 436.5C1052.42 436.5 1047.5 431.575 1047.5 425.5 1047.5 419.425 1052.42 414.5 1058.5 414.5 1064.58 414.5 1069.5 419.425 1069.5 425.5 1069.5 431.575 1064.58 436.5 1058.5 436.5Z" stroke="#000000" stroke-width="3" stroke-miterlimit="8" fill="#FFFFFF" fill-rule="evenodd"/><path d="M1106.5 532.5C1100.43 532.5 1095.5 527.351 1095.5 521 1095.5 514.649 1100.43 509.5 1106.5 509.5 1112.58 509.5 1117.5 514.649 1117.5 521 1117.5 527.351 1112.58 532.5 1106.5 532.5Z" stroke="#000000" stroke-width="3" stroke-miterlimit="8" fill="#FFFFFF" fill-rule="evenodd"/><path d="M1216.5 353.5C1210.42 353.5 1205.5 348.575 1205.5 342.5 1205.5 336.425 1210.42 331.5 1216.5 331.5 1222.58 331.5 1227.5 336.425 1227.5 342.5 1227.5 348.575 1222.58 353.5 1216.5 353.5Z" stroke="#000000" stroke-width="3" stroke-miterlimit="8" fill="#FFFFFF" fill-rule="evenodd"/><path d="M1138.5 500.5C1132.43 500.5 1127.5 495.351 1127.5 489 1127.5 482.649 1132.43 477.5 1138.5 477.5 1144.58 477.5 1149.5 482.649 1149.5 489 1149.5 495.351 1144.58 500.5 1138.5 500.5Z" stroke="#000000" stroke-width="3" stroke-miterlimit="8" fill="#FFFFFF" fill-rule="evenodd"/><path d="M966.5 162.5C960.425 162.5 955.5 157.351 955.5 151 955.5 144.649 960.425 139.5 966.5 139.5 972.575 139.5 977.5 144.649 977.5 151 977.5 157.351 972.575 162.5 966.5 162.5Z" stroke="#000000" stroke-width="3" stroke-miterlimit="8" fill="#FFFFFF" fill-rule="evenodd"/><path d="M1193 444.5C1186.65 444.5 1181.5 439.575 1181.5 433.5 1181.5 427.425 1186.65 422.5 1193 422.5 1199.35 422.5 1204.5 427.425 1204.5 433.5 1204.5 439.575 1199.35 444.5 1193 444.5Z" stroke="#000000" stroke-width="3" stroke-miterlimit="8" fill="#FFFFFF" fill-rule="evenodd"/><path d="M905.5 477.5C899.425 477.5 894.5 472.575 894.5 466.5 894.5 460.425 899.425 455.5 905.5 455.5 911.575 455.5 916.5 460.425 916.5 466.5 916.5 472.575 911.575 477.5 905.5 477.5Z" stroke="#000000" stroke-width="3" stroke-miterlimit="8" fill="#FFFFFF" fill-rule="evenodd"/><path d="M1021 584.5C1014.65 584.5 1009.5 579.575 1009.5 573.5 1009.5 567.425 1014.65 562.5 1021 562.5 1027.35 562.5 1032.5 567.425 1032.5 573.5 1032.5 579.575 1027.35 584.5 1021 584.5Z" stroke="#000000" stroke-width="3" stroke-miterlimit="8" fill="#FFFFFF" fill-rule="evenodd"/><path d="M908.5 553.5C902.425 553.5 897.5 548.351 897.5 542 897.5 535.649 902.425 530.5 908.5 530.5 914.575 530.5 919.5 535.649 919.5 542 919.5 548.351 914.575 553.5 908.5 553.5Z" stroke="#000000" stroke-width="3" stroke-miterlimit="8" fill="#FFFFFF" fill-rule="evenodd"/><path d="M801.5 287.5C795.425 287.5 790.5 282.351 790.5 276 790.5 269.649 795.425 264.5 801.5 264.5 807.575 264.5 812.5 269.649 812.5 276 812.5 282.351 807.575 287.5 801.5 287.5Z" stroke="#000000" stroke-width="3" stroke-miterlimit="8" fill="#FFFFFF" fill-rule="evenodd"/><path d="M1106.5 532.5C1100.43 532.5 1095.5 527.351 1095.5 521 1095.5 514.649 1100.43 509.5 1106.5 509.5 1112.58 509.5 1117.5 514.649 1117.5 521 1117.5 527.351 1112.58 532.5 1106.5 532.5Z" stroke="#000000" stroke-width="3" stroke-miterlimit="8" fill="#FFFFFF" fill-rule="evenodd"/><path d="M968 288.5C961.649 288.5 956.5 283.575 956.5 277.5 956.5 271.425 961.649 266.5 968 266.5 974.351 266.5 979.5 271.425 979.5 277.5 979.5 283.575 974.351 288.5 968 288.5Z" stroke="#000000" stroke-width="3" stroke-miterlimit="8" fill="#FFFFFF" fill-rule="evenodd"/><path d="M1138.5 500.5C1132.43 500.5 1127.5 495.351 1127.5 489 1127.5 482.649 1132.43 477.5 1138.5 477.5 1144.58 477.5 1149.5 482.649 1149.5 489 1149.5 495.351 1144.58 500.5 1138.5 500.5Z" stroke="#000000" stroke-width="3" stroke-miterlimit="8" fill="#FFFFFF" fill-rule="evenodd"/><path d="M719 187.5C712.649 187.5 707.5 182.575 707.5 176.5 707.5 170.425 712.649 165.5 719 165.5 725.351 165.5 730.5 170.425 730.5 176.5 730.5 182.575 725.351 187.5 719 187.5Z" stroke="#000000" stroke-width="3" stroke-miterlimit="8" fill="#FFFFFF" fill-rule="evenodd"/><path d="M826.5 661.5C820.425 661.5 815.5 656.351 815.5 650 815.5 643.649 820.425 638.5 826.5 638.5 832.575 638.5 837.5 643.649 837.5 650 837.5 656.351 832.575 661.5 826.5 661.5Z" stroke="#000000" stroke-width="3" stroke-miterlimit="8" fill="#FFFFFF" fill-rule="evenodd"/><path d="M1008.5 436.5C1002.42 436.5 997.5 431.575 997.5 425.5 997.5 419.425 1002.42 414.5 1008.5 414.5 1014.58 414.5 1019.5 419.425 1019.5 425.5 1019.5 431.575 1014.58 436.5 1008.5 436.5Z" stroke="#000000" stroke-width="3" stroke-miterlimit="8" fill="#FFFFFF" fill-rule="evenodd"/><path d="M837 425.5C830.649 425.5 825.5 420.351 825.5 414 825.5 407.649 830.649 402.5 837 402.5 843.351 402.5 848.5 407.649 848.5 414 848.5 420.351 843.351 425.5 837 425.5Z" stroke="#000000" stroke-width="3" stroke-miterlimit="8" fill="#FFFFFF" fill-rule="evenodd"/><path d="M861 319.5C854.649 319.5 849.5 314.351 849.5 308 849.5 301.649 854.649 296.5 861 296.5 867.351 296.5 872.5 301.649 872.5 308 872.5 314.351 867.351 319.5 861 319.5Z" stroke="#000000" stroke-width="3" stroke-miterlimit="8" fill="#FFFFFF" fill-rule="evenodd"/><path d="M951 608.5C944.649 608.5 939.5 603.575 939.5 597.5 939.5 591.425 944.649 586.5 951 586.5 957.351 586.5 962.5 591.425 962.5 597.5 962.5 603.575 957.351 608.5 951 608.5Z" stroke="#000000" stroke-width="3" stroke-miterlimit="8" fill="#FFFFFF" fill-rule="evenodd"/><path d="M1188 537.5C1181.65 537.5 1176.5 532.575 1176.5 526.5 1176.5 520.425 1181.65 515.5 1188 515.5 1194.35 515.5 1199.5 520.425 1199.5 526.5 1199.5 532.575 1194.35 537.5 1188 537.5Z" stroke="#000000" stroke-width="3" stroke-miterlimit="8" fill="#FFFFFF" fill-rule="evenodd"/><path d="M1025.5 498.5C1019.42 498.5 1014.5 493.351 1014.5 487 1014.5 480.649 1019.42 475.5 1025.5 475.5 1031.58 475.5 1036.5 480.649 1036.5 487 1036.5 493.351 1031.58 498.5 1025.5 498.5Z" stroke="#000000" stroke-width="3" stroke-miterlimit="8" fill="#FFFFFF" fill-rule="evenodd"/><path d="M1138.5 500.5C1132.43 500.5 1127.5 495.351 1127.5 489 1127.5 482.649 1132.43 477.5 1138.5 477.5 1144.58 477.5 1149.5 482.649 1149.5 489 1149.5 495.351 1144.58 500.5 1138.5 500.5Z" stroke="#000000" stroke-width="3" stroke-miterlimit="8" fill="#FFFFFF" fill-rule="evenodd"/><path d="M767.5 490.5C761.425 490.5 756.5 485.575 756.5 479.5 756.5 473.425 761.425 468.5 767.5 468.5 773.575 468.5 778.5 473.425 778.5 479.5 778.5 485.575 773.575 490.5 767.5 490.5Z" stroke="#000000" stroke-width="3" stroke-miterlimit="8" fill="#FFFFFF" fill-rule="evenodd"/><path d="M848.5 175.5C842.425 175.5 837.5 170.351 837.5 164 837.5 157.649 842.425 152.5 848.5 152.5 854.575 152.5 859.5 157.649 859.5 164 859.5 170.351 854.575 175.5 848.5 175.5Z" stroke="#000000" stroke-width="3" stroke-miterlimit="8" fill="#FFFFFF" fill-rule="evenodd"/><path d="M779 375.5C772.649 375.5 767.5 370.351 767.5 364 767.5 357.649 772.649 352.5 779 352.5 785.351 352.5 790.5 357.649 790.5 364 790.5 370.351 785.351 375.5 779 375.5Z" stroke="#000000" stroke-width="3" stroke-miterlimit="8" fill="#FFFFFF" fill-rule="evenodd"/><path d="M837 544.5C830.649 544.5 825.5 539.351 825.5 533 825.5 526.649 830.649 521.5 837 521.5 843.351 521.5 848.5 526.649 848.5 533 848.5 539.351 843.351 544.5 837 544.5Z" stroke="#000000" stroke-width="3" stroke-miterlimit="8" fill="#FFFFFF" fill-rule="evenodd"/><path d="M1088 135.5C1081.65 135.5 1076.5 130.351 1076.5 124 1076.5 117.649 1081.65 112.5 1088 112.5 1094.35 112.5 1099.5 117.649 1099.5 124 1099.5 130.351 1094.35 135.5 1088 135.5Z" stroke="#000000" stroke-width="3" stroke-miterlimit="8" fill="#FFFFFF" fill-rule="evenodd"/><path d="M1170.5 596.5C1164.43 596.5 1159.5 591.351 1159.5 585 1159.5 578.649 1164.43 573.5 1170.5 573.5 1176.58 573.5 1181.5 578.649 1181.5 585 1181.5 591.351 1176.58 596.5 1170.5 596.5Z" stroke="#000000" stroke-width="3" stroke-miterlimit="8" fill="#FFFFFF" fill-rule="evenodd"/><path d="M688.5 350.5C682.425 350.5 677.5 345.351 677.5 339 677.5 332.649 682.425 327.5 688.5 327.5 694.575 327.5 699.5 332.649 699.5 339 699.5 345.351 694.575 350.5 688.5 350.5Z" stroke="#000000" stroke-width="3" stroke-miterlimit="8" fill="#FFFFFF" fill-rule="evenodd"/><path d="M1108.5 386.5C1102.43 386.5 1097.5 381.351 1097.5 375 1097.5 368.649 1102.43 363.5 1108.5 363.5 1114.58 363.5 1119.5 368.649 1119.5 375 1119.5 381.351 1114.58 386.5 1108.5 386.5Z" stroke="#000000" stroke-width="3" stroke-miterlimit="8" fill="#FFFFFF" fill-rule="evenodd"/><path d="M1138.5 500.5C1132.43 500.5 1127.5 495.351 1127.5 489 1127.5 482.649 1132.43 477.5 1138.5 477.5 1144.58 477.5 1149.5 482.649 1149.5 489 1149.5 495.351 1144.58 500.5 1138.5 500.5Z" stroke="#000000" stroke-width="3" stroke-miterlimit="8" fill="#FFFFFF" fill-rule="evenodd"/><path d="M1191 287.5C1184.65 287.5 1179.5 282.351 1179.5 276 1179.5 269.649 1184.65 264.5 1191 264.5 1197.35 264.5 1202.5 269.649 1202.5 276 1202.5 282.351 1197.35 287.5 1191 287.5Z" stroke="#000000" stroke-width="3" stroke-miterlimit="8" fill="#FFFFFF" fill-rule="evenodd"/><path d="M973.5 505.5C967.425 505.5 962.5 500.351 962.5 494 962.5 487.649 967.425 482.5 973.5 482.5 979.575 482.5 984.5 487.649 984.5 494 984.5 500.351 979.575 505.5 973.5 505.5Z" stroke="#000000" stroke-width="3" stroke-miterlimit="8" fill="#FFFFFF" fill-rule="evenodd"/><path d="M1031 350.5C1024.65 350.5 1019.5 345.351 1019.5 339 1019.5 332.649 1024.65 327.5 1031 327.5 1037.35 327.5 1042.5 332.649 1042.5 339 1042.5 345.351 1037.35 350.5 1031 350.5Z" stroke="#000000" stroke-width="3" stroke-miterlimit="8" fill="#FFFFFF" fill-rule="evenodd"/><path d="M1097 309.5C1090.65 309.5 1085.5 304.351 1085.5 298 1085.5 291.649 1090.65 286.5 1097 286.5 1103.35 286.5 1108.5 291.649 1108.5 298 1108.5 304.351 1103.35 309.5 1097 309.5Z" stroke="#000000" stroke-width="3" stroke-miterlimit="8" fill="#FFFFFF" fill-rule="evenodd"/><path d="M939.5 397.5C933.425 397.5 928.5 392.575 928.5 386.5 928.5 380.425 933.425 375.5 939.5 375.5 945.575 375.5 950.5 380.425 950.5 386.5 950.5 392.575 945.575 397.5 939.5 397.5Z" stroke="#000000" stroke-width="3" stroke-miterlimit="8" fill="#FFFFFF" fill-rule="evenodd"/><path d="M928 236.5C921.649 236.5 916.5 231.351 916.5 225 916.5 218.649 921.649 213.5 928 213.5 934.351 213.5 939.5 218.649 939.5 225 939.5 231.351 934.351 236.5 928 236.5Z" stroke="#000000" stroke-width="3" stroke-miterlimit="8" fill="#FFFFFF" fill-rule="evenodd"/><path d="M665.5 494.5C665.5 488.425 670.649 483.5 677 483.5 683.351 483.5 688.5 488.425 688.5 494.5 688.5 500.575 683.351 505.5 677 505.5 670.649 505.5 665.5 500.575 665.5 494.5Z" stroke="#000000" stroke-width="3" stroke-miterlimit="8" fill="#FFFFFF" fill-rule="evenodd"/><path d="M692.5 616C692.5 609.649 697.649 604.5 704 604.5 710.351 604.5 715.5 609.649 715.5 616 715.5 622.351 710.351 627.5 704 627.5 697.649 627.5 692.5 622.351 692.5 616Z" stroke="#000000" stroke-width="3" stroke-miterlimit="8" fill="#FFFFFF" fill-rule="evenodd"/><path d="M623.5 255.5C623.5 249.425 628.425 244.5 634.5 244.5 640.575 244.5 645.5 249.425 645.5 255.5 645.5 261.575 640.575 266.5 634.5 266.5 628.425 266.5 623.5 261.575 623.5 255.5Z" stroke="#000000" stroke-width="3" stroke-miterlimit="8" fill="#FFFFFF" fill-rule="evenodd"/><path d="M650.5 377C650.5 370.649 655.425 365.5 661.5 365.5 667.575 365.5 672.5 370.649 672.5 377 672.5 383.351 667.575 388.5 661.5 388.5 655.425 388.5 650.5 383.351 650.5 377Z" stroke="#000000" stroke-width="3" stroke-miterlimit="8" fill="#FFFFFF" fill-rule="evenodd"/><path d="M590.5 650C590.5 643.649 595.649 638.5 602 638.5 608.351 638.5 613.5 643.649 613.5 650 613.5 656.351 608.351 661.5 602 661.5 595.649 661.5 590.5 656.351 590.5 650Z" stroke="#000000" stroke-width="3" stroke-miterlimit="8" fill="#FFFFFF" fill-rule="evenodd"/><path d="M590.5 600C590.5 593.649 595.649 588.5 602 588.5 608.351 588.5 613.5 593.649 613.5 600 613.5 606.351 608.351 611.5 602 611.5 595.649 611.5 590.5 606.351 590.5 600Z" stroke="#000000" stroke-width="3" stroke-miterlimit="8" fill="#FFFFFF" fill-rule="evenodd"/><path d="M529.5 617C529.5 610.649 534.425 605.5 540.5 605.5 546.575 605.5 551.5 610.649 551.5 617 551.5 623.351 546.575 628.5 540.5 628.5 534.425 628.5 529.5 623.351 529.5 617Z" stroke="#000000" stroke-width="3" stroke-miterlimit="8" fill="#00B050" fill-rule="evenodd"/><path d="M517.5 516C517.5 509.649 522.425 504.5 528.5 504.5 534.575 504.5 539.5 509.649 539.5 516 539.5 522.351 534.575 527.5 528.5 527.5 522.425 527.5 517.5 522.351 517.5 516Z" stroke="#000000" stroke-width="3" stroke-miterlimit="8" fill="#FFFFFF" fill-rule="evenodd"/><path d="M517.5 466C517.5 459.649 522.425 454.5 528.5 454.5 534.575 454.5 539.5 459.649 539.5 466 539.5 472.351 534.575 477.5 528.5 477.5 522.425 477.5 517.5 472.351 517.5 466Z" stroke="#000000" stroke-width="3" stroke-miterlimit="8" fill="#FFFFFF" fill-rule="evenodd"/><path d="M455.5 483C455.5 476.649 460.649 471.5 467 471.5 473.351 471.5 478.5 476.649 478.5 483 478.5 489.351 473.351 494.5 467 494.5 460.649 494.5 455.5 489.351 455.5 483Z" stroke="#000000" stroke-width="3" stroke-miterlimit="8" fill="#FFFFFF" fill-rule="evenodd"/><path d="M591.5 108.5C591.5 102.425 596.649 97.5001 603 97.5001 609.351 97.5001 614.5 102.425 614.5 108.5 614.5 114.575 609.351 119.5 603 119.5 596.649 119.5 591.5 114.575 591.5 108.5Z" stroke="#000000" stroke-width="3" stroke-miterlimit="8" fill="#FFFFFF" fill-rule="evenodd"/><path d="M591.5 58.5001C591.5 52.4249 596.649 47.5001 603 47.5001 609.351 47.5001 614.5 52.4249 614.5 58.5001 614.5 64.5752 609.351 69.5001 603 69.5001 596.649 69.5001 591.5 64.5752 591.5 58.5001Z" stroke="#000000" stroke-width="3" stroke-miterlimit="8" fill="#FFFFFF" fill-rule="evenodd"/><path d="M530.5 75.5001C530.5 69.4249 535.425 64.5001 541.5 64.5001 547.575 64.5001 552.5 69.4249 552.5 75.5001 552.5 81.5752 547.575 86.5001 541.5 86.5001 535.425 86.5001 530.5 81.5752 530.5 75.5001Z" stroke="#000000" stroke-width="3" stroke-miterlimit="8" fill="#FFFFFF" fill-rule="evenodd"/><path d="M905.5 85.0001C905.5 78.6488 910.649 73.5001 917 73.5001 923.351 73.5001 928.5 78.6488 928.5 85.0001 928.5 91.3513 923.351 96.5001 917 96.5001 910.649 96.5001 905.5 91.3513 905.5 85.0001Z" stroke="#000000" stroke-width="3" stroke-miterlimit="8" fill="#FFFFFF" fill-rule="evenodd"/><path d="M825.5 85.0001C825.5 78.6488 830.649 73.5001 837 73.5001 843.351 73.5001 848.5 78.6488 848.5 85.0001 848.5 91.3513 843.351 96.5001 837 96.5001 830.649 96.5001 825.5 91.3513 825.5 85.0001Z" stroke="#000000" stroke-width="3" stroke-miterlimit="8" fill="#FFFFFF" fill-rule="evenodd"/><path d="M764.5 102C764.5 95.6488 769.649 90.5001 776 90.5001 782.351 90.5001 787.5 95.6488 787.5 102 787.5 108.351 782.351 113.5 776 113.5 769.649 113.5 764.5 108.351 764.5 102Z" stroke="#000000" stroke-width="3" stroke-miterlimit="8" fill="#FFFFFF" fill-rule="evenodd"/><path d="M1021.5 52.0001C1021.5 45.6488 1026.42 40.5001 1032.5 40.5001 1038.58 40.5001 1043.5 45.6488 1043.5 52.0001 1043.5 58.3513 1038.58 63.5001 1032.5 63.5001 1026.42 63.5001 1021.5 58.3513 1021.5 52.0001Z" stroke="#000000" stroke-width="3" stroke-miterlimit="8" fill="#FFFFFF" fill-rule="evenodd"/><path d="M1025.5 199C1025.5 192.649 1030.42 187.5 1036.5 187.5 1042.58 187.5 1047.5 192.649 1047.5 199 1047.5 205.351 1042.58 210.5 1036.5 210.5 1030.42 210.5 1025.5 205.351 1025.5 199Z" stroke="#000000" stroke-width="3" stroke-miterlimit="8" fill="#FFFFFF" fill-rule="evenodd"/><path d="M1136.5 212C1136.5 205.649 1141.65 200.5 1148 200.5 1154.35 200.5 1159.5 205.649 1159.5 212 1159.5 218.351 1154.35 223.5 1148 223.5 1141.65 223.5 1136.5 218.351 1136.5 212Z" stroke="#000000" stroke-width="3" stroke-miterlimit="8" fill="#FFFFFF" fill-rule="evenodd"/><path d="M1014.5 266.5C1014.5 252.693 1025.47 241.5 1039 241.5 1052.53 241.5 1063.5 252.693 1063.5 266.5 1063.5 280.307 1052.53 291.5 1039 291.5 1025.47 291.5 1014.5 280.307 1014.5 266.5Z" stroke="#000000" stroke-width="3" stroke-miterlimit="8" fill="#2F5597" fill-rule="evenodd"/><text font-family="Cambria Math,Cambria Math_MSFontService,sans-serif" font-weight="400" font-size="21" transform="translate(1028.8 273)">ğµ</text><path d="M308.515 583.395 403.725 670.822 401.696 673.031 306.486 585.605ZM404.649 667.597 408.235 676.999 398.562 674.227Z"/><path d="M1.48726-0.195062 4.24991 20.8689 1.27538 21.259-1.48726 0.195062ZM7.02937 18.9915 3.73795 28.5003-1.89421 20.1619Z" transform="matrix(1 0 0 -1 289.5 542)"/><path d="M0.387374-1.44912 20.0745 3.81359 19.2997 6.71183-0.387374 1.44912ZM19.4001 0.527982 26.9327 7.19958 17.0759 9.22269Z" transform="matrix(-1 0 0 1 264.433 566.5)"/><path d="M2.14974-2.09251 56.3682 53.6088 52.0688 57.7938-2.14974 2.09251ZM58.5752 47.274 64.681 66.45 45.6767 59.8291Z" fill="#00B050" transform="matrix(1 0 0 -1 307 548.45)"/><path d="M0.460478-1.42757 14.5198 3.10741 13.5988 5.96255-0.460478 1.42757ZM14.0132-0.208209 21.1972 6.83738 11.2503 8.35722Z" transform="matrix(1 0 0 -1 314.5 566.337)"/><path d="M270.203 550.099 233.971 487.738 236.565 486.231 272.797 548.592ZM232.13 490.543 231.5 480.5 239.912 486.021Z"/><path d="M314.91 562.105 510.266 607.744 508.446 615.535 313.09 569.895ZM508.191 599.044 528.832 616.19 502.732 622.415Z" fill="#7030A0"/><path d="M421.934 551.06 441.652 615.297 438.784 616.177 419.066 551.94ZM444.08 612.982 442.419 622.907 435.476 615.623Z"/><path d="M429.254 547.203 526.503 603.774 524.995 606.367 427.746 549.797ZM526.715 600.427 532.232 608.842 522.19 608.206Z"/><path d="M0.832829-1.24756 114.422 74.5812 112.757 77.0764-0.832829 1.24756ZM114.84 71.2533 119.827 79.993 109.843 78.7387Z" transform="matrix(-1 0 0 1 412.327 548.5)"/><path d="M1.21405-0.880954 27.0071 34.6646 24.579 36.4265-1.21405 0.880954ZM28.5542 31.6887 30.1978 41.6159 21.2699 36.9744Z" transform="matrix(1 0 0 -1 428.5 532.116)"/><path d="M412.328 533.344 306.97 464.846 308.606 462.331 413.963 530.829ZM306.593 468.178 301.5 459.5 311.498 460.633Z"/><path d="M388.724 481.633 417.428 522.147 414.98 523.881 386.276 483.367ZM419.009 519.189 420.54 529.134 411.665 524.392Z"/><path d="M1.43193-2.63621 59.9194 29.1329 57.0556 34.4053-1.43193 2.63621ZM60.1471 22.4285 71.6686 38.9287 51.5555 38.2458Z" fill="#00B050" transform="matrix(-1 0 0 1 271.669 584)"/><path d="M271.145 549.083 184.584 149.087 185.236 148.946 271.797 548.942ZM181.283 151.165 183.5 142.5 189.102 149.473Z"/><path d="M264.5 566.5C264.5 552.693 275.693 541.5 289.5 541.5 303.307 541.5 314.5 552.693 314.5 566.5 314.5 580.307 303.307 591.5 289.5 591.5 275.693 591.5 264.5 580.307 264.5 566.5Z" stroke="#000000" stroke-width="3" stroke-miterlimit="8" fill="#00B050" fill-rule="evenodd"/><text font-family="Cambria Math,Cambria Math_MSFontService,sans-serif" font-weight="400" font-size="21" transform="translate(279.651 573)">ğ´</text><path d="M1.08366-1.03715 41.1652 40.8419 38.9979 42.9162-1.08366 1.03715ZM42.2954 37.6839 45.2673 47.2973 35.7934 43.9068Z" transform="matrix(1 0 0 -1 387.5 466.797)"/><path d="M0.329545-0.0501119 22.229 143.964 21.5699 144.065-0.329545 0.0501119ZM25.6535 142.095 22.9016 150.605 17.7444 143.298Z" transform="matrix(1 0 0 -1 379.5 463.105)"/><path d="M0.292735-0.159428 34.9236 63.4286 34.3382 63.7475-0.292735 0.159428ZM37.506 60.5039 37.8194 69.4427 30.4803 64.3302Z" transform="matrix(1 0 0 -1 548.5 608.943)"/><path d="M0.12174-0.310307 158.894 61.9794 158.65 62.6001-0.12174 0.310307ZM158.991 58.079 164.978 64.7244 156.07 65.5263Z" transform="matrix(1 0 0 -1 391.5 474.224)"/><path d="M0.0143476-2.99997 126.011-2.39737 125.982 3.60256-0.0143476 2.99997ZM123.04-8.41165 140.997 0.674331 122.954 9.58814Z" transform="matrix(1 0 0 -1 551 616.674)"/><path d="M715.961 613.158 801.422 642.057 799.5 647.74 714.039 618.842ZM800.502 635.412 814.671 649.703 794.736 652.463Z"/><rect x="0" y="0" width="101" height="365" stroke="#000000" stroke-width="4" stroke-miterlimit="8" fill="#FFFFFF"/><path d="M33.5001 39.0001C33.5001 28.7828 42.0066 20.5001 52.5001 20.5001 62.9935 20.5001 71.5001 28.7828 71.5001 39.0001 71.5001 49.2173 62.9935 57.5 52.5001 57.5 42.0066 57.5 33.5001 49.2173 33.5001 39.0001Z" stroke="#000000" stroke-width="3" stroke-miterlimit="8" fill="#FFFFFF" fill-rule="evenodd"/><text font-family="Calibri,Calibri_MSFontService,sans-serif" font-weight="400" font-size="19" transform="translate(14.3169 85)">excitatory<tspan font-size="19" x="10.06" y="22">neuron</tspan></text><path d="M30.5001 232.5C30.5001 222.007 39.0066 213.5 49.5001 213.5 59.9935 213.5 68.5001 222.007 68.5001 232.5 68.5001 242.993 59.9935 251.5 49.5001 251.5 39.0066 251.5 30.5001 242.993 30.5001 232.5Z" stroke="#000000" stroke-width="3" stroke-miterlimit="8" fill="#00B050" fill-rule="evenodd"/><text font-family="Calibri,Calibri_MSFontService,sans-serif" font-weight="400" font-size="19" transform="translate(31.4365 267)">start</text><path d="M30.5001 316C30.5001 305.783 39.0066 297.5 49.5001 297.5 59.9935 297.5 68.5001 305.783 68.5001 316 68.5001 326.217 59.9935 334.5 49.5001 334.5 39.0066 334.5 30.5001 326.217 30.5001 316Z" stroke="#000000" stroke-width="3" stroke-miterlimit="8" fill="#2F5597" fill-rule="evenodd"/><text font-family="Calibri,Calibri_MSFontService,sans-serif" font-weight="400" font-size="19" transform="translate(26.1699 350)">target</text><path d="M33.5001 135.5C33.5001 125.007 42.0066 116.5 52.5001 116.5 62.9935 116.5 71.5001 125.007 71.5001 135.5 71.5001 145.993 62.9935 154.5 52.5001 154.5 42.0066 154.5 33.5001 145.993 33.5001 135.5Z" stroke="#000000" stroke-width="3" stroke-miterlimit="8" fill="#ED7D31" fill-rule="evenodd"/><text font-family="Calibri,Calibri_MSFontService,sans-serif" font-weight="400" font-size="19" transform="translate(15.017 181)">inhibitory<tspan font-size="19" x="9.36" y="22">neuron</tspan></text><rect x="174" y="31" width="758" height="57" stroke="#000000" stroke-width="2" stroke-miterlimit="8" fill="#FFFFFF"/><text font-family="Calibri,Calibri_MSFontService,sans-serif" font-weight="400" font-size="24" transform="translate(191.706 52)">4. Further Reinforce synapses to neurons generating a pattern close to the <tspan font-size="24" x="262.207" y="29">one generated by </tspan><tspan font-family="Cambria Math,Cambria Math_MSFontService,sans-serif" font-size="24" x="438.747" y="29">ğµ</tspan><tspan font-family="Cambria Math,Cambria Math_MSFontService,sans-serif" font-size="24" x="455.227" y="29">.</tspan></text><rect x="545.5" y="101.5" width="431" height="268" stroke="#000000" stroke-width="1.33333" stroke-miterlimit="8" fill="#FFFFFF"/><path d="M608 275C608 270.582 614.492 267 622.5 267 630.508 267 637 270.582 637 275 637 279.418 630.508 283 622.5 283 614.492 283 608 279.418 608 275Z" fill="#ED7D31" fill-rule="evenodd"/><path d="M583 240C583 235.029 589.268 231 597 231 604.732 231 611 235.029 611 240 611 244.971 604.732 249 597 249 589.268 249 583 244.971 583 240Z" fill="#ED7D31" fill-rule="evenodd"/><path d="M685 215C685 210.582 688.806 207 693.5 207 698.194 207 702 210.582 702 215 702 219.418 698.194 223 693.5 223 688.806 223 685 219.418 685 215Z" fill="#ED7D31" fill-rule="evenodd"/><path d="M684 274.5C684 270.358 687.582 267 692 267 696.418 267 700 270.358 700 274.5 700 278.642 696.418 282 692 282 687.582 282 684 278.642 684 274.5Z" fill="#ED7D31" fill-rule="evenodd"/><path d="M723 228C723 223.582 726.806 220 731.5 220 736.194 220 740 223.582 740 228 740 232.418 736.194 236 731.5 236 726.806 236 723 232.418 723 228Z" fill="#ED7D31" fill-rule="evenodd"/><path d="M778 233.5C778 224.94 787.178 218 798.5 218 809.822 218 819 224.94 819 233.5 819 242.06 809.822 249 798.5 249 787.178 249 778 242.06 778 233.5Z" fill="#ED7D31" fill-rule="evenodd"/><path d="M877 228C877 223.029 893.565 219 914 219 934.435 219 951 223.029 951 228 951 232.971 934.435 237 914 237 893.565 237 877 232.971 877 228Z" fill="#ED7D31" fill-rule="evenodd"/><path d="M822 275.5C822 271.358 825.806 268 830.5 268 835.194 268 839 271.358 839 275.5 839 279.642 835.194 283 830.5 283 825.806 283 822 279.642 822 275.5Z" fill="#ED7D31" fill-rule="evenodd"/><path d="M588.5 180.5C588.5 178.291 590.515 176.5 593 176.5 595.485 176.5 597.5 178.291 597.5 180.5 597.5 182.709 595.485 184.5 593 184.5 590.515 184.5 588.5 182.709 588.5 180.5Z" stroke="#000000" stroke-width="1.33333" stroke-miterlimit="8" fill-rule="evenodd"/><path d="M600.5 192.5C600.5 190.291 602.515 188.5 605 188.5 607.485 188.5 609.5 190.291 609.5 192.5 609.5 194.709 607.485 196.5 605 196.5 602.515 196.5 600.5 194.709 600.5 192.5Z" stroke="#000000" stroke-width="1.33333" stroke-miterlimit="8" fill-rule="evenodd"/><path d="M587.5 192.5C587.5 190.291 589.515 188.5 592 188.5 594.485 188.5 596.5 190.291 596.5 192.5 596.5 194.709 594.485 196.5 592 196.5 589.515 196.5 587.5 194.709 587.5 192.5Z" stroke="#000000" stroke-width="1.33333" stroke-miterlimit="8" fill-rule="evenodd"/><path d="M600.5 180.5C600.5 178.291 602.515 176.5 605 176.5 607.485 176.5 609.5 178.291 609.5 180.5 609.5 182.709 607.485 184.5 605 184.5 602.515 184.5 600.5 182.709 600.5 180.5Z" stroke="#000000" stroke-width="1.33333" stroke-miterlimit="8" fill-rule="evenodd"/><path d="M614.5 180.5C614.5 178.291 616.515 176.5 619 176.5 621.485 176.5 623.5 178.291 623.5 180.5 623.5 182.709 621.485 184.5 619 184.5 616.515 184.5 614.5 182.709 614.5 180.5Z" stroke="#000000" stroke-width="1.33333" stroke-miterlimit="8" fill-rule="evenodd"/><path d="M626.5 192.5C626.5 190.291 628.515 188.5 631 188.5 633.485 188.5 635.5 190.291 635.5 192.5 635.5 194.709 633.485 196.5 631 196.5 628.515 196.5 626.5 194.709 626.5 192.5Z" stroke="#000000" stroke-width="1.33333" stroke-miterlimit="8" fill-rule="evenodd"/><path d="M614.5 192.5C614.5 190.291 616.515 188.5 619 188.5 621.485 188.5 623.5 190.291 623.5 192.5 623.5 194.709 621.485 196.5 619 196.5 616.515 196.5 614.5 194.709 614.5 192.5Z" stroke="#000000" stroke-width="1.33333" stroke-miterlimit="8" fill-rule="evenodd"/><path d="M626.5 180.5C626.5 178.291 628.515 176.5 631 176.5 633.485 176.5 635.5 178.291 635.5 180.5 635.5 182.709 633.485 184.5 631 184.5 628.515 184.5 626.5 182.709 626.5 180.5Z" stroke="#000000" stroke-width="1.33333" stroke-miterlimit="8" fill-rule="evenodd"/><path d="M588.5 204C588.5 201.515 590.515 199.5 593 199.5 595.485 199.5 597.5 201.515 597.5 204 597.5 206.485 595.485 208.5 593 208.5 590.515 208.5 588.5 206.485 588.5 204Z" stroke="#000000" stroke-width="1.33333" stroke-miterlimit="8" fill-rule="evenodd"/><path d="M600.5 216C600.5 213.515 602.515 211.5 605 211.5 607.485 211.5 609.5 213.515 609.5 216 609.5 218.485 607.485 220.5 605 220.5 602.515 220.5 600.5 218.485 600.5 216Z" stroke="#000000" stroke-width="1.33333" stroke-miterlimit="8" fill-rule="evenodd"/><path d="M587.5 216C587.5 213.515 589.515 211.5 592 211.5 594.485 211.5 596.5 213.515 596.5 216 596.5 218.485 594.485 220.5 592 220.5 589.515 220.5 587.5 218.485 587.5 216Z" stroke="#000000" stroke-width="1.33333" stroke-miterlimit="8" fill-rule="evenodd"/><path d="M600.5 204C600.5 201.515 602.515 199.5 605 199.5 607.485 199.5 609.5 201.515 609.5 204 609.5 206.485 607.485 208.5 605 208.5 602.515 208.5 600.5 206.485 600.5 204Z" stroke="#000000" stroke-width="1.33333" stroke-miterlimit="8" fill-rule="evenodd"/><path d="M614.5 204C614.5 201.515 616.515 199.5 619 199.5 621.485 199.5 623.5 201.515 623.5 204 623.5 206.485 621.485 208.5 619 208.5 616.515 208.5 614.5 206.485 614.5 204Z" stroke="#000000" stroke-width="1.33333" stroke-miterlimit="8" fill-rule="evenodd"/><path d="M626.5 216C626.5 213.515 628.515 211.5 631 211.5 633.485 211.5 635.5 213.515 635.5 216 635.5 218.485 633.485 220.5 631 220.5 628.515 220.5 626.5 218.485 626.5 216Z" stroke="#000000" stroke-width="1.33333" stroke-miterlimit="8" fill-rule="evenodd"/><path d="M614.5 216C614.5 213.515 616.515 211.5 619 211.5 621.485 211.5 623.5 213.515 623.5 216 623.5 218.485 621.485 220.5 619 220.5 616.515 220.5 614.5 218.485 614.5 216Z" stroke="#000000" stroke-width="1.33333" stroke-miterlimit="8" fill-rule="evenodd"/><path d="M626.5 204C626.5 201.515 628.515 199.5 631 199.5 633.485 199.5 635.5 201.515 635.5 204 635.5 206.485 633.485 208.5 631 208.5 628.515 208.5 626.5 206.485 626.5 204Z" stroke="#000000" stroke-width="1.33333" stroke-miterlimit="8" fill-rule="evenodd"/><path d="M587.5 228.5C587.5 226.291 589.515 224.5 592 224.5 594.485 224.5 596.5 226.291 596.5 228.5 596.5 230.709 594.485 232.5 592 232.5 589.515 232.5 587.5 230.709 587.5 228.5Z" stroke="#000000" stroke-width="1.33333" stroke-miterlimit="8" fill-rule="evenodd"/><path d="M600.5 240.5C600.5 238.291 602.515 236.5 605 236.5 607.485 236.5 609.5 238.291 609.5 240.5 609.5 242.709 607.485 244.5 605 244.5 602.515 244.5 600.5 242.709 600.5 240.5Z" stroke="#000000" stroke-width="1.33333" stroke-miterlimit="8" fill-rule="evenodd"/><path d="M587.5 240.5C587.5 238.291 589.515 236.5 592 236.5 594.485 236.5 596.5 238.291 596.5 240.5 596.5 242.709 594.485 244.5 592 244.5 589.515 244.5 587.5 242.709 587.5 240.5Z" stroke="#000000" stroke-width="1.33333" stroke-miterlimit="8" fill-rule="evenodd"/><path d="M600.5 228.5C600.5 226.291 602.515 224.5 605 224.5 607.485 224.5 609.5 226.291 609.5 228.5 609.5 230.709 607.485 232.5 605 232.5 602.515 232.5 600.5 230.709 600.5 228.5Z" stroke="#000000" stroke-width="1.33333" stroke-miterlimit="8" fill-rule="evenodd"/><path d="M614.5 228.5C614.5 226.291 616.515 224.5 619 224.5 621.485 224.5 623.5 226.291 623.5 228.5 623.5 230.709 621.485 232.5 619 232.5 616.515 232.5 614.5 230.709 614.5 228.5Z" stroke="#000000" stroke-width="1.33333" stroke-miterlimit="8" fill-rule="evenodd"/><path d="M626.5 240.5C626.5 238.291 628.515 236.5 631 236.5 633.485 236.5 635.5 238.291 635.5 240.5 635.5 242.709 633.485 244.5 631 244.5 628.515 244.5 626.5 242.709 626.5 240.5Z" stroke="#000000" stroke-width="1.33333" stroke-miterlimit="8" fill-rule="evenodd"/><path d="M614.5 240.5C614.5 238.291 616.515 236.5 619 236.5 621.485 236.5 623.5 238.291 623.5 240.5 623.5 242.709 621.485 244.5 619 244.5 616.515 244.5 614.5 242.709 614.5 240.5Z" stroke="#000000" stroke-width="1.33333" stroke-miterlimit="8" fill-rule="evenodd"/><path d="M626.5 228.5C626.5 226.291 628.515 224.5 631 224.5 633.485 224.5 635.5 226.291 635.5 228.5 635.5 230.709 633.485 232.5 631 232.5 628.515 232.5 626.5 230.709 626.5 228.5Z" stroke="#000000" stroke-width="1.33333" stroke-miterlimit="8" fill-rule="evenodd"/><path d="M587.5 252.5C587.5 250.291 589.515 248.5 592 248.5 594.485 248.5 596.5 250.291 596.5 252.5 596.5 254.709 594.485 256.5 592 256.5 589.515 256.5 587.5 254.709 587.5 252.5Z" stroke="#000000" stroke-width="1.33333" stroke-miterlimit="8" fill-rule="evenodd"/><path d="M600.5 264.5C600.5 262.291 602.515 260.5 605 260.5 607.485 260.5 609.5 262.291 609.5 264.5 609.5 266.709 607.485 268.5 605 268.5 602.515 268.5 600.5 266.709 600.5 264.5Z" stroke="#000000" stroke-width="1.33333" stroke-miterlimit="8" fill-rule="evenodd"/><path d="M587.5 264.5C587.5 262.291 589.515 260.5 592 260.5 594.485 260.5 596.5 262.291 596.5 264.5 596.5 266.709 594.485 268.5 592 268.5 589.515 268.5 587.5 266.709 587.5 264.5Z" stroke="#000000" stroke-width="1.33333" stroke-miterlimit="8" fill-rule="evenodd"/><path d="M600.5 252.5C600.5 250.291 602.515 248.5 605 248.5 607.485 248.5 609.5 250.291 609.5 252.5 609.5 254.709 607.485 256.5 605 256.5 602.515 256.5 600.5 254.709 600.5 252.5Z" stroke="#000000" stroke-width="1.33333" stroke-miterlimit="8" fill-rule="evenodd"/><path d="M614.5 252.5C614.5 250.291 616.515 248.5 619 248.5 621.485 248.5 623.5 250.291 623.5 252.5 623.5 254.709 621.485 256.5 619 256.5 616.515 256.5 614.5 254.709 614.5 252.5Z" stroke="#000000" stroke-width="1.33333" stroke-miterlimit="8" fill-rule="evenodd"/><path d="M626.5 264.5C626.5 262.291 628.515 260.5 631 260.5 633.485 260.5 635.5 262.291 635.5 264.5 635.5 266.709 633.485 268.5 631 268.5 628.515 268.5 626.5 266.709 626.5 264.5Z" stroke="#000000" stroke-width="1.33333" stroke-miterlimit="8" fill-rule="evenodd"/><path d="M614.5 264.5C614.5 262.291 616.515 260.5 619 260.5 621.485 260.5 623.5 262.291 623.5 264.5 623.5 266.709 621.485 268.5 619 268.5 616.515 268.5 614.5 266.709 614.5 264.5Z" stroke="#000000" stroke-width="1.33333" stroke-miterlimit="8" fill-rule="evenodd"/><path d="M626.5 252.5C626.5 250.291 628.515 248.5 631 248.5 633.485 248.5 635.5 250.291 635.5 252.5 635.5 254.709 633.485 256.5 631 256.5 628.515 256.5 626.5 254.709 626.5 252.5Z" stroke="#000000" stroke-width="1.33333" stroke-miterlimit="8" fill-rule="evenodd"/><path d="M587.5 276C587.5 273.515 589.515 271.5 592 271.5 594.485 271.5 596.5 273.515 596.5 276 596.5 278.485 594.485 280.5 592 280.5 589.515 280.5 587.5 278.485 587.5 276Z" stroke="#000000" stroke-width="1.33333" stroke-miterlimit="8" fill-rule="evenodd"/><path d="M599.5 276C599.5 273.515 601.515 271.5 604 271.5 606.485 271.5 608.5 273.515 608.5 276 608.5 278.485 606.485 280.5 604 280.5 601.515 280.5 599.5 278.485 599.5 276Z" stroke="#000000" stroke-width="1.33333" stroke-miterlimit="8" fill-rule="evenodd"/><path d="M613.5 276C613.5 273.515 615.515 271.5 618 271.5 620.485 271.5 622.5 273.515 622.5 276 622.5 278.485 620.485 280.5 618 280.5 615.515 280.5 613.5 278.485 613.5 276Z" stroke="#000000" stroke-width="1.33333" stroke-miterlimit="8" fill-rule="evenodd"/><path d="M626.5 276C626.5 273.515 628.515 271.5 631 271.5 633.485 271.5 635.5 273.515 635.5 276 635.5 278.485 633.485 280.5 631 280.5 628.515 280.5 626.5 278.485 626.5 276Z" stroke="#000000" stroke-width="1.33333" stroke-miterlimit="8" fill-rule="evenodd"/><rect x="571.5" y="137.5" width="80" height="159" stroke="#000000" stroke-width="1.33333" stroke-miterlimit="8" fill="none"/><text font-family="Calibri,Calibri_MSFontService,sans-serif" font-weight="700" font-size="21" transform="translate(584.32 165)">PL</text><path d="M688.5 179.5C688.5 177.291 690.515 175.5 693 175.5 695.485 175.5 697.5 177.291 697.5 179.5 697.5 181.709 695.485 183.5 693 183.5 690.515 183.5 688.5 181.709 688.5 179.5Z" stroke="#000000" stroke-width="1.33333" stroke-miterlimit="8" fill-rule="evenodd"/><path d="M701.5 191.5C701.5 189.291 703.515 187.5 706 187.5 708.485 187.5 710.5 189.291 710.5 191.5 710.5 193.709 708.485 195.5 706 195.5 703.515 195.5 701.5 193.709 701.5 191.5Z" stroke="#000000" stroke-width="1.33333" stroke-miterlimit="8" fill-rule="evenodd"/><path d="M688.5 191.5C688.5 189.291 690.515 187.5 693 187.5 695.485 187.5 697.5 189.291 697.5 191.5 697.5 193.709 695.485 195.5 693 195.5 690.515 195.5 688.5 193.709 688.5 191.5Z" stroke="#000000" stroke-width="1.33333" stroke-miterlimit="8" fill-rule="evenodd"/><path d="M701.5 179.5C701.5 177.291 703.515 175.5 706 175.5 708.485 175.5 710.5 177.291 710.5 179.5 710.5 181.709 708.485 183.5 706 183.5 703.515 183.5 701.5 181.709 701.5 179.5Z" stroke="#000000" stroke-width="1.33333" stroke-miterlimit="8" fill-rule="evenodd"/><path d="M715.5 179.5C715.5 177.291 717.515 175.5 720 175.5 722.485 175.5 724.5 177.291 724.5 179.5 724.5 181.709 722.485 183.5 720 183.5 717.515 183.5 715.5 181.709 715.5 179.5Z" stroke="#000000" stroke-width="1.33333" stroke-miterlimit="8" fill-rule="evenodd"/><path d="M727.5 191.5C727.5 189.291 729.515 187.5 732 187.5 734.485 187.5 736.5 189.291 736.5 191.5 736.5 193.709 734.485 195.5 732 195.5 729.515 195.5 727.5 193.709 727.5 191.5Z" stroke="#000000" stroke-width="1.33333" stroke-miterlimit="8" fill-rule="evenodd"/><path d="M715.5 191.5C715.5 189.291 717.515 187.5 720 187.5 722.485 187.5 724.5 189.291 724.5 191.5 724.5 193.709 722.485 195.5 720 195.5 717.515 195.5 715.5 193.709 715.5 191.5Z" stroke="#000000" stroke-width="1.33333" stroke-miterlimit="8" fill-rule="evenodd"/><path d="M727.5 179.5C727.5 177.291 729.515 175.5 732 175.5 734.485 175.5 736.5 177.291 736.5 179.5 736.5 181.709 734.485 183.5 732 183.5 729.515 183.5 727.5 181.709 727.5 179.5Z" stroke="#000000" stroke-width="1.33333" stroke-miterlimit="8" fill-rule="evenodd"/><path d="M688.5 203.5C688.5 201.291 690.515 199.5 693 199.5 695.485 199.5 697.5 201.291 697.5 203.5 697.5 205.709 695.485 207.5 693 207.5 690.515 207.5 688.5 205.709 688.5 203.5Z" stroke="#000000" stroke-width="1.33333" stroke-miterlimit="8" fill-rule="evenodd"/><path d="M701.5 215.5C701.5 213.291 703.515 211.5 706 211.5 708.485 211.5 710.5 213.291 710.5 215.5 710.5 217.709 708.485 219.5 706 219.5 703.515 219.5 701.5 217.709 701.5 215.5Z" stroke="#000000" stroke-width="1.33333" stroke-miterlimit="8" fill-rule="evenodd"/><path d="M688.5 215.5C688.5 213.291 690.515 211.5 693 211.5 695.485 211.5 697.5 213.291 697.5 215.5 697.5 217.709 695.485 219.5 693 219.5 690.515 219.5 688.5 217.709 688.5 215.5Z" stroke="#000000" stroke-width="1.33333" stroke-miterlimit="8" fill-rule="evenodd"/><path d="M701.5 203.5C701.5 201.291 703.515 199.5 706 199.5 708.485 199.5 710.5 201.291 710.5 203.5 710.5 205.709 708.485 207.5 706 207.5 703.515 207.5 701.5 205.709 701.5 203.5Z" stroke="#000000" stroke-width="1.33333" stroke-miterlimit="8" fill-rule="evenodd"/><path d="M715.5 203.5C715.5 201.291 717.515 199.5 720 199.5 722.485 199.5 724.5 201.291 724.5 203.5 724.5 205.709 722.485 207.5 720 207.5 717.515 207.5 715.5 205.709 715.5 203.5Z" stroke="#000000" stroke-width="1.33333" stroke-miterlimit="8" fill-rule="evenodd"/><path d="M727.5 215.5C727.5 213.291 729.515 211.5 732 211.5 734.485 211.5 736.5 213.291 736.5 215.5 736.5 217.709 734.485 219.5 732 219.5 729.515 219.5 727.5 217.709 727.5 215.5Z" stroke="#000000" stroke-width="1.33333" stroke-miterlimit="8" fill-rule="evenodd"/><path d="M715.5 215.5C715.5 213.291 717.515 211.5 720 211.5 722.485 211.5 724.5 213.291 724.5 215.5 724.5 217.709 722.485 219.5 720 219.5 717.515 219.5 715.5 217.709 715.5 215.5Z" stroke="#000000" stroke-width="1.33333" stroke-miterlimit="8" fill-rule="evenodd"/><path d="M727.5 203.5C727.5 201.291 729.515 199.5 732 199.5 734.485 199.5 736.5 201.291 736.5 203.5 736.5 205.709 734.485 207.5 732 207.5 729.515 207.5 727.5 205.709 727.5 203.5Z" stroke="#000000" stroke-width="1.33333" stroke-miterlimit="8" fill-rule="evenodd"/><path d="M688.5 228C688.5 225.515 690.515 223.5 693 223.5 695.485 223.5 697.5 225.515 697.5 228 697.5 230.485 695.485 232.5 693 232.5 690.515 232.5 688.5 230.485 688.5 228Z" stroke="#000000" stroke-width="1.33333" stroke-miterlimit="8" fill-rule="evenodd"/><path d="M700.5 240C700.5 237.515 702.515 235.5 705 235.5 707.485 235.5 709.5 237.515 709.5 240 709.5 242.485 707.485 244.5 705 244.5 702.515 244.5 700.5 242.485 700.5 240Z" stroke="#000000" stroke-width="1.33333" stroke-miterlimit="8" fill-rule="evenodd"/><path d="M688.5 240C688.5 237.515 690.515 235.5 693 235.5 695.485 235.5 697.5 237.515 697.5 240 697.5 242.485 695.485 244.5 693 244.5 690.515 244.5 688.5 242.485 688.5 240Z" stroke="#000000" stroke-width="1.33333" stroke-miterlimit="8" fill-rule="evenodd"/><path d="M700.5 228C700.5 225.515 702.515 223.5 705 223.5 707.485 223.5 709.5 225.515 709.5 228 709.5 230.485 707.485 232.5 705 232.5 702.515 232.5 700.5 230.485 700.5 228Z" stroke="#000000" stroke-width="1.33333" stroke-miterlimit="8" fill-rule="evenodd"/><path d="M714.5 228C714.5 225.515 716.515 223.5 719 223.5 721.485 223.5 723.5 225.515 723.5 228 723.5 230.485 721.485 232.5 719 232.5 716.515 232.5 714.5 230.485 714.5 228Z" stroke="#000000" stroke-width="1.33333" stroke-miterlimit="8" fill-rule="evenodd"/><path d="M727.5 240C727.5 237.515 729.515 235.5 732 235.5 734.485 235.5 736.5 237.515 736.5 240 736.5 242.485 734.485 244.5 732 244.5 729.515 244.5 727.5 242.485 727.5 240Z" stroke="#000000" stroke-width="1.33333" stroke-miterlimit="8" fill-rule="evenodd"/><path d="M714.5 240C714.5 237.515 716.515 235.5 719 235.5 721.485 235.5 723.5 237.515 723.5 240 723.5 242.485 721.485 244.5 719 244.5 716.515 244.5 714.5 242.485 714.5 240Z" stroke="#000000" stroke-width="1.33333" stroke-miterlimit="8" fill-rule="evenodd"/><path d="M727.5 228C727.5 225.515 729.515 223.5 732 223.5 734.485 223.5 736.5 225.515 736.5 228 736.5 230.485 734.485 232.5 732 232.5 729.515 232.5 727.5 230.485 727.5 228Z" stroke="#000000" stroke-width="1.33333" stroke-miterlimit="8" fill-rule="evenodd"/><path d="M688.5 252C688.5 249.515 690.515 247.5 693 247.5 695.485 247.5 697.5 249.515 697.5 252 697.5 254.485 695.485 256.5 693 256.5 690.515 256.5 688.5 254.485 688.5 252Z" stroke="#000000" stroke-width="1.33333" stroke-miterlimit="8" fill-rule="evenodd"/><path d="M700.5 263.5C700.5 261.291 702.515 259.5 705 259.5 707.485 259.5 709.5 261.291 709.5 263.5 709.5 265.709 707.485 267.5 705 267.5 702.515 267.5 700.5 265.709 700.5 263.5Z" stroke="#000000" stroke-width="1.33333" stroke-miterlimit="8" fill-rule="evenodd"/><path d="M688.5 263.5C688.5 261.291 690.515 259.5 693 259.5 695.485 259.5 697.5 261.291 697.5 263.5 697.5 265.709 695.485 267.5 693 267.5 690.515 267.5 688.5 265.709 688.5 263.5Z" stroke="#000000" stroke-width="1.33333" stroke-miterlimit="8" fill-rule="evenodd"/><path d="M700.5 252C700.5 249.515 702.515 247.5 705 247.5 707.485 247.5 709.5 249.515 709.5 252 709.5 254.485 707.485 256.5 705 256.5 702.515 256.5 700.5 254.485 700.5 252Z" stroke="#000000" stroke-width="1.33333" stroke-miterlimit="8" fill-rule="evenodd"/><path d="M714.5 252C714.5 249.515 716.515 247.5 719 247.5 721.485 247.5 723.5 249.515 723.5 252 723.5 254.485 721.485 256.5 719 256.5 716.515 256.5 714.5 254.485 714.5 252Z" stroke="#000000" stroke-width="1.33333" stroke-miterlimit="8" fill-rule="evenodd"/><path d="M727.5 263.5C727.5 261.291 729.515 259.5 732 259.5 734.485 259.5 736.5 261.291 736.5 263.5 736.5 265.709 734.485 267.5 732 267.5 729.515 267.5 727.5 265.709 727.5 263.5Z" stroke="#000000" stroke-width="1.33333" stroke-miterlimit="8" fill-rule="evenodd"/><path d="M714.5 263.5C714.5 261.291 716.515 259.5 719 259.5 721.485 259.5 723.5 261.291 723.5 263.5 723.5 265.709 721.485 267.5 719 267.5 716.515 267.5 714.5 265.709 714.5 263.5Z" stroke="#000000" stroke-width="1.33333" stroke-miterlimit="8" fill-rule="evenodd"/><path d="M727.5 252C727.5 249.515 729.515 247.5 732 247.5 734.485 247.5 736.5 249.515 736.5 252 736.5 254.485 734.485 256.5 732 256.5 729.515 256.5 727.5 254.485 727.5 252Z" stroke="#000000" stroke-width="1.33333" stroke-miterlimit="8" fill-rule="evenodd"/><path d="M688.5 275.5C688.5 273.291 690.515 271.5 693 271.5 695.485 271.5 697.5 273.291 697.5 275.5 697.5 277.709 695.485 279.5 693 279.5 690.515 279.5 688.5 277.709 688.5 275.5Z" stroke="#000000" stroke-width="1.33333" stroke-miterlimit="8" fill-rule="evenodd"/><path d="M700.5 275.5C700.5 273.291 702.515 271.5 705 271.5 707.485 271.5 709.5 273.291 709.5 275.5 709.5 277.709 707.485 279.5 705 279.5 702.515 279.5 700.5 277.709 700.5 275.5Z" stroke="#000000" stroke-width="1.33333" stroke-miterlimit="8" fill-rule="evenodd"/><path d="M714.5 275.5C714.5 273.291 716.515 271.5 719 271.5 721.485 271.5 723.5 273.291 723.5 275.5 723.5 277.709 721.485 279.5 719 279.5 716.515 279.5 714.5 277.709 714.5 275.5Z" stroke="#000000" stroke-width="1.33333" stroke-miterlimit="8" fill-rule="evenodd"/><path d="M726.5 275.5C726.5 273.291 728.515 271.5 731 271.5 733.485 271.5 735.5 273.291 735.5 275.5 735.5 277.709 733.485 279.5 731 279.5 728.515 279.5 726.5 277.709 726.5 275.5Z" stroke="#000000" stroke-width="1.33333" stroke-miterlimit="8" fill-rule="evenodd"/><rect x="672.5" y="136.5" width="80" height="159" stroke="#000000" stroke-width="1.33333" stroke-miterlimit="8" fill="none"/><text font-family="Calibri,Calibri_MSFontService,sans-serif" font-weight="700" font-size="21" transform="translate(685.026 164)">PL</text><path d="M789.5 179.5C789.5 177.291 791.515 175.5 794 175.5 796.485 175.5 798.5 177.291 798.5 179.5 798.5 181.709 796.485 183.5 794 183.5 791.515 183.5 789.5 181.709 789.5 179.5Z" stroke="#000000" stroke-width="1.33333" stroke-miterlimit="8" fill-rule="evenodd"/><path d="M801.5 191.5C801.5 189.291 803.515 187.5 806 187.5 808.485 187.5 810.5 189.291 810.5 191.5 810.5 193.709 808.485 195.5 806 195.5 803.515 195.5 801.5 193.709 801.5 191.5Z" stroke="#000000" stroke-width="1.33333" stroke-miterlimit="8" fill-rule="evenodd"/><path d="M789.5 191.5C789.5 189.291 791.515 187.5 794 187.5 796.485 187.5 798.5 189.291 798.5 191.5 798.5 193.709 796.485 195.5 794 195.5 791.515 195.5 789.5 193.709 789.5 191.5Z" stroke="#000000" stroke-width="1.33333" stroke-miterlimit="8" fill-rule="evenodd"/><path d="M801.5 179.5C801.5 177.291 803.515 175.5 806 175.5 808.485 175.5 810.5 177.291 810.5 179.5 810.5 181.709 808.485 183.5 806 183.5 803.515 183.5 801.5 181.709 801.5 179.5Z" stroke="#000000" stroke-width="1.33333" stroke-miterlimit="8" fill-rule="evenodd"/><path d="M816.5 179.5C816.5 177.291 818.515 175.5 821 175.5 823.485 175.5 825.5 177.291 825.5 179.5 825.5 181.709 823.485 183.5 821 183.5 818.515 183.5 816.5 181.709 816.5 179.5Z" stroke="#000000" stroke-width="1.33333" stroke-miterlimit="8" fill-rule="evenodd"/><path d="M828.5 191.5C828.5 189.291 830.515 187.5 833 187.5 835.485 187.5 837.5 189.291 837.5 191.5 837.5 193.709 835.485 195.5 833 195.5 830.515 195.5 828.5 193.709 828.5 191.5Z" stroke="#000000" stroke-width="1.33333" stroke-miterlimit="8" fill-rule="evenodd"/><path d="M815.5 191.5C815.5 189.291 817.515 187.5 820 187.5 822.485 187.5 824.5 189.291 824.5 191.5 824.5 193.709 822.485 195.5 820 195.5 817.515 195.5 815.5 193.709 815.5 191.5Z" stroke="#000000" stroke-width="1.33333" stroke-miterlimit="8" fill-rule="evenodd"/><path d="M828.5 179.5C828.5 177.291 830.515 175.5 833 175.5 835.485 175.5 837.5 177.291 837.5 179.5 837.5 181.709 835.485 183.5 833 183.5 830.515 183.5 828.5 181.709 828.5 179.5Z" stroke="#000000" stroke-width="1.33333" stroke-miterlimit="8" fill-rule="evenodd"/><path d="M789.5 203.5C789.5 201.291 791.515 199.5 794 199.5 796.485 199.5 798.5 201.291 798.5 203.5 798.5 205.709 796.485 207.5 794 207.5 791.515 207.5 789.5 205.709 789.5 203.5Z" stroke="#000000" stroke-width="1.33333" stroke-miterlimit="8" fill-rule="evenodd"/><path d="M801.5 215.5C801.5 213.291 803.515 211.5 806 211.5 808.485 211.5 810.5 213.291 810.5 215.5 810.5 217.709 808.485 219.5 806 219.5 803.515 219.5 801.5 217.709 801.5 215.5Z" stroke="#000000" stroke-width="1.33333" stroke-miterlimit="8" fill-rule="evenodd"/><path d="M789.5 215.5C789.5 213.291 791.515 211.5 794 211.5 796.485 211.5 798.5 213.291 798.5 215.5 798.5 217.709 796.485 219.5 794 219.5 791.515 219.5 789.5 217.709 789.5 215.5Z" stroke="#000000" stroke-width="1.33333" stroke-miterlimit="8" fill-rule="evenodd"/><path d="M801.5 203.5C801.5 201.291 803.515 199.5 806 199.5 808.485 199.5 810.5 201.291 810.5 203.5 810.5 205.709 808.485 207.5 806 207.5 803.515 207.5 801.5 205.709 801.5 203.5Z" stroke="#000000" stroke-width="1.33333" stroke-miterlimit="8" fill-rule="evenodd"/><path d="M816.5 203.5C816.5 201.291 818.515 199.5 821 199.5 823.485 199.5 825.5 201.291 825.5 203.5 825.5 205.709 823.485 207.5 821 207.5 818.515 207.5 816.5 205.709 816.5 203.5Z" stroke="#000000" stroke-width="1.33333" stroke-miterlimit="8" fill-rule="evenodd"/><path d="M828.5 215.5C828.5 213.291 830.515 211.5 833 211.5 835.485 211.5 837.5 213.291 837.5 215.5 837.5 217.709 835.485 219.5 833 219.5 830.515 219.5 828.5 217.709 828.5 215.5Z" stroke="#000000" stroke-width="1.33333" stroke-miterlimit="8" fill-rule="evenodd"/><path d="M815.5 215.5C815.5 213.291 817.515 211.5 820 211.5 822.485 211.5 824.5 213.291 824.5 215.5 824.5 217.709 822.485 219.5 820 219.5 817.515 219.5 815.5 217.709 815.5 215.5Z" stroke="#000000" stroke-width="1.33333" stroke-miterlimit="8" fill-rule="evenodd"/><path d="M828.5 203.5C828.5 201.291 830.515 199.5 833 199.5 835.485 199.5 837.5 201.291 837.5 203.5 837.5 205.709 835.485 207.5 833 207.5 830.515 207.5 828.5 205.709 828.5 203.5Z" stroke="#000000" stroke-width="1.33333" stroke-miterlimit="8" fill-rule="evenodd"/><path d="M789.5 228C789.5 225.515 791.515 223.5 794 223.5 796.485 223.5 798.5 225.515 798.5 228 798.5 230.485 796.485 232.5 794 232.5 791.515 232.5 789.5 230.485 789.5 228Z" stroke="#000000" stroke-width="1.33333" stroke-miterlimit="8" fill-rule="evenodd"/><path d="M801.5 239.5C801.5 237.291 803.515 235.5 806 235.5 808.485 235.5 810.5 237.291 810.5 239.5 810.5 241.709 808.485 243.5 806 243.5 803.515 243.5 801.5 241.709 801.5 239.5Z" stroke="#000000" stroke-width="1.33333" stroke-miterlimit="8" fill-rule="evenodd"/><path d="M789.5 239.5C789.5 237.291 791.515 235.5 794 235.5 796.485 235.5 798.5 237.291 798.5 239.5 798.5 241.709 796.485 243.5 794 243.5 791.515 243.5 789.5 241.709 789.5 239.5Z" stroke="#000000" stroke-width="1.33333" stroke-miterlimit="8" fill-rule="evenodd"/><path d="M801.5 228C801.5 225.515 803.515 223.5 806 223.5 808.485 223.5 810.5 225.515 810.5 228 810.5 230.485 808.485 232.5 806 232.5 803.515 232.5 801.5 230.485 801.5 228Z" stroke="#000000" stroke-width="1.33333" stroke-miterlimit="8" fill-rule="evenodd"/><path d="M815.5 228C815.5 225.515 817.515 223.5 820 223.5 822.485 223.5 824.5 225.515 824.5 228 824.5 230.485 822.485 232.5 820 232.5 817.515 232.5 815.5 230.485 815.5 228Z" stroke="#000000" stroke-width="1.33333" stroke-miterlimit="8" fill-rule="evenodd"/><path d="M827.5 239.5C827.5 237.291 829.515 235.5 832 235.5 834.485 235.5 836.5 237.291 836.5 239.5 836.5 241.709 834.485 243.5 832 243.5 829.515 243.5 827.5 241.709 827.5 239.5Z" stroke="#000000" stroke-width="1.33333" stroke-miterlimit="8" fill-rule="evenodd"/><path d="M815.5 239.5C815.5 237.291 817.515 235.5 820 235.5 822.485 235.5 824.5 237.291 824.5 239.5 824.5 241.709 822.485 243.5 820 243.5 817.515 243.5 815.5 241.709 815.5 239.5Z" stroke="#000000" stroke-width="1.33333" stroke-miterlimit="8" fill-rule="evenodd"/><path d="M827.5 228C827.5 225.515 829.515 223.5 832 223.5 834.485 223.5 836.5 225.515 836.5 228 836.5 230.485 834.485 232.5 832 232.5 829.515 232.5 827.5 230.485 827.5 228Z" stroke="#000000" stroke-width="1.33333" stroke-miterlimit="8" fill-rule="evenodd"/><path d="M789.5 251.5C789.5 249.291 791.515 247.5 794 247.5 796.485 247.5 798.5 249.291 798.5 251.5 798.5 253.709 796.485 255.5 794 255.5 791.515 255.5 789.5 253.709 789.5 251.5Z" stroke="#000000" stroke-width="1.33333" stroke-miterlimit="8" fill-rule="evenodd"/><path d="M801.5 263.5C801.5 261.291 803.515 259.5 806 259.5 808.485 259.5 810.5 261.291 810.5 263.5 810.5 265.709 808.485 267.5 806 267.5 803.515 267.5 801.5 265.709 801.5 263.5Z" stroke="#000000" stroke-width="1.33333" stroke-miterlimit="8" fill-rule="evenodd"/><path d="M789.5 263.5C789.5 261.291 791.515 259.5 794 259.5 796.485 259.5 798.5 261.291 798.5 263.5 798.5 265.709 796.485 267.5 794 267.5 791.515 267.5 789.5 265.709 789.5 263.5Z" stroke="#000000" stroke-width="1.33333" stroke-miterlimit="8" fill-rule="evenodd"/><path d="M801.5 251.5C801.5 249.291 803.515 247.5 806 247.5 808.485 247.5 810.5 249.291 810.5 251.5 810.5 253.709 808.485 255.5 806 255.5 803.515 255.5 801.5 253.709 801.5 251.5Z" stroke="#000000" stroke-width="1.33333" stroke-miterlimit="8" fill-rule="evenodd"/><path d="M815.5 251.5C815.5 249.291 817.515 247.5 820 247.5 822.485 247.5 824.5 249.291 824.5 251.5 824.5 253.709 822.485 255.5 820 255.5 817.515 255.5 815.5 253.709 815.5 251.5Z" stroke="#000000" stroke-width="1.33333" stroke-miterlimit="8" fill-rule="evenodd"/><path d="M827.5 263.5C827.5 261.291 829.515 259.5 832 259.5 834.485 259.5 836.5 261.291 836.5 263.5 836.5 265.709 834.485 267.5 832 267.5 829.515 267.5 827.5 265.709 827.5 263.5Z" stroke="#000000" stroke-width="1.33333" stroke-miterlimit="8" fill-rule="evenodd"/><path d="M815.5 263.5C815.5 261.291 817.515 259.5 820 259.5 822.485 259.5 824.5 261.291 824.5 263.5 824.5 265.709 822.485 267.5 820 267.5 817.515 267.5 815.5 265.709 815.5 263.5Z" stroke="#000000" stroke-width="1.33333" stroke-miterlimit="8" fill-rule="evenodd"/><path d="M827.5 251.5C827.5 249.291 829.515 247.5 832 247.5 834.485 247.5 836.5 249.291 836.5 251.5 836.5 253.709 834.485 255.5 832 255.5 829.515 255.5 827.5 253.709 827.5 251.5Z" stroke="#000000" stroke-width="1.33333" stroke-miterlimit="8" fill-rule="evenodd"/><path d="M788.5 275.5C788.5 273.291 790.515 271.5 793 271.5 795.485 271.5 797.5 273.291 797.5 275.5 797.5 277.709 795.485 279.5 793 279.5 790.515 279.5 788.5 277.709 788.5 275.5Z" stroke="#000000" stroke-width="1.33333" stroke-miterlimit="8" fill-rule="evenodd"/><path d="M801.5 275.5C801.5 273.291 803.515 271.5 806 271.5 808.485 271.5 810.5 273.291 810.5 275.5 810.5 277.709 808.485 279.5 806 279.5 803.515 279.5 801.5 277.709 801.5 275.5Z" stroke="#000000" stroke-width="1.33333" stroke-miterlimit="8" fill-rule="evenodd"/><path d="M815.5 275.5C815.5 273.291 817.515 271.5 820 271.5 822.485 271.5 824.5 273.291 824.5 275.5 824.5 277.709 822.485 279.5 820 279.5 817.515 279.5 815.5 277.709 815.5 275.5Z" stroke="#000000" stroke-width="1.33333" stroke-miterlimit="8" fill-rule="evenodd"/><path d="M827.5 275.5C827.5 273.291 829.515 271.5 832 271.5 834.485 271.5 836.5 273.291 836.5 275.5 836.5 277.709 834.485 279.5 832 279.5 829.515 279.5 827.5 277.709 827.5 275.5Z" stroke="#000000" stroke-width="1.33333" stroke-miterlimit="8" fill-rule="evenodd"/><rect x="773.5" y="136.5" width="79" height="159" stroke="#000000" stroke-width="1.33333" stroke-miterlimit="8" fill="none"/><text font-family="Calibri,Calibri_MSFontService,sans-serif" font-weight="700" font-size="21" transform="translate(785.732 164)">PL</text><path d="M890.5 180.5C890.5 178.291 892.515 176.5 895 176.5 897.485 176.5 899.5 178.291 899.5 180.5 899.5 182.709 897.485 184.5 895 184.5 892.515 184.5 890.5 182.709 890.5 180.5Z" stroke="#000000" stroke-width="1.33333" stroke-miterlimit="8" fill-rule="evenodd"/><path d="M902.5 192.5C902.5 190.291 904.515 188.5 907 188.5 909.485 188.5 911.5 190.291 911.5 192.5 911.5 194.709 909.485 196.5 907 196.5 904.515 196.5 902.5 194.709 902.5 192.5Z" stroke="#000000" stroke-width="1.33333" stroke-miterlimit="8" fill-rule="evenodd"/><path d="M890.5 192.5C890.5 190.291 892.515 188.5 895 188.5 897.485 188.5 899.5 190.291 899.5 192.5 899.5 194.709 897.485 196.5 895 196.5 892.515 196.5 890.5 194.709 890.5 192.5Z" stroke="#000000" stroke-width="1.33333" stroke-miterlimit="8" fill-rule="evenodd"/><path d="M902.5 180.5C902.5 178.291 904.515 176.5 907 176.5 909.485 176.5 911.5 178.291 911.5 180.5 911.5 182.709 909.485 184.5 907 184.5 904.515 184.5 902.5 182.709 902.5 180.5Z" stroke="#000000" stroke-width="1.33333" stroke-miterlimit="8" fill-rule="evenodd"/><path d="M916.5 180.5C916.5 178.291 918.515 176.5 921 176.5 923.485 176.5 925.5 178.291 925.5 180.5 925.5 182.709 923.485 184.5 921 184.5 918.515 184.5 916.5 182.709 916.5 180.5Z" stroke="#000000" stroke-width="1.33333" stroke-miterlimit="8" fill-rule="evenodd"/><path d="M929.5 192.5C929.5 190.291 931.515 188.5 934 188.5 936.485 188.5 938.5 190.291 938.5 192.5 938.5 194.709 936.485 196.5 934 196.5 931.515 196.5 929.5 194.709 929.5 192.5Z" stroke="#000000" stroke-width="1.33333" stroke-miterlimit="8" fill-rule="evenodd"/><path d="M916.5 192.5C916.5 190.291 918.515 188.5 921 188.5 923.485 188.5 925.5 190.291 925.5 192.5 925.5 194.709 923.485 196.5 921 196.5 918.515 196.5 916.5 194.709 916.5 192.5Z" stroke="#000000" stroke-width="1.33333" stroke-miterlimit="8" fill-rule="evenodd"/><path d="M929.5 180.5C929.5 178.291 931.515 176.5 934 176.5 936.485 176.5 938.5 178.291 938.5 180.5 938.5 182.709 936.485 184.5 934 184.5 931.515 184.5 929.5 182.709 929.5 180.5Z" stroke="#000000" stroke-width="1.33333" stroke-miterlimit="8" fill-rule="evenodd"/><path d="M890.5 204C890.5 201.515 892.515 199.5 895 199.5 897.485 199.5 899.5 201.515 899.5 204 899.5 206.485 897.485 208.5 895 208.5 892.515 208.5 890.5 206.485 890.5 204Z" stroke="#000000" stroke-width="1.33333" stroke-miterlimit="8" fill-rule="evenodd"/><path d="M902.5 216C902.5 213.515 904.515 211.5 907 211.5 909.485 211.5 911.5 213.515 911.5 216 911.5 218.485 909.485 220.5 907 220.5 904.515 220.5 902.5 218.485 902.5 216Z" stroke="#000000" stroke-width="1.33333" stroke-miterlimit="8" fill-rule="evenodd"/><path d="M890.5 216C890.5 213.515 892.515 211.5 895 211.5 897.485 211.5 899.5 213.515 899.5 216 899.5 218.485 897.485 220.5 895 220.5 892.515 220.5 890.5 218.485 890.5 216Z" stroke="#000000" stroke-width="1.33333" stroke-miterlimit="8" fill-rule="evenodd"/><path d="M902.5 204C902.5 201.515 904.515 199.5 907 199.5 909.485 199.5 911.5 201.515 911.5 204 911.5 206.485 909.485 208.5 907 208.5 904.515 208.5 902.5 206.485 902.5 204Z" stroke="#000000" stroke-width="1.33333" stroke-miterlimit="8" fill-rule="evenodd"/><path d="M916.5 204C916.5 201.515 918.515 199.5 921 199.5 923.485 199.5 925.5 201.515 925.5 204 925.5 206.485 923.485 208.5 921 208.5 918.515 208.5 916.5 206.485 916.5 204Z" stroke="#000000" stroke-width="1.33333" stroke-miterlimit="8" fill-rule="evenodd"/><path d="M929.5 216C929.5 213.515 931.515 211.5 934 211.5 936.485 211.5 938.5 213.515 938.5 216 938.5 218.485 936.485 220.5 934 220.5 931.515 220.5 929.5 218.485 929.5 216Z" stroke="#000000" stroke-width="1.33333" stroke-miterlimit="8" fill-rule="evenodd"/><path d="M916.5 216C916.5 213.515 918.515 211.5 921 211.5 923.485 211.5 925.5 213.515 925.5 216 925.5 218.485 923.485 220.5 921 220.5 918.515 220.5 916.5 218.485 916.5 216Z" stroke="#000000" stroke-width="1.33333" stroke-miterlimit="8" fill-rule="evenodd"/><path d="M929.5 204C929.5 201.515 931.515 199.5 934 199.5 936.485 199.5 938.5 201.515 938.5 204 938.5 206.485 936.485 208.5 934 208.5 931.515 208.5 929.5 206.485 929.5 204Z" stroke="#000000" stroke-width="1.33333" stroke-miterlimit="8" fill-rule="evenodd"/><path d="M889.5 228.5C889.5 226.291 891.515 224.5 894 224.5 896.485 224.5 898.5 226.291 898.5 228.5 898.5 230.709 896.485 232.5 894 232.5 891.515 232.5 889.5 230.709 889.5 228.5Z" stroke="#000000" stroke-width="1.33333" stroke-miterlimit="8" fill-rule="evenodd"/><path d="M902.5 240.5C902.5 238.291 904.515 236.5 907 236.5 909.485 236.5 911.5 238.291 911.5 240.5 911.5 242.709 909.485 244.5 907 244.5 904.515 244.5 902.5 242.709 902.5 240.5Z" stroke="#000000" stroke-width="1.33333" stroke-miterlimit="8" fill-rule="evenodd"/><path d="M889.5 240.5C889.5 238.291 891.515 236.5 894 236.5 896.485 236.5 898.5 238.291 898.5 240.5 898.5 242.709 896.485 244.5 894 244.5 891.515 244.5 889.5 242.709 889.5 240.5Z" stroke="#000000" stroke-width="1.33333" stroke-miterlimit="8" fill-rule="evenodd"/><path d="M902.5 228.5C902.5 226.291 904.515 224.5 907 224.5 909.485 224.5 911.5 226.291 911.5 228.5 911.5 230.709 909.485 232.5 907 232.5 904.515 232.5 902.5 230.709 902.5 228.5Z" stroke="#000000" stroke-width="1.33333" stroke-miterlimit="8" fill-rule="evenodd"/><path d="M916.5 228.5C916.5 226.291 918.515 224.5 921 224.5 923.485 224.5 925.5 226.291 925.5 228.5 925.5 230.709 923.485 232.5 921 232.5 918.515 232.5 916.5 230.709 916.5 228.5Z" stroke="#000000" stroke-width="1.33333" stroke-miterlimit="8" fill-rule="evenodd"/><path d="M928.5 240.5C928.5 238.291 930.515 236.5 933 236.5 935.485 236.5 937.5 238.291 937.5 240.5 937.5 242.709 935.485 244.5 933 244.5 930.515 244.5 928.5 242.709 928.5 240.5Z" stroke="#000000" stroke-width="1.33333" stroke-miterlimit="8" fill-rule="evenodd"/><path d="M916.5 240.5C916.5 238.291 918.515 236.5 921 236.5 923.485 236.5 925.5 238.291 925.5 240.5 925.5 242.709 923.485 244.5 921 244.5 918.515 244.5 916.5 242.709 916.5 240.5Z" stroke="#000000" stroke-width="1.33333" stroke-miterlimit="8" fill-rule="evenodd"/><path d="M928.5 228.5C928.5 226.291 930.515 224.5 933 224.5 935.485 224.5 937.5 226.291 937.5 228.5 937.5 230.709 935.485 232.5 933 232.5 930.515 232.5 928.5 230.709 928.5 228.5Z" stroke="#000000" stroke-width="1.33333" stroke-miterlimit="8" fill-rule="evenodd"/><path d="M889.5 252.5C889.5 250.291 891.515 248.5 894 248.5 896.485 248.5 898.5 250.291 898.5 252.5 898.5 254.709 896.485 256.5 894 256.5 891.515 256.5 889.5 254.709 889.5 252.5Z" stroke="#000000" stroke-width="1.33333" stroke-miterlimit="8" fill-rule="evenodd"/><path d="M902.5 264.5C902.5 262.291 904.515 260.5 907 260.5 909.485 260.5 911.5 262.291 911.5 264.5 911.5 266.709 909.485 268.5 907 268.5 904.515 268.5 902.5 266.709 902.5 264.5Z" stroke="#000000" stroke-width="1.33333" stroke-miterlimit="8" fill-rule="evenodd"/><path d="M889.5 264.5C889.5 262.291 891.515 260.5 894 260.5 896.485 260.5 898.5 262.291 898.5 264.5 898.5 266.709 896.485 268.5 894 268.5 891.515 268.5 889.5 266.709 889.5 264.5Z" stroke="#000000" stroke-width="1.33333" stroke-miterlimit="8" fill-rule="evenodd"/><path d="M902.5 252.5C902.5 250.291 904.515 248.5 907 248.5 909.485 248.5 911.5 250.291 911.5 252.5 911.5 254.709 909.485 256.5 907 256.5 904.515 256.5 902.5 254.709 902.5 252.5Z" stroke="#000000" stroke-width="1.33333" stroke-miterlimit="8" fill-rule="evenodd"/><path d="M916.5 252.5C916.5 250.291 918.515 248.5 921 248.5 923.485 248.5 925.5 250.291 925.5 252.5 925.5 254.709 923.485 256.5 921 256.5 918.515 256.5 916.5 254.709 916.5 252.5Z" stroke="#000000" stroke-width="1.33333" stroke-miterlimit="8" fill-rule="evenodd"/><path d="M928.5 264.5C928.5 262.291 930.515 260.5 933 260.5 935.485 260.5 937.5 262.291 937.5 264.5 937.5 266.709 935.485 268.5 933 268.5 930.515 268.5 928.5 266.709 928.5 264.5Z" stroke="#000000" stroke-width="1.33333" stroke-miterlimit="8" fill-rule="evenodd"/><path d="M916.5 264.5C916.5 262.291 918.515 260.5 921 260.5 923.485 260.5 925.5 262.291 925.5 264.5 925.5 266.709 923.485 268.5 921 268.5 918.515 268.5 916.5 266.709 916.5 264.5Z" stroke="#000000" stroke-width="1.33333" stroke-miterlimit="8" fill-rule="evenodd"/><path d="M928.5 252.5C928.5 250.291 930.515 248.5 933 248.5 935.485 248.5 937.5 250.291 937.5 252.5 937.5 254.709 935.485 256.5 933 256.5 930.515 256.5 928.5 254.709 928.5 252.5Z" stroke="#000000" stroke-width="1.33333" stroke-miterlimit="8" fill-rule="evenodd"/><path d="M889.5 276C889.5 273.515 891.515 271.5 894 271.5 896.485 271.5 898.5 273.515 898.5 276 898.5 278.485 896.485 280.5 894 280.5 891.515 280.5 889.5 278.485 889.5 276Z" stroke="#000000" stroke-width="1.33333" stroke-miterlimit="8" fill-rule="evenodd"/><path d="M901.5 276C901.5 273.515 903.515 271.5 906 271.5 908.485 271.5 910.5 273.515 910.5 276 910.5 278.485 908.485 280.5 906 280.5 903.515 280.5 901.5 278.485 901.5 276Z" stroke="#000000" stroke-width="1.33333" stroke-miterlimit="8" fill-rule="evenodd"/><path d="M915.5 276C915.5 273.515 917.515 271.5 920 271.5 922.485 271.5 924.5 273.515 924.5 276 924.5 278.485 922.485 280.5 920 280.5 917.515 280.5 915.5 278.485 915.5 276Z" stroke="#000000" stroke-width="1.33333" stroke-miterlimit="8" fill-rule="evenodd"/><path d="M928.5 276C928.5 273.515 930.515 271.5 933 271.5 935.485 271.5 937.5 273.515 937.5 276 937.5 278.485 935.485 280.5 933 280.5 930.515 280.5 928.5 278.485 928.5 276Z" stroke="#000000" stroke-width="1.33333" stroke-miterlimit="8" fill-rule="evenodd"/><rect x="873.5" y="137.5" width="80" height="159" stroke="#000000" stroke-width="1.33333" stroke-miterlimit="8" fill="none"/><text font-family="Calibri,Calibri_MSFontService,sans-serif" font-weight="700" font-size="21" transform="translate(886.439 165)">PL<tspan font-family="Cambria Math,Cambria Math_MSFontService,sans-serif" font-weight="400" font-size="24" x="-309.42" y="167">ğ´</tspan><tspan font-family="Cambria Math,Cambria Math_MSFontService,sans-serif" font-weight="400" font-size="18" x="-294.254" y="171">0</tspan><tspan font-family="Cambria Math,Cambria Math_MSFontService,sans-serif" font-weight="400" font-size="18" x="-284.087" y="171">,</tspan><tspan font-family="Cambria Math,Cambria Math_MSFontService,sans-serif" font-weight="400" font-size="18" x="-280.42" y="171">0</tspan><tspan font-family="Cambria Math,Cambria Math_MSFontService,sans-serif" font-weight="400" font-size="24" x="-208.16" y="166">ğ´</tspan><tspan font-family="Cambria Math,Cambria Math_MSFontService,sans-serif" font-weight="400" font-size="18" x="-192.993" y="171">0</tspan><tspan font-family="Cambria Math,Cambria Math_MSFontService,sans-serif" font-weight="400" font-size="18" x="-182.827" y="171">,</tspan><tspan font-family="Cambria Math,Cambria Math_MSFontService,sans-serif" font-weight="400" font-size="18" x="-179.16" y="171">1</tspan><tspan font-family="Cambria Math,Cambria Math_MSFontService,sans-serif" font-weight="400" font-size="24" x="-107.454" y="165">ğ´</tspan><tspan font-family="Cambria Math,Cambria Math_MSFontService,sans-serif" font-weight="400" font-size="18" x="-92.2872" y="170">0</tspan><tspan font-family="Cambria Math,Cambria Math_MSFontService,sans-serif" font-weight="400" font-size="18" x="-82.1205" y="170">,</tspan><tspan font-family="Cambria Math,Cambria Math_MSFontService,sans-serif" font-weight="400" font-size="18" x="-78.4539" y="170">2</tspan><tspan font-family="Cambria Math,Cambria Math_MSFontService,sans-serif" font-weight="400" font-size="24" x="-5.19653" y="166">ğµ</tspan></text><path d="M773.5 324.5C773.5 309.036 786.26 296.5 802 296.5 817.74 296.5 830.5 309.036 830.5 324.5 830.5 339.964 817.74 352.5 802 352.5 786.26 352.5 773.5 339.964 773.5 324.5Z" stroke="#FF0000" stroke-width="3" stroke-miterlimit="8" fill="none" fill-rule="evenodd"/><path d="M514.5 619C514.5 603.26 527.26 590.5 543 590.5 558.74 590.5 571.5 603.26 571.5 619 571.5 634.74 558.74 647.5 543 647.5 527.26 647.5 514.5 634.74 514.5 619Z" stroke="#FF0000" stroke-width="3" stroke-miterlimit="8" fill="none" fill-rule="evenodd"/><path d="M1.13649-0.978978 215.584 247.972 213.311 249.93-1.13649 0.978978ZM216.878 244.877 219.343 254.633 210.059 250.751Z" fill="#FF0000" transform="matrix(-1 0 0 1 781.843 344.5)"/><path d="M0.87177-1.22066 394.333 279.78 392.589 282.222-0.87177 1.22066ZM394.855 276.467 399.564 285.36 389.625 283.791Z" fill="#FF0000" transform="matrix(-1 0 0 1 591.064 346.5)"/><path d="M0.586114-1.38075 303.835 127.345 302.662 130.107-0.586114 1.38075ZM303.626 123.997 310.152 131.656 300.109 132.282Z" fill="#FF0000" transform="matrix(-1 0 0 1 691.652 343.5)"/></g></svg>