<svg width="1280" height="720" xmlns="http://www.w3.org/2000/svg" xmlns:xlink="http://www.w3.org/1999/xlink" overflow="hidden"><defs><clipPath id="clip0"><rect x="0" y="0" width="1280" height="720"/></clipPath><radialGradient cx="547688" cy="547688" r="774547" fx="547688" fy="547688" gradientUnits="userSpaceOnUse" spreadMethod="pad" id="fill1" gradientTransform="matrix(0.000104987 0 0 0.000104987 767 593)"><stop offset="0" stop-color="#BEDCAA"/><stop offset="0.37" stop-color="#D4E8C6"/><stop offset="0.66" stop-color="#FFFFFF" stop-opacity="0"/><stop offset="1" stop-color="#FFFFFF" stop-opacity="0"/></radialGradient><radialGradient cx="800100" cy="800100" r="1131512" gradientUnits="userSpaceOnUse" spreadMethod="pad" id="fill2" gradientTransform="matrix(0.000104987 0 0 0.000104987 618 529)"><stop offset="0" stop-color="#BEDCAA"/><stop offset="0.37" stop-color="#D4E8C6"/><stop offset="0.66" stop-color="#FFFFFF" stop-opacity="0"/><stop offset="1" stop-color="#FFFFFF" stop-opacity="0"/></radialGradient><radialGradient cx="395288" cy="400050" r="562399" gradientUnits="userSpaceOnUse" spreadMethod="pad" id="fill3" gradientTransform="matrix(0.000104987 0 0 0.000104987 301 514)"><stop offset="0" stop-color="#BEDCAA"/><stop offset="0.36" stop-color="#D4E8C6"/><stop offset="0.68" stop-color="#FFFFFF" stop-opacity="0"/><stop offset="1" stop-color="#FFFFFF" stop-opacity="0"/></radialGradient><radialGradient cx="395288" cy="395288" r="559021" gradientUnits="userSpaceOnUse" spreadMethod="pad" id="fill4" gradientTransform="matrix(0.000104987 0 0 0.000104987 181 425)"><stop offset="0" stop-color="#BEDCAA"/><stop offset="0.36" stop-color="#D4E8C6"/><stop offset="0.68" stop-color="#FFFFFF" stop-opacity="0"/><stop offset="1" stop-color="#FFFFFF" stop-opacity="0"/></radialGradient><radialGradient cx="2667000" cy="2667000" r="3771708" gradientUnits="userSpaceOnUse" spreadMethod="pad" id="fill5" gradientTransform="matrix(0.000104987 0 0 0.000104987 15 271)"><stop offset="0" stop-color="#BEDCAA"/><stop offset="0.37" stop-color="#D4E8C6"/><stop offset="0.66" stop-color="#FFFFFF" stop-opacity="0"/><stop offset="1" stop-color="#FFFFFF" stop-opacity="0"/></radialGradient><radialGradient cx="395288" cy="400050" r="562399" gradientUnits="userSpaceOnUse" spreadMethod="pad" id="fill6" gradientTransform="matrix(0.000104987 0 0 0.000104987 377 642)"><stop offset="0" stop-color="#BEDCAA"/><stop offset="0.36" stop-color="#D4E8C6"/><stop offset="0.68" stop-color="#FFFFFF" stop-opacity="0"/><stop offset="1" stop-color="#FFFFFF" stop-opacity="0"/></radialGradient><radialGradient cx="1362075" cy="1362075" r="1926265" gradientUnits="userSpaceOnUse" spreadMethod="pad" id="fill7" gradientTransform="matrix(0.000104987 0 0 0.000104987 383 464)"><stop offset="0" stop-color="#BEDCAA"/><stop offset="0.37" stop-color="#D4E8C6"/><stop offset="0.66" stop-color="#FFFFFF" stop-opacity="0"/><stop offset="1" stop-color="#FFFFFF" stop-opacity="0"/></radialGradient></defs><g clip-path="url(#clip0)"><rect x="0" y="0" width="1280" height="720" fill="#FFFFFF"/><path d="M767 650.5C767 618.744 792.744 593 824.5 593 856.256 593 882 618.744 882 650.5 882 682.256 856.256 708 824.5 708 792.744 708 767 682.256 767 650.5Z" fill="url(#fill1)" fill-rule="evenodd"/><path d="M618 613C618 566.608 655.608 529 702 529 748.392 529 786 566.608 786 613 786 659.392 748.392 697 702 697 655.608 697 618 659.392 618 613Z" fill="url(#fill2)" fill-rule="evenodd"/><path d="M301 556C301 532.804 319.58 514 342.5 514 365.42 514 384 532.804 384 556 384 579.196 365.42 598 342.5 598 319.58 598 301 579.196 301 556Z" fill="url(#fill3)" fill-rule="evenodd"/><path d="M181 466.5C181 443.58 199.58 425 222.5 425 245.42 425 264 443.58 264 466.5 264 489.42 245.42 508 222.5 508 199.58 508 181 489.42 181 466.5Z" fill="url(#fill4)" fill-rule="evenodd"/><path d="M15 551C15 396.36 140.36 271 295 271 449.64 271 575 396.36 575 551 575 705.64 449.64 831 295 831 140.36 831 15 705.64 15 551Z" fill="url(#fill5)" fill-rule="evenodd"/><path d="M377 684C377 660.804 395.58 642 418.5 642 441.42 642 460 660.804 460 684 460 707.196 441.42 726 418.5 726 395.58 726 377 707.196 377 684Z" fill="url(#fill6)" fill-rule="evenodd"/><path d="M383 607C383 528.023 447.023 464 526 464 604.977 464 669 528.023 669 607 669 685.977 604.977 750 526 750 447.023 750 383 685.977 383 607Z" fill="url(#fill7)" fill-rule="evenodd"/><path d="M0.087626-0.32161 269.312 73.0314 269.136 73.6746-0.087626 0.32161ZM268.989 69.1432 275.656 75.1055 266.886 76.8618Z" transform="matrix(1 0 0 -1 553.5 616.606)"/><path d="M231.5 69.0001C231.5 62.6488 236.649 57.5001 243 57.5001 249.351 57.5001 254.5 62.6488 254.5 69.0001 254.5 75.3513 249.351 80.5001 243 80.5001 236.649 80.5001 231.5 75.3513 231.5 69.0001Z" stroke="#000000" stroke-width="3" stroke-miterlimit="8" fill="#FFFFFF" fill-rule="evenodd"/><path d="M138.5 502C138.5 495.649 143.425 490.5 149.5 490.5 155.575 490.5 160.5 495.649 160.5 502 160.5 508.351 155.575 513.5 149.5 513.5 143.425 513.5 138.5 508.351 138.5 502Z" stroke="#000000" stroke-width="3" stroke-miterlimit="8" fill="#FFFFFF" fill-rule="evenodd"/><path d="M249.5 147C249.5 140.649 254.649 135.5 261 135.5 267.351 135.5 272.5 140.649 272.5 147 272.5 153.351 267.351 158.5 261 158.5 254.649 158.5 249.5 153.351 249.5 147Z" stroke="#000000" stroke-width="3" stroke-miterlimit="8" fill="#FFFFFF" fill-rule="evenodd"/><path d="M281.5 502C281.5 495.649 286.649 490.5 293 490.5 299.351 490.5 304.5 495.649 304.5 502 304.5 508.351 299.351 513.5 293 513.5 286.649 513.5 281.5 508.351 281.5 502Z" stroke="#000000" stroke-width="3" stroke-miterlimit="8" fill="#FFFFFF" fill-rule="evenodd"/><path d="M186.5 550C186.5 543.649 191.425 538.5 197.5 538.5 203.575 538.5 208.5 543.649 208.5 550 208.5 556.351 203.575 561.5 197.5 561.5 191.425 561.5 186.5 556.351 186.5 550Z" stroke="#000000" stroke-width="3" stroke-miterlimit="8" fill="#FFFFFF" fill-rule="evenodd"/><path d="M404.5 685C404.5 678.649 409.649 673.5 416 673.5 422.351 673.5 427.5 678.649 427.5 685 427.5 691.351 422.351 696.5 416 696.5 409.649 696.5 404.5 691.351 404.5 685Z" stroke="#000000" stroke-width="3" stroke-miterlimit="8" fill="#FFFFFF" fill-rule="evenodd"/><path d="M218.5 582C218.5 575.649 223.425 570.5 229.5 570.5 235.575 570.5 240.5 575.649 240.5 582 240.5 588.351 235.575 593.5 229.5 593.5 223.425 593.5 218.5 588.351 218.5 582Z" stroke="#000000" stroke-width="3" stroke-miterlimit="8" fill="#FFFFFF" fill-rule="evenodd"/><path d="M556.5 410C556.5 403.649 561.425 398.5 567.5 398.5 573.575 398.5 578.5 403.649 578.5 410 578.5 416.351 573.575 421.5 567.5 421.5 561.425 421.5 556.5 416.351 556.5 410Z" stroke="#000000" stroke-width="3" stroke-miterlimit="8" fill="#FFFFFF" fill-rule="evenodd"/><path d="M273.5 636.5C273.5 630.425 278.649 625.5 285 625.5 291.351 625.5 296.5 630.425 296.5 636.5 296.5 642.575 291.351 647.5 285 647.5 278.649 647.5 273.5 642.575 273.5 636.5Z" stroke="#000000" stroke-width="3" stroke-miterlimit="8" fill="#FFFFFF" fill-rule="evenodd"/><path d="M240.5 349C240.5 342.649 245.649 337.5 252 337.5 258.351 337.5 263.5 342.649 263.5 349 263.5 355.351 258.351 360.5 252 360.5 245.649 360.5 240.5 355.351 240.5 349Z" stroke="#000000" stroke-width="3" stroke-miterlimit="8" fill="#FFFFFF" fill-rule="evenodd"/><path d="M133.5 464.5C133.5 458.425 138.649 453.5 145 453.5 151.351 453.5 156.5 458.425 156.5 464.5 156.5 470.575 151.351 475.5 145 475.5 138.649 475.5 133.5 470.575 133.5 464.5Z" stroke="#000000" stroke-width="3" stroke-miterlimit="8" fill="#FFFFFF" fill-rule="evenodd"/><path d="M165.5 352C165.5 345.649 170.649 340.5 177 340.5 183.351 340.5 188.5 345.649 188.5 352 188.5 358.351 183.351 363.5 177 363.5 170.649 363.5 165.5 358.351 165.5 352Z" stroke="#000000" stroke-width="3" stroke-miterlimit="8" fill="#FFFFFF" fill-rule="evenodd"/><path d="M431.5 245C431.5 238.649 436.425 233.5 442.5 233.5 448.575 233.5 453.5 238.649 453.5 245 453.5 251.351 448.575 256.5 442.5 256.5 436.425 256.5 431.5 251.351 431.5 245Z" stroke="#000000" stroke-width="3" stroke-miterlimit="8" fill="#FFFFFF" fill-rule="evenodd"/><path d="M429.5 411C429.5 404.649 434.649 399.5 441 399.5 447.351 399.5 452.5 404.649 452.5 411 452.5 417.351 447.351 422.5 441 422.5 434.649 422.5 429.5 417.351 429.5 411Z" stroke="#000000" stroke-width="3" stroke-miterlimit="8" fill="#FFFFFF" fill-rule="evenodd"/><path d="M218.5 582C218.5 575.649 223.425 570.5 229.5 570.5 235.575 570.5 240.5 575.649 240.5 582 240.5 588.351 235.575 593.5 229.5 593.5 223.425 593.5 218.5 588.351 218.5 582Z" stroke="#000000" stroke-width="3" stroke-miterlimit="8" fill="#FFFFFF" fill-rule="evenodd"/><path d="M530.5 163C530.5 156.649 535.649 151.5 542 151.5 548.351 151.5 553.5 156.649 553.5 163 553.5 169.351 548.351 174.5 542 174.5 535.649 174.5 530.5 169.351 530.5 163Z" stroke="#000000" stroke-width="3" stroke-miterlimit="8" fill="#FFFFFF" fill-rule="evenodd"/><path d="M172.5 131C172.5 124.649 177.649 119.5 184 119.5 190.351 119.5 195.5 124.649 195.5 131 195.5 137.351 190.351 142.5 184 142.5 177.649 142.5 172.5 137.351 172.5 131Z" stroke="#000000" stroke-width="3" stroke-miterlimit="8" fill="#FFFFFF" fill-rule="evenodd"/><path d="M281.5 452C281.5 445.649 286.649 440.5 293 440.5 299.351 440.5 304.5 445.649 304.5 452 304.5 458.351 299.351 463.5 293 463.5 286.649 463.5 281.5 458.351 281.5 452Z" stroke="#000000" stroke-width="3" stroke-miterlimit="8" fill="#FFFFFF" fill-rule="evenodd"/><path d="M293.5 280.5C293.5 274.425 298.425 269.5 304.5 269.5 310.575 269.5 315.5 274.425 315.5 280.5 315.5 286.575 310.575 291.5 304.5 291.5 298.425 291.5 293.5 286.575 293.5 280.5Z" stroke="#000000" stroke-width="3" stroke-miterlimit="8" fill="#FFFFFF" fill-rule="evenodd"/><path d="M399.5 304.5C399.5 298.425 404.425 293.5 410.5 293.5 416.575 293.5 421.5 298.425 421.5 304.5 421.5 310.575 416.575 315.5 410.5 315.5 404.425 315.5 399.5 310.575 399.5 304.5Z" stroke="#000000" stroke-width="3" stroke-miterlimit="8" fill="#FFFFFF" fill-rule="evenodd"/><path d="M109.5 394.5C109.5 388.425 114.649 383.5 121 383.5 127.351 383.5 132.5 388.425 132.5 394.5 132.5 400.575 127.351 405.5 121 405.5 114.649 405.5 109.5 400.575 109.5 394.5Z" stroke="#000000" stroke-width="3" stroke-miterlimit="8" fill="#FFFFFF" fill-rule="evenodd"/><path d="M180.5 631C180.5 624.649 185.649 619.5 192 619.5 198.351 619.5 203.5 624.649 203.5 631 203.5 637.351 198.351 642.5 192 642.5 185.649 642.5 180.5 637.351 180.5 631Z" stroke="#000000" stroke-width="3" stroke-miterlimit="8" fill="#00B050" fill-rule="evenodd"/><path d="M220.5 469C220.5 462.649 225.649 457.5 232 457.5 238.351 457.5 243.5 462.649 243.5 469 243.5 475.351 238.351 480.5 232 480.5 225.649 480.5 220.5 475.351 220.5 469Z" stroke="#000000" stroke-width="3" stroke-miterlimit="8" fill="#FFFFFF" fill-rule="evenodd"/><path d="M218.5 582C218.5 575.649 223.425 570.5 229.5 570.5 235.575 570.5 240.5 575.649 240.5 582 240.5 588.351 235.575 593.5 229.5 593.5 223.425 593.5 218.5 588.351 218.5 582Z" stroke="#000000" stroke-width="3" stroke-miterlimit="8" fill="#FFFFFF" fill-rule="evenodd"/><path d="M227.5 211C227.5 204.649 232.649 199.5 239 199.5 245.351 199.5 250.5 204.649 250.5 211 250.5 217.351 245.351 222.5 239 222.5 232.649 222.5 227.5 217.351 227.5 211Z" stroke="#000000" stroke-width="3" stroke-miterlimit="8" fill="#FFFFFF" fill-rule="evenodd"/><path d="M543.5 292C543.5 285.649 548.649 280.5 555 280.5 561.351 280.5 566.5 285.649 566.5 292 566.5 298.351 561.351 303.5 555 303.5 548.649 303.5 543.5 298.351 543.5 292Z" stroke="#000000" stroke-width="3" stroke-miterlimit="8" fill="#FFFFFF" fill-rule="evenodd"/><path d="M343.5 222C343.5 215.649 348.649 210.5 355 210.5 361.351 210.5 366.5 215.649 366.5 222 366.5 228.351 361.351 233.5 355 233.5 348.649 233.5 343.5 228.351 343.5 222Z" stroke="#000000" stroke-width="3" stroke-miterlimit="8" fill="#FFFFFF" fill-rule="evenodd"/><path d="M174.5 280.5C174.5 274.425 179.425 269.5 185.5 269.5 191.575 269.5 196.5 274.425 196.5 280.5 196.5 286.575 191.575 291.5 185.5 291.5 179.425 291.5 174.5 286.575 174.5 280.5Z" stroke="#000000" stroke-width="3" stroke-miterlimit="8" fill="#FFFFFF" fill-rule="evenodd"/><path d="M583.5 531.5C583.5 525.425 588.425 520.5 594.5 520.5 600.575 520.5 605.5 525.425 605.5 531.5 605.5 537.575 600.575 542.5 594.5 542.5 588.425 542.5 583.5 537.575 583.5 531.5Z" stroke="#000000" stroke-width="3" stroke-miterlimit="8" fill="#FFFFFF" fill-rule="evenodd"/><path d="M122.5 614C122.5 607.649 127.425 602.5 133.5 602.5 139.575 602.5 144.5 607.649 144.5 614 144.5 620.351 139.575 625.5 133.5 625.5 127.425 625.5 122.5 620.351 122.5 614Z" stroke="#000000" stroke-width="3" stroke-miterlimit="8" fill="#FFFFFF" fill-rule="evenodd"/><path d="M368.5 132C368.5 125.649 373.649 120.5 380 120.5 386.351 120.5 391.5 125.649 391.5 132 391.5 138.351 386.351 143.5 380 143.5 373.649 143.5 368.5 138.351 368.5 132Z" stroke="#000000" stroke-width="3" stroke-miterlimit="8" fill="#FFFFFF" fill-rule="evenodd"/><path d="M332.5 552C332.5 545.649 337.425 540.5 343.5 540.5 349.575 540.5 354.5 545.649 354.5 552 354.5 558.351 349.575 563.5 343.5 563.5 337.425 563.5 332.5 558.351 332.5 552Z" stroke="#000000" stroke-width="3" stroke-miterlimit="8" fill="#FFFFFF" fill-rule="evenodd"/><path d="M218.5 582C218.5 575.649 223.425 570.5 229.5 570.5 235.575 570.5 240.5 575.649 240.5 582 240.5 588.351 235.575 593.5 229.5 593.5 223.425 593.5 218.5 588.351 218.5 582Z" stroke="#000000" stroke-width="3" stroke-miterlimit="8" fill="#FFFFFF" fill-rule="evenodd"/><path d="M431.5 634.5C431.5 628.425 436.649 623.5 443 623.5 449.351 623.5 454.5 628.425 454.5 634.5 454.5 640.575 449.351 645.5 443 645.5 436.649 645.5 431.5 640.575 431.5 634.5Z" stroke="#000000" stroke-width="3" stroke-miterlimit="8" fill="#FFFFFF" fill-rule="evenodd"/><path d="M213.5 417C213.5 410.649 218.649 405.5 225 405.5 231.351 405.5 236.5 410.649 236.5 417 236.5 423.351 231.351 428.5 225 428.5 218.649 428.5 213.5 423.351 213.5 417Z" stroke="#000000" stroke-width="3" stroke-miterlimit="8" fill="#FFFFFF" fill-rule="evenodd"/><path d="M368.5 474.5C368.5 468.425 373.649 463.5 380 463.5 386.351 463.5 391.5 468.425 391.5 474.5 391.5 480.575 386.351 485.5 380 485.5 373.649 485.5 368.5 480.575 368.5 474.5Z" stroke="#000000" stroke-width="3" stroke-miterlimit="8" fill="#00B050" fill-rule="evenodd"/><path d="M409.5 540.5C409.5 534.425 414.649 529.5 421 529.5 427.351 529.5 432.5 534.425 432.5 540.5 432.5 546.575 427.351 551.5 421 551.5 414.649 551.5 409.5 546.575 409.5 540.5Z" stroke="#000000" stroke-width="3" stroke-miterlimit="8" fill="#ED7D31" fill-rule="evenodd"/><path d="M320.5 383C320.5 376.649 325.649 371.5 332 371.5 338.351 371.5 343.5 376.649 343.5 383 343.5 389.351 338.351 394.5 332 394.5 325.649 394.5 320.5 389.351 320.5 383Z" stroke="#000000" stroke-width="3" stroke-miterlimit="8" fill="#FFFFFF" fill-rule="evenodd"/><path d="M482.5 372C482.5 365.649 487.425 360.5 493.5 360.5 499.575 360.5 504.5 365.649 504.5 372 504.5 378.351 499.575 383.5 493.5 383.5 487.425 383.5 482.5 378.351 482.5 372Z" stroke="#000000" stroke-width="3" stroke-miterlimit="8" fill="#FFFFFF" fill-rule="evenodd"/><path d="M1068 673.5C1061.65 673.5 1056.5 668.575 1056.5 662.5 1056.5 656.425 1061.65 651.5 1068 651.5 1074.35 651.5 1079.5 656.425 1079.5 662.5 1079.5 668.575 1074.35 673.5 1068 673.5Z" stroke="#000000" stroke-width="3" stroke-miterlimit="8" fill="#FFFFFF" fill-rule="evenodd"/><path d="M1058.5 580.5C1052.43 580.5 1047.5 575.351 1047.5 569 1047.5 562.649 1052.43 557.5 1058.5 557.5 1064.58 557.5 1069.5 562.649 1069.5 569 1069.5 575.351 1064.58 580.5 1058.5 580.5Z" stroke="#000000" stroke-width="3" stroke-miterlimit="8" fill="#FFFFFF" fill-rule="evenodd"/><path d="M989 670.5C982.649 670.5 977.5 665.351 977.5 659 977.5 652.649 982.649 647.5 989 647.5 995.351 647.5 1000.5 652.649 1000.5 659 1000.5 665.351 995.351 670.5 989 670.5Z" stroke="#000000" stroke-width="3" stroke-miterlimit="8" fill="#FFFFFF" fill-rule="evenodd"/><path d="M1058.5 436.5C1052.42 436.5 1047.5 431.575 1047.5 425.5 1047.5 419.425 1052.42 414.5 1058.5 414.5 1064.58 414.5 1069.5 419.425 1069.5 425.5 1069.5 431.575 1064.58 436.5 1058.5 436.5Z" stroke="#000000" stroke-width="3" stroke-miterlimit="8" fill="#FFFFFF" fill-rule="evenodd"/><path d="M1106.5 532.5C1100.43 532.5 1095.5 527.351 1095.5 521 1095.5 514.649 1100.43 509.5 1106.5 509.5 1112.58 509.5 1117.5 514.649 1117.5 521 1117.5 527.351 1112.58 532.5 1106.5 532.5Z" stroke="#000000" stroke-width="3" stroke-miterlimit="8" fill="#FFFFFF" fill-rule="evenodd"/><path d="M1216.5 353.5C1210.42 353.5 1205.5 348.575 1205.5 342.5 1205.5 336.425 1210.42 331.5 1216.5 331.5 1222.58 331.5 1227.5 336.425 1227.5 342.5 1227.5 348.575 1222.58 353.5 1216.5 353.5Z" stroke="#000000" stroke-width="3" stroke-miterlimit="8" fill="#FFFFFF" fill-rule="evenodd"/><path d="M1138.5 500.5C1132.43 500.5 1127.5 495.351 1127.5 489 1127.5 482.649 1132.43 477.5 1138.5 477.5 1144.58 477.5 1149.5 482.649 1149.5 489 1149.5 495.351 1144.58 500.5 1138.5 500.5Z" stroke="#000000" stroke-width="3" stroke-miterlimit="8" fill="#FFFFFF" fill-rule="evenodd"/><path d="M966.5 162.5C960.425 162.5 955.5 157.351 955.5 151 955.5 144.649 960.425 139.5 966.5 139.5 972.575 139.5 977.5 144.649 977.5 151 977.5 157.351 972.575 162.5 966.5 162.5Z" stroke="#000000" stroke-width="3" stroke-miterlimit="8" fill="#FFFFFF" fill-rule="evenodd"/><path d="M1193 444.5C1186.65 444.5 1181.5 439.575 1181.5 433.5 1181.5 427.425 1186.65 422.5 1193 422.5 1199.35 422.5 1204.5 427.425 1204.5 433.5 1204.5 439.575 1199.35 444.5 1193 444.5Z" stroke="#000000" stroke-width="3" stroke-miterlimit="8" fill="#FFFFFF" fill-rule="evenodd"/><path d="M905.5 477.5C899.425 477.5 894.5 472.575 894.5 466.5 894.5 460.425 899.425 455.5 905.5 455.5 911.575 455.5 916.5 460.425 916.5 466.5 916.5 472.575 911.575 477.5 905.5 477.5Z" stroke="#000000" stroke-width="3" stroke-miterlimit="8" fill="#FFFFFF" fill-rule="evenodd"/><path d="M1021 584.5C1014.65 584.5 1009.5 579.575 1009.5 573.5 1009.5 567.425 1014.65 562.5 1021 562.5 1027.35 562.5 1032.5 567.425 1032.5 573.5 1032.5 579.575 1027.35 584.5 1021 584.5Z" stroke="#000000" stroke-width="3" stroke-miterlimit="8" fill="#FFFFFF" fill-rule="evenodd"/><path d="M908.5 553.5C902.425 553.5 897.5 548.351 897.5 542 897.5 535.649 902.425 530.5 908.5 530.5 914.575 530.5 919.5 535.649 919.5 542 919.5 548.351 914.575 553.5 908.5 553.5Z" stroke="#000000" stroke-width="3" stroke-miterlimit="8" fill="#FFFFFF" fill-rule="evenodd"/><path d="M801.5 287.5C795.425 287.5 790.5 282.351 790.5 276 790.5 269.649 795.425 264.5 801.5 264.5 807.575 264.5 812.5 269.649 812.5 276 812.5 282.351 807.575 287.5 801.5 287.5Z" stroke="#000000" stroke-width="3" stroke-miterlimit="8" fill="#FFFFFF" fill-rule="evenodd"/><path d="M1106.5 532.5C1100.43 532.5 1095.5 527.351 1095.5 521 1095.5 514.649 1100.43 509.5 1106.5 509.5 1112.58 509.5 1117.5 514.649 1117.5 521 1117.5 527.351 1112.58 532.5 1106.5 532.5Z" stroke="#000000" stroke-width="3" stroke-miterlimit="8" fill="#FFFFFF" fill-rule="evenodd"/><path d="M968 288.5C961.649 288.5 956.5 283.575 956.5 277.5 956.5 271.425 961.649 266.5 968 266.5 974.351 266.5 979.5 271.425 979.5 277.5 979.5 283.575 974.351 288.5 968 288.5Z" stroke="#000000" stroke-width="3" stroke-miterlimit="8" fill="#FFFFFF" fill-rule="evenodd"/><path d="M1138.5 500.5C1132.43 500.5 1127.5 495.351 1127.5 489 1127.5 482.649 1132.43 477.5 1138.5 477.5 1144.58 477.5 1149.5 482.649 1149.5 489 1149.5 495.351 1144.58 500.5 1138.5 500.5Z" stroke="#000000" stroke-width="3" stroke-miterlimit="8" fill="#FFFFFF" fill-rule="evenodd"/><path d="M719 187.5C712.649 187.5 707.5 182.575 707.5 176.5 707.5 170.425 712.649 165.5 719 165.5 725.351 165.5 730.5 170.425 730.5 176.5 730.5 182.575 725.351 187.5 719 187.5Z" stroke="#000000" stroke-width="3" stroke-miterlimit="8" fill="#FFFFFF" fill-rule="evenodd"/><path d="M826.5 661.5C820.425 661.5 815.5 656.351 815.5 650 815.5 643.649 820.425 638.5 826.5 638.5 832.575 638.5 837.5 643.649 837.5 650 837.5 656.351 832.575 661.5 826.5 661.5Z" stroke="#000000" stroke-width="3" stroke-miterlimit="8" fill="#FFFFFF" fill-rule="evenodd"/><path d="M1008.5 436.5C1002.42 436.5 997.5 431.575 997.5 425.5 997.5 419.425 1002.42 414.5 1008.5 414.5 1014.58 414.5 1019.5 419.425 1019.5 425.5 1019.5 431.575 1014.58 436.5 1008.5 436.5Z" stroke="#000000" stroke-width="3" stroke-miterlimit="8" fill="#FFFFFF" fill-rule="evenodd"/><path d="M837 425.5C830.649 425.5 825.5 420.351 825.5 414 825.5 407.649 830.649 402.5 837 402.5 843.351 402.5 848.5 407.649 848.5 414 848.5 420.351 843.351 425.5 837 425.5Z" stroke="#000000" stroke-width="3" stroke-miterlimit="8" fill="#FFFFFF" fill-rule="evenodd"/><path d="M861 319.5C854.649 319.5 849.5 314.351 849.5 308 849.5 301.649 854.649 296.5 861 296.5 867.351 296.5 872.5 301.649 872.5 308 872.5 314.351 867.351 319.5 861 319.5Z" stroke="#000000" stroke-width="3" stroke-miterlimit="8" fill="#FFFFFF" fill-rule="evenodd"/><path d="M951 608.5C944.649 608.5 939.5 603.575 939.5 597.5 939.5 591.425 944.649 586.5 951 586.5 957.351 586.5 962.5 591.425 962.5 597.5 962.5 603.575 957.351 608.5 951 608.5Z" stroke="#000000" stroke-width="3" stroke-miterlimit="8" fill="#FFFFFF" fill-rule="evenodd"/><path d="M1188 537.5C1181.65 537.5 1176.5 532.575 1176.5 526.5 1176.5 520.425 1181.65 515.5 1188 515.5 1194.35 515.5 1199.5 520.425 1199.5 526.5 1199.5 532.575 1194.35 537.5 1188 537.5Z" stroke="#000000" stroke-width="3" stroke-miterlimit="8" fill="#FFFFFF" fill-rule="evenodd"/><path d="M1025.5 498.5C1019.42 498.5 1014.5 493.351 1014.5 487 1014.5 480.649 1019.42 475.5 1025.5 475.5 1031.58 475.5 1036.5 480.649 1036.5 487 1036.5 493.351 1031.58 498.5 1025.5 498.5Z" stroke="#000000" stroke-width="3" stroke-miterlimit="8" fill="#FFFFFF" fill-rule="evenodd"/><path d="M1138.5 500.5C1132.43 500.5 1127.5 495.351 1127.5 489 1127.5 482.649 1132.43 477.5 1138.5 477.5 1144.58 477.5 1149.5 482.649 1149.5 489 1149.5 495.351 1144.58 500.5 1138.5 500.5Z" stroke="#000000" stroke-width="3" stroke-miterlimit="8" fill="#FFFFFF" fill-rule="evenodd"/><path d="M767.5 490.5C761.425 490.5 756.5 485.575 756.5 479.5 756.5 473.425 761.425 468.5 767.5 468.5 773.575 468.5 778.5 473.425 778.5 479.5 778.5 485.575 773.575 490.5 767.5 490.5Z" stroke="#000000" stroke-width="3" stroke-miterlimit="8" fill="#FFFFFF" fill-rule="evenodd"/><path d="M848.5 175.5C842.425 175.5 837.5 170.351 837.5 164 837.5 157.649 842.425 152.5 848.5 152.5 854.575 152.5 859.5 157.649 859.5 164 859.5 170.351 854.575 175.5 848.5 175.5Z" stroke="#000000" stroke-width="3" stroke-miterlimit="8" fill="#FFFFFF" fill-rule="evenodd"/><path d="M779 375.5C772.649 375.5 767.5 370.351 767.5 364 767.5 357.649 772.649 352.5 779 352.5 785.351 352.5 790.5 357.649 790.5 364 790.5 370.351 785.351 375.5 779 375.5Z" stroke="#000000" stroke-width="3" stroke-miterlimit="8" fill="#FFFFFF" fill-rule="evenodd"/><path d="M837 544.5C830.649 544.5 825.5 539.351 825.5 533 825.5 526.649 830.649 521.5 837 521.5 843.351 521.5 848.5 526.649 848.5 533 848.5 539.351 843.351 544.5 837 544.5Z" stroke="#000000" stroke-width="3" stroke-miterlimit="8" fill="#FFFFFF" fill-rule="evenodd"/><path d="M1088 135.5C1081.65 135.5 1076.5 130.351 1076.5 124 1076.5 117.649 1081.65 112.5 1088 112.5 1094.35 112.5 1099.5 117.649 1099.5 124 1099.5 130.351 1094.35 135.5 1088 135.5Z" stroke="#000000" stroke-width="3" stroke-miterlimit="8" fill="#FFFFFF" fill-rule="evenodd"/><path d="M1170.5 596.5C1164.43 596.5 1159.5 591.351 1159.5 585 1159.5 578.649 1164.43 573.5 1170.5 573.5 1176.58 573.5 1181.5 578.649 1181.5 585 1181.5 591.351 1176.58 596.5 1170.5 596.5Z" stroke="#000000" stroke-width="3" stroke-miterlimit="8" fill="#FFFFFF" fill-rule="evenodd"/><path d="M688.5 350.5C682.425 350.5 677.5 345.351 677.5 339 677.5 332.649 682.425 327.5 688.5 327.5 694.575 327.5 699.5 332.649 699.5 339 699.5 345.351 694.575 350.5 688.5 350.5Z" stroke="#000000" stroke-width="3" stroke-miterlimit="8" fill="#FFFFFF" fill-rule="evenodd"/><path d="M1108.5 386.5C1102.43 386.5 1097.5 381.351 1097.5 375 1097.5 368.649 1102.43 363.5 1108.5 363.5 1114.58 363.5 1119.5 368.649 1119.5 375 1119.5 381.351 1114.58 386.5 1108.5 386.5Z" stroke="#000000" stroke-width="3" stroke-miterlimit="8" fill="#FFFFFF" fill-rule="evenodd"/><path d="M1138.5 500.5C1132.43 500.5 1127.5 495.351 1127.5 489 1127.5 482.649 1132.43 477.5 1138.5 477.5 1144.58 477.5 1149.5 482.649 1149.5 489 1149.5 495.351 1144.58 500.5 1138.5 500.5Z" stroke="#000000" stroke-width="3" stroke-miterlimit="8" fill="#FFFFFF" fill-rule="evenodd"/><path d="M1191 287.5C1184.65 287.5 1179.5 282.351 1179.5 276 1179.5 269.649 1184.65 264.5 1191 264.5 1197.35 264.5 1202.5 269.649 1202.5 276 1202.5 282.351 1197.35 287.5 1191 287.5Z" stroke="#000000" stroke-width="3" stroke-miterlimit="8" fill="#FFFFFF" fill-rule="evenodd"/><path d="M973.5 505.5C967.425 505.5 962.5 500.351 962.5 494 962.5 487.649 967.425 482.5 973.5 482.5 979.575 482.5 984.5 487.649 984.5 494 984.5 500.351 979.575 505.5 973.5 505.5Z" stroke="#000000" stroke-width="3" stroke-miterlimit="8" fill="#FFFFFF" fill-rule="evenodd"/><path d="M1031 350.5C1024.65 350.5 1019.5 345.351 1019.5 339 1019.5 332.649 1024.65 327.5 1031 327.5 1037.35 327.5 1042.5 332.649 1042.5 339 1042.5 345.351 1037.35 350.5 1031 350.5Z" stroke="#000000" stroke-width="3" stroke-miterlimit="8" fill="#FFFFFF" fill-rule="evenodd"/><path d="M1097 309.5C1090.65 309.5 1085.5 304.351 1085.5 298 1085.5 291.649 1090.65 286.5 1097 286.5 1103.35 286.5 1108.5 291.649 1108.5 298 1108.5 304.351 1103.35 309.5 1097 309.5Z" stroke="#000000" stroke-width="3" stroke-miterlimit="8" fill="#FFFFFF" fill-rule="evenodd"/><path d="M939.5 397.5C933.425 397.5 928.5 392.575 928.5 386.5 928.5 380.425 933.425 375.5 939.5 375.5 945.575 375.5 950.5 380.425 950.5 386.5 950.5 392.575 945.575 397.5 939.5 397.5Z" stroke="#000000" stroke-width="3" stroke-miterlimit="8" fill="#FFFFFF" fill-rule="evenodd"/><path d="M928 236.5C921.649 236.5 916.5 231.351 916.5 225 916.5 218.649 921.649 213.5 928 213.5 934.351 213.5 939.5 218.649 939.5 225 939.5 231.351 934.351 236.5 928 236.5Z" stroke="#000000" stroke-width="3" stroke-miterlimit="8" fill="#FFFFFF" fill-rule="evenodd"/><path d="M665.5 494.5C665.5 488.425 670.649 483.5 677 483.5 683.351 483.5 688.5 488.425 688.5 494.5 688.5 500.575 683.351 505.5 677 505.5 670.649 505.5 665.5 500.575 665.5 494.5Z" stroke="#000000" stroke-width="3" stroke-miterlimit="8" fill="#FFFFFF" fill-rule="evenodd"/><path d="M692.5 616C692.5 609.649 697.649 604.5 704 604.5 710.351 604.5 715.5 609.649 715.5 616 715.5 622.351 710.351 627.5 704 627.5 697.649 627.5 692.5 622.351 692.5 616Z" stroke="#000000" stroke-width="3" stroke-miterlimit="8" fill="#FFFFFF" fill-rule="evenodd"/><path d="M623.5 255.5C623.5 249.425 628.425 244.5 634.5 244.5 640.575 244.5 645.5 249.425 645.5 255.5 645.5 261.575 640.575 266.5 634.5 266.5 628.425 266.5 623.5 261.575 623.5 255.5Z" stroke="#000000" stroke-width="3" stroke-miterlimit="8" fill="#FFFFFF" fill-rule="evenodd"/><path d="M650.5 377C650.5 370.649 655.425 365.5 661.5 365.5 667.575 365.5 672.5 370.649 672.5 377 672.5 383.351 667.575 388.5 661.5 388.5 655.425 388.5 650.5 383.351 650.5 377Z" stroke="#000000" stroke-width="3" stroke-miterlimit="8" fill="#FFFFFF" fill-rule="evenodd"/><path d="M590.5 650C590.5 643.649 595.649 638.5 602 638.5 608.351 638.5 613.5 643.649 613.5 650 613.5 656.351 608.351 661.5 602 661.5 595.649 661.5 590.5 656.351 590.5 650Z" stroke="#000000" stroke-width="3" stroke-miterlimit="8" fill="#FFFFFF" fill-rule="evenodd"/><path d="M590.5 600C590.5 593.649 595.649 588.5 602 588.5 608.351 588.5 613.5 593.649 613.5 600 613.5 606.351 608.351 611.5 602 611.5 595.649 611.5 590.5 606.351 590.5 600Z" stroke="#000000" stroke-width="3" stroke-miterlimit="8" fill="#FFFFFF" fill-rule="evenodd"/><path d="M529.5 617C529.5 610.649 534.425 605.5 540.5 605.5 546.575 605.5 551.5 610.649 551.5 617 551.5 623.351 546.575 628.5 540.5 628.5 534.425 628.5 529.5 623.351 529.5 617Z" stroke="#000000" stroke-width="3" stroke-miterlimit="8" fill="#00B050" fill-rule="evenodd"/><path d="M517.5 516C517.5 509.649 522.425 504.5 528.5 504.5 534.575 504.5 539.5 509.649 539.5 516 539.5 522.351 534.575 527.5 528.5 527.5 522.425 527.5 517.5 522.351 517.5 516Z" stroke="#000000" stroke-width="3" stroke-miterlimit="8" fill="#FFFFFF" fill-rule="evenodd"/><path d="M517.5 466C517.5 459.649 522.425 454.5 528.5 454.5 534.575 454.5 539.5 459.649 539.5 466 539.5 472.351 534.575 477.5 528.5 477.5 522.425 477.5 517.5 472.351 517.5 466Z" stroke="#000000" stroke-width="3" stroke-miterlimit="8" fill="#FFFFFF" fill-rule="evenodd"/><path d="M455.5 483C455.5 476.649 460.649 471.5 467 471.5 473.351 471.5 478.5 476.649 478.5 483 478.5 489.351 473.351 494.5 467 494.5 460.649 494.5 455.5 489.351 455.5 483Z" stroke="#000000" stroke-width="3" stroke-miterlimit="8" fill="#FFFFFF" fill-rule="evenodd"/><path d="M591.5 108.5C591.5 102.425 596.649 97.5001 603 97.5001 609.351 97.5001 614.5 102.425 614.5 108.5 614.5 114.575 609.351 119.5 603 119.5 596.649 119.5 591.5 114.575 591.5 108.5Z" stroke="#000000" stroke-width="3" stroke-miterlimit="8" fill="#FFFFFF" fill-rule="evenodd"/><path d="M591.5 58.5001C591.5 52.4249 596.649 47.5001 603 47.5001 609.351 47.5001 614.5 52.4249 614.5 58.5001 614.5 64.5752 609.351 69.5001 603 69.5001 596.649 69.5001 591.5 64.5752 591.5 58.5001Z" stroke="#000000" stroke-width="3" stroke-miterlimit="8" fill="#FFFFFF" fill-rule="evenodd"/><path d="M530.5 75.5001C530.5 69.4249 535.425 64.5001 541.5 64.5001 547.575 64.5001 552.5 69.4249 552.5 75.5001 552.5 81.5752 547.575 86.5001 541.5 86.5001 535.425 86.5001 530.5 81.5752 530.5 75.5001Z" stroke="#000000" stroke-width="3" stroke-miterlimit="8" fill="#FFFFFF" fill-rule="evenodd"/><path d="M905.5 85.0001C905.5 78.6488 910.649 73.5001 917 73.5001 923.351 73.5001 928.5 78.6488 928.5 85.0001 928.5 91.3513 923.351 96.5001 917 96.5001 910.649 96.5001 905.5 91.3513 905.5 85.0001Z" stroke="#000000" stroke-width="3" stroke-miterlimit="8" fill="#FFFFFF" fill-rule="evenodd"/><path d="M825.5 85.0001C825.5 78.6488 830.649 73.5001 837 73.5001 843.351 73.5001 848.5 78.6488 848.5 85.0001 848.5 91.3513 843.351 96.5001 837 96.5001 830.649 96.5001 825.5 91.3513 825.5 85.0001Z" stroke="#000000" stroke-width="3" stroke-miterlimit="8" fill="#FFFFFF" fill-rule="evenodd"/><path d="M764.5 102C764.5 95.6488 769.649 90.5001 776 90.5001 782.351 90.5001 787.5 95.6488 787.5 102 787.5 108.351 782.351 113.5 776 113.5 769.649 113.5 764.5 108.351 764.5 102Z" stroke="#000000" stroke-width="3" stroke-miterlimit="8" fill="#FFFFFF" fill-rule="evenodd"/><path d="M1021.5 52.0001C1021.5 45.6488 1026.42 40.5001 1032.5 40.5001 1038.58 40.5001 1043.5 45.6488 1043.5 52.0001 1043.5 58.3513 1038.58 63.5001 1032.5 63.5001 1026.42 63.5001 1021.5 58.3513 1021.5 52.0001Z" stroke="#000000" stroke-width="3" stroke-miterlimit="8" fill="#FFFFFF" fill-rule="evenodd"/><path d="M1025.5 199C1025.5 192.649 1030.42 187.5 1036.5 187.5 1042.58 187.5 1047.5 192.649 1047.5 199 1047.5 205.351 1042.58 210.5 1036.5 210.5 1030.42 210.5 1025.5 205.351 1025.5 199Z" stroke="#000000" stroke-width="3" stroke-miterlimit="8" fill="#FFFFFF" fill-rule="evenodd"/><path d="M1136.5 212C1136.5 205.649 1141.65 200.5 1148 200.5 1154.35 200.5 1159.5 205.649 1159.5 212 1159.5 218.351 1154.35 223.5 1148 223.5 1141.65 223.5 1136.5 218.351 1136.5 212Z" stroke="#000000" stroke-width="3" stroke-miterlimit="8" fill="#FFFFFF" fill-rule="evenodd"/><path d="M1014.5 266.5C1014.5 252.693 1025.47 241.5 1039 241.5 1052.53 241.5 1063.5 252.693 1063.5 266.5 1063.5 280.307 1052.53 291.5 1039 291.5 1025.47 291.5 1014.5 280.307 1014.5 266.5Z" stroke="#000000" stroke-width="3" stroke-miterlimit="8" fill="#2F5597" fill-rule="evenodd"/><text font-family="Cambria Math,Cambria Math_MSFontService,sans-serif" font-weight="400" font-size="21" transform="translate(1028.8 273)">ğµ</text><path d="M308.515 583.395 403.725 670.822 401.696 673.031 306.486 585.605ZM404.649 667.597 408.235 676.999 398.562 674.227Z"/><path d="M1.48726-0.195062 4.24991 20.8689 1.27538 21.259-1.48726 0.195062ZM7.02937 18.9915 3.73795 28.5003-1.89421 20.1619Z" transform="matrix(1 0 0 -1 289.5 542)"/><path d="M0.387374-1.44912 20.0745 3.81359 19.2997 6.71183-0.387374 1.44912ZM19.4001 0.527982 26.9327 7.19958 17.0759 9.22269Z" transform="matrix(-1 0 0 1 264.433 566.5)"/><path d="M2.14974-2.09251 56.3682 53.6088 52.0688 57.7938-2.14974 2.09251ZM58.5752 47.274 64.681 66.45 45.6767 59.8291Z" fill="#00B050" transform="matrix(1 0 0 -1 307 548.45)"/><path d="M0.460478-1.42757 14.5198 3.10741 13.5988 5.96255-0.460478 1.42757ZM14.0132-0.208209 21.1972 6.83738 11.2503 8.35722Z" transform="matrix(1 0 0 -1 314.5 566.337)"/><path d="M270.203 550.099 233.971 487.738 236.565 486.231 272.797 548.592ZM232.13 490.543 231.5 480.5 239.912 486.021Z"/><path d="M314.682 563.079 514.908 609.856 513.543 615.698 313.318 568.921ZM513.352 603.331 528.832 616.19 509.257 620.859Z" fill="#7030A0"/><path d="M421.934 551.06 441.652 615.297 438.784 616.177 419.066 551.94ZM444.08 612.982 442.419 622.907 435.476 615.623Z"/><path d="M429.254 547.203 526.503 603.774 524.995 606.367 427.746 549.797ZM526.715 600.427 532.232 608.842 522.19 608.206Z"/><path d="M0.832829-1.24756 114.422 74.5812 112.757 77.0764-0.832829 1.24756ZM114.84 71.2533 119.827 79.993 109.843 78.7387Z" transform="matrix(-1 0 0 1 412.327 548.5)"/><path d="M1.21405-0.880954 27.0071 34.6646 24.579 36.4265-1.21405 0.880954ZM28.5542 31.6887 30.1978 41.6159 21.2699 36.9744Z" transform="matrix(1 0 0 -1 428.5 532.116)"/><path d="M412.328 533.344 306.97 464.846 308.606 462.331 413.963 530.829ZM306.593 468.178 301.5 459.5 311.498 460.633Z"/><path d="M388.724 481.633 417.428 522.147 414.98 523.881 386.276 483.367ZM419.009 519.189 420.54 529.134 411.665 524.392Z"/><path d="M1.43193-2.63621 59.9194 29.1329 57.0556 34.4053-1.43193 2.63621ZM60.1471 22.4285 71.6686 38.9287 51.5555 38.2458Z" fill="#00B050" transform="matrix(-1 0 0 1 271.669 584)"/><path d="M271.145 549.083 184.584 149.087 185.236 148.946 271.797 548.942ZM181.283 151.165 183.5 142.5 189.102 149.473Z"/><path d="M264.5 566.5C264.5 552.693 275.693 541.5 289.5 541.5 303.307 541.5 314.5 552.693 314.5 566.5 314.5 580.307 303.307 591.5 289.5 591.5 275.693 591.5 264.5 580.307 264.5 566.5Z" stroke="#000000" stroke-width="3" stroke-miterlimit="8" fill="#00B050" fill-rule="evenodd"/><text font-family="Cambria Math,Cambria Math_MSFontService,sans-serif" font-weight="400" font-size="21" transform="translate(279.651 573)">ğ´</text><path d="M1.08366-1.03715 41.1652 40.8419 38.9979 42.9162-1.08366 1.03715ZM42.2954 37.6839 45.2673 47.2973 35.7934 43.9068Z" transform="matrix(1 0 0 -1 387.5 466.797)"/><path d="M0.329545-0.0501119 22.229 143.964 21.5699 144.065-0.329545 0.0501119ZM25.6535 142.095 22.9016 150.605 17.7444 143.298Z" transform="matrix(1 0 0 -1 379.5 463.105)"/><path d="M0.292735-0.159428 34.9236 63.4286 34.3382 63.7475-0.292735 0.159428ZM37.506 60.5039 37.8194 69.4427 30.4803 64.3302Z" transform="matrix(1 0 0 -1 548.5 608.943)"/><path d="M0.12174-0.310307 158.894 61.9794 158.65 62.6001-0.12174 0.310307ZM158.991 58.079 164.978 64.7244 156.07 65.5263Z" transform="matrix(1 0 0 -1 391.5 474.224)"/><path d="M0.0143476-2.99997 126.011-2.39737 125.982 3.60256-0.0143476 2.99997ZM123.04-8.41165 140.997 0.674331 122.954 9.58814Z" transform="matrix(1 0 0 -1 551 616.674)"/><path d="M715.961 613.158 801.422 642.057 799.5 647.74 714.039 618.842ZM800.502 635.412 814.671 649.703 794.736 652.463Z"/><rect x="0" y="0" width="101" height="365" stroke="#000000" stroke-width="4" stroke-miterlimit="8" fill="#FFFFFF"/><path d="M33.5001 39.0001C33.5001 28.7828 42.0066 20.5001 52.5001 20.5001 62.9935 20.5001 71.5001 28.7828 71.5001 39.0001 71.5001 49.2173 62.9935 57.5 52.5001 57.5 42.0066 57.5 33.5001 49.2173 33.5001 39.0001Z" stroke="#000000" stroke-width="3" stroke-miterlimit="8" fill="#FFFFFF" fill-rule="evenodd"/><text font-family="Calibri,Calibri_MSFontService,sans-serif" font-weight="400" font-size="19" transform="translate(14.3169 85)">excitatory<tspan font-size="19" x="10.06" y="22">neuron</tspan></text><path d="M30.5001 232.5C30.5001 222.007 39.0066 213.5 49.5001 213.5 59.9935 213.5 68.5001 222.007 68.5001 232.5 68.5001 242.993 59.9935 251.5 49.5001 251.5 39.0066 251.5 30.5001 242.993 30.5001 232.5Z" stroke="#000000" stroke-width="3" stroke-miterlimit="8" fill="#00B050" fill-rule="evenodd"/><text font-family="Calibri,Calibri_MSFontService,sans-serif" font-weight="400" font-size="19" transform="translate(31.4365 267)">start</text><path d="M30.5001 316C30.5001 305.783 39.0066 297.5 49.5001 297.5 59.9935 297.5 68.5001 305.783 68.5001 316 68.5001 326.217 59.9935 334.5 49.5001 334.5 39.0066 334.5 30.5001 326.217 30.5001 316Z" stroke="#000000" stroke-width="3" stroke-miterlimit="8" fill="#2F5597" fill-rule="evenodd"/><text font-family="Calibri,Calibri_MSFontService,sans-serif" font-weight="400" font-size="19" transform="translate(26.1699 350)">target</text><path d="M33.5001 135.5C33.5001 125.007 42.0066 116.5 52.5001 116.5 62.9935 116.5 71.5001 125.007 71.5001 135.5 71.5001 145.993 62.9935 154.5 52.5001 154.5 42.0066 154.5 33.5001 145.993 33.5001 135.5Z" stroke="#000000" stroke-width="3" stroke-miterlimit="8" fill="#ED7D31" fill-rule="evenodd"/><text font-family="Calibri,Calibri_MSFontService,sans-serif" font-weight="400" font-size="19" transform="translate(15.017 181)">inhibitory<tspan font-size="19" x="9.36" y="22">neuron</tspan></text><rect x="174" y="31" width="758" height="57" stroke="#000000" stroke-width="2" stroke-miterlimit="8" fill="#FFFFFF"/><text font-family="Calibri,Calibri_MSFontService,sans-serif" font-weight="400" font-size="24" transform="translate(506.829 67)">5. Repeat</text></g></svg>